<?xml version="1.0" encoding="UTF-8"?><svg xmlns="http://www.w3.org/2000/svg" xmlns:xlink="http://www.w3.org/1999/xlink" fill-opacity="1" color-rendering="auto" color-interpolation="auto" text-rendering="auto" stroke="black" stroke-linecap="square" width="2407" stroke-miterlimit="10" shape-rendering="auto" stroke-opacity="1" fill="black" stroke-dasharray="none" font-weight="normal" stroke-width="1" height="1612" font-family="'Dialog'" font-style="normal" stroke-linejoin="miter" font-size="12px" stroke-dashoffset="0" image-rendering="auto">
  <!--Generated by ySVG 2.5-->
  <defs id="genericDefs"/>
  <g>
    <defs id="defs1">
      <clipPath clipPathUnits="userSpaceOnUse" id="clipPath1">
        <path d="M0 0 L2407 0 L2407 1612 L0 1612 L0 0 Z"/>
      </clipPath>
      <clipPath clipPathUnits="userSpaceOnUse" id="clipPath2">
        <path d="M-140 -421 L2267 -421 L2267 1191 L-140 1191 L-140 -421 Z"/>
      </clipPath>
    </defs>
    <g fill="white" text-rendering="geometricPrecision" shape-rendering="geometricPrecision" transform="translate(140,421)" stroke="white">
      <rect x="-140" width="2407" height="1612" y="-421" clip-path="url(#clipPath2)" stroke="none"/>
    </g>
    <g fill="rgb(51,153,102)" text-rendering="geometricPrecision" shape-rendering="geometricPrecision" transform="matrix(1,0,0,1,140,421)" stroke="rgb(51,153,102)">
      <rect x="-124.1289" width="214.3587" height="314.9983" y="-395.9406" clip-path="url(#clipPath2)" stroke="none"/>
    </g>
    <g stroke-linecap="butt" transform="matrix(1,0,0,1,140,421)" text-rendering="geometricPrecision" font-family="sans-serif" shape-rendering="geometricPrecision" font-weight="bold" stroke-miterlimit="1.45">
      <text x="-29.9456" xml:space="preserve" y="-255.7793" clip-path="url(#clipPath2)" stroke="none">FMC</text>
      <text x="-18.6165" xml:space="preserve" y="-241.0782" clip-path="url(#clipPath2)" stroke="none"> </text>
      <text x="-57.9681" xml:space="preserve" y="-226.377" clip-path="url(#clipPath2)" stroke="none">EEPROM 0x50</text>
      <text x="-58.6448" xml:space="preserve" y="-211.6758" clip-path="url(#clipPath2)" stroke="none">MCP9801 0x48</text>
      <rect fill="none" x="-124.1289" width="214.3587" height="314.9983" y="-395.9406" clip-path="url(#clipPath2)"/>
    </g>
    <g fill="rgb(51,204,204)" text-rendering="geometricPrecision" shape-rendering="geometricPrecision" transform="matrix(1,0,0,1,140,421)" stroke="rgb(51,204,204)">
      <rect x="1914.6486" width="336.8456" height="336.0472" y="-360.5123" clip-path="url(#clipPath2)" stroke="none"/>
    </g>
    <g font-size="30px" stroke-linecap="butt" transform="matrix(1,0,0,1,140,421)" text-rendering="geometricPrecision" font-family="sans-serif" shape-rendering="geometricPrecision" font-weight="bold" stroke-miterlimit="1.45">
      <text x="2050.5811" xml:space="preserve" y="-373.1041" clip-path="url(#clipPath2)" stroke="none">RTM</text>
    </g>
    <g text-rendering="geometricPrecision" stroke-miterlimit="1.45" stroke-width="3" shape-rendering="geometricPrecision" transform="matrix(1,0,0,1,140,421)" stroke-linecap="butt">
      <rect fill="none" x="1914.6486" width="336.8456" height="336.0472" y="-360.5123" clip-path="url(#clipPath2)"/>
    </g>
    <g fill="rgb(255,204,153)" text-rendering="geometricPrecision" shape-rendering="geometricPrecision" transform="matrix(1,0,0,1,140,421)" stroke="rgb(255,204,153)">
      <rect x="1902.0375" width="349.4568" height="444.345" y="730.9006" clip-path="url(#clipPath2)" stroke="none"/>
    </g>
    <g font-size="30px" stroke-linecap="butt" transform="matrix(1,0,0,1,140,421)" text-rendering="geometricPrecision" font-family="sans-serif" shape-rendering="geometricPrecision" font-weight="bold" stroke-miterlimit="1.45">
      <text x="2042.6057" xml:space="preserve" y="718.3088" clip-path="url(#clipPath2)" stroke="none">AMC</text>
    </g>
    <g text-rendering="geometricPrecision" stroke-miterlimit="1.45" stroke-width="3" shape-rendering="geometricPrecision" transform="matrix(1,0,0,1,140,421)" stroke-linecap="butt">
      <rect fill="none" x="1902.0375" width="349.4568" height="444.345" y="730.9006" clip-path="url(#clipPath2)"/>
    </g>
    <g fill="rgb(255,102,0)" text-rendering="geometricPrecision" shape-rendering="geometricPrecision" transform="matrix(1,0,0,1,140,421)" stroke="rgb(255,102,0)">
      <rect x="662.3805" width="449.7395" height="472.2093" y="97.2627" clip-path="url(#clipPath2)" stroke="none"/>
    </g>
    <g font-size="30px" stroke-linecap="butt" transform="matrix(1,0,0,1,140,421)" text-rendering="geometricPrecision" font-family="sans-serif" shape-rendering="geometricPrecision" font-weight="bold" stroke-miterlimit="1.45">
      <text x="845.5828" xml:space="preserve" y="245.3219" clip-path="url(#clipPath2)" stroke="none">FPGA</text>
      <text x="795.5583" xml:space="preserve" y="282.0748" clip-path="url(#clipPath2)" stroke="none">Xilinx Artix-7</text>
    </g>
    <g text-rendering="geometricPrecision" stroke-miterlimit="1.45" stroke-width="3" shape-rendering="geometricPrecision" transform="matrix(1,0,0,1,140,421)" stroke-linecap="butt">
      <rect fill="none" x="662.3805" width="449.7395" height="472.2093" y="97.2627" clip-path="url(#clipPath2)"/>
    </g>
    <g fill="silver" text-rendering="geometricPrecision" shape-rendering="geometricPrecision" transform="matrix(1,0,0,1,140,421)" stroke="silver">
      <circle r="15" clip-path="url(#clipPath2)" cx="1917.0375" cy="132.7281" stroke="none"/>
    </g>
    <g text-rendering="geometricPrecision" stroke-miterlimit="1.45" shape-rendering="geometricPrecision" transform="matrix(1,0,0,1,140,421)" stroke-linecap="butt">
      <circle fill="none" r="15" clip-path="url(#clipPath2)" cx="1917.0375" cy="132.7281"/>
    </g>
    <g fill="silver" text-rendering="geometricPrecision" shape-rendering="geometricPrecision" transform="matrix(1,0,0,1,140,421)" stroke="silver">
      <rect x="-5.1173" width="105.684" height="333.745" y="303.1292" clip-path="url(#clipPath2)" stroke="none"/>
    </g>
    <g text-rendering="geometricPrecision" stroke-miterlimit="1.45" shape-rendering="geometricPrecision" transform="matrix(1,0,0,1,140,421)" stroke-linecap="butt">
      <rect fill="none" x="-5.1173" width="105.684" height="333.745" y="303.1292" clip-path="url(#clipPath2)"/>
      <text x="22.3917" xml:space="preserve" y="474.7156" clip-path="url(#clipPath2)" font-family="sans-serif" stroke="none">MMC I2C</text>
      <text x="7.6215" xml:space="preserve" y="279.7914" clip-path="url(#clipPath2)" font-family="sans-serif" stroke="none">1110 A2 A1 0</text>
      <text x="19.2992" xml:space="preserve" y="294.4925" clip-path="url(#clipPath2)" font-family="sans-serif" stroke="none">def: 0x70</text>
    </g>
    <g fill="silver" text-rendering="geometricPrecision" shape-rendering="geometricPrecision" transform="matrix(1,0,0,1,140,421)" stroke="silver">
      <rect x="298.0524" width="105.684" height="333.745" y="303.1292" clip-path="url(#clipPath2)" stroke="none"/>
    </g>
    <g text-rendering="geometricPrecision" stroke-miterlimit="1.45" shape-rendering="geometricPrecision" transform="matrix(1,0,0,1,140,421)" stroke-linecap="butt">
      <rect fill="none" x="298.0524" width="105.684" height="333.745" y="303.1292" clip-path="url(#clipPath2)"/>
      <text x="323.5545" xml:space="preserve" y="474.7156" clip-path="url(#clipPath2)" font-family="sans-serif" stroke="none">FPGA I2C</text>
      <text x="316.8229" xml:space="preserve" y="279.7914" clip-path="url(#clipPath2)" font-family="sans-serif" stroke="none">1110 A2 A1 1</text>
      <text x="328.5007" xml:space="preserve" y="294.4925" clip-path="url(#clipPath2)" font-family="sans-serif" stroke="none">def: 0x71</text>
    </g>
    <g fill="rgb(255,204,0)" text-rendering="geometricPrecision" shape-rendering="geometricPrecision" transform="matrix(1,0,0,1,140,421)" stroke="rgb(255,204,0)">
      <rect x="419.2617" width="186.0886" height="184.1046" y="-123.9279" clip-path="url(#clipPath2)" stroke="none"/>
    </g>
    <g text-rendering="geometricPrecision" stroke-miterlimit="1.45" shape-rendering="geometricPrecision" transform="matrix(1,0,0,1,140,421)" stroke-linecap="butt">
      <rect fill="none" x="419.2617" width="186.0886" height="184.1046" y="-123.9279" clip-path="url(#clipPath2)"/>
      <text x="500.6341" xml:space="preserve" y="-49.2134" clip-path="url(#clipPath2)" font-family="sans-serif" stroke="none">LPC</text>
      <text x="510.639" xml:space="preserve" y="-34.5123" clip-path="url(#clipPath2)" font-family="sans-serif" stroke="none"> </text>
      <text x="480.7826" xml:space="preserve" y="-19.8111" clip-path="url(#clipPath2)" font-family="sans-serif" stroke="none">A2 = P2[28]</text>
      <text x="480.7826" xml:space="preserve" y="-5.1099" clip-path="url(#clipPath2)" font-family="sans-serif" stroke="none">A1 = P1[29]</text>
    </g>
    <g fill="rgb(255,204,0)" text-rendering="geometricPrecision" shape-rendering="geometricPrecision" transform="matrix(1,0,0,1,140,421)" stroke="rgb(255,204,0)">
      <rect x="527.3519" width="175.1634" height="215.7452" y="911.2172" clip-path="url(#clipPath2)" stroke="none"/>
    </g>
    <g text-rendering="geometricPrecision" stroke-miterlimit="1.45" shape-rendering="geometricPrecision" transform="matrix(1,0,0,1,140,421)" stroke-linecap="butt">
      <rect fill="none" x="527.3519" width="175.1634" height="215.7452" y="911.2172" clip-path="url(#clipPath2)"/>
      <text x="592.9229" xml:space="preserve" y="964.999" clip-path="url(#clipPath2)" font-family="sans-serif" stroke="none">Sensors</text>
      <text x="613.2666" xml:space="preserve" y="979.7001" clip-path="url(#clipPath2)" font-family="sans-serif" stroke="none"> </text>
      <text x="572.2393" xml:space="preserve" y="994.4013" clip-path="url(#clipPath2)" font-family="sans-serif" stroke="none">MAX6642: 0x24</text>
      <text x="582.915" xml:space="preserve" y="1009.1025" clip-path="url(#clipPath2)" font-family="sans-serif" stroke="none">LM75: 0x4B</text>
      <text x="583.5801" xml:space="preserve" y="1023.8036" clip-path="url(#clipPath2)" font-family="sans-serif" stroke="none">LM75: 0x49</text>
      <text x="582.915" xml:space="preserve" y="1038.5049" clip-path="url(#clipPath2)" font-family="sans-serif" stroke="none">LM75: 0x4A</text>
      <text x="583.252" xml:space="preserve" y="1053.2061" clip-path="url(#clipPath2)" font-family="sans-serif" stroke="none">LM75: 0x4F</text>
      <text x="572.585" xml:space="preserve" y="1067.9072" clip-path="url(#clipPath2)" font-family="sans-serif" stroke="none">EEPROM: 0x51</text>
      <text x="580.5889" xml:space="preserve" y="1082.6084" clip-path="url(#clipPath2)" font-family="sans-serif" stroke="none">EUI-ID: 0x59</text>
    </g>
    <g fill="rgb(0,204,255)" text-rendering="geometricPrecision" shape-rendering="geometricPrecision" transform="matrix(1,0,0,1,140,421)" stroke="rgb(0,204,255)">
      <rect x="-105.3286" width="158.9606" height="68.4402" y="920.4343" clip-path="url(#clipPath2)" stroke="none"/>
    </g>
    <g text-rendering="geometricPrecision" stroke-miterlimit="1.45" shape-rendering="geometricPrecision" transform="matrix(1,0,0,1,140,421)" stroke-linecap="butt">
      <rect fill="none" x="-105.3286" width="158.9606" height="68.4402" y="920.4343" clip-path="url(#clipPath2)"/>
      <text x="-40.8541" xml:space="preserve" y="937.3165" clip-path="url(#clipPath2)" font-family="sans-serif" stroke="none">SFP1</text>
      <text x="-27.5153" xml:space="preserve" y="952.0176" clip-path="url(#clipPath2)" font-family="sans-serif" stroke="none"> </text>
      <text x="-68.1969" xml:space="preserve" y="966.7188" clip-path="url(#clipPath2)" font-family="sans-serif" stroke="none">EEPROM: 0x50</text>
      <text x="-59.191" xml:space="preserve" y="981.42" clip-path="url(#clipPath2)" font-family="sans-serif" stroke="none">DDMII: 0x51</text>
    </g>
    <g fill="rgb(0,204,255)" text-rendering="geometricPrecision" shape-rendering="geometricPrecision" transform="matrix(1,0,0,1,140,421)" stroke="rgb(0,204,255)">
      <rect x="-105.3286" width="158.9606" height="68.4402" y="1045.1659" clip-path="url(#clipPath2)" stroke="none"/>
    </g>
    <g text-rendering="geometricPrecision" stroke-miterlimit="1.45" shape-rendering="geometricPrecision" transform="matrix(1,0,0,1,140,421)" stroke-linecap="butt">
      <rect fill="none" x="-105.3286" width="158.9606" height="68.4402" y="1045.1659" clip-path="url(#clipPath2)"/>
      <text x="-40.8541" xml:space="preserve" y="1062.0481" clip-path="url(#clipPath2)" font-family="sans-serif" stroke="none">SFP2</text>
      <text x="-27.5153" xml:space="preserve" y="1076.7493" clip-path="url(#clipPath2)" font-family="sans-serif" stroke="none"> </text>
      <text x="-68.1969" xml:space="preserve" y="1091.4504" clip-path="url(#clipPath2)" font-family="sans-serif" stroke="none">EEPROM: 0x50</text>
      <text x="-59.191" xml:space="preserve" y="1106.1516" clip-path="url(#clipPath2)" font-family="sans-serif" stroke="none">DDMII: 0x51</text>
    </g>
    <g fill="rgb(255,204,0)" text-rendering="geometricPrecision" shape-rendering="geometricPrecision" transform="matrix(1,0,0,1,140,421)" stroke="rgb(255,204,0)">
      <rect x="1205.5415" width="303.5471" height="166.4127" y="643.7601" clip-path="url(#clipPath2)" stroke="none"/>
    </g>
    <g text-rendering="geometricPrecision" stroke-miterlimit="1.45" shape-rendering="geometricPrecision" transform="matrix(1,0,0,1,140,421)" stroke-linecap="butt">
      <rect fill="none" x="1205.5415" width="303.5471" height="166.4127" y="643.7601" clip-path="url(#clipPath2)"/>
      <text x="1328.3199" xml:space="preserve" y="702.278" clip-path="url(#clipPath2)" font-family="sans-serif" stroke="none">PWR MGT</text>
      <text x="1355.6481" xml:space="preserve" y="716.9792" clip-path="url(#clipPath2)" font-family="sans-serif" stroke="none"> </text>
      <text x="1307.9615" xml:space="preserve" y="731.6804" clip-path="url(#clipPath2)" font-family="sans-serif" stroke="none">INA219 RTM 0x40</text>
      <text x="1307.9615" xml:space="preserve" y="746.3815" clip-path="url(#clipPath2)" font-family="sans-serif" stroke="none">INA219 FMC 0x41</text>
      <text x="1317.6178" xml:space="preserve" y="761.0827" clip-path="url(#clipPath2)" font-family="sans-serif" stroke="none">XR77129 0x28</text>
    </g>
    <g fill="rgb(255,204,0)" text-rendering="geometricPrecision" shape-rendering="geometricPrecision" transform="matrix(1,0,0,1,140,421)" stroke="rgb(255,204,0)">
      <rect x="1130.7012" width="303.5471" height="166.4127" y="866.417" clip-path="url(#clipPath2)" stroke="none"/>
    </g>
    <g text-rendering="geometricPrecision" stroke-miterlimit="1.45" shape-rendering="geometricPrecision" transform="matrix(1,0,0,1,140,421)" stroke-linecap="butt">
      <rect fill="none" x="1130.7012" width="303.5471" height="166.4127" y="866.417" clip-path="url(#clipPath2)"/>
      <text x="1222.4484" xml:space="preserve" y="939.636" clip-path="url(#clipPath2)" font-family="sans-serif" stroke="none">Si5324 Clock recovery</text>
      <text x="1280.8077" xml:space="preserve" y="954.3372" clip-path="url(#clipPath2)" font-family="sans-serif" stroke="none"> </text>
      <text x="1269.464" xml:space="preserve" y="969.0383" clip-path="url(#clipPath2)" font-family="sans-serif" stroke="none">0x68</text>
    </g>
    <g fill="silver" text-rendering="geometricPrecision" shape-rendering="geometricPrecision" transform="matrix(1,0,0,1,140,421)" stroke="silver">
      <ellipse rx="8.533" ry="9.6878" clip-path="url(#clipPath2)" cx="223.4017" cy="454.0804" stroke="none"/>
    </g>
    <g text-rendering="geometricPrecision" stroke-miterlimit="1.45" shape-rendering="geometricPrecision" transform="matrix(1,0,0,1,140,421)" stroke-linecap="butt">
      <ellipse rx="8.533" fill="none" ry="9.6878" clip-path="url(#clipPath2)" cx="223.4017" cy="454.0804"/>
    </g>
    <g fill="silver" text-rendering="geometricPrecision" shape-rendering="geometricPrecision" transform="matrix(1,0,0,1,140,421)" stroke="silver">
      <ellipse rx="8.533" ry="9.6878" clip-path="url(#clipPath2)" cx="255.4196" cy="495.5554" stroke="none"/>
    </g>
    <g text-rendering="geometricPrecision" stroke-miterlimit="1.45" shape-rendering="geometricPrecision" transform="matrix(1,0,0,1,140,421)" stroke-linecap="butt">
      <ellipse rx="8.533" fill="none" ry="9.6878" clip-path="url(#clipPath2)" cx="255.4196" cy="495.5554"/>
    </g>
    <g fill="silver" text-rendering="geometricPrecision" shape-rendering="geometricPrecision" transform="matrix(1,0,0,1,140,421)" stroke="silver">
      <ellipse rx="8.533" ry="9.6878" clip-path="url(#clipPath2)" cx="194.2817" cy="541.7606" stroke="none"/>
    </g>
    <g text-rendering="geometricPrecision" stroke-miterlimit="1.45" shape-rendering="geometricPrecision" transform="matrix(1,0,0,1,140,421)" stroke-linecap="butt">
      <ellipse rx="8.533" fill="none" ry="9.6878" clip-path="url(#clipPath2)" cx="194.2817" cy="541.7606"/>
    </g>
    <g fill="silver" text-rendering="geometricPrecision" shape-rendering="geometricPrecision" transform="matrix(1,0,0,1,140,421)" stroke="silver">
      <ellipse rx="8.533" ry="9.6878" clip-path="url(#clipPath2)" cx="165.3652" cy="580.107" stroke="none"/>
    </g>
    <g text-rendering="geometricPrecision" stroke-miterlimit="1.45" shape-rendering="geometricPrecision" transform="matrix(1,0,0,1,140,421)" stroke-linecap="butt">
      <ellipse rx="8.533" fill="none" ry="9.6878" clip-path="url(#clipPath2)" cx="165.3652" cy="580.107"/>
    </g>
    <g fill="silver" text-rendering="geometricPrecision" shape-rendering="geometricPrecision" transform="matrix(1,0,0,1,140,421)" stroke="silver">
      <ellipse rx="8.533" ry="9.6878" clip-path="url(#clipPath2)" cx="135.5582" cy="616.7337" stroke="none"/>
    </g>
    <g text-rendering="geometricPrecision" stroke-miterlimit="1.45" shape-rendering="geometricPrecision" transform="matrix(1,0,0,1,140,421)" stroke-linecap="butt">
      <ellipse rx="8.533" fill="none" ry="9.6878" clip-path="url(#clipPath2)" cx="135.5582" cy="616.7337"/>
    </g>
    <g fill="silver" text-rendering="geometricPrecision" shape-rendering="geometricPrecision" transform="matrix(1,0,0,1,140,421)" stroke="silver">
      <ellipse rx="8.533" ry="9.6878" clip-path="url(#clipPath2)" cx="229.1061" cy="338.9177" stroke="none"/>
    </g>
    <g text-rendering="geometricPrecision" stroke-miterlimit="1.45" shape-rendering="geometricPrecision" transform="matrix(1,0,0,1,140,421)" stroke-linecap="butt">
      <ellipse rx="8.533" fill="none" ry="9.6878" clip-path="url(#clipPath2)" cx="229.1061" cy="338.9177"/>
    </g>
    <g fill="silver" text-rendering="geometricPrecision" shape-rendering="geometricPrecision" transform="matrix(1,0,0,1,140,421)" stroke="silver">
      <ellipse rx="8.533" ry="9.6878" clip-path="url(#clipPath2)" cx="156.4862" cy="379.372" stroke="none"/>
    </g>
    <g text-rendering="geometricPrecision" stroke-miterlimit="1.45" shape-rendering="geometricPrecision" transform="matrix(1,0,0,1,140,421)" stroke-linecap="butt">
      <ellipse rx="8.533" fill="none" ry="9.6878" clip-path="url(#clipPath2)" cx="156.4862" cy="379.372"/>
    </g>
    <g stroke-linecap="butt" transform="matrix(1,0,0,1,140,421)" fill="silver" text-rendering="geometricPrecision" shape-rendering="geometricPrecision" stroke="silver" stroke-width="7" stroke-miterlimit="1.45">
      <path d="M111.205 -193.0126 L90.205 -184.2626 L111.205 -175.5126 L108.055 -180.7626 L153.3742 -180.7626 L153.3742 375.2999 L118.4313 375.2999 L121.5813 370.0499 L100.5813 378.7999 L121.5813 387.5499 L118.4313 382.2999 L160.3742 382.2999 L160.3742 378.7999 L160.3742 -184.2626 L160.3742 -187.7626 L108.055 -187.7626 L111.205 -193.0126 Z" stroke="none" clip-path="url(#clipPath2)"/>
      <path fill="none" d="M111.205 -193.0126 L90.205 -184.2626 L111.205 -175.5126 L108.055 -180.7626 L153.3742 -180.7626 L153.3742 375.2999 L118.4313 375.2999 L121.5813 370.0499 L100.5813 378.7999 L121.5813 387.5499 L118.4313 382.2999 L160.3742 382.2999 L160.3742 378.7999 L160.3742 -184.2626 L160.3742 -187.7626 L108.055 -187.7626 L111.205 -193.0126 Z" stroke-width="1" clip-path="url(#clipPath2)" stroke="black"/>
    </g>
    <g font-size="18px" stroke-linecap="butt" transform="matrix(1,0,0,1,140,421)" text-rendering="geometricPrecision" font-family="sans-serif" shape-rendering="geometricPrecision" font-weight="bold" stroke-miterlimit="1.45">
      <text x="0.7536" xml:space="preserve" y="386.7021" clip-path="url(#clipPath2)" stroke="none">MUX Port 0</text>
    </g>
    <g stroke-linecap="butt" transform="matrix(1,0,0,1,140,421)" fill="silver" text-rendering="geometricPrecision" shape-rendering="geometricPrecision" stroke="silver" stroke-width="7" stroke-miterlimit="1.45">
      <path d="M277.0537 487.2919 L280.2037 492.5419 L118.3851 492.5419 L121.5351 487.2919 L121.5351 487.2919 L100.5351 496.0419 L121.5351 504.7919 L118.3851 499.5419 L280.2037 499.5419 L277.0537 504.7919 L298.0537 496.0419 L277.0537 487.2919 Z" stroke="none" clip-path="url(#clipPath2)"/>
      <path fill="none" d="M277.0537 487.2919 L280.2037 492.5419 L118.3851 492.5419 L121.5351 487.2919 L121.5351 487.2919 L100.5351 496.0419 L121.5351 504.7919 L118.3851 499.5419 L280.2037 499.5419 L277.0537 504.7919 L298.0537 496.0419 L277.0537 487.2919 Z" stroke-width="1" clip-path="url(#clipPath2)" stroke="black"/>
    </g>
    <g font-size="18px" stroke-linecap="butt" transform="matrix(1,0,0,1,140,421)" text-rendering="geometricPrecision" font-family="sans-serif" shape-rendering="geometricPrecision" font-weight="bold" stroke-miterlimit="1.45">
      <text x="-0.1105" xml:space="preserve" y="500.7006" clip-path="url(#clipPath2)" stroke="none">MUX Port 5</text>
    </g>
    <g stroke-linecap="butt" transform="matrix(1,0,0,1,140,421)" fill="silver" text-rendering="geometricPrecision" shape-rendering="geometricPrecision" stroke="silver" stroke-width="7" stroke-miterlimit="1.45">
      <path d="M121.5938 404.1501 L100.5938 412.9001 L121.5938 421.6501 L118.4438 416.4001 L280.186 416.4001 L277.036 421.6501 L298.036 412.9001 L277.036 404.1501 L280.186 409.4001 L118.4438 409.4001 L121.5938 404.1501 Z" stroke="none" clip-path="url(#clipPath2)"/>
      <path fill="none" d="M121.5938 404.1501 L100.5938 412.9001 L121.5938 421.6501 L118.4438 416.4001 L280.186 416.4001 L277.036 421.6501 L298.036 412.9001 L277.036 404.1501 L280.186 409.4001 L118.4438 409.4001 L121.5938 404.1501 Z" stroke-width="1" clip-path="url(#clipPath2)" stroke="black"/>
    </g>
    <g stroke-linecap="butt" transform="matrix(1,0,0,1,140,421)" fill="silver" text-rendering="geometricPrecision" shape-rendering="geometricPrecision" stroke="silver" stroke-width="7" stroke-miterlimit="1.45">
      <path d="M277.0753 370.0499 L280.2253 375.2999 L118.3896 375.2999 L121.5396 370.0499 L121.5396 370.0499 L100.5396 378.7999 L121.5396 387.5499 L118.3896 382.2999 L280.2253 382.2999 L277.0753 387.5499 L298.0753 378.7999 L277.0753 370.0499 Z" stroke="none" clip-path="url(#clipPath2)"/>
      <path fill="none" d="M277.0753 370.0499 L280.2253 375.2999 L118.3896 375.2999 L121.5396 370.0499 L121.5396 370.0499 L100.5396 378.7999 L121.5396 387.5499 L118.3896 382.2999 L280.2253 382.2999 L277.0753 387.5499 L298.0753 378.7999 L277.0753 370.0499 Z" stroke-width="1" clip-path="url(#clipPath2)" stroke="black"/>
    </g>
    <g font-size="18px" stroke-linecap="butt" transform="matrix(1,0,0,1,140,421)" text-rendering="geometricPrecision" font-family="sans-serif" shape-rendering="geometricPrecision" font-weight="bold" stroke-miterlimit="1.45">
      <text x="302.9884" xml:space="preserve" y="389.5503" clip-path="url(#clipPath2)" stroke="none">MUX Port 0</text>
    </g>
    <g stroke-linecap="butt" transform="matrix(1,0,0,1,140,421)" fill="silver" text-rendering="geometricPrecision" shape-rendering="geometricPrecision" stroke="silver" stroke-width="7" stroke-miterlimit="1.45">
      <path d="M121.5643 533.6274 L100.5643 542.3774 L121.5643 551.1274 L118.4143 545.8774 L280.2105 545.8774 L277.0605 551.1274 L298.0605 542.3774 L277.0605 533.6274 L280.2105 538.8774 L118.4143 538.8774 L121.5643 533.6274 Z" stroke="none" clip-path="url(#clipPath2)"/>
      <path fill="none" d="M121.5643 533.6274 L100.5643 542.3774 L121.5643 551.1274 L118.4143 545.8774 L280.2105 545.8774 L277.0605 551.1274 L298.0605 542.3774 L277.0605 533.6274 L280.2105 538.8774 L118.4143 538.8774 L121.5643 533.6274 Z" stroke-width="1" clip-path="url(#clipPath2)" stroke="black"/>
    </g>
    <g font-size="18px" stroke-linecap="butt" transform="matrix(1,0,0,1,140,421)" text-rendering="geometricPrecision" font-family="sans-serif" shape-rendering="geometricPrecision" font-weight="bold" stroke-miterlimit="1.45">
      <text x="-1.0344" xml:space="preserve" y="547.96" clip-path="url(#clipPath2)" stroke="none">MUX Port 6</text>
    </g>
    <g stroke-linecap="butt" transform="matrix(1,0,0,1,140,421)" fill="silver" text-rendering="geometricPrecision" shape-rendering="geometricPrecision" stroke="silver" stroke-width="7" stroke-miterlimit="1.45">
      <path d="M121.5938 572.7909 L100.5938 581.5409 L121.5938 590.2909 L118.4437 585.0409 L280.2169 585.0409 L277.067 590.2909 L298.067 581.5409 L277.067 572.7909 L280.2169 578.0409 L118.4437 578.0409 L121.5938 572.7909 Z" stroke="none" clip-path="url(#clipPath2)"/>
      <path fill="none" d="M121.5938 572.7909 L100.5938 581.5409 L121.5938 590.2909 L118.4437 585.0409 L280.2169 585.0409 L277.067 590.2909 L298.067 581.5409 L277.067 572.7909 L280.2169 578.0409 L118.4437 578.0409 L121.5938 572.7909 Z" stroke-width="1" clip-path="url(#clipPath2)" stroke="black"/>
    </g>
    <g font-size="18px" stroke-linecap="butt" transform="matrix(1,0,0,1,140,421)" text-rendering="geometricPrecision" font-family="sans-serif" shape-rendering="geometricPrecision" font-weight="bold" stroke-miterlimit="1.45">
      <text x="303.2597" xml:space="preserve" y="588.3938" clip-path="url(#clipPath2)" stroke="none">MUX Port3</text>
    </g>
    <g stroke-linecap="butt" transform="matrix(1,0,0,1,140,421)" fill="silver" text-rendering="geometricPrecision" shape-rendering="geometricPrecision" stroke="silver" stroke-width="7" stroke-miterlimit="1.45">
      <path d="M277.071 607.7178 L280.2209 612.9678 L118.3858 612.9678 L121.5358 607.7178 L121.5358 607.7178 L100.5358 616.4678 L121.5358 625.2178 L118.3858 619.9678 L280.2209 619.9678 L277.071 625.2178 L298.071 616.4678 L277.071 607.7178 Z" stroke="none" clip-path="url(#clipPath2)"/>
      <path fill="none" d="M277.071 607.7178 L280.2209 612.9678 L118.3858 612.9678 L121.5358 607.7178 L121.5358 607.7178 L100.5358 616.4678 L121.5358 625.2178 L118.3858 619.9678 L280.2209 619.9678 L277.071 625.2178 L298.071 616.4678 L277.071 607.7178 Z" stroke-width="1" clip-path="url(#clipPath2)" stroke="black"/>
    </g>
    <g font-size="18px" stroke-linecap="butt" transform="matrix(1,0,0,1,140,421)" text-rendering="geometricPrecision" font-family="sans-serif" shape-rendering="geometricPrecision" font-weight="bold" stroke-miterlimit="1.45">
      <text x="301.5275" xml:space="preserve" y="622.7432" clip-path="url(#clipPath2)" stroke="none">MUX Port2</text>
    </g>
    <g stroke-linecap="butt" transform="matrix(1,0,0,1,140,421)" fill="silver" text-rendering="geometricPrecision" shape-rendering="geometricPrecision" stroke="silver" stroke-width="7" stroke-miterlimit="1.45">
      <path d="M277.0645 330.2664 L280.2145 335.5164 L118.4486 335.5164 L121.5986 330.2664 L121.5986 330.2664 L100.5986 339.0164 L121.5986 347.7664 L118.4486 342.5164 L280.2145 342.5164 L277.0645 347.7664 L298.0645 339.0164 L277.0645 330.2664 Z" stroke="none" clip-path="url(#clipPath2)"/>
      <path fill="none" d="M277.0645 330.2664 L280.2145 335.5164 L118.4486 335.5164 L121.5986 330.2664 L121.5986 330.2664 L100.5986 339.0164 L121.5986 347.7664 L118.4486 342.5164 L280.2145 342.5164 L277.0645 347.7664 L298.0645 339.0164 L277.0645 330.2664 Z" stroke-width="1" clip-path="url(#clipPath2)" stroke="black"/>
    </g>
    <g font-size="18px" stroke-linecap="butt" transform="matrix(1,0,0,1,140,421)" text-rendering="geometricPrecision" font-family="sans-serif" shape-rendering="geometricPrecision" font-weight="bold" stroke-miterlimit="1.45">
      <text x="1.997" xml:space="preserve" y="343.271" clip-path="url(#clipPath2)" stroke="none">MUX Port 7</text>
    </g>
    <g stroke-linecap="butt" transform="matrix(1,0,0,1,140,421)" fill="silver" text-rendering="geometricPrecision" shape-rendering="geometricPrecision" stroke="silver" stroke-width="7" stroke-miterlimit="1.45">
      <path d="M277.0513 446.3103 L280.2013 451.5603 L118.4154 451.5603 L121.5654 446.3103 L121.5654 446.3103 L100.5654 455.0603 L121.5654 463.8103 L118.4154 458.5603 L280.2013 458.5603 L277.0513 463.8103 L298.0513 455.0603 L277.0513 446.3103 Z" stroke="none" clip-path="url(#clipPath2)"/>
      <path fill="none" d="M277.0513 446.3103 L280.2013 451.5603 L118.4154 451.5603 L121.5654 446.3103 L121.5654 446.3103 L100.5654 455.0603 L121.5654 463.8103 L118.4154 458.5603 L280.2013 458.5603 L277.0513 463.8103 L298.0513 455.0603 L277.0513 446.3103 Z" stroke-width="1" clip-path="url(#clipPath2)" stroke="black"/>
    </g>
    <g font-size="18px" stroke-linecap="butt" transform="matrix(1,0,0,1,140,421)" text-rendering="geometricPrecision" font-family="sans-serif" shape-rendering="geometricPrecision" font-weight="bold" stroke-miterlimit="1.45">
      <text x="1.997" xml:space="preserve" y="458.5931" clip-path="url(#clipPath2)" stroke="none">MUX Port 4</text>
    </g>
    <g stroke-linecap="butt" transform="matrix(1,0,0,1,140,421)" fill="silver" text-rendering="geometricPrecision" shape-rendering="geometricPrecision" stroke="silver" stroke-width="7" stroke-miterlimit="1.45">
      <path d="M1893.6486 -201.2387 L1896.7986 -195.9887 L226.5812 -195.9887 L226.5812 -192.4887 L226.5812 339.0164 L226.5812 342.5164 L280.2373 342.5164 L277.0873 347.7664 L298.0873 339.0164 L277.0873 330.2664 L280.2373 335.5164 L233.5812 335.5164 L233.5812 -188.9887 L1896.7986 -188.9887 L1893.6486 -183.7387 L1914.6486 -192.4887 L1893.6486 -201.2387 Z" stroke="none" clip-path="url(#clipPath2)"/>
      <path fill="none" d="M1893.6486 -201.2387 L1896.7986 -195.9887 L226.5812 -195.9887 L226.5812 -192.4887 L226.5812 339.0164 L226.5812 342.5164 L280.2373 342.5164 L277.0873 347.7664 L298.0873 339.0164 L277.0873 330.2664 L280.2373 335.5164 L233.5812 335.5164 L233.5812 -188.9887 L1896.7986 -188.9887 L1893.6486 -183.7387 L1914.6486 -192.4887 L1893.6486 -201.2387 Z" stroke-width="1" clip-path="url(#clipPath2)" stroke="black"/>
    </g>
    <g font-size="18px" stroke-linecap="butt" transform="matrix(1,0,0,1,140,421)" text-rendering="geometricPrecision" font-family="sans-serif" shape-rendering="geometricPrecision" font-weight="bold" stroke-miterlimit="1.45">
      <text x="303.1384" xml:space="preserve" y="347.6015" clip-path="url(#clipPath2)" stroke="none">MUX Port 7</text>
    </g>
    <g stroke-linecap="butt" transform="matrix(1,0,0,1,140,421)" fill="silver" text-rendering="geometricPrecision" shape-rendering="geometricPrecision" stroke="silver" stroke-width="7" stroke-miterlimit="1.45">
      <path d="M641.3805 324.6173 L644.5305 329.8673 L503.6042 329.8673 L503.6042 333.3673 L503.6042 466.5017 L421.5864 466.5017 L424.7364 461.2517 L424.7364 461.2517 L403.7364 470.0017 L424.7364 478.7517 L421.5864 473.5017 L510.6042 473.5017 L510.6042 470.0017 L510.6042 336.8673 L644.5305 336.8673 L641.3805 342.1173 L662.3805 333.3673 L641.3805 324.6173 Z" stroke="none" clip-path="url(#clipPath2)"/>
      <path fill="none" d="M641.3805 324.6173 L644.5305 329.8673 L503.6042 329.8673 L503.6042 333.3673 L503.6042 466.5017 L421.5864 466.5017 L424.7364 461.2517 L424.7364 461.2517 L403.7364 470.0017 L424.7364 478.7517 L421.5864 473.5017 L510.6042 473.5017 L510.6042 470.0017 L510.6042 336.8673 L644.5305 336.8673 L641.3805 342.1173 L662.3805 333.3673 L641.3805 324.6173 Z" stroke-width="1" clip-path="url(#clipPath2)" stroke="black"/>
    </g>
    <g stroke-linecap="butt" transform="matrix(1,0,0,1,140,421)" fill="silver" text-rendering="geometricPrecision" shape-rendering="geometricPrecision" stroke="silver" stroke-width="7" stroke-miterlimit="1.45">
      <path d="M398.2617 -40.6256 L401.4117 -35.3756 L-59.8881 -35.3756 L-59.8881 -31.8756 L-59.8881 470.0017 L-59.8881 473.5017 L-22.9673 473.5017 L-26.1173 478.7517 L-5.1173 470.0017 L-26.1173 461.2517 L-22.9673 466.5017 L-52.8881 466.5017 L-52.8881 -28.3756 L401.4117 -28.3756 L398.2617 -23.1256 L419.2617 -31.8756 L398.2617 -40.6256 Z" stroke="none" clip-path="url(#clipPath2)"/>
      <path fill="none" d="M398.2617 -40.6256 L401.4117 -35.3756 L-59.8881 -35.3756 L-59.8881 -31.8756 L-59.8881 470.0017 L-59.8881 473.5017 L-22.9673 473.5017 L-26.1173 478.7517 L-5.1173 470.0017 L-26.1173 461.2517 L-22.9673 466.5017 L-52.8881 466.5017 L-52.8881 -28.3756 L401.4117 -28.3756 L398.2617 -23.1256 L419.2617 -31.8756 L398.2617 -40.6256 Z" stroke-width="1" clip-path="url(#clipPath2)" stroke="black"/>
    </g>
    <g stroke-linecap="butt" transform="matrix(1,0,0,1,140,421)" fill="silver" text-rendering="geometricPrecision" shape-rendering="geometricPrecision" stroke="silver" stroke-width="7" stroke-miterlimit="1.45">
      <path d="M626.3503 -40.6256 L605.3503 -31.8756 L626.3503 -23.1256 L623.2003 -28.3756 L954.9047 -28.3756 L954.9047 -28.4041 L1645.6162 -28.4041 L1645.6162 953.0731 L1645.6162 956.5731 L1884.1875 956.5731 L1881.0375 961.8231 L1902.0375 953.0731 L1881.0375 944.3231 L1884.1875 949.5731 L1652.6162 949.5731 L1652.6162 -31.9041 L1652.6162 -35.4041 L947.9047 -35.4041 L947.9047 -35.3756 L623.2003 -35.3756 L626.3503 -40.6256 Z" stroke="none" clip-path="url(#clipPath2)"/>
      <path fill="none" d="M626.3503 -40.6256 L605.3503 -31.8756 L626.3503 -23.1256 L623.2003 -28.3756 L954.9047 -28.3756 L954.9047 -28.4041 L1645.6162 -28.4041 L1645.6162 953.0731 L1645.6162 956.5731 L1884.1875 956.5731 L1881.0375 961.8231 L1902.0375 953.0731 L1881.0375 944.3231 L1884.1875 949.5731 L1652.6162 949.5731 L1652.6162 -31.9041 L1652.6162 -35.4041 L947.9047 -35.4041 L947.9047 -35.3756 L623.2003 -35.3756 L626.3503 -40.6256 Z" stroke-width="1" clip-path="url(#clipPath2)" stroke="black"/>
    </g>
    <g font-size="18px" stroke-linecap="butt" transform="matrix(1,0,0,1,140,421)" text-rendering="geometricPrecision" font-family="sans-serif" shape-rendering="geometricPrecision" font-weight="bold" stroke-miterlimit="1.45">
      <text x="1907.3912" xml:space="preserve" y="960.3839" clip-path="url(#clipPath2)" stroke="none">IPMB</text>
      <text x="574.9313" font-size="12px" y="-30.9942" clip-path="url(#clipPath2)" stroke="none" font-weight="normal" xml:space="preserve">IPMB</text>
    </g>
    <g stroke-linecap="butt" transform="matrix(1,0,0,1,140,421)" fill="silver" text-rendering="geometricPrecision" shape-rendering="geometricPrecision" stroke="silver" stroke-width="7" stroke-miterlimit="1.45">
      <path d="M277.054 533.6274 L280.204 538.8774 L190.3983 538.8774 L190.3983 542.3774 L190.3983 1019.0898 L190.3983 1022.5898 L509.5019 1022.5898 L506.3519 1027.8398 L527.3519 1019.0898 L506.3519 1010.3398 L509.5019 1015.5898 L197.3983 1015.5898 L197.3983 545.8774 L280.204 545.8774 L277.054 551.1274 L298.054 542.3774 L277.054 533.6274 Z" stroke="none" clip-path="url(#clipPath2)"/>
      <path fill="none" d="M277.054 533.6274 L280.204 538.8774 L190.3983 538.8774 L190.3983 542.3774 L190.3983 1019.0898 L190.3983 1022.5898 L509.5019 1022.5898 L506.3519 1027.8398 L527.3519 1019.0898 L506.3519 1010.3398 L509.5019 1015.5898 L197.3983 1015.5898 L197.3983 545.8774 L280.204 545.8774 L277.054 551.1274 L298.054 542.3774 L277.054 533.6274 Z" stroke-width="1" clip-path="url(#clipPath2)" stroke="black"/>
    </g>
    <g font-size="18px" stroke-linecap="butt" transform="matrix(1,0,0,1,140,421)" text-rendering="geometricPrecision" font-family="sans-serif" shape-rendering="geometricPrecision" font-weight="bold" stroke-miterlimit="1.45">
      <text x="302.4372" xml:space="preserve" y="548.8839" clip-path="url(#clipPath2)" stroke="none">MUX Port 6</text>
    </g>
    <g stroke-linecap="butt" transform="matrix(1,0,0,1,140,421)" fill="silver" text-rendering="geometricPrecision" shape-rendering="geometricPrecision" stroke="silver" stroke-width="7" stroke-miterlimit="1.45">
      <path d="M121.5615 607.7178 L100.5615 616.4678 L121.5615 625.2178 L118.4115 619.9678 L131.47 619.9678 L131.47 951.1544 L71.482 951.1544 L74.632 945.9044 L74.632 945.9044 L53.632 954.6544 L74.632 963.4044 L71.482 958.1544 L138.47 958.1544 L138.47 954.6544 L138.47 616.4678 L138.47 612.9678 L118.4115 612.9678 L121.5615 607.7178 Z" stroke="none" clip-path="url(#clipPath2)"/>
      <path fill="none" d="M121.5615 607.7178 L100.5615 616.4678 L121.5615 625.2178 L118.4115 619.9678 L131.47 619.9678 L131.47 951.1544 L71.482 951.1544 L74.632 945.9044 L74.632 945.9044 L53.632 954.6544 L74.632 963.4044 L71.482 958.1544 L138.47 958.1544 L138.47 954.6544 L138.47 616.4678 L138.47 612.9678 L118.4115 612.9678 L121.5615 607.7178 Z" stroke-width="1" clip-path="url(#clipPath2)" stroke="black"/>
    </g>
    <g font-size="18px" stroke-linecap="butt" transform="matrix(1,0,0,1,140,421)" text-rendering="geometricPrecision" font-family="sans-serif" shape-rendering="geometricPrecision" font-weight="bold" stroke-miterlimit="1.45">
      <text x="5.3268" xml:space="preserve" y="621.4468" clip-path="url(#clipPath2)" stroke="none">MUX Port2</text>
    </g>
    <g stroke-linecap="butt" transform="matrix(1,0,0,1,140,421)" fill="silver" text-rendering="geometricPrecision" shape-rendering="geometricPrecision" stroke="silver" stroke-width="7" stroke-miterlimit="1.45">
      <path d="M121.5636 572.7909 L100.5636 581.5409 L121.5636 590.2909 L118.4136 585.0409 L162.2047 585.0409 L162.2047 1075.886 L71.482 1075.886 L74.632 1070.636 L53.632 1079.386 L74.632 1088.136 L71.482 1082.886 L169.2047 1082.886 L169.2047 1079.386 L169.2047 581.5409 L169.2047 578.0409 L118.4136 578.0409 L121.5636 572.7909 Z" stroke="none" clip-path="url(#clipPath2)"/>
      <path fill="none" d="M121.5636 572.7909 L100.5636 581.5409 L121.5636 590.2909 L118.4136 585.0409 L162.2047 585.0409 L162.2047 1075.886 L71.482 1075.886 L74.632 1070.636 L53.632 1079.386 L74.632 1088.136 L71.482 1082.886 L169.2047 1082.886 L169.2047 1079.386 L169.2047 581.5409 L169.2047 578.0409 L118.4136 578.0409 L121.5636 572.7909 Z" stroke-width="1" clip-path="url(#clipPath2)" stroke="black"/>
    </g>
    <g font-size="18px" stroke-linecap="butt" transform="matrix(1,0,0,1,140,421)" text-rendering="geometricPrecision" font-family="sans-serif" shape-rendering="geometricPrecision" font-weight="bold" stroke-miterlimit="1.45">
      <text x="4.997" xml:space="preserve" y="588.2523" clip-path="url(#clipPath2)" stroke="none">MUX Port3</text>
    </g>
    <g stroke-linecap="butt" transform="matrix(1,0,0,1,140,421)" fill="silver" text-rendering="geometricPrecision" shape-rendering="geometricPrecision" stroke="silver" stroke-width="7" stroke-miterlimit="1.45">
      <path d="M277.0278 487.2919 L280.1778 492.5419 L251.507 492.5419 L251.507 496.0419 L251.507 742.6389 L251.507 746.1389 L1187.7161 746.1389 L1184.566 751.3889 L1205.566 742.6389 L1184.566 733.8889 L1187.7161 739.1389 L258.507 739.1389 L258.507 499.5419 L280.1778 499.5419 L277.0278 504.7919 L298.0278 496.0419 L277.0278 487.2919 Z" stroke="none" clip-path="url(#clipPath2)"/>
      <path fill="none" d="M277.0278 487.2919 L280.1778 492.5419 L251.507 492.5419 L251.507 496.0419 L251.507 742.6389 L251.507 746.1389 L1187.7161 746.1389 L1184.566 751.3889 L1205.566 742.6389 L1184.566 733.8889 L1187.7161 739.1389 L258.507 739.1389 L258.507 499.5419 L280.1778 499.5419 L277.0278 504.7919 L298.0278 496.0419 L277.0278 487.2919 Z" stroke-width="1" clip-path="url(#clipPath2)" stroke="black"/>
    </g>
    <g font-size="18px" stroke-linecap="butt" transform="matrix(1,0,0,1,140,421)" text-rendering="geometricPrecision" font-family="sans-serif" shape-rendering="geometricPrecision" font-weight="bold" stroke-miterlimit="1.45">
      <text x="301.1859" xml:space="preserve" y="503.4721" clip-path="url(#clipPath2)" stroke="none">MUX Port 5</text>
    </g>
    <g stroke-linecap="butt" transform="matrix(1,0,0,1,140,421)" fill="silver" text-rendering="geometricPrecision" shape-rendering="geometricPrecision" stroke="silver" stroke-width="7" stroke-miterlimit="1.45">
      <path d="M277.0421 446.3103 L280.1921 451.5603 L219.3147 451.5603 L219.3147 455.0603 L219.3147 855.4139 L219.3147 858.9139 L934.9236 858.9139 L934.9236 949.6233 L934.9236 953.1233 L1112.8512 953.1233 L1109.7012 958.3733 L1130.7012 949.6233 L1109.7012 940.8733 L1112.8512 946.1233 L941.9236 946.1233 L941.9236 855.4139 L941.9236 851.9139 L226.3147 851.9139 L226.3147 458.5603 L280.1921 458.5603 L277.0421 463.8103 L298.0421 455.0603 L277.0421 446.3103 Z" stroke="none" clip-path="url(#clipPath2)"/>
      <path fill="none" d="M277.0421 446.3103 L280.1921 451.5603 L219.3147 451.5603 L219.3147 455.0603 L219.3147 855.4139 L219.3147 858.9139 L934.9236 858.9139 L934.9236 949.6233 L934.9236 953.1233 L1112.8512 953.1233 L1109.7012 958.3733 L1130.7012 949.6233 L1109.7012 940.8733 L1112.8512 946.1233 L941.9236 946.1233 L941.9236 855.4139 L941.9236 851.9139 L226.3147 851.9139 L226.3147 458.5603 L280.1921 458.5603 L277.0421 463.8103 L298.0421 455.0603 L277.0421 446.3103 Z" stroke-width="1" clip-path="url(#clipPath2)" stroke="black"/>
    </g>
    <g font-size="18px" stroke-linecap="butt" transform="matrix(1,0,0,1,140,421)" text-rendering="geometricPrecision" font-family="sans-serif" shape-rendering="geometricPrecision" font-weight="bold" stroke-miterlimit="1.45">
      <text x="303.0895" xml:space="preserve" y="457.8713" clip-path="url(#clipPath2)" stroke="none">MUX Port 4</text>
    </g>
  </g>
</svg>
