G04 Layer_Physical_Order=4*
G04 Layer_Color=6736896*
%FSLAX25Y25*%
%MOIN*%
G70*
G01*
G75*
%ADD84C,0.00598*%
%ADD85C,0.00500*%
%ADD87C,0.00600*%
%ADD88C,0.00800*%
%ADD92C,0.00700*%
%ADD103C,0.06299*%
%ADD105C,0.01969*%
%ADD118C,0.01969*%
%ADD121R,0.01969X0.05906*%
%ADD122R,0.02157X0.04544*%
G36*
X387891Y61024D02*
X390315Y58600D01*
Y56102D01*
Y52165D01*
X388602Y50453D01*
X372303D01*
X369094Y47244D01*
X366280Y44429D01*
X348425D01*
Y51846D01*
X351697Y55118D01*
X359635D01*
X360236Y55719D01*
Y58859D01*
X360590Y59095D01*
X360940Y59619D01*
X361063Y60236D01*
X360940Y60854D01*
X360652Y61284D01*
X362360Y62992D01*
X363612D01*
X363763Y62492D01*
X363583Y62372D01*
X363234Y61848D01*
X363111Y61231D01*
X363234Y60613D01*
X363583Y60090D01*
X364107Y59740D01*
X364724Y59617D01*
X365342Y59740D01*
X365865Y60090D01*
X366215Y60613D01*
X366338Y61231D01*
X366215Y61848D01*
X365865Y62372D01*
X365685Y62492D01*
X365837Y62992D01*
X367549D01*
X367701Y62492D01*
X367520Y62372D01*
X367171Y61848D01*
X367048Y61231D01*
X367171Y60613D01*
X367520Y60090D01*
X368044Y59740D01*
X368661Y59617D01*
X369279Y59740D01*
X369802Y60090D01*
X370152Y60613D01*
X370275Y61231D01*
X370152Y61848D01*
X369802Y62372D01*
X369622Y62492D01*
X369774Y62992D01*
X371486D01*
X371638Y62492D01*
X371457Y62372D01*
X371108Y61848D01*
X370985Y61231D01*
X371108Y60613D01*
X371457Y60090D01*
X371981Y59740D01*
X372598Y59617D01*
X373216Y59740D01*
X373740Y60090D01*
X374089Y60613D01*
X374212Y61231D01*
X374089Y61848D01*
X373740Y62372D01*
X373559Y62492D01*
X373711Y62992D01*
X375423D01*
X375574Y62492D01*
X375394Y62372D01*
X375045Y61848D01*
X374922Y61231D01*
X375045Y60613D01*
X375394Y60090D01*
X375918Y59740D01*
X376535Y59617D01*
X377153Y59740D01*
X377677Y60090D01*
X378026Y60613D01*
X378149Y61231D01*
X378026Y61848D01*
X377677Y62372D01*
X377496Y62492D01*
X377648Y62992D01*
X379360D01*
X379511Y62492D01*
X379331Y62372D01*
X378982Y61848D01*
X378859Y61231D01*
X378982Y60613D01*
X379331Y60090D01*
X379855Y59740D01*
X380472Y59617D01*
X381090Y59740D01*
X381613Y60090D01*
X381963Y60613D01*
X382086Y61231D01*
X381963Y61848D01*
X381613Y62372D01*
X381433Y62492D01*
X381585Y62992D01*
X385923D01*
X387891Y61024D01*
D02*
G37*
G36*
X588152Y197455D02*
X598552Y187055D01*
Y167755D01*
Y146355D01*
X592552Y140355D01*
X587852Y135655D01*
X576766D01*
X576688Y136051D01*
X576338Y136574D01*
X575814Y136924D01*
X575197Y137047D01*
X574579Y136924D01*
X574056Y136574D01*
X573706Y136051D01*
X573627Y135655D01*
X570861D01*
X570782Y136051D01*
X570432Y136574D01*
X569909Y136924D01*
X569291Y137047D01*
X568674Y136924D01*
X568150Y136574D01*
X567801Y136051D01*
X567722Y135655D01*
X550273D01*
X550270Y135667D01*
X549921Y136191D01*
X549397Y136540D01*
X548779Y136663D01*
X548162Y136540D01*
X547639Y136191D01*
X547289Y135667D01*
X547286Y135655D01*
X540502D01*
X540403Y136155D01*
X540934Y136375D01*
X541716Y136976D01*
X542317Y137759D01*
X542695Y138670D01*
X542824Y139649D01*
X542695Y140627D01*
X542317Y141539D01*
X541716Y142322D01*
X540934Y142923D01*
X540022Y143300D01*
X539043Y143429D01*
X538065Y143300D01*
X537153Y142923D01*
X536370Y142322D01*
X535769Y141539D01*
X535392Y140627D01*
X535263Y139649D01*
X535392Y138670D01*
X535769Y137759D01*
X536370Y136976D01*
X537153Y136375D01*
X537684Y136155D01*
X537585Y135655D01*
X530502D01*
X530403Y136155D01*
X530934Y136375D01*
X531716Y136976D01*
X532317Y137759D01*
X532695Y138670D01*
X532824Y139649D01*
X532695Y140627D01*
X532317Y141539D01*
X531716Y142322D01*
X530934Y142923D01*
X530022Y143300D01*
X529043Y143429D01*
X528065Y143300D01*
X527153Y142923D01*
X526370Y142322D01*
X525769Y141539D01*
X525392Y140627D01*
X525263Y139649D01*
X525392Y138670D01*
X525769Y137759D01*
X526370Y136976D01*
X527153Y136375D01*
X527684Y136155D01*
X527585Y135655D01*
X508459D01*
X508381Y136051D01*
X508031Y136574D01*
X507507Y136924D01*
X506890Y137047D01*
X506272Y136924D01*
X505749Y136574D01*
X505399Y136051D01*
X505320Y135655D01*
X502554D01*
X502475Y136051D01*
X502125Y136574D01*
X501602Y136924D01*
X500984Y137047D01*
X500367Y136924D01*
X499843Y136574D01*
X499493Y136051D01*
X499415Y135655D01*
X496648D01*
X496570Y136051D01*
X496220Y136574D01*
X495696Y136924D01*
X495079Y137047D01*
X494461Y136924D01*
X493938Y136574D01*
X493588Y136051D01*
X493509Y135655D01*
X484552D01*
X480652Y139555D01*
X480652Y156271D01*
X481039Y156588D01*
X481201Y156556D01*
X481818Y156678D01*
X482342Y157028D01*
X482692Y157552D01*
X482815Y158169D01*
X482692Y158787D01*
X482342Y159310D01*
X481818Y159660D01*
X481201Y159783D01*
X481039Y159751D01*
X480652Y160068D01*
X480652Y169455D01*
Y176513D01*
X480807Y176617D01*
X481157Y177141D01*
X481280Y177758D01*
X481157Y178376D01*
X480807Y178899D01*
X480652Y179003D01*
X480652Y194386D01*
X480970Y194862D01*
X481093Y195480D01*
X480970Y196097D01*
X480652Y196573D01*
Y206355D01*
X484752Y210455D01*
X488404D01*
X488753Y210222D01*
X489370Y210099D01*
X489988Y210222D01*
X490337Y210455D01*
X495017D01*
X495066Y209955D01*
X494855Y209913D01*
X494331Y209563D01*
X493982Y209039D01*
X493859Y208422D01*
X493982Y207804D01*
X494331Y207281D01*
X494855Y206931D01*
X495472Y206808D01*
X496090Y206931D01*
X496614Y207281D01*
X496798Y207557D01*
X502784D01*
X503116Y207623D01*
X503396Y207810D01*
X506041Y210455D01*
X522920D01*
X522973Y210375D01*
X523497Y210025D01*
X524114Y209902D01*
X524732Y210025D01*
X524816Y210081D01*
X525282Y209791D01*
X525263Y209649D01*
X525392Y208670D01*
X525769Y207758D01*
X526370Y206976D01*
X527153Y206375D01*
X528065Y205997D01*
X529043Y205868D01*
X530022Y205997D01*
X530934Y206375D01*
X531716Y206976D01*
X532317Y207758D01*
X532695Y208670D01*
X532824Y209649D01*
X532767Y210079D01*
X533097Y210455D01*
X534990D01*
X535320Y210079D01*
X535263Y209649D01*
X535392Y208670D01*
X535769Y207758D01*
X536370Y206976D01*
X537153Y206375D01*
X538065Y205997D01*
X539043Y205868D01*
X540022Y205997D01*
X540934Y206375D01*
X541716Y206976D01*
X542317Y207758D01*
X542695Y208670D01*
X542824Y209649D01*
X542767Y210079D01*
X543097Y210455D01*
X566398D01*
X566497Y210335D01*
X566619Y209717D01*
X566969Y209194D01*
X567493Y208844D01*
X568110Y208721D01*
X568728Y208844D01*
X569251Y209194D01*
X569601Y209717D01*
X569724Y210335D01*
X569823Y210455D01*
X575152D01*
X588152Y197455D01*
D02*
G37*
G36*
X559465Y236121D02*
Y226419D01*
X461983D01*
X461771Y226737D01*
X461247Y227087D01*
X460630Y227210D01*
X460012Y227087D01*
X459577Y226796D01*
X459252Y226758D01*
X458927Y226796D01*
X458492Y227087D01*
X457874Y227210D01*
X457257Y227087D01*
X456733Y226737D01*
X456521Y226419D01*
X449839D01*
X449687Y226919D01*
X449738Y226954D01*
X450088Y227477D01*
X450211Y228095D01*
X450088Y228712D01*
X449738Y229236D01*
X449215Y229586D01*
X448597Y229708D01*
X447979Y229586D01*
X447456Y229236D01*
X447106Y228712D01*
X446983Y228095D01*
X446648Y227760D01*
X446031Y227637D01*
X445507Y227287D01*
X445157Y226764D01*
X445089Y226419D01*
X431215D01*
Y236262D01*
X437917D01*
X437936Y236228D01*
X437686Y235669D01*
X437532Y235638D01*
X437009Y235288D01*
X436659Y234765D01*
X436536Y234147D01*
X436659Y233530D01*
X437009Y233006D01*
X437532Y232657D01*
X438150Y232534D01*
X438767Y232657D01*
X439291Y233006D01*
X439641Y233530D01*
X439763Y234147D01*
X440098Y234482D01*
X440716Y234605D01*
X441240Y234955D01*
X441589Y235478D01*
X441712Y236096D01*
X441848Y236262D01*
X495546D01*
X495669Y235644D01*
X496019Y235121D01*
X496542Y234771D01*
X497160Y234648D01*
X497778Y234771D01*
X498301Y235121D01*
X498651Y235644D01*
X498774Y236262D01*
X502436D01*
X502559Y235644D01*
X502909Y235121D01*
X503432Y234771D01*
X504050Y234648D01*
X504667Y234771D01*
X505191Y235121D01*
X505541Y235644D01*
X505663Y236262D01*
X559407D01*
X559465Y236121D01*
D02*
G37*
G36*
X414370Y271417D02*
X381695D01*
X381428Y271917D01*
X381524Y272062D01*
X381647Y272679D01*
X381524Y273297D01*
X381174Y273820D01*
X380651Y274170D01*
X380033Y274293D01*
X379416Y274170D01*
X378892Y273820D01*
X378542Y273297D01*
X378420Y272679D01*
X378542Y272062D01*
X378652Y271897D01*
X378701Y271417D01*
X375590Y268307D01*
X373548D01*
X373144Y268388D01*
X372739Y268307D01*
X353893D01*
X353740Y268537D01*
X353216Y268887D01*
X352598Y269010D01*
X351981Y268887D01*
X351457Y268537D01*
X351304Y268307D01*
X349016D01*
X347872Y267163D01*
X343504D01*
Y273622D01*
X351421D01*
X351716Y273159D01*
X351711Y273122D01*
X351221Y272795D01*
X350871Y272271D01*
X350748Y271654D01*
X350871Y271036D01*
X351221Y270513D01*
X351745Y270163D01*
X352362Y270040D01*
X352980Y270163D01*
X353503Y270513D01*
X353853Y271036D01*
X353976Y271654D01*
X353853Y272271D01*
X353503Y272795D01*
X353013Y273122D01*
X353008Y273159D01*
X353303Y273622D01*
X373031D01*
X376575Y277165D01*
X385489D01*
X385580Y277044D01*
X385711Y276665D01*
X385433Y276250D01*
X385310Y275632D01*
X385433Y275014D01*
X385783Y274491D01*
X386306Y274141D01*
X386924Y274018D01*
X387541Y274141D01*
X387703Y274249D01*
X388104Y274470D01*
X388505Y274249D01*
X388666Y274141D01*
X389283Y274018D01*
X389901Y274141D01*
X390424Y274491D01*
X390723Y274938D01*
X391044Y274960D01*
X391264Y274916D01*
X391576Y274449D01*
X392099Y274100D01*
X392717Y273977D01*
X393334Y274100D01*
X393858Y274449D01*
X394207Y274973D01*
X394330Y275590D01*
X394207Y276208D01*
X393902Y276665D01*
X393977Y276939D01*
X394108Y277165D01*
X414370D01*
Y271417D01*
D02*
G37*
G36*
X387891Y238189D02*
X390315Y235765D01*
Y233268D01*
Y229331D01*
X388602Y227618D01*
X372303D01*
X369094Y224410D01*
X366142Y221457D01*
X348425D01*
Y229012D01*
X351697Y232283D01*
X359635D01*
X360236Y232884D01*
Y236024D01*
X360590Y236261D01*
X360940Y236784D01*
X361063Y237402D01*
X360940Y238019D01*
X360652Y238450D01*
X362360Y240158D01*
X363612D01*
X363763Y239657D01*
X363583Y239537D01*
X363234Y239014D01*
X363111Y238396D01*
X363234Y237778D01*
X363583Y237255D01*
X364107Y236905D01*
X364724Y236782D01*
X365342Y236905D01*
X365865Y237255D01*
X366215Y237778D01*
X366338Y238396D01*
X366215Y239014D01*
X365865Y239537D01*
X365685Y239657D01*
X365837Y240158D01*
X367549D01*
X367701Y239657D01*
X367520Y239537D01*
X367171Y239014D01*
X367048Y238396D01*
X367171Y237778D01*
X367520Y237255D01*
X368044Y236905D01*
X368661Y236782D01*
X369279Y236905D01*
X369802Y237255D01*
X370152Y237778D01*
X370275Y238396D01*
X370152Y239014D01*
X369802Y239537D01*
X369622Y239657D01*
X369774Y240158D01*
X371486D01*
X371638Y239657D01*
X371457Y239537D01*
X371108Y239014D01*
X370985Y238396D01*
X371108Y237778D01*
X371457Y237255D01*
X371981Y236905D01*
X372598Y236782D01*
X373216Y236905D01*
X373740Y237255D01*
X374089Y237778D01*
X374212Y238396D01*
X374089Y239014D01*
X373740Y239537D01*
X373559Y239657D01*
X373711Y240158D01*
X375423D01*
X375574Y239657D01*
X375394Y239537D01*
X375045Y239014D01*
X374922Y238396D01*
X375045Y237778D01*
X375394Y237255D01*
X375918Y236905D01*
X376535Y236782D01*
X377153Y236905D01*
X377677Y237255D01*
X378026Y237778D01*
X378149Y238396D01*
X378026Y239014D01*
X377677Y239537D01*
X377496Y239657D01*
X377648Y240158D01*
X379360D01*
X379511Y239657D01*
X379331Y239537D01*
X378982Y239014D01*
X378859Y238396D01*
X378982Y237778D01*
X379331Y237255D01*
X379855Y236905D01*
X380472Y236782D01*
X381090Y236905D01*
X381613Y237255D01*
X381963Y237778D01*
X382086Y238396D01*
X381963Y239014D01*
X381613Y239537D01*
X381433Y239657D01*
X381585Y240158D01*
X385923D01*
X387891Y238189D01*
D02*
G37*
G36*
X501097Y85291D02*
Y79766D01*
X499128Y77797D01*
X430883D01*
X429898Y78782D01*
Y85671D01*
X430231D01*
X431215Y86656D01*
X463739D01*
X464034Y86192D01*
X464029Y86156D01*
X463539Y85828D01*
X463189Y85305D01*
X463066Y84687D01*
X463189Y84070D01*
X463539Y83546D01*
X464062Y83196D01*
X464680Y83073D01*
X465297Y83196D01*
X465821Y83546D01*
X466171Y84070D01*
X466293Y84687D01*
X466171Y85305D01*
X465821Y85828D01*
X465331Y86156D01*
X465326Y86192D01*
X465621Y86656D01*
X499733D01*
X501097Y85291D01*
D02*
G37*
G36*
X414370Y182835D02*
X382148D01*
X381830Y183221D01*
X381849Y183313D01*
X381726Y183931D01*
X381376Y184454D01*
X380853Y184804D01*
X380235Y184927D01*
X379618Y184804D01*
X379094Y184454D01*
X378744Y183931D01*
X378621Y183313D01*
X378694Y182948D01*
X378345Y182560D01*
X378031D01*
X377700Y182494D01*
X377420Y182306D01*
X374838Y179724D01*
X373943D01*
X373570Y179799D01*
X373197Y179724D01*
X353893D01*
X353740Y179954D01*
X353216Y180304D01*
X352598Y180427D01*
X351981Y180304D01*
X351457Y179954D01*
X351304Y179724D01*
X349016D01*
X347872Y178581D01*
X343504D01*
Y185039D01*
X351421D01*
X351716Y184576D01*
X351711Y184539D01*
X351221Y184212D01*
X350871Y183688D01*
X350748Y183071D01*
X350871Y182453D01*
X351221Y181930D01*
X351745Y181580D01*
X352362Y181457D01*
X352980Y181580D01*
X353503Y181930D01*
X353853Y182453D01*
X353976Y183071D01*
X353853Y183688D01*
X353503Y184212D01*
X353013Y184539D01*
X353008Y184576D01*
X353303Y185039D01*
X373031D01*
X376575Y188583D01*
X385268D01*
X385535Y188083D01*
X385461Y187972D01*
X385338Y187355D01*
X385461Y186737D01*
X385811Y186214D01*
X386335Y185864D01*
X386952Y185741D01*
X387570Y185864D01*
X388093Y186214D01*
X388443Y186737D01*
X388557Y187309D01*
X389038Y187255D01*
X389161Y186637D01*
X389511Y186114D01*
X390035Y185764D01*
X390652Y185641D01*
X391270Y185764D01*
X391793Y186114D01*
X391794Y186115D01*
X392395Y186114D01*
X392560Y185867D01*
X393083Y185517D01*
X393701Y185394D01*
X394318Y185517D01*
X394842Y185867D01*
X395192Y186390D01*
X395315Y187008D01*
X395192Y187625D01*
X394886Y188083D01*
X394962Y188356D01*
X395093Y188583D01*
X395852D01*
X396169Y188196D01*
X396137Y188034D01*
X396260Y187416D01*
X396609Y186892D01*
X397133Y186543D01*
X397750Y186420D01*
X398368Y186543D01*
X398892Y186892D01*
X399241Y187416D01*
X399364Y188034D01*
X399332Y188196D01*
X399649Y188583D01*
X414370D01*
Y182835D01*
D02*
G37*
G36*
X387891Y149606D02*
X390315Y147183D01*
Y144685D01*
Y140748D01*
X388602Y139035D01*
X372303D01*
X369094Y135827D01*
X366142Y132874D01*
X348425D01*
Y140429D01*
X351697Y143701D01*
X359635D01*
X360236Y144302D01*
Y147441D01*
X360590Y147678D01*
X360940Y148201D01*
X361063Y148819D01*
X360940Y149436D01*
X360652Y149867D01*
X362360Y151575D01*
X363612D01*
X363763Y151075D01*
X363583Y150954D01*
X363234Y150431D01*
X363111Y149813D01*
X363234Y149196D01*
X363583Y148672D01*
X364107Y148322D01*
X364724Y148200D01*
X365342Y148322D01*
X365865Y148672D01*
X366215Y149196D01*
X366338Y149813D01*
X366215Y150431D01*
X365865Y150954D01*
X365685Y151075D01*
X365837Y151575D01*
X367549D01*
X367701Y151075D01*
X367520Y150954D01*
X367171Y150431D01*
X367048Y149813D01*
X367171Y149196D01*
X367520Y148672D01*
X368044Y148322D01*
X368661Y148200D01*
X369279Y148322D01*
X369802Y148672D01*
X370152Y149196D01*
X370275Y149813D01*
X370152Y150431D01*
X369802Y150954D01*
X369622Y151075D01*
X369774Y151575D01*
X371486D01*
X371638Y151075D01*
X371457Y150954D01*
X371108Y150431D01*
X370985Y149813D01*
X371108Y149196D01*
X371457Y148672D01*
X371981Y148322D01*
X372598Y148200D01*
X373216Y148322D01*
X373740Y148672D01*
X374089Y149196D01*
X374212Y149813D01*
X374089Y150431D01*
X373740Y150954D01*
X373559Y151075D01*
X373711Y151575D01*
X375423D01*
X375574Y151075D01*
X375394Y150954D01*
X375045Y150431D01*
X374922Y149813D01*
X375045Y149196D01*
X375394Y148672D01*
X375918Y148322D01*
X376535Y148200D01*
X377153Y148322D01*
X377677Y148672D01*
X378026Y149196D01*
X378149Y149813D01*
X378026Y150431D01*
X377677Y150954D01*
X377496Y151075D01*
X377648Y151575D01*
X379360D01*
X379511Y151075D01*
X379331Y150954D01*
X378982Y150431D01*
X378859Y149813D01*
X378982Y149196D01*
X379331Y148672D01*
X379855Y148322D01*
X380472Y148200D01*
X381090Y148322D01*
X381613Y148672D01*
X381963Y149196D01*
X382086Y149813D01*
X381963Y150431D01*
X381613Y150954D01*
X381433Y151075D01*
X381585Y151575D01*
X385923D01*
X387891Y149606D01*
D02*
G37*
G36*
X419188Y101419D02*
Y94691D01*
X418173D01*
X417842Y94625D01*
X417562Y94437D01*
X417488Y94363D01*
X413865D01*
X413386Y98425D01*
X341293Y98425D01*
X341203Y98881D01*
X340853Y99405D01*
X340329Y99755D01*
X339712Y99877D01*
X339094Y99755D01*
X338571Y99405D01*
X338221Y98881D01*
X338130Y98425D01*
X326926D01*
X325900Y99451D01*
X323932Y101419D01*
X321458D01*
X320602Y102275D01*
X320321Y102463D01*
X319990Y102528D01*
X313739D01*
X313408Y102463D01*
X313142Y102285D01*
X308814D01*
X308753Y102346D01*
X308472Y102533D01*
X308141Y102599D01*
X307112D01*
X306680Y102988D01*
X306557Y103606D01*
X306207Y104129D01*
X305684Y104479D01*
X305066Y104602D01*
X304449Y104479D01*
X303925Y104129D01*
X303575Y103606D01*
X303452Y102988D01*
X303575Y102371D01*
X303877Y101919D01*
X303740Y101441D01*
X303730Y101419D01*
X303248Y101515D01*
X302766Y101419D01*
X227475Y101419D01*
X227475Y108309D01*
X299064D01*
X299168Y108152D01*
X299692Y107803D01*
X300310Y107680D01*
X300927Y107803D01*
X301451Y108152D01*
X301555Y108309D01*
X412298Y108309D01*
X419188Y101419D01*
D02*
G37*
G36*
X623677Y90167D02*
Y86656D01*
Y62047D01*
X617774Y56144D01*
X609900Y48270D01*
X608212D01*
X607928Y48770D01*
X608025Y49255D01*
X607902Y49872D01*
X607552Y50396D01*
X607028Y50745D01*
X606411Y50868D01*
X605793Y50745D01*
X605270Y50396D01*
X604920Y49872D01*
X604797Y49255D01*
X604894Y48770D01*
X604610Y48270D01*
X536696D01*
X533577Y51388D01*
X521766Y63199D01*
Y79649D01*
Y89608D01*
X523735Y91577D01*
X525703Y93545D01*
X527350D01*
X527450Y93045D01*
X527153Y92923D01*
X526370Y92322D01*
X525769Y91539D01*
X525392Y90627D01*
X525263Y89649D01*
X525392Y88670D01*
X525769Y87758D01*
X526370Y86976D01*
X527153Y86375D01*
X528065Y85997D01*
X529043Y85868D01*
X530022Y85997D01*
X530934Y86375D01*
X531716Y86976D01*
X532317Y87758D01*
X532695Y88670D01*
X532824Y89649D01*
X532695Y90627D01*
X532317Y91539D01*
X531716Y92322D01*
X530934Y92923D01*
X530637Y93045D01*
X530736Y93545D01*
X537371D01*
X537470Y93045D01*
X537157Y92916D01*
X536376Y92316D01*
X535776Y91535D01*
X535399Y90625D01*
X535310Y89944D01*
X539043D01*
X542777D01*
X542687Y90625D01*
X542310Y91535D01*
X541711Y92316D01*
X540930Y92916D01*
X540616Y93045D01*
X540716Y93545D01*
X620298D01*
X623677Y90167D01*
D02*
G37*
G36*
X388354Y97777D02*
X388666Y97569D01*
X389283Y97446D01*
X389901Y97569D01*
X390213Y97777D01*
X390915D01*
X391228Y97569D01*
X391845Y97446D01*
X392462Y97569D01*
X392775Y97777D01*
X412810D01*
X413169Y94737D01*
X412836Y94363D01*
X403513D01*
X401813Y96062D01*
X401533Y96250D01*
X401201Y96316D01*
X379753D01*
X379422Y96250D01*
X379141Y96062D01*
X374221Y91142D01*
X353893D01*
X353740Y91372D01*
X353216Y91722D01*
X352598Y91844D01*
X351981Y91722D01*
X351457Y91372D01*
X351304Y91142D01*
X349016D01*
X347872Y89998D01*
X343504D01*
Y96457D01*
X351421D01*
X351716Y95993D01*
X351711Y95957D01*
X351221Y95629D01*
X350871Y95106D01*
X350748Y94488D01*
X350871Y93871D01*
X351221Y93347D01*
X351745Y92997D01*
X352362Y92874D01*
X352980Y92997D01*
X353503Y93347D01*
X353853Y93871D01*
X353976Y94488D01*
X353853Y95106D01*
X353503Y95629D01*
X353013Y95957D01*
X353008Y95993D01*
X353303Y96457D01*
X373031D01*
X374352Y97777D01*
X388354Y97777D01*
D02*
G37*
G36*
X387891Y326772D02*
X390315Y324348D01*
Y321850D01*
Y317913D01*
X388602Y316201D01*
X372303D01*
X369094Y312992D01*
X366142Y310039D01*
X348425D01*
Y317595D01*
X351697Y320866D01*
X359635D01*
X360236Y321467D01*
Y324607D01*
X360590Y324843D01*
X360940Y325367D01*
X361063Y325984D01*
X360940Y326602D01*
X360652Y327032D01*
X362360Y328740D01*
X363612D01*
X363763Y328240D01*
X363583Y328120D01*
X363234Y327596D01*
X363111Y326979D01*
X363234Y326361D01*
X363583Y325838D01*
X364107Y325488D01*
X364724Y325365D01*
X365342Y325488D01*
X365865Y325838D01*
X366215Y326361D01*
X366338Y326979D01*
X366215Y327596D01*
X365865Y328120D01*
X365685Y328240D01*
X365837Y328740D01*
X367549D01*
X367701Y328240D01*
X367520Y328120D01*
X367171Y327596D01*
X367048Y326979D01*
X367171Y326361D01*
X367520Y325838D01*
X368044Y325488D01*
X368661Y325365D01*
X369279Y325488D01*
X369802Y325838D01*
X370152Y326361D01*
X370275Y326979D01*
X370152Y327596D01*
X369802Y328120D01*
X369622Y328240D01*
X369774Y328740D01*
X371486D01*
X371638Y328240D01*
X371457Y328120D01*
X371108Y327596D01*
X370985Y326979D01*
X371108Y326361D01*
X371457Y325838D01*
X371981Y325488D01*
X372598Y325365D01*
X373216Y325488D01*
X373740Y325838D01*
X374089Y326361D01*
X374212Y326979D01*
X374089Y327596D01*
X373740Y328120D01*
X373559Y328240D01*
X373711Y328740D01*
X375423D01*
X375574Y328240D01*
X375394Y328120D01*
X375045Y327596D01*
X374922Y326979D01*
X375045Y326361D01*
X375394Y325838D01*
X375918Y325488D01*
X376535Y325365D01*
X377153Y325488D01*
X377677Y325838D01*
X378026Y326361D01*
X378149Y326979D01*
X378026Y327596D01*
X377677Y328120D01*
X377496Y328240D01*
X377648Y328740D01*
X379360D01*
X379511Y328240D01*
X379331Y328120D01*
X378982Y327596D01*
X378859Y326979D01*
X378982Y326361D01*
X379331Y325838D01*
X379855Y325488D01*
X380472Y325365D01*
X381090Y325488D01*
X381613Y325838D01*
X381963Y326361D01*
X382086Y326979D01*
X381963Y327596D01*
X381613Y328120D01*
X381433Y328240D01*
X381585Y328740D01*
X385923D01*
X387891Y326772D01*
D02*
G37*
G36*
X414370Y360000D02*
X411337D01*
X411323Y360014D01*
X411043Y360201D01*
X410712Y360267D01*
X402632D01*
X402186Y360712D01*
X401906Y360900D01*
X401575Y360965D01*
X398622D01*
X398291Y360900D01*
X398010Y360712D01*
X397565Y360267D01*
X387781D01*
X387450Y360201D01*
X387170Y360014D01*
X387156Y360000D01*
X378701D01*
X375590Y356890D01*
X354140D01*
X353777Y357341D01*
X353820Y357601D01*
X353853Y357650D01*
X353976Y358268D01*
X353853Y358885D01*
X353503Y359409D01*
X352980Y359759D01*
X352362Y359881D01*
X351745Y359759D01*
X351221Y359409D01*
X350871Y358885D01*
X350748Y358268D01*
X350871Y357650D01*
X351045Y357390D01*
X350778Y356890D01*
X349016D01*
X348087Y355961D01*
X343504D01*
Y362205D01*
X373031D01*
X376575Y365748D01*
X385557D01*
X385837Y365248D01*
X385738Y364755D01*
X385861Y364137D01*
X386211Y363614D01*
X386735Y363264D01*
X387352Y363141D01*
X387970Y363264D01*
X388493Y363614D01*
X388601Y363776D01*
X389203D01*
X389311Y363614D01*
X389835Y363264D01*
X390452Y363141D01*
X391070Y363264D01*
X391593Y363614D01*
X391667Y363724D01*
X392197Y363618D01*
X392210Y363556D01*
X392560Y363032D01*
X393083Y362682D01*
X393701Y362560D01*
X394318Y362682D01*
X394842Y363032D01*
X395192Y363556D01*
X395315Y364173D01*
X395192Y364791D01*
X394886Y365248D01*
X394962Y365521D01*
X395093Y365748D01*
X414370D01*
Y360000D01*
D02*
G37*
%LPC*%
G36*
X376535Y54970D02*
X375918Y54848D01*
X375394Y54498D01*
X375045Y53974D01*
X374922Y53357D01*
X375045Y52739D01*
X375394Y52216D01*
X375918Y51866D01*
X376535Y51743D01*
X377153Y51866D01*
X377677Y52216D01*
X378026Y52739D01*
X378149Y53357D01*
X378026Y53974D01*
X377677Y54498D01*
X377153Y54848D01*
X376535Y54970D01*
D02*
G37*
G36*
X372598D02*
X371981Y54848D01*
X371457Y54498D01*
X371108Y53974D01*
X370985Y53357D01*
X371108Y52739D01*
X371457Y52216D01*
X371981Y51866D01*
X372598Y51743D01*
X373216Y51866D01*
X373740Y52216D01*
X374089Y52739D01*
X374212Y53357D01*
X374089Y53974D01*
X373740Y54498D01*
X373216Y54848D01*
X372598Y54970D01*
D02*
G37*
G36*
X368661Y58907D02*
X368044Y58785D01*
X367520Y58435D01*
X367171Y57911D01*
X367048Y57294D01*
X367171Y56676D01*
X367520Y56153D01*
X368044Y55803D01*
X368661Y55680D01*
X369279Y55803D01*
X369802Y56153D01*
X370152Y56676D01*
X370275Y57294D01*
X370152Y57911D01*
X369802Y58435D01*
X369279Y58785D01*
X368661Y58907D01*
D02*
G37*
G36*
X364724D02*
X364107Y58785D01*
X363583Y58435D01*
X363234Y57911D01*
X363111Y57294D01*
X363234Y56676D01*
X363583Y56153D01*
X364107Y55803D01*
X364724Y55680D01*
X365342Y55803D01*
X365865Y56153D01*
X366215Y56676D01*
X366338Y57294D01*
X366215Y57911D01*
X365865Y58435D01*
X365342Y58785D01*
X364724Y58907D01*
D02*
G37*
G36*
X372598D02*
X371981Y58785D01*
X371457Y58435D01*
X371108Y57911D01*
X370985Y57294D01*
X371108Y56676D01*
X371457Y56153D01*
X371981Y55803D01*
X372598Y55680D01*
X373216Y55803D01*
X373740Y56153D01*
X374089Y56676D01*
X374212Y57294D01*
X374089Y57911D01*
X373740Y58435D01*
X373216Y58785D01*
X372598Y58907D01*
D02*
G37*
G36*
X376535D02*
X375918Y58785D01*
X375394Y58435D01*
X375045Y57911D01*
X374922Y57294D01*
X375045Y56676D01*
X375394Y56153D01*
X375918Y55803D01*
X376535Y55680D01*
X377153Y55803D01*
X377677Y56153D01*
X378026Y56676D01*
X378149Y57294D01*
X378026Y57911D01*
X377677Y58435D01*
X377153Y58785D01*
X376535Y58907D01*
D02*
G37*
G36*
X387205Y59783D02*
X386587Y59660D01*
X386064Y59310D01*
X385714Y58787D01*
X385591Y58169D01*
X385714Y57552D01*
X386064Y57028D01*
X386587Y56678D01*
X387205Y56556D01*
X387822Y56678D01*
X388346Y57028D01*
X388696Y57552D01*
X388818Y58169D01*
X388696Y58787D01*
X388346Y59310D01*
X387822Y59660D01*
X387205Y59783D01*
D02*
G37*
G36*
X380472Y54970D02*
X379855Y54848D01*
X379331Y54498D01*
X378982Y53974D01*
X378859Y53357D01*
X378982Y52739D01*
X379331Y52216D01*
X379855Y51866D01*
X380472Y51743D01*
X381090Y51866D01*
X381613Y52216D01*
X381963Y52739D01*
X382086Y53357D01*
X381963Y53974D01*
X381613Y54498D01*
X381090Y54848D01*
X380472Y54970D01*
D02*
G37*
G36*
Y58907D02*
X379855Y58785D01*
X379331Y58435D01*
X378982Y57911D01*
X378859Y57294D01*
X378982Y56676D01*
X379331Y56153D01*
X379855Y55803D01*
X380472Y55680D01*
X381090Y55803D01*
X381613Y56153D01*
X381963Y56676D01*
X382086Y57294D01*
X381963Y57911D01*
X381613Y58435D01*
X381090Y58785D01*
X380472Y58907D01*
D02*
G37*
G36*
X364724Y54970D02*
X364107Y54848D01*
X363583Y54498D01*
X363234Y53974D01*
X363111Y53357D01*
X363234Y52739D01*
X363583Y52216D01*
X364107Y51866D01*
X364724Y51743D01*
X365342Y51866D01*
X365865Y52216D01*
X366215Y52739D01*
X366338Y53357D01*
X366215Y53974D01*
X365865Y54498D01*
X365342Y54848D01*
X364724Y54970D01*
D02*
G37*
G36*
X368661D02*
X368044Y54848D01*
X367520Y54498D01*
X367171Y53974D01*
X367048Y53357D01*
X367171Y52739D01*
X367520Y52216D01*
X368044Y51866D01*
X368661Y51743D01*
X369279Y51866D01*
X369802Y52216D01*
X370152Y52739D01*
X370275Y53357D01*
X370152Y53974D01*
X369802Y54498D01*
X369279Y54848D01*
X368661Y54970D01*
D02*
G37*
G36*
X504488Y146897D02*
X503871Y146774D01*
X503347Y146424D01*
X502997Y145901D01*
X502875Y145283D01*
X502997Y144666D01*
X503347Y144142D01*
X503871Y143793D01*
X504488Y143670D01*
X505106Y143793D01*
X505629Y144142D01*
X505979Y144666D01*
X506102Y145283D01*
X505979Y145901D01*
X505629Y146424D01*
X505106Y146774D01*
X504488Y146897D01*
D02*
G37*
G36*
X511220Y140000D02*
X510603Y139877D01*
X510079Y139527D01*
X509729Y139004D01*
X509607Y138386D01*
X509729Y137769D01*
X510079Y137245D01*
X510603Y136895D01*
X511220Y136773D01*
X511838Y136895D01*
X512361Y137245D01*
X512711Y137769D01*
X512834Y138386D01*
X512711Y139004D01*
X512361Y139527D01*
X511838Y139877D01*
X511220Y140000D01*
D02*
G37*
G36*
X483819Y141585D02*
X483201Y141462D01*
X482678Y141112D01*
X482328Y140588D01*
X482205Y139971D01*
X482328Y139353D01*
X482678Y138830D01*
X483201Y138480D01*
X483819Y138357D01*
X484436Y138480D01*
X484960Y138830D01*
X485310Y139353D01*
X485433Y139971D01*
X485310Y140588D01*
X484960Y141112D01*
X484436Y141462D01*
X483819Y141585D01*
D02*
G37*
G36*
X498032Y139999D02*
X497414Y139877D01*
X496890Y139527D01*
X496541Y139003D01*
X496418Y138386D01*
X496541Y137768D01*
X496890Y137245D01*
X497414Y136895D01*
X498032Y136772D01*
X498649Y136895D01*
X499172Y137245D01*
X499522Y137768D01*
X499645Y138386D01*
X499522Y139003D01*
X499172Y139527D01*
X498649Y139877D01*
X498032Y139999D01*
D02*
G37*
G36*
X503937D02*
X503320Y139877D01*
X502796Y139527D01*
X502446Y139003D01*
X502323Y138386D01*
X502446Y137768D01*
X502796Y137245D01*
X503320Y136895D01*
X503937Y136772D01*
X504555Y136895D01*
X505078Y137245D01*
X505428Y137768D01*
X505551Y138386D01*
X505428Y139003D01*
X505078Y139527D01*
X504555Y139877D01*
X503937Y139999D01*
D02*
G37*
G36*
X550748Y142569D02*
X550131Y142446D01*
X549607Y142096D01*
X549257Y141573D01*
X549134Y140955D01*
X549257Y140338D01*
X549607Y139814D01*
X550131Y139464D01*
X550748Y139341D01*
X551366Y139464D01*
X551889Y139814D01*
X552239Y140338D01*
X552362Y140955D01*
X552239Y141573D01*
X551889Y142096D01*
X551366Y142446D01*
X550748Y142569D01*
D02*
G37*
G36*
X506890Y142952D02*
X506272Y142829D01*
X505749Y142480D01*
X505399Y141956D01*
X505276Y141339D01*
X505399Y140721D01*
X505749Y140198D01*
X506272Y139848D01*
X506890Y139725D01*
X507507Y139848D01*
X508031Y140198D01*
X508381Y140721D01*
X508503Y141339D01*
X508381Y141956D01*
X508031Y142480D01*
X507507Y142829D01*
X506890Y142952D01*
D02*
G37*
G36*
X495079D02*
X494461Y142829D01*
X493938Y142480D01*
X493588Y141956D01*
X493465Y141339D01*
X493588Y140721D01*
X493938Y140198D01*
X494461Y139848D01*
X495079Y139725D01*
X495696Y139848D01*
X496220Y140198D01*
X496570Y140721D01*
X496692Y141339D01*
X496570Y141956D01*
X496220Y142480D01*
X495696Y142829D01*
X495079Y142952D01*
D02*
G37*
G36*
X500984D02*
X500367Y142829D01*
X499843Y142480D01*
X499493Y141956D01*
X499371Y141339D01*
X499493Y140721D01*
X499843Y140198D01*
X500367Y139848D01*
X500984Y139725D01*
X501602Y139848D01*
X502125Y140198D01*
X502475Y140721D01*
X502598Y141339D01*
X502475Y141956D01*
X502125Y142480D01*
X501602Y142829D01*
X500984Y142952D01*
D02*
G37*
G36*
X499705Y157815D02*
X499087Y157692D01*
X498564Y157342D01*
X498214Y156818D01*
X498091Y156201D01*
X498214Y155583D01*
X498564Y155060D01*
X499087Y154710D01*
X499705Y154587D01*
X500322Y154710D01*
X500846Y155060D01*
X501196Y155583D01*
X501318Y156201D01*
X501196Y156818D01*
X500846Y157342D01*
X500322Y157692D01*
X499705Y157815D01*
D02*
G37*
G36*
X529043Y163429D02*
X528065Y163300D01*
X527153Y162923D01*
X526370Y162322D01*
X525769Y161539D01*
X525392Y160627D01*
X525263Y159649D01*
X525392Y158670D01*
X525769Y157758D01*
X526370Y156976D01*
X527153Y156375D01*
X528065Y155997D01*
X529043Y155868D01*
X530022Y155997D01*
X530934Y156375D01*
X531716Y156976D01*
X532317Y157758D01*
X532695Y158670D01*
X532824Y159649D01*
X532695Y160627D01*
X532317Y161539D01*
X531716Y162322D01*
X530934Y162923D01*
X530022Y163300D01*
X529043Y163429D01*
D02*
G37*
G36*
X559606Y157333D02*
X558989Y157210D01*
X558465Y156860D01*
X558115Y156336D01*
X557993Y155719D01*
X558115Y155101D01*
X558465Y154578D01*
X558989Y154228D01*
X559606Y154105D01*
X560224Y154228D01*
X560747Y154578D01*
X561097Y155101D01*
X561220Y155719D01*
X561097Y156336D01*
X560747Y156860D01*
X560224Y157210D01*
X559606Y157333D01*
D02*
G37*
G36*
X494390Y157421D02*
X493772Y157298D01*
X493249Y156948D01*
X492899Y156425D01*
X492776Y155807D01*
X492899Y155190D01*
X493249Y154666D01*
X493772Y154316D01*
X494390Y154193D01*
X495007Y154316D01*
X495531Y154666D01*
X495881Y155190D01*
X496003Y155807D01*
X495881Y156425D01*
X495531Y156948D01*
X495007Y157298D01*
X494390Y157421D01*
D02*
G37*
G36*
X563105Y163073D02*
X562487Y162950D01*
X561964Y162600D01*
X561614Y162076D01*
X561491Y161459D01*
X561614Y160841D01*
X561964Y160318D01*
X562487Y159968D01*
X563105Y159845D01*
X563722Y159968D01*
X564246Y160318D01*
X564596Y160841D01*
X564718Y161459D01*
X564596Y162076D01*
X564246Y162600D01*
X563722Y162950D01*
X563105Y163073D01*
D02*
G37*
G36*
X569798Y163269D02*
X569180Y163146D01*
X568657Y162797D01*
X568307Y162273D01*
X568184Y161656D01*
X568307Y161038D01*
X568657Y160515D01*
X569180Y160165D01*
X569798Y160042D01*
X570415Y160165D01*
X570939Y160515D01*
X571289Y161038D01*
X571412Y161656D01*
X571289Y162273D01*
X570939Y162797D01*
X570415Y163146D01*
X569798Y163269D01*
D02*
G37*
G36*
X539043Y163429D02*
X538065Y163300D01*
X537153Y162923D01*
X536370Y162322D01*
X535769Y161539D01*
X535392Y160627D01*
X535263Y159649D01*
X535392Y158670D01*
X535769Y157758D01*
X536370Y156976D01*
X537153Y156375D01*
X538065Y155997D01*
X539043Y155868D01*
X540022Y155997D01*
X540934Y156375D01*
X541716Y156976D01*
X542317Y157758D01*
X542695Y158670D01*
X542824Y159649D01*
X542695Y160627D01*
X542317Y161539D01*
X541716Y162322D01*
X540934Y162923D01*
X540022Y163300D01*
X539043Y163429D01*
D02*
G37*
G36*
X507552Y160369D02*
X506935Y160246D01*
X506411Y159896D01*
X506061Y159372D01*
X505938Y158755D01*
X506061Y158137D01*
X506411Y157614D01*
X506935Y157264D01*
X507552Y157141D01*
X508170Y157264D01*
X508693Y157614D01*
X509043Y158137D01*
X509166Y158755D01*
X509043Y159372D01*
X508693Y159896D01*
X508170Y160246D01*
X507552Y160369D01*
D02*
G37*
G36*
X567913Y156732D02*
X567296Y156609D01*
X566772Y156259D01*
X566423Y155736D01*
X566300Y155118D01*
X566423Y154501D01*
X566772Y153977D01*
X567042Y153797D01*
X566847Y153326D01*
X566496Y153396D01*
X565878Y153273D01*
X565355Y152923D01*
X565005Y152399D01*
X564882Y151782D01*
X565005Y151164D01*
X565355Y150641D01*
X565878Y150291D01*
X566496Y150168D01*
X567114Y150291D01*
X567637Y150641D01*
X567788Y150866D01*
X586858D01*
X587009Y150641D01*
X587532Y150291D01*
X588150Y150168D01*
X588767Y150291D01*
X589291Y150641D01*
X589641Y151164D01*
X589763Y151782D01*
X589653Y152334D01*
X589735Y152575D01*
X589873Y152834D01*
X593748D01*
X593898Y152609D01*
X594422Y152260D01*
X595039Y152137D01*
X595657Y152260D01*
X596180Y152609D01*
X596530Y153133D01*
X596653Y153750D01*
X596530Y154368D01*
X596180Y154892D01*
X595657Y155241D01*
X595039Y155364D01*
X594422Y155241D01*
X593898Y154892D01*
X593748Y154666D01*
X572709D01*
X572558Y154892D01*
X572035Y155241D01*
X571417Y155364D01*
X570800Y155241D01*
X570276Y154892D01*
X569927Y154368D01*
X569804Y153750D01*
X569913Y153198D01*
X569833Y152957D01*
X569694Y152698D01*
X567788D01*
X567637Y152923D01*
X567367Y153103D01*
X567562Y153574D01*
X567913Y153504D01*
X568531Y153627D01*
X569054Y153977D01*
X569404Y154501D01*
X569527Y155118D01*
X569404Y155736D01*
X569054Y156259D01*
X568531Y156609D01*
X567913Y156732D01*
D02*
G37*
G36*
X483819Y148257D02*
X483201Y148134D01*
X482678Y147784D01*
X482328Y147261D01*
X482205Y146643D01*
X482328Y146026D01*
X482678Y145502D01*
X483201Y145152D01*
X483819Y145030D01*
X484436Y145152D01*
X484960Y145502D01*
X485310Y146026D01*
X485433Y146643D01*
X485310Y147261D01*
X484960Y147784D01*
X484436Y148134D01*
X483819Y148257D01*
D02*
G37*
G36*
X539043Y153429D02*
X538065Y153300D01*
X537153Y152923D01*
X536370Y152322D01*
X535769Y151539D01*
X535392Y150627D01*
X535263Y149649D01*
X535392Y148670D01*
X535769Y147758D01*
X536370Y146976D01*
X537153Y146375D01*
X538065Y145997D01*
X539043Y145868D01*
X540022Y145997D01*
X540934Y146375D01*
X541716Y146976D01*
X542317Y147758D01*
X542695Y148670D01*
X542824Y149649D01*
X542695Y150627D01*
X542317Y151539D01*
X541716Y152322D01*
X540934Y152923D01*
X540022Y153300D01*
X539043Y153429D01*
D02*
G37*
G36*
X552716Y155364D02*
X552099Y155241D01*
X551576Y154892D01*
X551226Y154368D01*
X551103Y153750D01*
X551226Y153133D01*
X551576Y152609D01*
X552099Y152260D01*
X552716Y152137D01*
X553334Y152260D01*
X553858Y152609D01*
X554207Y153133D01*
X554330Y153750D01*
X554207Y154368D01*
X553858Y154892D01*
X553334Y155241D01*
X552716Y155364D01*
D02*
G37*
G36*
X529043Y153429D02*
X528065Y153300D01*
X527153Y152923D01*
X526370Y152322D01*
X525769Y151539D01*
X525392Y150627D01*
X525263Y149649D01*
X525392Y148670D01*
X525769Y147758D01*
X526370Y146976D01*
X527153Y146375D01*
X528065Y145997D01*
X529043Y145868D01*
X530022Y145997D01*
X530934Y146375D01*
X531716Y146976D01*
X532317Y147758D01*
X532695Y148670D01*
X532824Y149649D01*
X532695Y150627D01*
X532317Y151539D01*
X531716Y152322D01*
X530934Y152923D01*
X530022Y153300D01*
X529043Y153429D01*
D02*
G37*
G36*
X572244Y139999D02*
X571627Y139877D01*
X571103Y139527D01*
X570753Y139003D01*
X570630Y138386D01*
X570753Y137768D01*
X571103Y137245D01*
X571627Y136895D01*
X572244Y136772D01*
X572862Y136895D01*
X573385Y137245D01*
X573735Y137768D01*
X573858Y138386D01*
X573735Y139003D01*
X573385Y139527D01*
X572862Y139877D01*
X572244Y139999D01*
D02*
G37*
G36*
X578150D02*
X577532Y139877D01*
X577009Y139527D01*
X576659Y139003D01*
X576536Y138386D01*
X576659Y137768D01*
X577009Y137245D01*
X577532Y136895D01*
X578150Y136772D01*
X578767Y136895D01*
X579291Y137245D01*
X579640Y137768D01*
X579763Y138386D01*
X579640Y139003D01*
X579291Y139527D01*
X578767Y139877D01*
X578150Y139999D01*
D02*
G37*
G36*
X566339D02*
X565721Y139877D01*
X565198Y139527D01*
X564848Y139003D01*
X564725Y138386D01*
X564848Y137768D01*
X565198Y137245D01*
X565721Y136895D01*
X566339Y136772D01*
X566956Y136895D01*
X567480Y137245D01*
X567829Y137768D01*
X567952Y138386D01*
X567829Y139003D01*
X567480Y139527D01*
X566956Y139877D01*
X566339Y139999D01*
D02*
G37*
G36*
X529043Y203429D02*
X528065Y203300D01*
X527153Y202923D01*
X526370Y202322D01*
X525769Y201539D01*
X525392Y200627D01*
X525263Y199649D01*
X525392Y198670D01*
X525769Y197758D01*
X526370Y196976D01*
X527153Y196375D01*
X528065Y195997D01*
X529043Y195868D01*
X530022Y195997D01*
X530934Y196375D01*
X531716Y196976D01*
X532317Y197758D01*
X532695Y198670D01*
X532824Y199649D01*
X532695Y200627D01*
X532317Y201539D01*
X531716Y202322D01*
X530934Y202923D01*
X530022Y203300D01*
X529043Y203429D01*
D02*
G37*
G36*
X539043D02*
X538065Y203300D01*
X537153Y202923D01*
X536370Y202322D01*
X535769Y201539D01*
X535392Y200627D01*
X535263Y199649D01*
X535392Y198670D01*
X535769Y197758D01*
X536370Y196976D01*
X537153Y196375D01*
X538065Y195997D01*
X539043Y195868D01*
X540022Y195997D01*
X540934Y196375D01*
X541716Y196976D01*
X542317Y197758D01*
X542695Y198670D01*
X542824Y199649D01*
X542695Y200627D01*
X542317Y201539D01*
X541716Y202322D01*
X540934Y202923D01*
X540022Y203300D01*
X539043Y203429D01*
D02*
G37*
G36*
X578150Y199055D02*
X577532Y198932D01*
X577009Y198582D01*
X576659Y198058D01*
X576536Y197441D01*
X576659Y196823D01*
X577009Y196300D01*
X577532Y195950D01*
X578150Y195827D01*
X578767Y195950D01*
X579291Y196300D01*
X579640Y196823D01*
X579763Y197441D01*
X579640Y198058D01*
X579291Y198582D01*
X578767Y198932D01*
X578150Y199055D01*
D02*
G37*
G36*
X484445Y199055D02*
X483827Y198932D01*
X483303Y198582D01*
X482954Y198059D01*
X482831Y197441D01*
X482954Y196824D01*
X483303Y196300D01*
X483827Y195950D01*
X484445Y195827D01*
X485062Y195950D01*
X485586Y196300D01*
X485935Y196824D01*
X486058Y197441D01*
X485935Y198059D01*
X485586Y198582D01*
X485062Y198932D01*
X484445Y199055D01*
D02*
G37*
G36*
X563543Y202999D02*
X562926Y202877D01*
X562402Y202527D01*
X562052Y202003D01*
X561930Y201386D01*
X562052Y200768D01*
X562402Y200245D01*
X562926Y199895D01*
X563543Y199772D01*
X564161Y199895D01*
X564684Y200245D01*
X565034Y200768D01*
X565157Y201386D01*
X565034Y202003D01*
X564684Y202527D01*
X564161Y202877D01*
X563543Y202999D01*
D02*
G37*
G36*
X567952Y203169D02*
X567335Y203046D01*
X566811Y202696D01*
X566461Y202172D01*
X566338Y201555D01*
X566461Y200937D01*
X566811Y200414D01*
X567335Y200064D01*
X567952Y199941D01*
X568570Y200064D01*
X569093Y200414D01*
X569443Y200937D01*
X569566Y201555D01*
X569443Y202172D01*
X569093Y202696D01*
X568570Y203046D01*
X567952Y203169D01*
D02*
G37*
G36*
X575197Y196102D02*
X574579Y195979D01*
X574056Y195629D01*
X573706Y195106D01*
X573583Y194488D01*
X573706Y193871D01*
X574056Y193347D01*
X574579Y192997D01*
X575197Y192875D01*
X575814Y192997D01*
X576338Y193347D01*
X576688Y193871D01*
X576811Y194488D01*
X576688Y195106D01*
X576338Y195629D01*
X575814Y195979D01*
X575197Y196102D01*
D02*
G37*
G36*
X553701Y197687D02*
X553083Y197564D01*
X552560Y197214D01*
X552210Y196691D01*
X552087Y196073D01*
X552210Y195456D01*
X552560Y194932D01*
X553083Y194582D01*
X553701Y194459D01*
X554318Y194582D01*
X554842Y194932D01*
X555192Y195456D01*
X555314Y196073D01*
X555192Y196691D01*
X554842Y197214D01*
X554318Y197564D01*
X553701Y197687D01*
D02*
G37*
G36*
X502654Y195118D02*
X502037Y194995D01*
X501513Y194645D01*
X501163Y194122D01*
X501040Y193504D01*
X501163Y192886D01*
X501513Y192363D01*
X502037Y192013D01*
X502654Y191890D01*
X503272Y192013D01*
X503795Y192363D01*
X504145Y192886D01*
X504268Y193504D01*
X504145Y194122D01*
X503795Y194645D01*
X503272Y194995D01*
X502654Y195118D01*
D02*
G37*
G36*
X569291Y196102D02*
X568674Y195979D01*
X568150Y195629D01*
X567801Y195106D01*
X567678Y194488D01*
X567801Y193871D01*
X568150Y193347D01*
X568674Y192997D01*
X569291Y192875D01*
X569909Y192997D01*
X570432Y193347D01*
X570782Y193871D01*
X570905Y194488D01*
X570782Y195106D01*
X570432Y195629D01*
X569909Y195979D01*
X569291Y196102D01*
D02*
G37*
G36*
X494488Y198070D02*
X493871Y197948D01*
X493347Y197598D01*
X492997Y197074D01*
X492874Y196457D01*
X492997Y195839D01*
X493347Y195316D01*
X493871Y194966D01*
X494488Y194843D01*
X495106Y194966D01*
X495629Y195316D01*
X495979Y195839D01*
X496102Y196457D01*
X495979Y197074D01*
X495629Y197598D01*
X495106Y197948D01*
X494488Y198070D01*
D02*
G37*
G36*
X566339Y199055D02*
X565721Y198932D01*
X565198Y198582D01*
X564848Y198058D01*
X564725Y197441D01*
X564848Y196823D01*
X565198Y196300D01*
X565721Y195950D01*
X566339Y195827D01*
X566956Y195950D01*
X567480Y196300D01*
X567829Y196823D01*
X567952Y197441D01*
X567829Y198058D01*
X567480Y198582D01*
X566956Y198932D01*
X566339Y199055D01*
D02*
G37*
G36*
X572244D02*
X571627Y198932D01*
X571103Y198582D01*
X570753Y198058D01*
X570630Y197441D01*
X570753Y196823D01*
X571103Y196300D01*
X571627Y195950D01*
X572244Y195827D01*
X572862Y195950D01*
X573385Y196300D01*
X573735Y196823D01*
X573858Y197441D01*
X573735Y198058D01*
X573385Y198582D01*
X572862Y198932D01*
X572244Y199055D01*
D02*
G37*
G36*
X500394Y198070D02*
X499776Y197948D01*
X499253Y197598D01*
X498903Y197074D01*
X498780Y196457D01*
X498903Y195839D01*
X499253Y195316D01*
X499776Y194966D01*
X500394Y194843D01*
X501011Y194966D01*
X501535Y195316D01*
X501885Y195839D01*
X502007Y196457D01*
X501885Y197074D01*
X501535Y197598D01*
X501011Y197948D01*
X500394Y198070D01*
D02*
G37*
G36*
X506299D02*
X505682Y197948D01*
X505158Y197598D01*
X504808Y197074D01*
X504685Y196457D01*
X504808Y195839D01*
X505158Y195316D01*
X505682Y194966D01*
X506299Y194843D01*
X506917Y194966D01*
X507440Y195316D01*
X507790Y195839D01*
X507913Y196457D01*
X507790Y197074D01*
X507440Y197598D01*
X506917Y197948D01*
X506299Y198070D01*
D02*
G37*
G36*
X582094Y190628D02*
X581477Y190505D01*
X580953Y190155D01*
X580604Y189632D01*
X580481Y189014D01*
X580604Y188397D01*
X580953Y187873D01*
X581179Y187723D01*
Y184689D01*
X578715Y182226D01*
X572709D01*
X572558Y182450D01*
X572035Y182800D01*
X571417Y182923D01*
X570800Y182800D01*
X570276Y182450D01*
X570012Y182055D01*
X569452Y181908D01*
X569403Y181957D01*
X569105Y182156D01*
X568774Y182222D01*
X568621Y182450D01*
X568098Y182800D01*
X567480Y182923D01*
X566863Y182800D01*
X566339Y182450D01*
X565989Y181927D01*
X565867Y181309D01*
X565989Y180692D01*
X566339Y180168D01*
X566863Y179819D01*
X567480Y179696D01*
X568098Y179819D01*
X568609Y180160D01*
X569990Y178779D01*
X570287Y178580D01*
X570638Y178511D01*
X578907D01*
X579257Y178580D01*
X579554Y178779D01*
X580879Y180104D01*
X581310Y179816D01*
X581928Y179693D01*
X582545Y179816D01*
X583069Y180166D01*
X583419Y180690D01*
X583541Y181307D01*
X583419Y181925D01*
X583069Y182448D01*
X582569Y182782D01*
X582507Y182843D01*
X582396Y183315D01*
X582891Y183811D01*
X583090Y184108D01*
X583160Y184459D01*
X583090Y184809D01*
X583010Y184928D01*
Y187723D01*
X583236Y187873D01*
X583585Y188397D01*
X583708Y189014D01*
X583585Y189632D01*
X583236Y190155D01*
X582712Y190505D01*
X582094Y190628D01*
D02*
G37*
G36*
X494488Y186259D02*
X493871Y186136D01*
X493347Y185787D01*
X492997Y185263D01*
X492874Y184646D01*
X492997Y184028D01*
X493347Y183505D01*
X493871Y183155D01*
X494488Y183032D01*
X495106Y183155D01*
X495629Y183505D01*
X495979Y184028D01*
X496102Y184646D01*
X495979Y185263D01*
X495629Y185787D01*
X495106Y186136D01*
X494488Y186259D01*
D02*
G37*
G36*
X483819Y182923D02*
X483201Y182800D01*
X482678Y182450D01*
X482328Y181927D01*
X482205Y181309D01*
X482328Y180692D01*
X482678Y180168D01*
X483201Y179819D01*
X483819Y179696D01*
X484436Y179819D01*
X484960Y180168D01*
X485310Y180692D01*
X485433Y181309D01*
X485310Y181927D01*
X484960Y182450D01*
X484436Y182800D01*
X483819Y182923D01*
D02*
G37*
G36*
X555669D02*
X555052Y182800D01*
X554528Y182450D01*
X554178Y181927D01*
X554056Y181309D01*
X554178Y180692D01*
X554528Y180168D01*
X555052Y179819D01*
X555669Y179696D01*
X556287Y179819D01*
X556810Y180168D01*
X557160Y180692D01*
X557283Y181309D01*
X557160Y181927D01*
X556810Y182450D01*
X556287Y182800D01*
X555669Y182923D01*
D02*
G37*
G36*
X500394Y186259D02*
X499776Y186136D01*
X499253Y185787D01*
X498903Y185263D01*
X498780Y184646D01*
X498903Y184028D01*
X499253Y183505D01*
X499776Y183155D01*
X500394Y183032D01*
X501011Y183155D01*
X501535Y183505D01*
X501885Y184028D01*
X502007Y184646D01*
X501885Y185263D01*
X501535Y185787D01*
X501011Y186136D01*
X500394Y186259D01*
D02*
G37*
G36*
X572244Y187244D02*
X571627Y187121D01*
X571103Y186771D01*
X570753Y186248D01*
X570630Y185630D01*
X570753Y185012D01*
X571103Y184489D01*
X571627Y184139D01*
X572244Y184016D01*
X572862Y184139D01*
X573385Y184489D01*
X573735Y185012D01*
X573858Y185630D01*
X573735Y186248D01*
X573385Y186771D01*
X572862Y187121D01*
X572244Y187244D01*
D02*
G37*
G36*
X578150D02*
X577532Y187121D01*
X577009Y186771D01*
X576659Y186248D01*
X576536Y185630D01*
X576659Y185012D01*
X577009Y184489D01*
X577532Y184139D01*
X578150Y184016D01*
X578767Y184139D01*
X579291Y184489D01*
X579640Y185012D01*
X579763Y185630D01*
X579640Y186248D01*
X579291Y186771D01*
X578767Y187121D01*
X578150Y187244D01*
D02*
G37*
G36*
X506299Y186259D02*
X505682Y186136D01*
X505158Y185787D01*
X504808Y185263D01*
X504685Y184646D01*
X504808Y184028D01*
X505158Y183505D01*
X505682Y183155D01*
X506299Y183032D01*
X506917Y183155D01*
X507440Y183505D01*
X507790Y184028D01*
X507913Y184646D01*
X507790Y185263D01*
X507440Y185787D01*
X506917Y186136D01*
X506299Y186259D01*
D02*
G37*
G36*
X566339Y187244D02*
X565721Y187121D01*
X565198Y186771D01*
X564848Y186248D01*
X564725Y185630D01*
X564848Y185012D01*
X565198Y184489D01*
X565721Y184139D01*
X566339Y184016D01*
X566956Y184139D01*
X567480Y184489D01*
X567829Y185012D01*
X567952Y185630D01*
X567829Y186248D01*
X567480Y186771D01*
X566956Y187121D01*
X566339Y187244D01*
D02*
G37*
G36*
X539043Y173429D02*
X538065Y173300D01*
X537153Y172923D01*
X536370Y172322D01*
X535769Y171539D01*
X535392Y170627D01*
X535263Y169649D01*
X535392Y168670D01*
X535769Y167759D01*
X536370Y166976D01*
X537153Y166375D01*
X538065Y165997D01*
X539043Y165868D01*
X540022Y165997D01*
X540934Y166375D01*
X541716Y166976D01*
X542317Y167759D01*
X542695Y168670D01*
X542824Y169649D01*
X542695Y170627D01*
X542317Y171539D01*
X541716Y172322D01*
X540934Y172923D01*
X540022Y173300D01*
X539043Y173429D01*
D02*
G37*
G36*
X564528Y172096D02*
X563910Y171974D01*
X563386Y171624D01*
X563037Y171100D01*
X562914Y170483D01*
X563037Y169865D01*
X563386Y169342D01*
X563910Y168992D01*
X564528Y168869D01*
X565145Y168992D01*
X565669Y169342D01*
X566018Y169865D01*
X566141Y170483D01*
X566018Y171100D01*
X565669Y171624D01*
X565145Y171974D01*
X564528Y172096D01*
D02*
G37*
G36*
X494587Y165689D02*
X493969Y165566D01*
X493446Y165216D01*
X493096Y164692D01*
X492973Y164075D01*
X493096Y163457D01*
X493446Y162934D01*
X493969Y162584D01*
X494587Y162461D01*
X495204Y162584D01*
X495728Y162934D01*
X496077Y163457D01*
X496200Y164075D01*
X496077Y164692D01*
X495728Y165216D01*
X495204Y165566D01*
X494587Y165689D01*
D02*
G37*
G36*
X569291Y168986D02*
X568674Y168863D01*
X568150Y168514D01*
X567801Y167990D01*
X567678Y167372D01*
X567801Y166755D01*
X568150Y166231D01*
X568674Y165882D01*
X569291Y165759D01*
X569909Y165882D01*
X570432Y166231D01*
X570782Y166755D01*
X570905Y167372D01*
X570782Y167990D01*
X570432Y168514D01*
X569909Y168863D01*
X569291Y168986D01*
D02*
G37*
G36*
X573386Y172096D02*
X572768Y171974D01*
X572245Y171624D01*
X571895Y171100D01*
X571772Y170483D01*
X571895Y169865D01*
X572245Y169342D01*
X572768Y168992D01*
X573386Y168869D01*
X574003Y168992D01*
X574527Y169342D01*
X574877Y169865D01*
X575000Y170483D01*
X574877Y171100D01*
X574527Y171624D01*
X574003Y171974D01*
X573386Y172096D01*
D02*
G37*
G36*
X529043Y183429D02*
X528065Y183300D01*
X527153Y182923D01*
X526370Y182322D01*
X525769Y181539D01*
X525392Y180627D01*
X525263Y179649D01*
X525392Y178670D01*
X525769Y177759D01*
X526370Y176976D01*
X527153Y176375D01*
X528065Y175997D01*
X529043Y175868D01*
X530022Y175997D01*
X530934Y176375D01*
X531716Y176976D01*
X532317Y177759D01*
X532695Y178670D01*
X532824Y179649D01*
X532695Y180627D01*
X532317Y181539D01*
X531716Y182322D01*
X530934Y182923D01*
X530022Y183300D01*
X529043Y183429D01*
D02*
G37*
G36*
X539043D02*
X538065Y183300D01*
X537153Y182923D01*
X536370Y182322D01*
X535769Y181539D01*
X535392Y180627D01*
X535263Y179649D01*
X535392Y178670D01*
X535769Y177759D01*
X536370Y176976D01*
X537153Y176375D01*
X538065Y175997D01*
X539043Y175868D01*
X540022Y175997D01*
X540934Y176375D01*
X541716Y176976D01*
X542317Y177759D01*
X542695Y178670D01*
X542824Y179649D01*
X542695Y180627D01*
X542317Y181539D01*
X541716Y182322D01*
X540934Y182923D01*
X540022Y183300D01*
X539043Y183429D01*
D02*
G37*
G36*
X510394Y188829D02*
X509776Y188706D01*
X509253Y188356D01*
X508903Y187832D01*
X508780Y187215D01*
X508903Y186597D01*
X509253Y186074D01*
X509529Y185889D01*
Y178469D01*
X505361Y174301D01*
X500892D01*
X500708Y174576D01*
X500184Y174926D01*
X499567Y175049D01*
X498949Y174926D01*
X498426Y174576D01*
X498076Y174053D01*
X497953Y173435D01*
X498051Y172945D01*
X497620Y172668D01*
X497179Y173110D01*
X497244Y173435D01*
X497121Y174053D01*
X496771Y174576D01*
X496247Y174926D01*
X495630Y175049D01*
X495012Y174926D01*
X494489Y174576D01*
X494139Y174053D01*
X494016Y173435D01*
X494139Y172818D01*
X494489Y172294D01*
X495012Y171945D01*
X495630Y171822D01*
X495681Y171341D01*
X495347Y171274D01*
X494824Y170924D01*
X494474Y170401D01*
X494351Y169783D01*
X494474Y169166D01*
X494824Y168642D01*
X495347Y168293D01*
X495965Y168170D01*
X496254Y168227D01*
X496829Y167902D01*
X496832Y167885D01*
X497182Y167362D01*
X497706Y167012D01*
X498323Y166889D01*
X498941Y167012D01*
X499464Y167362D01*
X499814Y167885D01*
X499868Y168159D01*
X503269D01*
X503363Y168019D01*
X504436Y166945D01*
X504717Y166758D01*
X505048Y166692D01*
X506566D01*
X506897Y166758D01*
X507178Y166945D01*
X508392Y168159D01*
X522030D01*
X522214Y167883D01*
X522738Y167534D01*
X523355Y167411D01*
X523973Y167534D01*
X524496Y167883D01*
X524846Y168407D01*
X524882Y168590D01*
X525358Y168661D01*
X525403Y168644D01*
X525769Y167759D01*
X526370Y166976D01*
X527153Y166375D01*
X528065Y165997D01*
X529043Y165868D01*
X530022Y165997D01*
X530934Y166375D01*
X531716Y166976D01*
X532317Y167759D01*
X532695Y168670D01*
X532824Y169649D01*
X532695Y170627D01*
X532317Y171539D01*
X531716Y172322D01*
X530934Y172923D01*
X530022Y173300D01*
X529043Y173429D01*
X528065Y173300D01*
X527153Y172923D01*
X526370Y172322D01*
X525769Y171539D01*
X525392Y170627D01*
X525285Y169816D01*
X525256Y169805D01*
X524772Y169752D01*
X524496Y170165D01*
X523973Y170515D01*
X523355Y170638D01*
X522738Y170515D01*
X522214Y170165D01*
X522030Y169889D01*
X517397D01*
X517246Y170389D01*
X517283Y170414D01*
X517633Y170938D01*
X517755Y171555D01*
X517633Y172173D01*
X517283Y172696D01*
X516759Y173046D01*
X516142Y173169D01*
X515524Y173046D01*
X515001Y172696D01*
X514816Y172420D01*
X506616D01*
X506530Y172542D01*
X506427Y172920D01*
X511005Y177499D01*
X511193Y177779D01*
X511259Y178110D01*
Y185889D01*
X511535Y186074D01*
X511885Y186597D01*
X512007Y187215D01*
X511885Y187832D01*
X511535Y188356D01*
X511011Y188706D01*
X510394Y188829D01*
D02*
G37*
G36*
X593071Y178002D02*
X592453Y177879D01*
X591930Y177529D01*
X591580Y177006D01*
X591457Y176388D01*
X591580Y175771D01*
X591930Y175247D01*
X592453Y174897D01*
X593071Y174775D01*
X593688Y174897D01*
X594212Y175247D01*
X594562Y175771D01*
X594685Y176388D01*
X594562Y177006D01*
X594212Y177529D01*
X593688Y177879D01*
X593071Y178002D01*
D02*
G37*
G36*
X561575Y188829D02*
X560957Y188706D01*
X560434Y188356D01*
X560084Y187832D01*
X559961Y187215D01*
X560084Y186597D01*
X560434Y186074D01*
X560957Y185724D01*
X561575Y185601D01*
X562192Y185724D01*
X562716Y186074D01*
X563066Y186597D01*
X563189Y187215D01*
X563066Y187832D01*
X562716Y188356D01*
X562192Y188706D01*
X561575Y188829D01*
D02*
G37*
G36*
X566339Y193149D02*
X565721Y193026D01*
X565198Y192676D01*
X564848Y192153D01*
X564725Y191535D01*
X564848Y190918D01*
X565198Y190394D01*
X565721Y190045D01*
X566339Y189922D01*
X566956Y190045D01*
X567480Y190394D01*
X567829Y190918D01*
X567952Y191535D01*
X567829Y192153D01*
X567480Y192676D01*
X566956Y193026D01*
X566339Y193149D01*
D02*
G37*
G36*
X572244D02*
X571627Y193026D01*
X571103Y192676D01*
X570753Y192153D01*
X570630Y191535D01*
X570753Y190918D01*
X571103Y190394D01*
X571627Y190045D01*
X572244Y189922D01*
X572862Y190045D01*
X573385Y190394D01*
X573735Y190918D01*
X573858Y191535D01*
X573735Y192153D01*
X573385Y192676D01*
X572862Y193026D01*
X572244Y193149D01*
D02*
G37*
G36*
X506299Y192165D02*
X505682Y192042D01*
X505158Y191692D01*
X504808Y191169D01*
X504685Y190551D01*
X504808Y189934D01*
X505158Y189410D01*
X505682Y189060D01*
X506299Y188937D01*
X506917Y189060D01*
X507440Y189410D01*
X507790Y189934D01*
X507913Y190551D01*
X507790Y191169D01*
X507440Y191692D01*
X506917Y192042D01*
X506299Y192165D01*
D02*
G37*
G36*
X483263Y193149D02*
X482646Y193026D01*
X482122Y192676D01*
X481773Y192153D01*
X481650Y191535D01*
X481773Y190918D01*
X482122Y190394D01*
X482646Y190045D01*
X483263Y189922D01*
X483881Y190045D01*
X484404Y190394D01*
X484754Y190918D01*
X484877Y191535D01*
X484754Y192153D01*
X484404Y192676D01*
X483881Y193026D01*
X483263Y193149D01*
D02*
G37*
G36*
X578150D02*
X577532Y193026D01*
X577009Y192676D01*
X576659Y192153D01*
X576536Y191535D01*
X576659Y190918D01*
X577009Y190394D01*
X577532Y190045D01*
X578150Y189922D01*
X578767Y190045D01*
X579291Y190394D01*
X579640Y190918D01*
X579763Y191535D01*
X579640Y192153D01*
X579291Y192676D01*
X578767Y193026D01*
X578150Y193149D01*
D02*
G37*
G36*
X583286Y200175D02*
X582669Y200052D01*
X582145Y199702D01*
X581796Y199179D01*
X581673Y198561D01*
X581760Y198121D01*
X581550Y197626D01*
X581471Y197529D01*
X581001Y197214D01*
X580651Y196691D01*
X580528Y196073D01*
X580651Y195456D01*
X581001Y194932D01*
X581402Y194664D01*
X581529Y194513D01*
X581558Y194066D01*
X581361Y193772D01*
X581238Y193155D01*
X581361Y192537D01*
X581711Y192014D01*
X582235Y191664D01*
X582852Y191541D01*
X583470Y191664D01*
X583993Y192014D01*
X584343Y192537D01*
X584466Y193155D01*
X584343Y193772D01*
X583993Y194296D01*
X583592Y194564D01*
X583465Y194715D01*
X583436Y195162D01*
X583633Y195456D01*
X583755Y196073D01*
X583668Y196513D01*
X583878Y197009D01*
X583957Y197106D01*
X584427Y197420D01*
X584777Y197943D01*
X584900Y198561D01*
X584777Y199179D01*
X584427Y199702D01*
X583904Y200052D01*
X583286Y200175D01*
D02*
G37*
G36*
X497441Y195118D02*
X496823Y194995D01*
X496300Y194645D01*
X495950Y194122D01*
X495827Y193504D01*
X495950Y192886D01*
X496300Y192363D01*
X496823Y192013D01*
X497441Y191890D01*
X498059Y192013D01*
X498582Y192363D01*
X498932Y192886D01*
X499055Y193504D01*
X498932Y194122D01*
X498582Y194645D01*
X498059Y194995D01*
X497441Y195118D01*
D02*
G37*
G36*
X590118Y193750D02*
X589501Y193627D01*
X588977Y193277D01*
X588627Y192754D01*
X588504Y192136D01*
X588627Y191519D01*
X588977Y190995D01*
X589501Y190645D01*
X590118Y190523D01*
X590736Y190645D01*
X591259Y190995D01*
X591609Y191519D01*
X591732Y192136D01*
X591609Y192754D01*
X591259Y193277D01*
X590736Y193627D01*
X590118Y193750D01*
D02*
G37*
G36*
X510394Y194734D02*
X509776Y194611D01*
X509253Y194262D01*
X508903Y193738D01*
X508780Y193121D01*
X508903Y192503D01*
X509253Y191979D01*
X509776Y191630D01*
X510394Y191507D01*
X511011Y191630D01*
X511535Y191979D01*
X511885Y192503D01*
X512007Y193121D01*
X511885Y193738D01*
X511535Y194262D01*
X511011Y194611D01*
X510394Y194734D01*
D02*
G37*
G36*
X502654Y189212D02*
X502037Y189089D01*
X501513Y188739D01*
X501163Y188216D01*
X501040Y187598D01*
X501163Y186981D01*
X501513Y186457D01*
X502037Y186107D01*
X502654Y185985D01*
X503272Y186107D01*
X503795Y186457D01*
X504145Y186981D01*
X504268Y187598D01*
X504145Y188216D01*
X503795Y188739D01*
X503272Y189089D01*
X502654Y189212D01*
D02*
G37*
G36*
X484203Y189212D02*
X483586Y189089D01*
X483062Y188740D01*
X482712Y188216D01*
X482590Y187598D01*
X482712Y186981D01*
X483062Y186457D01*
X483586Y186108D01*
X484203Y185985D01*
X484821Y186108D01*
X485344Y186457D01*
X485694Y186981D01*
X485817Y187598D01*
X485694Y188216D01*
X485344Y188740D01*
X484821Y189089D01*
X484203Y189212D01*
D02*
G37*
G36*
X529043Y193429D02*
X528065Y193300D01*
X527153Y192923D01*
X526370Y192322D01*
X525769Y191539D01*
X525392Y190627D01*
X525263Y189649D01*
X525392Y188670D01*
X525769Y187759D01*
X526370Y186976D01*
X527153Y186375D01*
X528065Y185997D01*
X529043Y185868D01*
X530022Y185997D01*
X530934Y186375D01*
X531716Y186976D01*
X532317Y187759D01*
X532695Y188670D01*
X532824Y189649D01*
X532695Y190627D01*
X532317Y191539D01*
X531716Y192322D01*
X530934Y192923D01*
X530022Y193300D01*
X529043Y193429D01*
D02*
G37*
G36*
X539043D02*
X538065Y193300D01*
X537153Y192923D01*
X536370Y192322D01*
X535769Y191539D01*
X535392Y190627D01*
X535263Y189649D01*
X535392Y188670D01*
X535769Y187759D01*
X536370Y186976D01*
X537153Y186375D01*
X538065Y185997D01*
X539043Y185868D01*
X540022Y185997D01*
X540934Y186375D01*
X541716Y186976D01*
X542317Y187759D01*
X542695Y188670D01*
X542824Y189649D01*
X542695Y190627D01*
X542317Y191539D01*
X541716Y192322D01*
X540934Y192923D01*
X540022Y193300D01*
X539043Y193429D01*
D02*
G37*
G36*
X497441Y189212D02*
X496823Y189089D01*
X496300Y188740D01*
X495950Y188216D01*
X495827Y187598D01*
X495950Y186981D01*
X496300Y186457D01*
X496823Y186108D01*
X497441Y185985D01*
X498059Y186108D01*
X498582Y186457D01*
X498932Y186981D01*
X499055Y187598D01*
X498932Y188216D01*
X498582Y188740D01*
X498059Y189089D01*
X497441Y189212D01*
D02*
G37*
G36*
X495079Y192165D02*
X494461Y192042D01*
X493938Y191692D01*
X493588Y191169D01*
X493465Y190551D01*
X493588Y189934D01*
X493938Y189410D01*
X494461Y189060D01*
X495079Y188937D01*
X495696Y189060D01*
X496220Y189410D01*
X496570Y189934D01*
X496692Y190551D01*
X496570Y191169D01*
X496220Y191692D01*
X495696Y192042D01*
X495079Y192165D01*
D02*
G37*
G36*
X500394D02*
X499776Y192042D01*
X499253Y191692D01*
X498903Y191169D01*
X498780Y190551D01*
X498903Y189934D01*
X499253Y189410D01*
X499776Y189060D01*
X500394Y188937D01*
X501011Y189060D01*
X501535Y189410D01*
X501885Y189934D01*
X502007Y190551D01*
X501885Y191169D01*
X501535Y191692D01*
X501011Y192042D01*
X500394Y192165D01*
D02*
G37*
G36*
X569291Y190196D02*
X568674Y190074D01*
X568150Y189724D01*
X567801Y189200D01*
X567678Y188583D01*
X567801Y187965D01*
X568150Y187442D01*
X568674Y187092D01*
X569291Y186969D01*
X569909Y187092D01*
X570432Y187442D01*
X570782Y187965D01*
X570905Y188583D01*
X570782Y189200D01*
X570432Y189724D01*
X569909Y190074D01*
X569291Y190196D01*
D02*
G37*
G36*
X575197D02*
X574579Y190074D01*
X574056Y189724D01*
X573706Y189200D01*
X573583Y188583D01*
X573706Y187965D01*
X574056Y187442D01*
X574579Y187092D01*
X575197Y186969D01*
X575814Y187092D01*
X576338Y187442D01*
X576688Y187965D01*
X576811Y188583D01*
X576688Y189200D01*
X576338Y189724D01*
X575814Y190074D01*
X575197Y190196D01*
D02*
G37*
G36*
X368661Y232136D02*
X368044Y232013D01*
X367520Y231663D01*
X367171Y231140D01*
X367048Y230522D01*
X367171Y229905D01*
X367520Y229381D01*
X368044Y229031D01*
X368661Y228908D01*
X369279Y229031D01*
X369802Y229381D01*
X370152Y229905D01*
X370275Y230522D01*
X370152Y231140D01*
X369802Y231663D01*
X369279Y232013D01*
X368661Y232136D01*
D02*
G37*
G36*
X372598D02*
X371981Y232013D01*
X371457Y231663D01*
X371108Y231140D01*
X370985Y230522D01*
X371108Y229905D01*
X371457Y229381D01*
X371981Y229031D01*
X372598Y228908D01*
X373216Y229031D01*
X373740Y229381D01*
X374089Y229905D01*
X374212Y230522D01*
X374089Y231140D01*
X373740Y231663D01*
X373216Y232013D01*
X372598Y232136D01*
D02*
G37*
G36*
X364724D02*
X364107Y232013D01*
X363583Y231663D01*
X363234Y231140D01*
X363111Y230522D01*
X363234Y229905D01*
X363583Y229381D01*
X364107Y229031D01*
X364724Y228908D01*
X365342Y229031D01*
X365865Y229381D01*
X366215Y229905D01*
X366338Y230522D01*
X366215Y231140D01*
X365865Y231663D01*
X365342Y232013D01*
X364724Y232136D01*
D02*
G37*
G36*
X376535D02*
X375918Y232013D01*
X375394Y231663D01*
X375045Y231140D01*
X374922Y230522D01*
X375045Y229905D01*
X375394Y229381D01*
X375918Y229031D01*
X376535Y228908D01*
X377153Y229031D01*
X377677Y229381D01*
X378026Y229905D01*
X378149Y230522D01*
X378026Y231140D01*
X377677Y231663D01*
X377153Y232013D01*
X376535Y232136D01*
D02*
G37*
G36*
X368661Y236073D02*
X368044Y235950D01*
X367520Y235600D01*
X367171Y235077D01*
X367048Y234459D01*
X367171Y233841D01*
X367520Y233318D01*
X368044Y232968D01*
X368661Y232845D01*
X369279Y232968D01*
X369802Y233318D01*
X370152Y233841D01*
X370275Y234459D01*
X370152Y235077D01*
X369802Y235600D01*
X369279Y235950D01*
X368661Y236073D01*
D02*
G37*
G36*
X372598D02*
X371981Y235950D01*
X371457Y235600D01*
X371108Y235077D01*
X370985Y234459D01*
X371108Y233841D01*
X371457Y233318D01*
X371981Y232968D01*
X372598Y232845D01*
X373216Y232968D01*
X373740Y233318D01*
X374089Y233841D01*
X374212Y234459D01*
X374089Y235077D01*
X373740Y235600D01*
X373216Y235950D01*
X372598Y236073D01*
D02*
G37*
G36*
X380472Y232136D02*
X379855Y232013D01*
X379331Y231663D01*
X378982Y231140D01*
X378859Y230522D01*
X378982Y229905D01*
X379331Y229381D01*
X379855Y229031D01*
X380472Y228908D01*
X381090Y229031D01*
X381613Y229381D01*
X381963Y229905D01*
X382086Y230522D01*
X381963Y231140D01*
X381613Y231663D01*
X381090Y232013D01*
X380472Y232136D01*
D02*
G37*
G36*
X364724Y236073D02*
X364107Y235950D01*
X363583Y235600D01*
X363234Y235077D01*
X363111Y234459D01*
X363234Y233841D01*
X363583Y233318D01*
X364107Y232968D01*
X364724Y232845D01*
X365342Y232968D01*
X365865Y233318D01*
X366215Y233841D01*
X366338Y234459D01*
X366215Y235077D01*
X365865Y235600D01*
X365342Y235950D01*
X364724Y236073D01*
D02*
G37*
G36*
X376535D02*
X375918Y235950D01*
X375394Y235600D01*
X375045Y235077D01*
X374922Y234459D01*
X375045Y233841D01*
X375394Y233318D01*
X375918Y232968D01*
X376535Y232845D01*
X377153Y232968D01*
X377677Y233318D01*
X378026Y233841D01*
X378149Y234459D01*
X378026Y235077D01*
X377677Y235600D01*
X377153Y235950D01*
X376535Y236073D01*
D02*
G37*
G36*
X380472D02*
X379855Y235950D01*
X379331Y235600D01*
X378982Y235077D01*
X378859Y234459D01*
X378982Y233841D01*
X379331Y233318D01*
X379855Y232968D01*
X380472Y232845D01*
X381090Y232968D01*
X381613Y233318D01*
X381963Y233841D01*
X382086Y234459D01*
X381963Y235077D01*
X381613Y235600D01*
X381090Y235950D01*
X380472Y236073D01*
D02*
G37*
G36*
X387205Y236948D02*
X386587Y236825D01*
X386064Y236476D01*
X385714Y235952D01*
X385591Y235335D01*
X385714Y234717D01*
X386064Y234194D01*
X386587Y233844D01*
X387205Y233721D01*
X387822Y233844D01*
X388346Y234194D01*
X388696Y234717D01*
X388818Y235335D01*
X388696Y235952D01*
X388346Y236476D01*
X387822Y236825D01*
X387205Y236948D01*
D02*
G37*
G36*
X372598Y143553D02*
X371981Y143430D01*
X371457Y143080D01*
X371108Y142557D01*
X370985Y141939D01*
X371108Y141322D01*
X371457Y140798D01*
X371981Y140448D01*
X372598Y140326D01*
X373216Y140448D01*
X373740Y140798D01*
X374089Y141322D01*
X374212Y141939D01*
X374089Y142557D01*
X373740Y143080D01*
X373216Y143430D01*
X372598Y143553D01*
D02*
G37*
G36*
X368661D02*
X368044Y143430D01*
X367520Y143080D01*
X367171Y142557D01*
X367048Y141939D01*
X367171Y141322D01*
X367520Y140798D01*
X368044Y140448D01*
X368661Y140326D01*
X369279Y140448D01*
X369802Y140798D01*
X370152Y141322D01*
X370275Y141939D01*
X370152Y142557D01*
X369802Y143080D01*
X369279Y143430D01*
X368661Y143553D01*
D02*
G37*
G36*
X376535D02*
X375918Y143430D01*
X375394Y143080D01*
X375045Y142557D01*
X374922Y141939D01*
X375045Y141322D01*
X375394Y140798D01*
X375918Y140448D01*
X376535Y140326D01*
X377153Y140448D01*
X377677Y140798D01*
X378026Y141322D01*
X378149Y141939D01*
X378026Y142557D01*
X377677Y143080D01*
X377153Y143430D01*
X376535Y143553D01*
D02*
G37*
G36*
X364724Y147490D02*
X364107Y147367D01*
X363583Y147017D01*
X363234Y146494D01*
X363111Y145876D01*
X363234Y145259D01*
X363583Y144735D01*
X364107Y144386D01*
X364724Y144263D01*
X365342Y144386D01*
X365865Y144735D01*
X366215Y145259D01*
X366338Y145876D01*
X366215Y146494D01*
X365865Y147017D01*
X365342Y147367D01*
X364724Y147490D01*
D02*
G37*
G36*
X368661D02*
X368044Y147367D01*
X367520Y147017D01*
X367171Y146494D01*
X367048Y145876D01*
X367171Y145259D01*
X367520Y144735D01*
X368044Y144386D01*
X368661Y144263D01*
X369279Y144386D01*
X369802Y144735D01*
X370152Y145259D01*
X370275Y145876D01*
X370152Y146494D01*
X369802Y147017D01*
X369279Y147367D01*
X368661Y147490D01*
D02*
G37*
G36*
X380472Y143553D02*
X379855Y143430D01*
X379331Y143080D01*
X378982Y142557D01*
X378859Y141939D01*
X378982Y141322D01*
X379331Y140798D01*
X379855Y140448D01*
X380472Y140326D01*
X381090Y140448D01*
X381613Y140798D01*
X381963Y141322D01*
X382086Y141939D01*
X381963Y142557D01*
X381613Y143080D01*
X381090Y143430D01*
X380472Y143553D01*
D02*
G37*
G36*
X364724D02*
X364107Y143430D01*
X363583Y143080D01*
X363234Y142557D01*
X363111Y141939D01*
X363234Y141322D01*
X363583Y140798D01*
X364107Y140448D01*
X364724Y140326D01*
X365342Y140448D01*
X365865Y140798D01*
X366215Y141322D01*
X366338Y141939D01*
X366215Y142557D01*
X365865Y143080D01*
X365342Y143430D01*
X364724Y143553D01*
D02*
G37*
G36*
X380472Y147490D02*
X379855Y147367D01*
X379331Y147017D01*
X378982Y146494D01*
X378859Y145876D01*
X378982Y145259D01*
X379331Y144735D01*
X379855Y144386D01*
X380472Y144263D01*
X381090Y144386D01*
X381613Y144735D01*
X381963Y145259D01*
X382086Y145876D01*
X381963Y146494D01*
X381613Y147017D01*
X381090Y147367D01*
X380472Y147490D01*
D02*
G37*
G36*
X372598D02*
X371981Y147367D01*
X371457Y147017D01*
X371108Y146494D01*
X370985Y145876D01*
X371108Y145259D01*
X371457Y144735D01*
X371981Y144386D01*
X372598Y144263D01*
X373216Y144386D01*
X373740Y144735D01*
X374089Y145259D01*
X374212Y145876D01*
X374089Y146494D01*
X373740Y147017D01*
X373216Y147367D01*
X372598Y147490D01*
D02*
G37*
G36*
X376535D02*
X375918Y147367D01*
X375394Y147017D01*
X375045Y146494D01*
X374922Y145876D01*
X375045Y145259D01*
X375394Y144735D01*
X375918Y144386D01*
X376535Y144263D01*
X377153Y144386D01*
X377677Y144735D01*
X378026Y145259D01*
X378149Y145876D01*
X378026Y146494D01*
X377677Y147017D01*
X377153Y147367D01*
X376535Y147490D01*
D02*
G37*
G36*
X387205Y148366D02*
X386587Y148243D01*
X386064Y147893D01*
X385714Y147370D01*
X385591Y146752D01*
X385714Y146134D01*
X386064Y145611D01*
X386587Y145261D01*
X387205Y145138D01*
X387822Y145261D01*
X388346Y145611D01*
X388696Y146134D01*
X388818Y146752D01*
X388696Y147370D01*
X388346Y147893D01*
X387822Y148243D01*
X387205Y148366D01*
D02*
G37*
G36*
X606411Y78917D02*
X602973D01*
Y75479D01*
X603654Y75569D01*
X604564Y75946D01*
X605345Y76545D01*
X605944Y77327D01*
X606321Y78236D01*
X606411Y78917D01*
D02*
G37*
G36*
X602382D02*
X598944D01*
X599034Y78236D01*
X599410Y77327D01*
X600010Y76545D01*
X600791Y75946D01*
X601701Y75569D01*
X602382Y75479D01*
Y78917D01*
D02*
G37*
G36*
X612677Y82993D02*
X611699Y82864D01*
X610787Y82487D01*
X610004Y81886D01*
X609404Y81103D01*
X609026Y80191D01*
X608897Y79213D01*
X609026Y78234D01*
X609404Y77323D01*
X610004Y76540D01*
X610787Y75939D01*
X611699Y75561D01*
X612677Y75432D01*
X613656Y75561D01*
X614568Y75939D01*
X615351Y76540D01*
X615951Y77323D01*
X616329Y78234D01*
X616458Y79213D01*
X616329Y80191D01*
X615951Y81103D01*
X615351Y81886D01*
X614568Y82487D01*
X613656Y82864D01*
X612677Y82993D01*
D02*
G37*
G36*
X528748Y79353D02*
X525310D01*
X525399Y78672D01*
X525776Y77763D01*
X526376Y76981D01*
X527157Y76382D01*
X528067Y76005D01*
X528748Y75915D01*
Y79353D01*
D02*
G37*
G36*
X539043Y83429D02*
X538065Y83300D01*
X537153Y82923D01*
X536370Y82322D01*
X535769Y81539D01*
X535392Y80627D01*
X535263Y79649D01*
X535392Y78670D01*
X535769Y77759D01*
X536370Y76976D01*
X537153Y76375D01*
X538065Y75997D01*
X539043Y75868D01*
X540022Y75997D01*
X540934Y76375D01*
X541716Y76976D01*
X542317Y77759D01*
X542695Y78670D01*
X542824Y79649D01*
X542695Y80627D01*
X542317Y81539D01*
X541716Y82322D01*
X540934Y82923D01*
X540022Y83300D01*
X539043Y83429D01*
D02*
G37*
G36*
X532777Y79353D02*
X529339D01*
Y75915D01*
X530020Y76005D01*
X530930Y76382D01*
X531711Y76981D01*
X532310Y77763D01*
X532687Y78672D01*
X532777Y79353D01*
D02*
G37*
G36*
X594609Y60702D02*
X593992Y60579D01*
X593468Y60229D01*
X593118Y59706D01*
X592995Y59088D01*
X593118Y58471D01*
X593468Y57947D01*
X593992Y57598D01*
X594609Y57475D01*
X595227Y57598D01*
X595750Y57947D01*
X596100Y58471D01*
X596223Y59088D01*
X596100Y59706D01*
X595750Y60229D01*
X595227Y60579D01*
X594609Y60702D01*
D02*
G37*
G36*
X582790Y60472D02*
X582172Y60349D01*
X581649Y59999D01*
X581299Y59476D01*
X581176Y58858D01*
X581299Y58241D01*
X581649Y57717D01*
X582172Y57367D01*
X582790Y57245D01*
X583407Y57367D01*
X583931Y57717D01*
X584281Y58241D01*
X584404Y58858D01*
X584281Y59476D01*
X583931Y59999D01*
X583407Y60349D01*
X582790Y60472D01*
D02*
G37*
G36*
X602382Y82946D02*
X601701Y82857D01*
X600791Y82480D01*
X600010Y81880D01*
X599410Y81099D01*
X599034Y80189D01*
X598944Y79508D01*
X602382D01*
Y82946D01*
D02*
G37*
G36*
X552278Y53002D02*
X551660Y52879D01*
X551137Y52529D01*
X550787Y52006D01*
X550664Y51388D01*
X550787Y50771D01*
X551137Y50247D01*
X551660Y49897D01*
X552278Y49775D01*
X552896Y49897D01*
X553419Y50247D01*
X553769Y50771D01*
X553892Y51388D01*
X553769Y52006D01*
X553419Y52529D01*
X552896Y52879D01*
X552278Y53002D01*
D02*
G37*
G36*
X612382Y92946D02*
X611701Y92857D01*
X610791Y92480D01*
X610010Y91880D01*
X609410Y91099D01*
X609034Y90189D01*
X608944Y89508D01*
X612382D01*
Y92946D01*
D02*
G37*
G36*
X612973D02*
Y89508D01*
X616411D01*
X616321Y90189D01*
X615944Y91099D01*
X615345Y91880D01*
X614564Y92480D01*
X613654Y92857D01*
X612973Y92946D01*
D02*
G37*
G36*
X563105Y52836D02*
X562487Y52713D01*
X561964Y52364D01*
X561614Y51840D01*
X561491Y51223D01*
X561614Y50605D01*
X561964Y50081D01*
X562487Y49732D01*
X563105Y49609D01*
X563722Y49732D01*
X564246Y50081D01*
X564596Y50605D01*
X564718Y51223D01*
X564596Y51840D01*
X564246Y52364D01*
X563722Y52713D01*
X563105Y52836D01*
D02*
G37*
G36*
X538748Y89353D02*
X535310D01*
X535399Y88672D01*
X535776Y87762D01*
X536376Y86981D01*
X537157Y86382D01*
X538067Y86005D01*
X538748Y85915D01*
Y89353D01*
D02*
G37*
G36*
X529339Y83382D02*
Y79944D01*
X532777D01*
X532687Y80625D01*
X532310Y81535D01*
X531711Y82316D01*
X530930Y82916D01*
X530020Y83293D01*
X529339Y83382D01*
D02*
G37*
G36*
X602973Y82946D02*
Y79508D01*
X606411D01*
X606321Y80189D01*
X605944Y81099D01*
X605345Y81880D01*
X604564Y82480D01*
X603654Y82857D01*
X602973Y82946D01*
D02*
G37*
G36*
X528748Y83382D02*
X528067Y83293D01*
X527157Y82916D01*
X526376Y82316D01*
X525776Y81535D01*
X525399Y80625D01*
X525310Y79944D01*
X528748D01*
Y83382D01*
D02*
G37*
G36*
X612382Y88917D02*
X608944D01*
X609034Y88236D01*
X609410Y87327D01*
X610010Y86545D01*
X610791Y85946D01*
X611701Y85569D01*
X612382Y85479D01*
Y88917D01*
D02*
G37*
G36*
X542777Y89353D02*
X539339D01*
Y85915D01*
X540020Y86005D01*
X540930Y86382D01*
X541711Y86981D01*
X542310Y87762D01*
X542687Y88672D01*
X542777Y89353D01*
D02*
G37*
G36*
X602677Y92993D02*
X601699Y92864D01*
X600787Y92487D01*
X600004Y91886D01*
X599404Y91103D01*
X599026Y90191D01*
X598897Y89213D01*
X599026Y88234D01*
X599404Y87322D01*
X600004Y86540D01*
X600787Y85939D01*
X601699Y85561D01*
X602677Y85432D01*
X603656Y85561D01*
X604568Y85939D01*
X605351Y86540D01*
X605951Y87322D01*
X606329Y88234D01*
X606458Y89213D01*
X606329Y90191D01*
X605951Y91103D01*
X605351Y91886D01*
X604568Y92487D01*
X603656Y92864D01*
X602677Y92993D01*
D02*
G37*
G36*
X616411Y88917D02*
X612973D01*
Y85479D01*
X613654Y85569D01*
X614564Y85946D01*
X615345Y86545D01*
X615944Y87327D01*
X616321Y88236D01*
X616411Y88917D01*
D02*
G37*
G36*
X380472Y320718D02*
X379855Y320596D01*
X379331Y320246D01*
X378982Y319722D01*
X378859Y319105D01*
X378982Y318487D01*
X379331Y317964D01*
X379855Y317614D01*
X380472Y317491D01*
X381090Y317614D01*
X381613Y317964D01*
X381963Y318487D01*
X382086Y319105D01*
X381963Y319722D01*
X381613Y320246D01*
X381090Y320596D01*
X380472Y320718D01*
D02*
G37*
G36*
X364724Y324655D02*
X364107Y324533D01*
X363583Y324183D01*
X363234Y323659D01*
X363111Y323042D01*
X363234Y322424D01*
X363583Y321901D01*
X364107Y321551D01*
X364724Y321428D01*
X365342Y321551D01*
X365865Y321901D01*
X366215Y322424D01*
X366338Y323042D01*
X366215Y323659D01*
X365865Y324183D01*
X365342Y324533D01*
X364724Y324655D01*
D02*
G37*
G36*
X372598Y320718D02*
X371981Y320596D01*
X371457Y320246D01*
X371108Y319722D01*
X370985Y319105D01*
X371108Y318487D01*
X371457Y317964D01*
X371981Y317614D01*
X372598Y317491D01*
X373216Y317614D01*
X373740Y317964D01*
X374089Y318487D01*
X374212Y319105D01*
X374089Y319722D01*
X373740Y320246D01*
X373216Y320596D01*
X372598Y320718D01*
D02*
G37*
G36*
X376535D02*
X375918Y320596D01*
X375394Y320246D01*
X375045Y319722D01*
X374922Y319105D01*
X375045Y318487D01*
X375394Y317964D01*
X375918Y317614D01*
X376535Y317491D01*
X377153Y317614D01*
X377677Y317964D01*
X378026Y318487D01*
X378149Y319105D01*
X378026Y319722D01*
X377677Y320246D01*
X377153Y320596D01*
X376535Y320718D01*
D02*
G37*
G36*
X368661Y324655D02*
X368044Y324533D01*
X367520Y324183D01*
X367171Y323659D01*
X367048Y323042D01*
X367171Y322424D01*
X367520Y321901D01*
X368044Y321551D01*
X368661Y321428D01*
X369279Y321551D01*
X369802Y321901D01*
X370152Y322424D01*
X370275Y323042D01*
X370152Y323659D01*
X369802Y324183D01*
X369279Y324533D01*
X368661Y324655D01*
D02*
G37*
G36*
X380472D02*
X379855Y324533D01*
X379331Y324183D01*
X378982Y323659D01*
X378859Y323042D01*
X378982Y322424D01*
X379331Y321901D01*
X379855Y321551D01*
X380472Y321428D01*
X381090Y321551D01*
X381613Y321901D01*
X381963Y322424D01*
X382086Y323042D01*
X381963Y323659D01*
X381613Y324183D01*
X381090Y324533D01*
X380472Y324655D01*
D02*
G37*
G36*
X387205Y325531D02*
X386587Y325408D01*
X386064Y325058D01*
X385714Y324535D01*
X385591Y323917D01*
X385714Y323300D01*
X386064Y322776D01*
X386587Y322427D01*
X387205Y322304D01*
X387822Y322427D01*
X388346Y322776D01*
X388696Y323300D01*
X388818Y323917D01*
X388696Y324535D01*
X388346Y325058D01*
X387822Y325408D01*
X387205Y325531D01*
D02*
G37*
G36*
X372598Y324655D02*
X371981Y324533D01*
X371457Y324183D01*
X371108Y323659D01*
X370985Y323042D01*
X371108Y322424D01*
X371457Y321901D01*
X371981Y321551D01*
X372598Y321428D01*
X373216Y321551D01*
X373740Y321901D01*
X374089Y322424D01*
X374212Y323042D01*
X374089Y323659D01*
X373740Y324183D01*
X373216Y324533D01*
X372598Y324655D01*
D02*
G37*
G36*
X376535D02*
X375918Y324533D01*
X375394Y324183D01*
X375045Y323659D01*
X374922Y323042D01*
X375045Y322424D01*
X375394Y321901D01*
X375918Y321551D01*
X376535Y321428D01*
X377153Y321551D01*
X377677Y321901D01*
X378026Y322424D01*
X378149Y323042D01*
X378026Y323659D01*
X377677Y324183D01*
X377153Y324533D01*
X376535Y324655D01*
D02*
G37*
G36*
X364724Y320718D02*
X364107Y320596D01*
X363583Y320246D01*
X363234Y319722D01*
X363111Y319105D01*
X363234Y318487D01*
X363583Y317964D01*
X364107Y317614D01*
X364724Y317491D01*
X365342Y317614D01*
X365865Y317964D01*
X366215Y318487D01*
X366338Y319105D01*
X366215Y319722D01*
X365865Y320246D01*
X365342Y320596D01*
X364724Y320718D01*
D02*
G37*
G36*
X368661D02*
X368044Y320596D01*
X367520Y320246D01*
X367171Y319722D01*
X367048Y319105D01*
X367171Y318487D01*
X367520Y317964D01*
X368044Y317614D01*
X368661Y317491D01*
X369279Y317614D01*
X369802Y317964D01*
X370152Y318487D01*
X370275Y319105D01*
X370152Y319722D01*
X369802Y320246D01*
X369279Y320596D01*
X368661Y320718D01*
D02*
G37*
%LPD*%
D84*
X391845Y99060D02*
X414874D01*
X416451Y97482D01*
X285200Y130555D02*
X289552D01*
X282485Y127840D02*
X285200Y130555D01*
X278564Y127840D02*
X282485D01*
X277734Y127010D02*
X278564Y127840D01*
X284704Y131752D02*
X290048D01*
X281990Y129037D02*
X284704Y131752D01*
X251224Y129037D02*
X281990D01*
X393808Y177165D02*
X395380Y175593D01*
X387191Y177165D02*
X393808D01*
X384774Y174748D02*
X387191Y177165D01*
X325189Y45386D02*
X327061Y43514D01*
X321758D02*
X323630Y45386D01*
X295554Y43514D02*
X321758D01*
X327061D02*
X338550D01*
X341354D02*
X371684D01*
X340732Y44137D02*
X341354Y43514D01*
X339173Y44137D02*
X340732D01*
X338550Y43514D02*
X339173Y44137D01*
X323630Y45386D02*
X325189D01*
X371684Y43514D02*
X372803Y44633D01*
X292376Y40337D02*
X295554Y43514D01*
X379921Y346980D02*
X388006D01*
X375816Y342876D02*
X379921Y346980D01*
X396126Y353254D02*
X397432Y351948D01*
X391617Y352758D02*
X392719Y353861D01*
X394885Y353254D02*
X396126D01*
X394278Y353861D02*
X394885Y353254D01*
X392719Y353861D02*
X394278D01*
X389332Y347750D02*
X390911Y349330D01*
Y351986D01*
X391617Y352691D01*
X389263Y347750D02*
X389332D01*
X388787Y347274D02*
X389263Y347750D01*
X388300Y347274D02*
X388787D01*
X388006Y346980D02*
X388300Y347274D01*
X391617Y352691D02*
Y352758D01*
X388504Y265847D02*
X394950D01*
X387402Y264745D02*
X388504Y265847D01*
X387402Y264370D02*
Y264745D01*
X385080Y262048D02*
X387402Y264370D01*
X379051Y262048D02*
X385080D01*
X393898Y263796D02*
X394761Y262933D01*
X277106Y40337D02*
X292376D01*
X267323Y30553D02*
X277106Y40337D01*
X292645Y123848D02*
X295133Y121360D01*
X292645Y123848D02*
Y127462D01*
X289552Y130555D02*
X292645Y127462D01*
X290048Y131752D02*
X293842Y127958D01*
Y126475D02*
X297031Y123286D01*
X293842Y126475D02*
Y127958D01*
X273735Y127010D02*
X277734D01*
X249197D02*
X251224Y129037D01*
X272441Y125716D02*
X273735Y127010D01*
X295133Y121360D02*
X306812D01*
X393898Y175213D02*
X394859Y174252D01*
X338410Y307035D02*
X339273Y306173D01*
X341694Y307035D02*
X345259D01*
X340832Y306173D02*
X341694Y307035D01*
X339273Y306173D02*
X340832D01*
X301437Y307035D02*
X338410D01*
X345259D02*
X349298Y302996D01*
X297847Y303445D02*
X301437Y307035D01*
X341432Y128573D02*
X343054Y130195D01*
X346475D01*
X338250D02*
X339873Y128573D01*
X341432D01*
X319356Y130195D02*
X338250D01*
X340732Y40373D02*
X341971Y41613D01*
X337933D02*
X339173Y40373D01*
X319356Y41613D02*
X337933D01*
X341971D02*
X390624D01*
X339173Y40373D02*
X340732D01*
X379869Y85644D02*
X383498D01*
X379754Y85530D02*
X379869Y85644D01*
X379698Y85530D02*
X379754D01*
X375492Y81324D02*
X379698Y85530D01*
X383498Y85644D02*
X385967Y88113D01*
X397014D01*
X319776Y216547D02*
X320392Y215931D01*
X339766Y218028D02*
Y218028D01*
X339006Y218787D02*
X339766Y218028D01*
X321022Y218787D02*
X339006D01*
X344290D02*
X347290D01*
X343530Y218028D02*
X344290Y218787D01*
X343530Y218028D02*
Y218028D01*
X344679Y215931D02*
X349864D01*
X343378Y214630D02*
X344679Y215931D01*
X320392D02*
X338617D01*
X339918Y214630D02*
X343378D01*
X349864Y215931D02*
X350102D01*
X349864Y215931D02*
X349864Y215931D01*
X338617Y215931D02*
X339918Y214630D01*
X342428Y216925D02*
X343530Y218028D01*
X340869Y216925D02*
X342428D01*
X339766Y218028D02*
X340869Y216925D01*
X361979Y215931D02*
X363302Y214608D01*
X353495Y215931D02*
X361979D01*
X355498Y219496D02*
X386898D01*
X390798Y215596D01*
X352578Y215014D02*
X353495Y215931D01*
X351019Y215014D02*
X352578D01*
X350102Y215931D02*
X351019Y215014D01*
X347290Y218787D02*
X348598Y220096D01*
X320967Y218843D02*
X321022Y218787D01*
X299245Y218843D02*
X320967D01*
X297244Y216842D02*
X299245Y218843D01*
X318217Y216547D02*
X319776D01*
X317600Y215931D02*
X318217Y216547D01*
X315919Y215931D02*
X317600D01*
X312949Y212960D02*
X315919Y215931D01*
X312949Y212803D02*
Y212960D01*
X311285Y211139D02*
X312949Y212803D01*
X302682Y211139D02*
X311285D01*
X301181Y212640D02*
X302682Y211139D01*
X301181Y212640D02*
Y214862D01*
X416545Y219443D02*
X422152D01*
X412698Y215596D02*
X416545Y219443D01*
X422152D02*
X423499Y218096D01*
X400307Y132544D02*
X402887Y129963D01*
X390723Y132544D02*
X400307D01*
X375492Y258490D02*
X379051Y262048D01*
X428622Y39498D02*
X433622Y44498D01*
X392836Y42265D02*
X395602Y39498D01*
X428622D01*
X250745Y105005D02*
X383338D01*
X423499Y218096D02*
X426798D01*
X234365Y122089D02*
X239286Y127010D01*
X249197D01*
X475866Y304262D02*
X476929Y305325D01*
X420593Y304262D02*
X475866D01*
X419859Y304996D02*
X420593Y304262D01*
X393583Y304996D02*
X419859D01*
X389283Y99060D02*
X391845D01*
X383338Y105005D02*
X389283Y99060D01*
X393498Y86231D02*
X393898Y86631D01*
X307160Y121708D02*
X307932Y120937D01*
X441010Y125978D02*
X447362D01*
X436136Y121105D02*
X441010Y125978D01*
X402887Y129963D02*
X443025D01*
X432199Y121105D02*
X436136D01*
X432113Y121191D02*
X432199Y121105D01*
X387770Y121191D02*
X432113D01*
X389094Y123073D02*
X431535D01*
X387140Y125028D02*
X389094Y123073D01*
X383075Y125028D02*
X387140D01*
X385130Y123831D02*
X387770Y121191D01*
X383571Y123831D02*
X385130D01*
X382882Y123142D02*
X383571Y123831D01*
X366150Y123142D02*
X382882D01*
X363945Y120937D02*
X366150Y123142D01*
X307932Y120937D02*
X363945D01*
X382646Y124598D02*
X383075Y125028D01*
X366615Y124598D02*
X382646D01*
X365913Y125299D02*
X366615Y124598D01*
X364922Y125299D02*
X365913D01*
X306812Y121360D02*
X307160Y121708D01*
X297031Y123286D02*
X304028D01*
X361756Y122134D02*
X364922Y125299D01*
X308428Y122134D02*
X361756D01*
X307656Y122905D02*
X308428Y122134D01*
X306665Y122905D02*
X307656D01*
X306316Y122556D02*
X306665Y122905D01*
X304757Y122556D02*
X306316D01*
X304028Y123286D02*
X304757Y122556D01*
X240945Y125716D02*
X272441D01*
X237317Y122089D02*
X240945Y125716D01*
X189090Y55160D02*
X237317D01*
X189089Y52207D02*
X235349D01*
X213695Y49254D02*
X242000D01*
X194995Y30553D02*
X213695Y49254D01*
X404108Y45483D02*
X431945D01*
X403878Y45713D02*
X404108Y45483D01*
X402319Y45713D02*
X403878D01*
X401455Y44849D02*
X402319Y45713D01*
X374578Y44849D02*
X401455D01*
X374362Y44633D02*
X374578Y44849D01*
X372803Y44633D02*
X374362D01*
X390624Y41613D02*
X391277Y42265D01*
X260701Y30553D02*
X267323D01*
X242000Y49254D02*
X260701Y30553D01*
X171373D02*
X194995D01*
X433860Y368014D02*
X513778D01*
X433260Y368614D02*
X433860Y368014D01*
X431701Y368614D02*
X433260D01*
X431101Y368014D02*
X431701Y368614D01*
X425001Y368014D02*
X431101D01*
X424402Y368614D02*
X425001Y368014D01*
X422843Y368614D02*
X424402D01*
X422242Y368014D02*
X422843Y368614D01*
X367780Y368014D02*
X422242D01*
X445433Y257097D02*
X445713Y256817D01*
X444654Y258979D02*
X446213D01*
X443756Y258081D02*
X444654Y258979D01*
X434606Y258081D02*
X443756D01*
X319178Y41435D02*
X319356Y41613D01*
X317619Y41435D02*
X319178D01*
X397678Y87448D02*
X401474D01*
X402138Y88113D01*
X408417D01*
X394298Y86231D02*
X406791D01*
X397014Y88113D02*
X397678Y87448D01*
X393898Y86631D02*
X394298Y86231D01*
X392836Y304249D02*
X393583Y304996D01*
X391277Y304249D02*
X392836D01*
X390530Y304996D02*
X391277Y304249D01*
X355298Y304996D02*
X390530D01*
X353298Y302996D02*
X355298Y304996D01*
X349298Y302996D02*
X353298D01*
X297244Y303445D02*
X297847D01*
X408417Y353861D02*
X409898Y352379D01*
X404686Y353861D02*
X408417D01*
X402817Y351992D02*
X404686Y353861D01*
X402418Y351992D02*
X402817D01*
X393498Y351979D02*
X393898Y352379D01*
X397432Y351948D02*
X402374D01*
X396936Y350752D02*
X402870D01*
X375816Y340178D02*
X375898Y340096D01*
X393898Y352379D02*
X395071Y351206D01*
X405608Y350795D02*
X406791Y351979D01*
X402913Y350795D02*
X405608D01*
X402870Y350752D02*
X402913Y350795D01*
X402374Y351948D02*
X402418Y351992D01*
X396482Y351206D02*
X396936Y350752D01*
X395071Y351206D02*
X396482D01*
X375816Y340178D02*
Y342876D01*
X394950Y265847D02*
X397388Y263409D01*
X403803Y262933D02*
X406329D01*
X403083Y262213D02*
X403803Y262933D01*
X396892Y262213D02*
X403083D01*
X396171Y262933D02*
X396892Y262213D01*
X394761Y262933D02*
X396171D01*
X403308Y264130D02*
X404856D01*
X402587Y263409D02*
X403308Y264130D01*
X397388Y263409D02*
X402587D01*
X406329Y262933D02*
X406791Y263396D01*
X406003Y265278D02*
X408417D01*
X404856Y264130D02*
X406003Y265278D01*
X452398Y221096D02*
X453720Y219775D01*
X429798Y221096D02*
X452398D01*
X426798Y218096D02*
X429798Y221096D01*
X390798Y215596D02*
X412698D01*
X354898Y220096D02*
X355498Y219496D01*
X348598Y220096D02*
X354898D01*
X390023Y131844D02*
X390723Y132544D01*
X348123Y131844D02*
X390023D01*
X346475Y130195D02*
X348123Y131844D01*
X395229Y174052D02*
X403869D01*
X395725Y175248D02*
X403374D01*
X404070Y174252D02*
X406230D01*
X403869Y174052D02*
X404070Y174252D01*
X403575Y175449D02*
X404766D01*
X403374Y175248D02*
X403575Y175449D01*
X408463Y176648D02*
X409898Y175213D01*
X407618Y176648D02*
X408463D01*
X407571Y176695D02*
X407618Y176648D01*
X406012Y176695D02*
X407571D01*
X404766Y175449D02*
X406012Y176695D01*
X395380Y175593D02*
X395725Y175248D01*
X395028Y174252D02*
X395229Y174052D01*
X394859Y174252D02*
X395028D01*
X406230D02*
X406791Y174813D01*
X395380Y175593D02*
Y175593D01*
X380333Y174748D02*
X384774D01*
X375492Y169907D02*
X380333Y174748D01*
X375492Y251476D02*
Y258490D01*
X393498Y263396D02*
X393898Y263796D01*
X297244Y214862D02*
Y216842D01*
X408417Y265278D02*
X409898Y263796D01*
Y263396D02*
Y263796D01*
Y351979D02*
Y352379D01*
X393498Y174813D02*
X393898Y175213D01*
X375492Y162894D02*
Y169907D01*
X409898Y174813D02*
Y175213D01*
X297244Y126279D02*
Y128259D01*
X299180Y130195D02*
X317441D01*
X297244Y128259D02*
X299180Y130195D01*
X317619Y130017D02*
X319178D01*
X317441Y130195D02*
X317619Y130017D01*
X319178D02*
X319356Y130195D01*
X375492Y74311D02*
Y81324D01*
X409898Y86231D02*
Y86631D01*
X408417Y88113D02*
X409898Y86631D01*
X297244Y37697D02*
Y39676D01*
X299180Y41613D02*
X317441D01*
X297244Y39676D02*
X299180Y41613D01*
X317441D02*
X317619Y41435D01*
X391277Y42265D02*
X392836D01*
X136298Y21196D02*
X136380Y21114D01*
X138978D01*
X367398Y368396D02*
X367780Y368014D01*
X513778D02*
X514160Y368396D01*
X536998D01*
X453720Y219775D02*
X475040D01*
X475945Y220679D01*
X481571Y256817D02*
X481850Y257097D01*
X445713Y256817D02*
X481571D01*
X446213Y258979D02*
X447177Y258014D01*
X457039D01*
X457319Y258294D01*
X493457Y256199D02*
X494354Y257097D01*
X494354Y257097D01*
X491898Y256199D02*
X493457D01*
X492465Y258294D02*
X492677Y258081D01*
X494354Y257097D02*
X495630D01*
X491000Y257097D02*
X491898Y256199D01*
X457319Y258294D02*
X485866D01*
X485992Y258168D01*
X487551D01*
X487677Y258294D01*
X492465D01*
X481850Y257097D02*
X485370D01*
X485496Y256971D01*
X488047D01*
X488173Y257097D01*
X491000D01*
X511880Y73787D02*
X513743Y71925D01*
X482692Y73787D02*
X511880D01*
X480650Y75829D02*
X482692Y73787D01*
X469601Y75829D02*
X480650D01*
X519185Y44333D02*
X601491D01*
X518043Y45475D02*
X519185Y44333D01*
X459679Y46380D02*
X461727Y44333D01*
X431945Y45483D02*
X432843Y46380D01*
X459679D01*
X183270Y46388D02*
X189089Y52207D01*
X117530Y47286D02*
X118428Y46388D01*
X183270D01*
X182199Y48270D02*
X189090Y55160D01*
X120981Y50433D02*
X123144Y48270D01*
X182199D01*
X484365Y31538D02*
X485898Y33071D01*
X517987Y45475D02*
X518043D01*
X485898Y33071D02*
X495173D01*
X496268Y31976D02*
X513345D01*
X495173Y33071D02*
X496268Y31976D01*
X513345D02*
X517828Y36459D01*
X7795Y46339D02*
X11842Y42291D01*
X17795Y46339D02*
X19801Y44333D01*
X25444D01*
X28825Y40952D01*
X11842Y42291D02*
X25793D01*
X28329Y39755D01*
X80073Y42137D02*
X81632D01*
X82613Y41155D01*
X79577Y43334D02*
X82127D01*
X83109Y42352D01*
X77691Y39755D02*
X80073Y42137D01*
X77196Y40952D02*
X79577Y43334D01*
X28329Y39755D02*
X77691D01*
X28825Y40952D02*
X77196D01*
X82613Y41155D02*
X90439D01*
X96569Y47286D01*
X117530D01*
X89300Y42352D02*
X97381Y50433D01*
X120981D01*
X83109Y42352D02*
X89300D01*
D85*
X624206Y12944D02*
X624297D01*
X602475D02*
X624206D01*
X447751Y92561D02*
X504050D01*
X443814Y88624D02*
X447751Y92561D01*
X504050D02*
X510940Y85671D01*
X381890Y22618D02*
X410500D01*
X265512Y18438D02*
X377709D01*
X381890Y22618D01*
X374059Y12946D02*
X379984D01*
X373604Y14044D02*
X379529D01*
X373149Y15142D02*
X379074D01*
X372694Y16241D02*
X378619D01*
X265055Y17339D02*
X378164D01*
X384165Y17126D02*
X408225D01*
X379984Y12946D02*
X384165Y17126D01*
X383710Y18224D02*
X408680D01*
X379529Y14044D02*
X383710Y18224D01*
X383255Y19323D02*
X409135D01*
X379074Y15142D02*
X383255Y19323D01*
X382800Y20421D02*
X409590D01*
X378619Y16241D02*
X382800Y20421D01*
X382345Y21520D02*
X410045D01*
X378164Y17339D02*
X382345Y21520D01*
X374057Y12944D02*
X374059Y12946D01*
X373602Y14042D02*
X373604Y14044D01*
X373148Y15142D02*
X373149Y15142D01*
X372693Y16240D02*
X372694Y16241D01*
X68110Y16240D02*
X372693D01*
X67022Y15142D02*
X373148D01*
X66568Y14042D02*
X373602D01*
X64123Y12944D02*
X374057D01*
X376948Y24815D02*
X411410D01*
X376214Y25549D02*
X376948Y24815D01*
X373786Y25549D02*
X376214D01*
X373052Y24815D02*
X373786Y25549D01*
X369220Y24815D02*
X373052D01*
X376493Y23717D02*
X410955D01*
X375759Y24451D02*
X376493Y23717D01*
X374241Y24451D02*
X375759D01*
X373507Y23717D02*
X374241Y24451D01*
X369675Y23717D02*
X373507D01*
X365495Y19536D02*
X369675Y23717D01*
X365040Y20635D02*
X369220Y24815D01*
X376411Y112402D02*
X392361D01*
X375759Y113053D02*
X376411Y112402D01*
X374241Y113053D02*
X375759D01*
X373589Y112402D02*
X374241Y113053D01*
X372474Y112402D02*
X373589D01*
X371822Y113053D02*
X372474Y112402D01*
X370304Y113053D02*
X371822D01*
X369652Y112402D02*
X370304Y113053D01*
X350034Y112402D02*
X369652D01*
X392361D02*
X394039Y114079D01*
X346252Y116183D02*
X350034Y112402D01*
X343617Y111126D02*
X345449Y109293D01*
X384298Y175896D02*
X386715Y178313D01*
X394283D01*
X396200Y176396D01*
X391116Y172294D02*
X391726Y172904D01*
X391116Y171996D02*
Y172294D01*
X390043Y170922D02*
X391116Y171996D01*
X388524Y170922D02*
X390043D01*
X387451Y171996D02*
X388524Y170922D01*
X387451Y171996D02*
Y172513D01*
X386950Y173013D02*
X387451Y172513D01*
X330098Y355096D02*
X350889D01*
X351839Y354146D01*
X353358D01*
X354149Y354937D01*
X374958D01*
X331433Y353839D02*
X350593D01*
X351384Y353048D01*
X353813D01*
X354604Y353839D01*
X342039Y38363D02*
X346118D01*
X346918Y37563D01*
X359457D01*
X392809Y349604D02*
X411524D01*
X389037Y345833D02*
X392809Y349604D01*
X276937Y361843D02*
X286779Y352001D01*
X379740Y348422D02*
X388311D01*
X374614Y343296D02*
X379740Y348422D01*
X382694Y351095D02*
X384602Y353003D01*
X375693Y351095D02*
X382694D01*
X383552Y349996D02*
X385700Y352144D01*
X379486Y349996D02*
X383552D01*
X360498Y343296D02*
X374614D01*
X373886Y344396D02*
X379486Y349996D01*
X361998Y344396D02*
X373886D01*
X384602Y353003D02*
Y353576D01*
X383503Y354031D02*
X385864Y356392D01*
X383503Y353571D02*
Y354031D01*
X382126Y352193D02*
X383503Y353571D01*
X376148Y352193D02*
X382126D01*
X382405Y354486D02*
X385409Y357490D01*
X382405Y354026D02*
Y354486D01*
X381671Y353292D02*
X382405Y354026D01*
X376603Y353292D02*
X381671D01*
X384602Y353576D02*
X386319Y355293D01*
X374958Y354937D02*
X376603Y353292D01*
X375747Y352594D02*
X376148Y352193D01*
X369797Y352594D02*
X375747D01*
X375292Y351496D02*
X375693Y351095D01*
X372598Y351496D02*
X375292D01*
X385700Y352144D02*
Y353121D01*
X386774Y354195D01*
X385864Y356392D02*
X386324D01*
X385409Y357490D02*
X385869D01*
X398622Y360100D02*
X401575D01*
X402273Y359402D01*
X402846Y358304D02*
X410257D01*
X403301Y357205D02*
X409802D01*
X403756Y356107D02*
X409347D01*
X401887Y354238D02*
X403756Y356107D01*
X404211Y355008D02*
X408892D01*
X402342Y353140D02*
X404211Y355008D01*
X401432Y355337D02*
X403301Y357205D01*
X400977Y356435D02*
X402846Y358304D01*
X387781Y359402D02*
X397924D01*
X398622Y360100D01*
X385869Y357490D02*
X387781Y359402D01*
X390748Y355008D02*
X394753D01*
X389764Y354024D02*
X390748Y355008D01*
X389663Y356107D02*
X395208D01*
X387751Y354195D02*
X389663Y356107D01*
X388804Y357205D02*
X395663D01*
X386892Y355293D02*
X388804Y357205D01*
X388236Y358304D02*
X396118D01*
X386324Y356392D02*
X388236Y358304D01*
X396725Y357697D02*
X397966D01*
X399228Y356435D01*
X396118Y358304D02*
X396725Y357697D01*
X396270Y356598D02*
X397512D01*
X395663Y357205D02*
X396270Y356598D01*
X395815Y355500D02*
X397057D01*
X395208Y356107D02*
X395815Y355500D01*
X395360Y354402D02*
X396602D01*
X394753Y355008D02*
X395360Y354402D01*
X396602D02*
X397863Y353140D01*
X397057Y355500D02*
X398318Y354238D01*
X397512Y356598D02*
X398773Y355337D01*
X389764Y349805D02*
Y354024D01*
X386319Y355293D02*
X386892D01*
X386774Y354195D02*
X387751D01*
X388857Y348898D02*
X389764Y349805D01*
X388787Y348898D02*
X388857D01*
X388311Y348422D02*
X388787Y348898D01*
X382698Y344096D02*
X388854D01*
X381435Y345833D02*
X389037D01*
X388854Y344096D02*
X393089Y348331D01*
X422132D01*
X377698Y342096D02*
X381435Y345833D01*
X341043Y255906D02*
X343209Y253740D01*
X328937Y255906D02*
X341043D01*
X328346Y256496D02*
X328937Y255906D01*
X334350Y161909D02*
X339961D01*
X328346Y167913D02*
X334350Y161909D01*
X314272Y167913D02*
X328346D01*
X339961Y161909D02*
X343209Y165157D01*
X361784D01*
X343209Y253740D02*
X362734D01*
X364176Y252298D01*
X347080Y256102D02*
X355413D01*
X345306Y257876D02*
X347080Y256102D01*
X343788Y257876D02*
X345306D01*
X276937Y273260D02*
X286779Y263418D01*
X387675Y268195D02*
X395779D01*
X388130Y267096D02*
X395324D01*
X386254Y265220D02*
X388130Y267096D01*
X385156Y265675D02*
X387675Y268195D01*
X385156Y265300D02*
Y265675D01*
X384751Y264896D02*
X385156Y265300D01*
X386254Y264845D02*
Y265220D01*
X384605Y263196D02*
X386254Y264845D01*
X376964Y264896D02*
X384751D01*
X376818Y263196D02*
X384605D01*
X432424Y274784D02*
X463743D01*
X276937Y96095D02*
X286779Y86253D01*
X276937Y184678D02*
X286779Y174835D01*
X417061Y215429D02*
X421336D01*
X415329Y213696D02*
X417061Y215429D01*
X499567Y173435D02*
X505719D01*
X510394Y178110D01*
Y187215D01*
X389783Y86231D02*
X391616Y84398D01*
X386465Y84431D02*
X388265Y86231D01*
X380798Y84431D02*
X386465D01*
X391616Y84398D02*
X412066D01*
X388265Y86231D02*
X389783D01*
X380798Y173013D02*
X386950D01*
X391726Y172904D02*
X411989D01*
X382410Y255081D02*
X386687D01*
X389783Y259731D02*
X391117Y261065D01*
X387191Y260804D02*
Y261149D01*
X386744Y261596D02*
X387191Y261149D01*
X391117Y261065D02*
X411567D01*
X386687Y255081D02*
X391520Y259914D01*
X419795D01*
X388265Y259731D02*
X389783D01*
X387191Y260804D02*
X388265Y259731D01*
X337935Y305888D02*
X338797Y305025D01*
X342169Y305888D02*
X344784D01*
X341307Y305025D02*
X342169Y305888D01*
X338797Y305025D02*
X341307D01*
X315790Y305888D02*
X337935D01*
X344784D02*
X348823Y301848D01*
X312068Y302165D02*
X315790Y305888D01*
X345328Y127425D02*
X348598Y130696D01*
X325511Y128887D02*
X326973Y127425D01*
X345328D01*
X323993Y128887D02*
X325511D01*
X323501Y128396D02*
X323993Y128887D01*
X313298Y128396D02*
X323501D01*
X340798Y37122D02*
X342039Y38363D01*
X323639Y37122D02*
X340798D01*
X323495Y37266D02*
X323639Y37122D01*
X321977Y37266D02*
X323495D01*
X379393Y86792D02*
X383023D01*
X379897Y88850D02*
X384044Y92996D01*
X377577Y91713D02*
X381207D01*
X366290Y81988D02*
X379753Y95451D01*
X375785Y89921D02*
X377577Y91713D01*
X375785Y88883D02*
Y89921D01*
X376779Y87776D02*
X378824D01*
X368498Y79496D02*
X376779Y87776D01*
X379897Y88850D02*
Y88850D01*
X379279Y86678D02*
X379393Y86792D01*
X377580Y86678D02*
X379279D01*
X368861Y77959D02*
X377580Y86678D01*
X378824Y87776D02*
X379897Y88850D01*
X367698Y80796D02*
X375785Y88883D01*
X381207Y91713D02*
X383846Y94352D01*
X383023Y86792D02*
X385490Y89259D01*
Y89788D02*
X385898Y90196D01*
X385490Y89259D02*
Y89788D01*
X379753Y95451D02*
X401201D01*
X383846Y94352D02*
X400746D01*
X384044Y92996D02*
X395307D01*
X363779Y81988D02*
X366290D01*
X381663Y180596D02*
X393698D01*
X381449Y180382D02*
X381663Y180596D01*
X380743Y180382D02*
X381449D01*
X379565Y179204D02*
X380743Y180382D01*
X381208Y181694D02*
X395100D01*
X380994Y181481D02*
X381208Y181694D01*
X379476Y181481D02*
X380994D01*
X379262Y181694D02*
X379476Y181481D01*
X378031Y181694D02*
X379262D01*
X378920Y269959D02*
X382612D01*
X380639Y268860D02*
X382157D01*
X380406Y268628D02*
X380639Y268860D01*
X373903Y264941D02*
X378920Y269959D01*
X383971Y270391D02*
X396689D01*
X383306Y269726D02*
X383971Y270391D01*
X382844Y269726D02*
X383306D01*
X382612Y269959D02*
X382844Y269726D01*
X379505Y268628D02*
X380406D01*
X382389D02*
X383761D01*
X382157Y268860D02*
X382389Y268628D01*
X384426Y269293D02*
X396234D01*
X383761Y268628D02*
X384426Y269293D01*
X377536Y266660D02*
X379505Y268628D01*
X377174Y266660D02*
X377536D01*
X369911Y259396D02*
X377174Y266660D01*
X368861Y256793D02*
X376964Y264896D01*
X369316Y255695D02*
X376818Y263196D01*
X367444Y259396D02*
X369911D01*
X365564Y256793D02*
X368861D01*
X366019Y255695D02*
X369316D01*
X342903Y215778D02*
X344204Y217078D01*
X340393Y215778D02*
X342903D01*
X339092Y217078D02*
X340393Y215778D01*
X344204Y217078D02*
X349389D01*
X321108D02*
X339092D01*
X353590Y217696D02*
X386398D01*
X390398Y213696D01*
X349389Y217078D02*
X351039Y218729D01*
X352557D02*
X353590Y217696D01*
X351039Y218729D02*
X352557D01*
X320492Y217695D02*
X321108Y217078D01*
X313097Y217695D02*
X320492D01*
X311067Y215665D02*
X313097Y217695D01*
X390898Y131096D02*
X392874D01*
X396110Y127860D02*
X445433D01*
X392874Y131096D02*
X396110Y127860D01*
X463695Y274648D02*
Y274735D01*
X463743Y274784D01*
X431576Y275632D02*
X432424Y274784D01*
X430231Y275632D02*
X431576D01*
X462984Y276616D02*
X463695Y277328D01*
X433184Y276616D02*
X462984D01*
X507002Y212640D02*
X507002Y212640D01*
X514877D01*
X506243Y214473D02*
X521157D01*
X503285Y211516D02*
X506243Y214473D01*
X521157D02*
X524114Y211516D01*
X497797Y169024D02*
X503974D01*
X507002Y212639D02*
Y212640D01*
X502784Y208422D02*
X507002Y212639D01*
X497732Y211516D02*
X503285D01*
X495472Y208422D02*
X502784D01*
X497536Y211320D02*
X497732Y211516D01*
X371435Y264941D02*
X373903D01*
X365648Y259154D02*
X371435Y264941D01*
X380103Y260901D02*
X386049D01*
X377559Y258357D02*
X380103Y260901D01*
X386049D02*
X386744Y261596D01*
X298856Y258600D02*
X304429Y264173D01*
X286779Y259579D02*
X287758Y258600D01*
X298856D01*
X298171Y346498D02*
X304429Y352756D01*
X288443Y346498D02*
X298171D01*
X286779Y348162D02*
X288443Y346498D01*
X412407Y12944D02*
X506018D01*
X266427Y20635D02*
X365040D01*
X265970Y19536D02*
X365495D01*
X411410Y24815D02*
X415590Y20635D01*
X408225Y17126D02*
X412407Y12944D01*
X410955Y23717D02*
X415135Y19536D01*
X410500Y22618D02*
X414680Y18438D01*
X410045Y21520D02*
X414225Y17339D01*
X409590Y20421D02*
X413771Y16240D01*
X409135Y19323D02*
X413316Y15142D01*
X408680Y18224D02*
X412862Y14042D01*
X413771Y16240D02*
X504655D01*
X414225Y17339D02*
X504200D01*
X414680Y18438D02*
X503745D01*
X415135Y19536D02*
X503290D01*
X415590Y20635D02*
X502835D01*
X412862Y14042D02*
X505563D01*
X413316Y15142D02*
X505109D01*
X345449Y109293D02*
X437121D01*
X299551Y111126D02*
X343617D01*
X232396Y116183D02*
X346252D01*
X226491Y110278D02*
X232396Y116183D01*
X395557Y114079D02*
X397390Y112246D01*
X440394D01*
X394039Y114079D02*
X395557D01*
X422950Y259914D02*
X443966D01*
X422132Y260732D02*
X422950Y259914D01*
X420613Y260732D02*
X422132D01*
X419795Y259914D02*
X420613Y260732D01*
X298702Y110278D02*
X299551Y111126D01*
X231412Y110278D02*
X298702D01*
X510940Y130947D02*
Y131931D01*
X505481Y125489D02*
X510940Y130947D01*
X500292Y125489D02*
X505481D01*
X402273Y359402D02*
X410712D01*
X410089Y353811D02*
X414657D01*
X408892Y355008D02*
X410089Y353811D01*
X435553Y358445D02*
X459242D01*
X472992Y344695D01*
X458031Y357293D02*
X472461Y342863D01*
X457105Y357293D02*
X458031D01*
X457051Y357347D02*
X457105Y357293D01*
X436008Y357347D02*
X457051D01*
X457452Y356194D02*
X471883Y341764D01*
X456650Y356194D02*
X457452D01*
X456596Y356248D02*
X456650Y356194D01*
X436463Y356248D02*
X456596D01*
X456997Y355096D02*
X459874Y352220D01*
X456195Y355096D02*
X456997D01*
X456141Y355150D02*
X456195Y355096D01*
X436918Y355150D02*
X456141D01*
X455686Y354051D02*
X462712Y347026D01*
X437373Y354051D02*
X455686D01*
X454892Y352953D02*
X461918Y345927D01*
X437827Y352953D02*
X454892D01*
X462712Y347026D02*
X463222D01*
X461918Y345927D02*
X462767D01*
X373903Y369272D02*
X375428Y370796D01*
X370861D02*
X372385Y369272D01*
X322890Y370796D02*
X370861D01*
X375428D02*
X412199D01*
X372385Y369272D02*
X373903D01*
X509757Y372937D02*
X512798Y369896D01*
X321898Y372596D02*
X322239Y372937D01*
X415242Y369272D02*
X416766Y370796D01*
X412199D02*
X413724Y369272D01*
X416766Y370796D02*
X493198D01*
X322239Y372937D02*
X509757D01*
X413724Y369272D02*
X415242D01*
X422266Y348196D02*
X433071D01*
X422132Y348331D02*
X422266Y348196D01*
X214185Y358309D02*
X220798Y351696D01*
X154640Y358309D02*
X214185D01*
X598645Y16774D02*
X602475Y12944D01*
X578438Y16774D02*
X598645D01*
X599274Y17872D02*
X603104Y14042D01*
X621227D01*
X603558Y15142D02*
X618685D01*
X599729Y18971D02*
X603558Y15142D01*
X604013Y16240D02*
X617717D01*
X600184Y20069D02*
X604013Y16240D01*
X604467Y17339D02*
X616255D01*
X600639Y21168D02*
X604467Y17339D01*
X603974Y19385D02*
X613981D01*
X601094Y22266D02*
X603974Y19385D01*
X604429Y20484D02*
X610120D01*
X601549Y23364D02*
X604429Y20484D01*
X604884Y21582D02*
X608267D01*
X602004Y24463D02*
X604884Y21582D01*
X575253Y24463D02*
X602004D01*
X575708Y23364D02*
X601549D01*
X576163Y22266D02*
X601094D01*
X576618Y21168D02*
X600639D01*
X577073Y20069D02*
X600184D01*
X577528Y18971D02*
X599729D01*
X577983Y17872D02*
X599274D01*
X574608Y12944D02*
X578438Y16774D01*
X571425Y20635D02*
X575253Y24463D01*
X571880Y19536D02*
X575708Y23364D01*
X572335Y18438D02*
X576163Y22266D01*
X572790Y17339D02*
X576618Y21168D01*
X573244Y16240D02*
X577073Y20069D01*
X573699Y15142D02*
X577528Y18971D01*
X574153Y14042D02*
X577983Y17872D01*
X539483Y12944D02*
X574608D01*
X539938Y14042D02*
X574153D01*
X542666Y20635D02*
X571425D01*
X542211Y19536D02*
X571880D01*
X541756Y18438D02*
X572335D01*
X541301Y17339D02*
X572790D01*
X540847Y16240D02*
X573244D01*
X540392Y15142D02*
X573699D01*
X608267Y21582D02*
X610349Y23663D01*
X610120Y20484D02*
X613301Y23664D01*
X510940Y85671D02*
X514877D01*
X395307Y92996D02*
X398439Y89863D01*
X396553Y90196D02*
X397984Y88765D01*
X385898Y90196D02*
X396553D01*
X386598Y82496D02*
X417874D01*
X313550Y36417D02*
X316170Y33797D01*
X311122Y36417D02*
X313550D01*
X316170Y33797D02*
X317688D01*
X239565Y47496D02*
X266427Y20635D01*
X239110Y46396D02*
X265970Y19536D01*
X238654Y45296D02*
X265512Y18438D01*
X238198Y44196D02*
X265055Y17339D01*
X217398Y47496D02*
X239565D01*
X217854Y46396D02*
X239110D01*
X218310Y45296D02*
X238654D01*
X218765Y44196D02*
X238198D01*
X359457Y37563D02*
X360426Y36595D01*
X431665D01*
X432738Y37709D02*
X438543Y43514D01*
X432738Y37668D02*
Y37709D01*
X431665Y36595D02*
X432738Y37668D01*
X336961Y80451D02*
X339250D01*
X334243Y83169D02*
X336961Y80451D01*
X339250D02*
X339522Y80179D01*
X343257D01*
X319453Y367949D02*
X323524Y363878D01*
X305066Y367949D02*
X319453D01*
X375403Y177426D02*
Y179066D01*
X379565Y178044D02*
Y179204D01*
X364697Y168896D02*
X370417D01*
X379565Y178044D01*
X375403Y179066D02*
X378031Y181694D01*
X363779Y170571D02*
X368548D01*
X375403Y177426D01*
X567323Y284792D02*
X590254D01*
X546654Y277248D02*
X550508Y281102D01*
X563386Y280855D02*
X567323Y284792D01*
X550756Y280855D02*
X563386D01*
X550508Y281102D02*
X550756Y280855D01*
X563841Y279756D02*
X565788Y281703D01*
X558283Y279756D02*
X563841D01*
X553723Y275197D02*
X558283Y279756D01*
X565788Y281703D02*
X591102D01*
X544685Y275197D02*
X553723D01*
X526078Y273364D02*
X553444D01*
X556013Y275934D01*
X557502D01*
X523397Y276045D02*
X526078Y273364D01*
X552924Y292065D02*
X553389Y292530D01*
X536882Y292065D02*
X552924D01*
X536417Y292530D02*
X536882Y292065D01*
X492120Y285039D02*
X492812D01*
X490730Y283650D02*
X492120Y285039D01*
X485557Y283650D02*
X490730D01*
X466037Y345744D02*
X472008Y339774D01*
X466037Y345744D02*
Y345764D01*
X463677Y348124D02*
X466037Y345764D01*
X463167Y348124D02*
X463677D01*
X459874Y351417D02*
X463167Y348124D01*
X464939Y344798D02*
X465192Y344545D01*
X464939Y344798D02*
Y345309D01*
X463222Y347026D02*
X464939Y345309D01*
X463840Y344004D02*
X467087Y340758D01*
X463840Y344004D02*
Y344854D01*
X462767Y345927D02*
X463840Y344854D01*
X433071Y348196D02*
X437827Y352953D01*
X435499Y358391D02*
X435553Y358445D01*
X411723Y358391D02*
X435499D01*
X435954Y357293D02*
X436008Y357347D01*
X411268Y357293D02*
X435954D01*
X436409Y356194D02*
X436463Y356248D01*
X410813Y356194D02*
X436409D01*
X436864Y355096D02*
X436918Y355150D01*
X410358Y355096D02*
X436864D01*
X436618Y353296D02*
X437373Y354051D01*
X415173Y353296D02*
X436618D01*
X459874Y351417D02*
Y352220D01*
X444178Y260126D02*
X456030D01*
X443966Y259914D02*
X444178Y260126D01*
X496822Y342262D02*
X498250Y343689D01*
X493876D02*
X495304Y342262D01*
X479499Y343689D02*
X493876D01*
X498250D02*
X520451D01*
X498705Y342591D02*
X519996D01*
X497277Y341163D02*
X498705Y342591D01*
X494849Y341163D02*
X497277D01*
X493421Y342591D02*
X494849Y341163D01*
X479954Y342591D02*
X493421D01*
X495304Y342262D02*
X496822D01*
X561159Y268171D02*
X563976Y265354D01*
X561159Y268171D02*
Y272276D01*
X557502Y275934D02*
X561159Y272276D01*
X521879Y276045D02*
X523397D01*
X521767Y275934D02*
X521879Y276045D01*
X495494Y275934D02*
X521767D01*
X376581Y72478D02*
X386598Y82496D01*
X374733Y72478D02*
X376581D01*
X373815Y73396D02*
X374733Y72478D01*
X366269Y73396D02*
X373815D01*
X364862Y74803D02*
X366269Y73396D01*
X401098Y88696D02*
X402198Y89796D01*
X398298Y88696D02*
X401098D01*
X398230Y88765D02*
X398298Y88696D01*
X397984Y88765D02*
X398230D01*
X398439Y89863D02*
X399957D01*
X360236Y77959D02*
X368861D01*
X365433Y79496D02*
X368498D01*
X364994Y79057D02*
X365433Y79496D01*
X362380Y79057D02*
X364994D01*
X364539Y80155D02*
X365179Y80796D01*
X363020Y80155D02*
X364539D01*
X361811Y81365D02*
X363020Y80155D01*
X359258Y78937D02*
X360236Y77959D01*
X359803Y81634D02*
X362380Y79057D01*
X355413Y78937D02*
X359258D01*
X399957Y89863D02*
X401395Y91301D01*
X400746Y94352D02*
X402699Y92400D01*
X401201Y95451D02*
X403154Y93498D01*
X365179Y80796D02*
X367698D01*
X361811Y81365D02*
Y84153D01*
X318607Y33896D02*
X321977Y37266D01*
X317787Y33896D02*
X318607D01*
X317688Y33797D02*
X317787Y33896D01*
X390257Y303646D02*
X390801Y303101D01*
X355971Y303646D02*
X390257D01*
X354174Y301848D02*
X355971Y303646D01*
X348823Y301848D02*
X354174D01*
X311067Y302165D02*
X312068D01*
X376798Y338196D02*
X382698Y344096D01*
X366098Y338196D02*
X376798D01*
X363498Y340796D02*
X366098Y338196D01*
X363198Y340796D02*
X363498D01*
X414657Y353811D02*
X415173Y353296D01*
X409802Y357205D02*
X410813Y356194D01*
X410257Y358304D02*
X411268Y357293D01*
X410712Y359402D02*
X411723Y358391D01*
X397863Y353140D02*
X402342D01*
X399228Y356435D02*
X400977D01*
X398773Y355337D02*
X401432D01*
X398318Y354238D02*
X401887D01*
X409347Y356107D02*
X410358Y355096D01*
X411524Y349604D02*
X413898Y351979D01*
X364939Y347736D02*
X369797Y352594D01*
X367698Y346596D02*
X372598Y351496D01*
X365231Y346596D02*
X367698D01*
X363779Y347736D02*
X364939D01*
X364176Y252298D02*
X366474Y254596D01*
X363898Y252020D02*
X364176Y252298D01*
X381337Y254007D02*
X382410Y255081D01*
X381337Y253534D02*
Y254007D01*
X377446Y249644D02*
X381337Y253534D01*
X374651Y249644D02*
X377446D01*
X373486Y250808D02*
X374651Y249644D01*
X373486Y250808D02*
Y253318D01*
X372208Y254596D02*
X373486Y253318D01*
X366474Y254596D02*
X372208D01*
X365939Y257891D02*
X367444Y259396D01*
X364539Y257321D02*
X365109Y257891D01*
X364994Y256222D02*
X365564Y256793D01*
X365449Y255124D02*
X366019Y255695D01*
X365109Y257891D02*
X365939D01*
X363779Y259154D02*
X365648D01*
X362110Y255124D02*
X365449D01*
X362565Y256222D02*
X364994D01*
X363020Y257321D02*
X364539D01*
X363898Y251996D02*
Y252020D01*
X401656Y265655D02*
X403795Y267794D01*
X402111Y264557D02*
X404250Y266696D01*
X398318Y265655D02*
X401656D01*
X398773Y266754D02*
X401201D01*
X399228Y267852D02*
X400746D01*
X396689Y270391D02*
X399228Y267852D01*
X397863Y264557D02*
X402111D01*
X395324Y267096D02*
X397863Y264557D01*
X411567Y261065D02*
X413898Y263396D01*
X396234Y269293D02*
X398773Y266754D01*
X395779Y268195D02*
X398318Y265655D01*
X361947Y258394D02*
X363020Y257321D01*
X361947Y258394D02*
Y261183D01*
X361811Y261319D02*
X361947Y261183D01*
X359989Y258799D02*
X362565Y256222D01*
X359803Y258799D02*
X359989D01*
X361132Y256102D02*
X362110Y255124D01*
X355413Y256102D02*
X361132D01*
X451923Y219948D02*
X453245Y218627D01*
X430274Y219948D02*
X451923D01*
X424681Y214355D02*
X430274Y219948D01*
X422409Y214355D02*
X424681D01*
X421336Y215429D02*
X422409Y214355D01*
X390398Y213696D02*
X415329D01*
X390498Y130696D02*
X390898Y131096D01*
X348598Y130696D02*
X390498D01*
X311067Y126165D02*
X313298Y128396D01*
X311067Y125000D02*
Y126165D01*
X396198Y164996D02*
X399998D01*
X391165Y159963D02*
X396198Y164996D01*
X368285Y159963D02*
X391165D01*
X364862Y163386D02*
X368285Y159963D01*
X389038Y161061D02*
X394331Y166354D01*
X371977Y161061D02*
X389038D01*
X369821Y163217D02*
X371977Y161061D01*
X394331Y166354D02*
Y166829D01*
X369821Y163217D02*
Y164424D01*
X368405Y165840D02*
X369821Y164424D01*
X362655Y165840D02*
X368405D01*
X362953Y167095D02*
X368704D01*
X369002Y166796D01*
X370398D01*
X379498Y175896D01*
X360975Y167520D02*
X362655Y165840D01*
X361430Y168618D02*
X362953Y167095D01*
X360576Y168618D02*
X361430D01*
X355413Y167520D02*
X360975D01*
X363555Y163386D02*
X364862D01*
X361784Y165157D02*
X363555Y163386D01*
X359803Y169391D02*
X360576Y168618D01*
X461629Y175967D02*
X464967D01*
X459400Y178196D02*
X461629Y175967D01*
X459653Y179496D02*
X462084Y177065D01*
X460108Y180595D02*
X462539Y178163D01*
X462084Y177065D02*
X464512D01*
X462539Y178163D02*
X464057D01*
X451290Y178196D02*
X459400D01*
X450558Y178929D02*
X451290Y178196D01*
X449039Y178929D02*
X450558D01*
X447207Y177096D02*
X449039Y178929D01*
X445088Y179293D02*
X446921Y181126D01*
X447343Y179994D02*
X448552D01*
X448584Y180027D01*
X446921Y181126D02*
X451468D01*
X451999Y180595D02*
X460108D01*
X451468Y181126D02*
X451999Y180595D01*
X451544Y179496D02*
X459653D01*
X451013Y180027D02*
X451544Y179496D01*
X448584Y180027D02*
X451013D01*
X445543Y178194D02*
X447343Y179994D01*
X434999Y177096D02*
X447207D01*
X434089Y179293D02*
X445088D01*
X434544Y178194D02*
X445543D01*
X434740Y176837D02*
X434999Y177096D01*
X417758Y176837D02*
X434740D01*
X416108Y178486D02*
X417758Y176837D01*
X404288Y180893D02*
X430452D01*
X432312Y179034D01*
X418213Y177935D02*
X434285D01*
X416353Y179795D02*
X418213Y177935D01*
X434285D02*
X434544Y178194D01*
X433830Y179034D02*
X434089Y179293D01*
X432312Y179034D02*
X433830D01*
X404743Y179795D02*
X416353D01*
X404989Y178486D02*
X416108D01*
X402898Y176396D02*
X404989Y178486D01*
X402745Y177796D02*
X404743Y179795D01*
X402290Y178894D02*
X404288Y180893D01*
X396200Y176396D02*
X402898D01*
X397900Y178894D02*
X402290D01*
X396498Y177796D02*
X402745D01*
X411989Y172904D02*
X413898Y174813D01*
X393698Y180596D02*
X396498Y177796D01*
X379498Y175896D02*
X384298D01*
X359803Y169391D02*
Y170217D01*
X395100Y181694D02*
X397900Y178894D01*
X364539Y168738D02*
X364697Y168896D01*
X363020Y168738D02*
X364539D01*
X361811Y169948D02*
X363020Y168738D01*
X361811Y169948D02*
Y172736D01*
X311067Y213583D02*
Y215665D01*
X377559Y253346D02*
Y258357D01*
X307185Y262106D02*
X308661D01*
X314272Y256496D01*
X328346D01*
X337233Y257345D02*
X343257D01*
X309744Y264173D02*
X315844Y258074D01*
X334243Y260335D02*
X337233Y257345D01*
X323721Y260335D02*
X334243D01*
X321459Y258074D02*
X323721Y260335D01*
X360448Y262682D02*
X361811Y261319D01*
X319874Y260420D02*
X322135Y262682D01*
X357119Y261483D02*
X359803Y258799D01*
X320371Y259222D02*
X322632Y261483D01*
X357119D01*
X322135Y262682D02*
X360448D01*
X315844Y258074D02*
X321459D01*
X317724Y260420D02*
X319874D01*
X311625Y266520D02*
X317724Y260420D01*
X316762Y259222D02*
X320371D01*
X310663Y265322D02*
X316762Y259222D01*
X303954Y265322D02*
X310663D01*
X304429Y264173D02*
X309744D01*
X299065Y260433D02*
X303954Y265322D01*
X293292Y266520D02*
X311625D01*
X291339Y260433D02*
X299065D01*
X343257Y257345D02*
X343788Y257876D01*
X28456Y370706D02*
X29084Y371334D01*
X34840D01*
X36758Y371699D02*
Y372169D01*
X35659Y372154D02*
Y372624D01*
X28161Y373363D02*
X34845D01*
X34840Y371334D02*
X35659Y372154D01*
X34845Y373363D02*
X42338Y380856D01*
X35659Y372624D02*
X42793Y379758D01*
X36758Y372169D02*
X43248Y378659D01*
X37856Y371715D02*
X43703Y377561D01*
X621227Y14042D02*
X622284Y15099D01*
X59264Y18228D02*
X59400Y18092D01*
X64072D01*
X61036Y16259D02*
X64351D01*
X66568Y14042D01*
X62795Y14272D02*
X64123Y12944D01*
X57776Y20374D02*
X63976D01*
X64072Y18092D02*
X67022Y15142D01*
X63976Y20374D02*
X68110Y16240D01*
X624206Y13035D02*
Y13678D01*
Y13035D02*
X624297Y12944D01*
X288747Y260433D02*
X291339D01*
X290476Y263705D02*
X293292Y266520D01*
X288161Y261019D02*
X288747Y260433D01*
X288161Y261019D02*
Y264037D01*
X290476Y263023D02*
Y263705D01*
X272562Y273260D02*
X276937D01*
X271381Y275819D02*
X276379D01*
X286779Y259579D02*
Y263418D01*
X276379Y275819D02*
X288161Y264037D01*
X285827Y272146D02*
Y274213D01*
Y272146D02*
X288583Y269390D01*
X319587D01*
X323721Y265256D01*
X363287D01*
X363779Y264764D01*
X289498Y274796D02*
X312298D01*
X314498Y276996D01*
X363779Y259154D02*
Y264764D01*
X314272Y345079D02*
X328346D01*
X308661Y350689D02*
X314272Y345079D01*
X334350Y339075D02*
X339961D01*
X328346Y345079D02*
X334350Y339075D01*
X307185Y350689D02*
X308661D01*
X339961Y339075D02*
X343209Y342323D01*
X285827Y360728D02*
X288583Y357972D01*
X285827Y360728D02*
Y362795D01*
X288583Y357972D02*
X319587D01*
X363287Y353839D02*
X363779Y353346D01*
Y347736D02*
Y353346D01*
X311625Y355103D02*
X317724Y349003D01*
X290476Y351606D02*
Y352288D01*
X293292Y355103D01*
X311625D01*
X317724Y349003D02*
X319874D01*
X322135Y351264D01*
X360448D02*
X361811Y349902D01*
X322135Y351264D02*
X360448D01*
X276379Y364402D02*
X288161Y352620D01*
Y349602D02*
Y352620D01*
Y349602D02*
X288747Y349016D01*
X291339D01*
X271381Y364402D02*
X276379D01*
X316762Y347805D02*
X320371D01*
X299065Y349016D02*
X303954Y353904D01*
X310663D02*
X316762Y347805D01*
X320371D02*
X322632Y350066D01*
X357119D02*
X359803Y347382D01*
X291339Y349016D02*
X299065D01*
X322632Y350066D02*
X357119D01*
X303954Y353904D02*
X310663D01*
X286779Y348162D02*
Y352001D01*
X272562Y361843D02*
X276937D01*
X345306Y346459D02*
X347080Y344685D01*
X334243Y348917D02*
X337233Y345927D01*
X347080Y344685D02*
X355413D01*
X304429Y352756D02*
X309744D01*
X315844Y346656D02*
X321459D01*
X309744Y352756D02*
X315844Y346656D01*
X337233Y345927D02*
X343257D01*
X343788Y346459D01*
X345306D01*
X321459Y346656D02*
X323721Y348917D01*
X334243D01*
X377559Y164764D02*
Y169774D01*
X380798Y173013D01*
X308661Y173524D02*
X314272Y167913D01*
X307185Y173524D02*
X308661D01*
X319587Y180807D02*
X323721Y176673D01*
X285827Y183563D02*
X288583Y180807D01*
X285827Y183563D02*
Y185630D01*
X288583Y180807D02*
X319587D01*
X363287Y176673D02*
X363779Y176181D01*
X323721Y176673D02*
X363287D01*
X363779Y170571D02*
Y176181D01*
X311625Y177937D02*
X317724Y171838D01*
X290476Y174441D02*
Y175122D01*
X293292Y177937D01*
X311625D01*
X317724Y171838D02*
X319874D01*
X322135Y174099D01*
X360448D02*
X361811Y172736D01*
X322135Y174099D02*
X360448D01*
X276379Y187237D02*
X288161Y175455D01*
Y172436D02*
Y175455D01*
Y172436D02*
X288747Y171850D01*
X291339D01*
X271381Y187237D02*
X276379D01*
X316762Y170639D02*
X320371D01*
X299065Y171850D02*
X303954Y176739D01*
X310663D02*
X316762Y170639D01*
X320371D02*
X322632Y172900D01*
X357119D02*
X359803Y170217D01*
X291339Y171850D02*
X299065D01*
X322632Y172900D02*
X357119D01*
X303954Y176739D02*
X310663D01*
X286779Y170997D02*
Y174835D01*
X272562Y184678D02*
X276937D01*
X290256Y167520D02*
X296358D01*
X345306Y169293D02*
X347080Y167520D01*
X286779Y170997D02*
X290256Y167520D01*
X296358D02*
X304429Y175591D01*
X334243Y171752D02*
X337233Y168762D01*
X347080Y167520D02*
X355413D01*
X304429Y175591D02*
X309744D01*
X315844Y169491D02*
X321459D01*
X309744Y175591D02*
X315844Y169491D01*
X337233Y168762D02*
X343257D01*
X343788Y169293D01*
X345306D01*
X321459Y169491D02*
X323721Y171752D01*
X334243D01*
X289498Y186213D02*
X312298D01*
X314498Y188413D01*
X377559Y76181D02*
Y81191D01*
X380798Y84431D01*
X412066Y84398D02*
X413898Y86231D01*
X314272Y79331D02*
X328346D01*
X308661Y84941D02*
X314272Y79331D01*
X334350Y73327D02*
X339961D01*
X328346Y79331D02*
X334350Y73327D01*
X307185Y84941D02*
X308661D01*
X362734Y76575D02*
X364506Y74803D01*
X339961Y73327D02*
X343209Y76575D01*
X364506Y74803D02*
X364862D01*
X343209Y76575D02*
X362734D01*
X319587Y92224D02*
X323721Y88090D01*
X285827Y94980D02*
X288583Y92224D01*
X285827Y94980D02*
Y97047D01*
X288583Y92224D02*
X319587D01*
X363287Y88090D02*
X363779Y87598D01*
X323721Y88090D02*
X363287D01*
X363779Y81988D02*
Y87598D01*
X311625Y89355D02*
X317724Y83255D01*
X290476Y85858D02*
Y86540D01*
X293292Y89355D01*
X311625D01*
X317724Y83255D02*
X319874D01*
X322135Y85516D01*
X360448D02*
X361811Y84153D01*
X322135Y85516D02*
X360448D01*
X276379Y98654D02*
X288161Y86872D01*
Y83854D02*
Y86872D01*
Y83854D02*
X288747Y83268D01*
X291339D01*
X271381Y98654D02*
X276379D01*
X316762Y82057D02*
X320371D01*
X299065Y83268D02*
X303954Y88156D01*
X310663D02*
X316762Y82057D01*
X320371D02*
X322632Y84318D01*
X357119D02*
X359803Y81634D01*
X291339Y83268D02*
X299065D01*
X322632Y84318D02*
X357119D01*
X303954Y88156D02*
X310663D01*
X286779Y82414D02*
Y86253D01*
X272562Y96095D02*
X276937D01*
X290256Y78937D02*
X296358D01*
X345306Y80711D02*
X347080Y78937D01*
X286779Y82414D02*
X290256Y78937D01*
X296358D02*
X304429Y87008D01*
X347080Y78937D02*
X355413D01*
X304429Y87008D02*
X309744D01*
X315844Y80908D02*
X321459D01*
X309744Y87008D02*
X315844Y80908D01*
X343257Y80179D02*
X343788Y80711D01*
X345306D01*
X321459Y80908D02*
X323721Y83169D01*
X334243D01*
X289498Y97631D02*
X312298D01*
X314498Y99831D01*
X321898Y372396D02*
Y372596D01*
X289498Y363379D02*
X312298D01*
X314498Y365579D01*
X330857Y353263D02*
X331433Y353839D01*
X324296Y353263D02*
X330857D01*
X319587Y357972D02*
X324296Y353263D01*
X354604Y353839D02*
X363287D01*
X361811Y347113D02*
Y349902D01*
Y347113D02*
X363020Y345903D01*
X364539D01*
X365231Y346596D01*
X359803Y346591D02*
Y347382D01*
X355413Y344685D02*
X359109D01*
X359803Y346591D02*
X361998Y344396D01*
X343209Y342323D02*
X359918D01*
X360043Y342198D01*
X362859D01*
X359109Y344685D02*
X360498Y343296D01*
X362859Y342198D02*
X363198Y341858D01*
X362892Y341552D02*
X363198Y341858D01*
X622284Y15099D02*
Y15472D01*
X617717Y16240D02*
X618150Y16674D01*
X138978Y21114D02*
X146716D01*
X147500Y21898D01*
X154497D01*
X154498Y21896D02*
X196465D01*
X154497Y21898D02*
X154498Y21896D01*
X196465D02*
X218765Y44196D01*
X138198Y22996D02*
X138487Y22707D01*
X141113D01*
X141402Y22996D01*
X146698D01*
X146700Y22998D01*
X196011D02*
X218310Y45296D01*
X146700Y22998D02*
X196011D01*
X140354Y24540D02*
X140766Y24129D01*
X143492D01*
X143904Y24540D01*
X147797Y24098D02*
X195556D01*
X143904Y24540D02*
X147354D01*
X195556Y24098D02*
X217854Y46396D01*
X147354Y24540D02*
X147797Y24098D01*
X146698Y25796D02*
X147654D01*
X148252Y25198D02*
X195100D01*
X147654Y25796D02*
X148252Y25198D01*
X146533Y25961D02*
X146698Y25796D01*
X195100Y25198D02*
X217398Y47496D01*
X142733Y25961D02*
X146533D01*
X620906Y17363D02*
Y17834D01*
X220798Y351696D02*
X234998D01*
X259698Y376396D01*
X319298Y372896D02*
X320631Y374229D01*
X316998Y374396D02*
X317930Y375327D01*
X300998Y375396D02*
X302065Y376463D01*
X259698Y376396D02*
X297407D01*
X300239Y373563D01*
X301758D01*
X301790Y373596D01*
X311598D01*
X314631Y370563D01*
X322657D01*
X322890Y370796D01*
X542038Y380856D02*
X544498Y378396D01*
X539437Y379758D02*
X542598Y376596D01*
X537035Y378659D02*
X539798Y375896D01*
X525633Y377561D02*
X526798Y376396D01*
X515732Y376463D02*
X517998Y374196D01*
X42338Y380856D02*
X542038D01*
X42793Y379758D02*
X539437D01*
X43248Y378659D02*
X537035D01*
X43703Y377561D02*
X525633D01*
X302065Y376463D02*
X515732D01*
X517198Y371496D02*
Y371988D01*
X513859Y375327D02*
X517198Y371988D01*
X317930Y375327D02*
X513859D01*
X511552Y372696D02*
X513898D01*
X510019Y374229D02*
X511552Y372696D01*
X320631Y374229D02*
X510019D01*
X512798Y369896D02*
X512998D01*
X493398Y370596D02*
X509398D01*
X493198Y370796D02*
X493398Y370596D01*
X453245Y218627D02*
X477829D01*
X471800Y171496D02*
X472233Y171929D01*
X473454D01*
X464057Y178163D02*
X464821Y178927D01*
X464512Y177065D02*
X465276Y177829D01*
X464967Y175967D02*
X464997Y175996D01*
X454291Y266939D02*
Y267903D01*
X452323Y263987D02*
Y265955D01*
X452203Y269991D02*
X454291Y267903D01*
X400746Y267852D02*
X402885Y269991D01*
X449385Y268893D02*
X452323Y265955D01*
X401201Y266754D02*
X403340Y268893D01*
X447531Y267794D02*
X449370Y265955D01*
Y265955D02*
Y265955D01*
X444692Y266696D02*
X448386Y263002D01*
X477829Y218627D02*
X477913Y218711D01*
X464821Y178927D02*
X477500D01*
X464997Y175996D02*
X465589Y175404D01*
X477913Y177829D02*
X477984Y177758D01*
X477500Y178927D02*
X477913Y179341D01*
Y180325D01*
X465276Y177829D02*
X477913D01*
X423419Y94696D02*
X424764D01*
X421811Y281703D02*
X422909Y282802D01*
X423779Y279735D02*
X425748Y281703D01*
X426291Y91301D02*
X426732Y91743D01*
X401395Y91301D02*
X418756D01*
X419083Y91629D01*
X420602D01*
X420929Y91301D01*
X426291D01*
X402699Y92400D02*
X418301D01*
X418628Y92727D01*
X403154Y93498D02*
X417846D01*
X418173Y93826D01*
X419957D01*
X421811Y95679D01*
X421451Y92727D02*
X423419Y94696D01*
X418628Y92727D02*
X421451D01*
X419842Y283672D02*
X420827Y284656D01*
X402198Y89796D02*
X419842D01*
X417874Y82496D02*
X418262Y82885D01*
X426732D01*
X402885Y269991D02*
X430931D01*
X431879Y269044D01*
X433397D01*
X434344Y269991D01*
X452203D01*
X403340Y268893D02*
X430476D01*
X431424Y267945D01*
X433852D01*
X434799Y268893D01*
X449385D01*
X403795Y267794D02*
X430021D01*
X430969Y266847D01*
X434307D01*
X435254Y267794D01*
X447531D01*
X404250Y266696D02*
X429566D01*
X430514Y265748D01*
X434762D01*
X435709Y266696D01*
X444692D01*
X447401Y254144D02*
X482835D01*
X456030Y260126D02*
X456260Y259896D01*
X438543Y43514D02*
X440512D01*
X477984Y177758D02*
X479666D01*
X473454Y171929D02*
X474961Y173435D01*
X465589Y175404D02*
X477913D01*
X475216Y303101D02*
X476929Y301388D01*
X390801Y303101D02*
X475216D01*
X467087Y338790D02*
X470039Y335837D01*
X467087Y338790D02*
Y340758D01*
X465192Y344545D02*
X465268D01*
X472008Y337806D01*
X472008Y339774D02*
X473976D01*
X537558Y342498D02*
X538178Y341878D01*
X539696D01*
X540545Y342727D01*
X546811D01*
X538823Y343597D02*
X538937Y343711D01*
X472992Y344695D02*
X477913D01*
X471883Y341764D02*
X479128D01*
X472461Y342863D02*
X478673D01*
X420827Y284656D02*
X465118D01*
X492452Y280855D02*
X493300Y281703D01*
X494646D01*
X482835Y254144D02*
X482835Y254144D01*
X441496Y252176D02*
X502520D01*
X505473Y255128D01*
X425748Y281703D02*
X485164D01*
X486012Y282552D01*
X484709Y282802D02*
X485557Y283650D01*
X422909Y282802D02*
X484709D01*
X486012Y282552D02*
X489237D01*
X490934Y280855D01*
X492452D01*
X486771Y280719D02*
X489516D01*
X490479Y279756D01*
X491671D01*
X591102Y299420D02*
X592087Y300404D01*
X532806Y342591D02*
X532899Y342498D01*
X537558D01*
X533261Y343689D02*
X533354Y343597D01*
X538823D01*
X479128Y341764D02*
X479954Y342591D01*
X478673Y342863D02*
X479499Y343689D01*
X491671Y279756D02*
X495494Y275934D01*
X482835Y254144D02*
X496614D01*
X497598Y255128D01*
X494285Y259065D02*
X566496D01*
X493436Y259914D02*
X494285Y259065D01*
X491918Y259914D02*
X493436D01*
X486772Y260050D02*
X491782D01*
X491918Y259914D01*
X590254Y284792D02*
X592087Y286624D01*
X497609Y171457D02*
X502067D01*
X502165Y171555D01*
X516142D01*
X495630Y173435D02*
X497609Y171457D01*
X503974Y168631D02*
X505048Y167557D01*
X507640Y168631D02*
Y169024D01*
X506566Y167557D02*
X507640Y168631D01*
X503974D02*
Y169024D01*
X505048Y167557D02*
X506566D01*
X507640Y169024D02*
X508034D01*
X523355D01*
X523889D01*
X507640Y168631D02*
X508034Y169024D01*
X559799Y292530D02*
X560264Y292065D01*
X591622D02*
X592087Y292530D01*
X560264Y292065D02*
X591622D01*
X553389Y292530D02*
X559799D01*
X521879Y342262D02*
X523397D01*
X519996Y342591D02*
X521424Y341163D01*
X523852D01*
X525280Y342591D01*
X532806D01*
X524824Y343689D02*
X533261D01*
X520451D02*
X521879Y342262D01*
X523397D02*
X524824Y343689D01*
X442329Y170653D02*
X442886Y170096D01*
X472992D01*
X442784Y171751D02*
X443040Y171496D01*
X471800D01*
X399254Y171751D02*
X442784D01*
X405655Y170653D02*
X442329D01*
X399998Y164996D02*
X405655Y170653D01*
X394331Y166829D02*
X399254Y171751D01*
X495630Y123676D02*
Y125207D01*
Y123676D02*
X496364Y122941D01*
X508633D01*
X508765Y123073D01*
X515861D01*
X618685Y15142D02*
X620906Y17363D01*
X618150Y16674D02*
Y17342D01*
X618794Y21251D02*
X619140D01*
X617332Y19789D02*
X618794Y21251D01*
X616255Y17339D02*
X616317Y17402D01*
Y18101D01*
X617332Y19116D01*
Y19789D01*
X586727Y39296D02*
Y39412D01*
X583774Y42364D02*
X586727Y39412D01*
X455821Y44333D02*
X457790Y42364D01*
X440394Y112246D02*
X442362Y110278D01*
X187121Y57128D02*
X228459D01*
X184168Y54175D02*
X187121Y57128D01*
X457790Y42364D02*
X501542D01*
X502390Y43213D01*
X503909D01*
X504757Y42364D01*
X583774D01*
X536108Y17872D02*
X539938Y14042D01*
X536563Y18971D02*
X540392Y15142D01*
X537018Y20069D02*
X540847Y16240D01*
X537473Y21168D02*
X541301Y17339D01*
X537928Y22266D02*
X541756Y18438D01*
X538383Y23364D02*
X542211Y19536D01*
X538838Y24463D02*
X542666Y20635D01*
X535653Y16774D02*
X539483Y12944D01*
X505563Y14042D02*
X509393Y17872D01*
X505109Y15142D02*
X508938Y18971D01*
X504655Y16240D02*
X508483Y20069D01*
X504200Y17339D02*
X508028Y21168D01*
X503745Y18438D02*
X507573Y22266D01*
X503290Y19536D02*
X507118Y23364D01*
X502835Y20635D02*
X506663Y24463D01*
X509393Y17872D02*
X536108D01*
X508938Y18971D02*
X536563D01*
X508483Y20069D02*
X537018D01*
X508028Y21168D02*
X537473D01*
X507573Y22266D02*
X537928D01*
X507118Y23364D02*
X538383D01*
X506663Y24463D02*
X538838D01*
X506018Y12944D02*
X509848Y16774D01*
X535653D01*
X578627Y300102D02*
X579310Y299420D01*
X591102D01*
X539921D02*
X574893D01*
X575576Y300102D01*
X578627D01*
X37856Y369912D02*
Y371715D01*
X31500Y363555D02*
X37856Y369912D01*
X30100Y365041D02*
X36758Y371699D01*
X30100Y318900D02*
Y365041D01*
X31500Y320092D02*
Y363555D01*
Y320092D02*
X31933Y319659D01*
Y318141D02*
Y319659D01*
X31500Y317708D02*
X31933Y318141D01*
X31500Y310200D02*
Y317708D01*
X30600Y309300D02*
X31500Y310200D01*
X3300Y40834D02*
Y49800D01*
Y40834D02*
X7795Y36339D01*
X5150Y51650D02*
X19750D01*
X29300Y42100D01*
X76720D01*
X79102Y44481D01*
X82603D01*
X83584Y43500D01*
X88825D01*
X99500Y54175D01*
X3300Y49800D02*
X5150Y51650D01*
X99500Y54175D02*
X184168D01*
X319059Y279760D02*
X323524Y275295D01*
X305066Y279760D02*
X319059D01*
X319453Y190783D02*
X323524Y186713D01*
X305460Y190783D02*
X319453D01*
X319990Y101663D02*
X323524Y98130D01*
X313739Y101663D02*
X319990D01*
X313495Y101419D02*
X313739Y101663D01*
X308456Y101419D02*
X313495D01*
X308141Y101734D02*
X308456Y101419D01*
X306623Y101734D02*
X308141D01*
X306471Y101583D02*
X306623Y101734D01*
X306471Y101583D02*
X306471D01*
X305066Y102988D02*
X306471Y101583D01*
D87*
X582094Y184608D02*
Y189014D01*
Y184608D02*
X582244Y184459D01*
X594741Y213104D02*
X596024Y211821D01*
X573684Y213104D02*
X594741D01*
X573386Y212806D02*
X573684Y213104D01*
X440098Y208896D02*
X440338Y208657D01*
X467698Y204496D02*
X468598Y203596D01*
X437098Y204496D02*
X467698D01*
X459712Y208657D02*
X461727Y210671D01*
X440338Y208657D02*
X459712D01*
X290998Y306796D02*
X291748Y306046D01*
X292948D02*
X293698Y306796D01*
X568755Y181309D02*
X570638Y179427D01*
X567480Y181309D02*
X568755D01*
X588150Y151782D02*
X588150Y151782D01*
X571417Y153750D02*
X595039D01*
X566496Y151782D02*
X588150D01*
X540720Y113697D02*
X542989Y111428D01*
X537367Y113697D02*
X540720D01*
X537066Y113396D02*
X537367Y113697D01*
X535000Y113396D02*
X537066D01*
X534016Y112412D02*
X535000Y113396D01*
X542989Y111428D02*
X570433D01*
X571417Y181309D02*
X579095D01*
X582244Y184459D01*
X580787Y181307D02*
X581928D01*
X578907Y179427D02*
X580787Y181307D01*
X570638Y179427D02*
X578907D01*
X570669Y243406D02*
X591929D01*
X535000Y115365D02*
X556993D01*
X557291Y115662D01*
X586181Y115365D02*
X587165Y116349D01*
X557291Y115662D02*
X567183D01*
X567480Y115365D02*
X586181D01*
X567183Y115662D02*
X567480Y115365D01*
X573039Y112709D02*
X574599D01*
X575881Y111428D02*
X591102D01*
X570433D02*
X571757D01*
X573039Y112709D01*
X574599D02*
X575881Y111428D01*
X435098Y202496D02*
X437098Y204496D01*
X561575Y261034D02*
X570794D01*
X571260Y261499D01*
D88*
X373298Y357979D02*
X373698Y358379D01*
X373298Y180813D02*
X373698Y181213D01*
X377781Y185296D01*
X373652Y270455D02*
X374357D01*
X378564Y274662D01*
X373652Y269750D02*
Y270455D01*
X373298Y269396D02*
X373652Y269750D01*
X377767Y96699D02*
X410630D01*
X373698Y92631D02*
X377767Y96699D01*
X373298Y92231D02*
X373698Y92631D01*
X377781Y185296D02*
X381056D01*
X382439Y183913D01*
X411998D01*
X382789Y274662D02*
X384955Y272496D01*
X378564Y274662D02*
X382789D01*
X384955Y272496D02*
X411998D01*
X373416Y312096D02*
X373583Y312263D01*
X281299Y223467D02*
X281513Y223680D01*
X410630Y96699D02*
X411998Y95331D01*
X376669Y361349D02*
X411728D01*
X373698Y358379D02*
X376669Y361349D01*
X411728D02*
X411998Y361079D01*
X346598Y269396D02*
X373298D01*
X346598Y180813D02*
X373298D01*
X346598Y92231D02*
X373298D01*
D92*
X473976Y38639D02*
Y39578D01*
X348754Y34706D02*
X356909D01*
X395150Y32874D02*
X468211D01*
X473976Y38639D01*
X356909Y34706D02*
X361062Y30553D01*
X392829D02*
X395150Y32874D01*
X361062Y30553D02*
X392829D01*
X344444Y30396D02*
X348754Y34706D01*
X292259Y30396D02*
X344444D01*
X288959Y33696D02*
X292259Y30396D01*
X288959Y33696D02*
Y37662D01*
X289752Y38455D01*
X474777Y37743D02*
X475715D01*
X349251Y33506D02*
X356412D01*
X395647Y31674D02*
X468708D01*
X474777Y37743D01*
X356412Y33506D02*
X360565Y29353D01*
X393326D02*
X395647Y31674D01*
X360565Y29353D02*
X393326D01*
X344941Y29196D02*
X349251Y33506D01*
X291762Y29196D02*
X344941D01*
X287759Y33199D02*
X291762Y29196D01*
X287759Y33199D02*
Y37847D01*
X287152Y38455D02*
X287759Y37847D01*
X514631Y289145D02*
X515315Y289829D01*
X296486Y293496D02*
X346995D01*
X485907Y289156D02*
X488502D01*
X288986Y300996D02*
X296486Y293496D01*
X476692Y289156D02*
X477676D01*
X477687Y289145D01*
X474096Y289156D02*
X476691D01*
X476692Y289156D01*
X288986Y303810D02*
X289670Y304494D01*
X288986Y300996D02*
Y303810D01*
X488502Y289156D02*
X488514Y289145D01*
X514631D01*
X485895D02*
X485907Y289156D01*
X471357Y286417D02*
X474096Y289156D01*
X477687Y289145D02*
X485895D01*
X467787Y286417D02*
X471357D01*
X463821Y287789D02*
X466416D01*
X467787Y286417D01*
X419833Y287054D02*
X463086D01*
X463821Y287789D01*
X419583Y286804D02*
X419833Y287054D01*
X346995Y293496D02*
X354074Y286417D01*
X418545Y286804D02*
X419583D01*
X418158Y286417D02*
X418545Y286804D01*
X354074Y286417D02*
X418158D01*
X514631Y287945D02*
X515315Y287260D01*
X488635Y287945D02*
X514631D01*
X488502Y287812D02*
X488635Y287945D01*
X350498Y288296D02*
X350498D01*
X346498Y292296D02*
X350498Y288296D01*
X486404Y287956D02*
X488005D01*
X287786Y300499D02*
X295989Y292296D01*
X346498D01*
X476194Y287956D02*
X477178D01*
X477190Y287945D02*
X485775D01*
X474593Y287956D02*
X476194D01*
X476194Y287956D01*
X287052Y304655D02*
X287786Y303921D01*
Y300499D02*
Y303921D01*
X486260Y287812D02*
X486404Y287956D01*
X485775Y287945D02*
X485907Y287812D01*
X488005Y287956D02*
X488149Y287812D01*
X477178Y287956D02*
X477190Y287945D01*
X471854Y285217D02*
X474593Y287956D01*
X485907Y287812D02*
X486260D01*
X488149D02*
X488502D01*
X467051Y285217D02*
Y285456D01*
Y285217D02*
X471854D01*
X464318Y286589D02*
X465919D01*
X463583Y285854D02*
X464318Y286589D01*
X465919D02*
X467051Y285456D01*
X420330Y285854D02*
X463583D01*
X350498Y288296D02*
X353577Y285217D01*
X419042Y285604D02*
X420080D01*
X420330Y285854D01*
X353577Y285217D02*
X418655D01*
X419042Y285604D01*
X491943Y110443D02*
X510227D01*
X490744Y109245D02*
X491943Y110443D01*
X490744Y109051D02*
Y109245D01*
X510227Y110443D02*
X516348Y104322D01*
X566579D02*
X569882Y107625D01*
X516348Y104322D02*
X566579D01*
X489458Y111643D02*
X510724D01*
X489250Y111435D02*
X489458Y111643D01*
X510724D02*
X516845Y105522D01*
X566082D02*
X569385Y108825D01*
X516845Y105522D02*
X566082D01*
X569385Y108825D02*
X575704D01*
X576339Y109459D01*
X569882Y107625D02*
X575704D01*
X576339Y106991D01*
X287852Y199821D02*
X290687Y196986D01*
X459249Y200319D02*
X460184Y199384D01*
Y198264D02*
Y199384D01*
X447302Y200319D02*
X459249D01*
X287152Y216355D02*
X287852Y215655D01*
Y203414D02*
Y215655D01*
X287812Y203375D02*
X287852Y203414D01*
X417650Y200970D02*
X424789D01*
X287812Y199861D02*
Y203375D01*
X431654Y199026D02*
X446009D01*
X447302Y200319D01*
X424789Y200970D02*
X426732Y199026D01*
X431653D02*
X431654Y199026D01*
X426732Y199026D02*
X431653D01*
X287852Y199821D02*
Y199821D01*
X287812Y199861D02*
X287852Y199821D01*
X460097Y201168D02*
X461033Y200232D01*
X460097Y201168D02*
X460097D01*
X461033Y200232D02*
X462153D01*
X289052Y215655D02*
X289752Y216355D01*
X417153Y202170D02*
X425285D01*
X289052Y202917D02*
Y215655D01*
X289012Y202878D02*
X289052Y202917D01*
X446805Y201519D02*
X459746D01*
X460097Y201168D01*
X445511Y200226D02*
X446805Y201519D01*
X431156Y200226D02*
X445511D01*
X431156Y200226D02*
X431156Y200226D01*
X427229Y200226D02*
X431156D01*
X425285Y202170D02*
X427229Y200226D01*
X289012Y200358D02*
Y202878D01*
Y200358D02*
X291535Y197835D01*
X413666Y196986D02*
X417650Y200970D01*
X413666Y196986D02*
X413666D01*
X413315Y196635D02*
X413666Y196986D01*
X291038Y196635D02*
X413315D01*
X290687Y196986D02*
X291038Y196635D01*
X290687Y196986D02*
X290687D01*
X412818Y197835D02*
X417153Y202170D01*
X291535Y197835D02*
X412818D01*
X288959Y125668D02*
X289652Y126361D01*
X288959Y122396D02*
Y125668D01*
X287759Y121899D02*
X291462Y118196D01*
X287152Y126455D02*
X287759Y125848D01*
X477777Y115365D02*
X478897D01*
X471087Y117125D02*
X476018D01*
X476369Y116773D01*
X470735D02*
X471087Y117125D01*
X476369Y116773D02*
X477777Y115365D01*
X476369Y116773D02*
X476369D01*
X291959Y119396D02*
X348395D01*
X288959Y122396D02*
X291959Y119396D01*
X398494Y117918D02*
X400216Y116196D01*
X470158D02*
X470735Y116773D01*
X391221Y117918D02*
X398494D01*
X470735Y116773D02*
X470735D01*
X400216Y116196D02*
X470158D01*
X348395Y119396D02*
X351595Y116196D01*
X389499D02*
X391221Y117918D01*
X351595Y116196D02*
X389499D01*
X476929Y113396D02*
Y114516D01*
X475521Y115925D02*
X476929Y114516D01*
X471584Y115925D02*
X475521D01*
X397997Y116718D02*
X399719Y114996D01*
X470655D02*
X471584Y115925D01*
X399719Y114996D02*
X470655D01*
X391718Y116718D02*
X397997D01*
X347898Y118196D02*
X351098Y114996D01*
X389996D02*
X391718Y116718D01*
X351098Y114996D02*
X389996D01*
X291462Y118196D02*
X347898D01*
X289652Y126361D02*
Y126555D01*
X287759Y121899D02*
Y125848D01*
X526442Y295196D02*
X527126Y294512D01*
X526442Y296396D02*
X527126Y297080D01*
X355646Y298048D02*
X358498Y295196D01*
X297699Y298048D02*
X355646D01*
X291748Y303999D02*
X297699Y298048D01*
X291748Y303999D02*
Y306046D01*
X356143Y299248D02*
X358996Y296396D01*
X292948Y304496D02*
Y306046D01*
X298196Y299248D02*
X356143D01*
X292948Y304496D02*
X298196Y299248D01*
X358996Y296396D02*
X526442D01*
X358498Y295196D02*
X526442D01*
D103*
X529043Y79649D02*
D03*
X539043Y89649D02*
D03*
X612677Y89213D02*
D03*
X602677Y79213D02*
D03*
X7795Y36339D02*
D03*
X17795Y46339D02*
D03*
X7795D02*
D03*
D105*
X289752Y38455D02*
D03*
X287152Y38455D02*
D03*
X515315Y290561D02*
D03*
X289670Y304494D02*
D03*
X515315Y287260D02*
D03*
X287052Y304655D02*
D03*
X490744Y109051D02*
D03*
X489250Y111435D02*
D03*
X576339Y106991D02*
D03*
Y109459D02*
D03*
X460184Y198264D02*
D03*
X287152Y216355D02*
D03*
X462153Y200232D02*
D03*
X289752Y216355D02*
D03*
X478897Y115365D02*
D03*
X476929Y113396D02*
D03*
X281299Y312008D02*
D03*
X352362Y64183D02*
D03*
X346457Y94488D02*
D03*
Y183071D02*
D03*
X352722Y152766D02*
D03*
X352362Y329931D02*
D03*
X321949Y331693D02*
D03*
Y65945D02*
D03*
Y154528D02*
D03*
X350354Y47047D02*
D03*
X350394Y134843D02*
D03*
X350354Y312795D02*
D03*
X346457Y360236D02*
D03*
X351378Y223425D02*
D03*
X321850Y243110D02*
D03*
X346457Y271654D02*
D03*
X412402Y274606D02*
D03*
X352362Y241349D02*
D03*
X582094Y189014D02*
D03*
X475715Y37743D02*
D03*
X473976Y39578D02*
D03*
X414752Y95555D02*
D03*
X287152Y126455D02*
D03*
X289652Y126555D02*
D03*
X440098Y208896D02*
D03*
X373698Y181213D02*
D03*
X373652Y270455D02*
D03*
X373698Y92631D02*
D03*
X281299Y310081D02*
D03*
Y223467D02*
D03*
X363302Y214608D02*
D03*
X463695Y274648D02*
D03*
X430231Y275632D02*
D03*
X463695Y277328D02*
D03*
X433184Y276616D02*
D03*
X510939Y198861D02*
D03*
X514877Y212640D02*
D03*
X507002Y212640D02*
D03*
X497536Y211320D02*
D03*
X495472Y208422D02*
D03*
X503859Y200780D02*
D03*
X441058Y23663D02*
D03*
X492239Y79766D02*
D03*
X498144D02*
D03*
X495191D02*
D03*
X251097Y107325D02*
D03*
X510940Y131931D02*
D03*
X461727Y210671D02*
D03*
X154640Y358309D02*
D03*
X584758Y13821D02*
D03*
X582790D02*
D03*
X609365Y64018D02*
D03*
X605428D02*
D03*
X600506D02*
D03*
X598538Y66971D02*
D03*
X602475D02*
D03*
X606412D02*
D03*
X610349D02*
D03*
X443814Y88624D02*
D03*
X514877Y85671D02*
D03*
X391845Y99060D02*
D03*
X386924Y99451D02*
D03*
X417436D02*
D03*
X414483Y98467D02*
D03*
X252081Y102404D02*
D03*
X228459Y104372D02*
D03*
X231412Y110278D02*
D03*
X416451Y97482D02*
D03*
X393498Y86231D02*
D03*
X250745Y105005D02*
D03*
X389283Y99060D02*
D03*
X403098Y132413D02*
D03*
X443025Y129963D02*
D03*
X445433Y127860D02*
D03*
X447362Y125978D02*
D03*
X237317Y122089D02*
D03*
X237317Y55160D02*
D03*
X235349Y52207D02*
D03*
X234365Y122089D02*
D03*
X431535Y123073D02*
D03*
X437121Y109293D02*
D03*
X461727Y44333D02*
D03*
X171373Y30553D02*
D03*
X443025Y23664D02*
D03*
X112318Y85671D02*
D03*
Y87640D02*
D03*
X305066Y102988D02*
D03*
Y367949D02*
D03*
Y279760D02*
D03*
X305460Y190783D02*
D03*
X511220Y144291D02*
D03*
X546654Y277248D02*
D03*
X544685Y275197D02*
D03*
X492812Y285039D02*
D03*
X445433Y257097D02*
D03*
X536417Y292913D02*
D03*
X563976Y265354D02*
D03*
X435098Y202496D02*
D03*
X393498Y351979D02*
D03*
X377698Y342096D02*
D03*
X375898Y340096D02*
D03*
X406791Y351979D02*
D03*
X375492Y251476D02*
D03*
X377559Y253346D02*
D03*
X363898Y251996D02*
D03*
X311067Y302165D02*
D03*
X355413Y256102D02*
D03*
X359803Y258799D02*
D03*
X361811Y261319D02*
D03*
X307185Y262106D02*
D03*
X301181Y214862D02*
D03*
X297244Y214862D02*
D03*
X271381Y275819D02*
D03*
X272562Y273260D02*
D03*
X291339Y260433D02*
D03*
X285827Y274213D02*
D03*
X28456Y370706D02*
D03*
X28161Y373363D02*
D03*
X61036Y16259D02*
D03*
X59264Y18228D02*
D03*
X62795Y14272D02*
D03*
X57776Y20374D02*
D03*
X624206Y13678D02*
D03*
X290476Y263023D02*
D03*
X286024Y263583D02*
D03*
X358598Y230696D02*
D03*
X406791Y263396D02*
D03*
X386998Y232396D02*
D03*
X393498Y263396D02*
D03*
X289498Y274796D02*
D03*
X314498Y276996D02*
D03*
X346598Y269396D02*
D03*
X413898Y263396D02*
D03*
X409898D02*
D03*
X411998Y272496D02*
D03*
X363779Y259154D02*
D03*
X321949Y245596D02*
D03*
X352298Y245396D02*
D03*
X358598Y319279D02*
D03*
X386998Y320979D02*
D03*
X373583Y312263D02*
D03*
X413898Y351979D02*
D03*
X409898D02*
D03*
X307185Y350689D02*
D03*
X285827Y362795D02*
D03*
X363779Y347736D02*
D03*
X290476Y351606D02*
D03*
X361811Y349902D02*
D03*
X271381Y364402D02*
D03*
X291339Y349016D02*
D03*
X359803Y347382D02*
D03*
X286024Y352165D02*
D03*
X272562Y361843D02*
D03*
X355413Y344685D02*
D03*
X321949Y334179D02*
D03*
X352298Y333979D02*
D03*
X297244Y303445D02*
D03*
X289498Y363379D02*
D03*
X314498Y365579D02*
D03*
X346598Y357979D02*
D03*
X373698Y358379D02*
D03*
X411998Y361079D02*
D03*
X323524Y363878D02*
D03*
X393498Y174813D02*
D03*
X406791D02*
D03*
X358598Y142113D02*
D03*
X386998Y143813D02*
D03*
X377559Y164764D02*
D03*
X413898Y174813D02*
D03*
X375492Y162894D02*
D03*
X409898Y174813D02*
D03*
X307185Y173524D02*
D03*
X364862Y163386D02*
D03*
X285827Y185630D02*
D03*
X363779Y170571D02*
D03*
X290476Y174441D02*
D03*
X361811Y172736D02*
D03*
X271381Y187237D02*
D03*
X291339Y171850D02*
D03*
X359803Y170217D02*
D03*
X286024Y175000D02*
D03*
X272562Y184678D02*
D03*
X355413Y167520D02*
D03*
X321949Y157013D02*
D03*
X352298Y156813D02*
D03*
X297244Y126279D02*
D03*
X289498Y186213D02*
D03*
X314498Y188413D02*
D03*
X403098Y132413D02*
D03*
X346598Y180813D02*
D03*
X411998Y183913D02*
D03*
X406791Y86231D02*
D03*
X358598Y53531D02*
D03*
X386998Y55231D02*
D03*
X377559Y76181D02*
D03*
X413898Y86231D02*
D03*
X375492Y74311D02*
D03*
X409898Y86231D02*
D03*
X307185Y84941D02*
D03*
X364862Y74803D02*
D03*
X285827Y97047D02*
D03*
X363779Y81988D02*
D03*
X290476Y85858D02*
D03*
X361811Y84153D02*
D03*
X271381Y98654D02*
D03*
X291339Y83268D02*
D03*
X359803Y81634D02*
D03*
X286024Y86417D02*
D03*
X272562Y96095D02*
D03*
X355413Y78937D02*
D03*
X321949Y68431D02*
D03*
X352298Y68231D02*
D03*
X311122Y36417D02*
D03*
X297244Y37697D02*
D03*
X289498Y97631D02*
D03*
X314498Y99831D02*
D03*
X346598Y92231D02*
D03*
X411998Y95331D02*
D03*
X311067Y213583D02*
D03*
X316998Y374396D02*
D03*
X319298Y372896D02*
D03*
X321898Y372396D02*
D03*
X330098Y355096D02*
D03*
X363198Y340796D02*
D03*
X622284Y15472D02*
D03*
X136298Y21196D02*
D03*
X138198Y22996D02*
D03*
X140354Y24540D02*
D03*
X142733Y25961D02*
D03*
X620906Y17834D02*
D03*
X311067Y125000D02*
D03*
X300998Y375396D02*
D03*
X468598Y203596D02*
D03*
X544498Y378396D02*
D03*
X542598Y376596D02*
D03*
X539798Y375896D02*
D03*
X526798Y376396D02*
D03*
X517998Y374196D02*
D03*
X517198Y371496D02*
D03*
X513898Y372696D02*
D03*
X512998Y369896D02*
D03*
X509398Y370596D02*
D03*
X367398Y368396D02*
D03*
X536998D02*
D03*
X472992Y170096D02*
D03*
X454291Y266939D02*
D03*
X452323Y263987D02*
D03*
X449370Y265955D02*
D03*
X448386Y263002D02*
D03*
X477913Y218711D02*
D03*
X475945Y220679D02*
D03*
X477913Y180325D02*
D03*
X421811Y95679D02*
D03*
Y281703D02*
D03*
X424764Y94696D02*
D03*
X423779Y279735D02*
D03*
X426732Y91743D02*
D03*
X419842Y89796D02*
D03*
Y283672D02*
D03*
X426732Y82885D02*
D03*
X447401Y254144D02*
D03*
X433622Y44498D02*
D03*
X434606Y258081D02*
D03*
X456260Y259896D02*
D03*
X440512Y43514D02*
D03*
X441496Y252176D02*
D03*
X510394Y187215D02*
D03*
X495630Y125207D02*
D03*
X479666Y177758D02*
D03*
X474961Y173435D02*
D03*
X477913Y175404D02*
D03*
X527126Y297080D02*
D03*
Y294512D02*
D03*
X290998Y306796D02*
D03*
X293698D02*
D03*
X567480Y181309D02*
D03*
X571417D02*
D03*
X573386Y212806D02*
D03*
X596024Y211821D02*
D03*
X588150Y151782D02*
D03*
X595039Y153750D02*
D03*
X570433Y111428D02*
D03*
X591102D02*
D03*
X587165Y116349D02*
D03*
X571417Y153750D02*
D03*
X566496Y151782D02*
D03*
X535000Y115365D02*
D03*
X534016Y112412D02*
D03*
X476929Y301388D02*
D03*
Y305325D02*
D03*
X470039Y335837D02*
D03*
X472008Y337806D02*
D03*
X538937Y343711D02*
D03*
X473976Y339774D02*
D03*
X546811Y342727D02*
D03*
X477913Y344695D02*
D03*
X465118Y284656D02*
D03*
X494646Y281703D02*
D03*
X505473Y255128D02*
D03*
X486771Y280719D02*
D03*
X539921Y299420D02*
D03*
X592087Y300404D02*
D03*
X591102Y281703D02*
D03*
X592087Y286624D02*
D03*
Y292530D02*
D03*
X561575Y261034D02*
D03*
X566496Y259065D02*
D03*
X492677Y258081D02*
D03*
X497598Y255128D02*
D03*
X495630Y257097D02*
D03*
X486772Y260050D02*
D03*
X581928Y181307D02*
D03*
X593071Y180325D02*
D03*
X577323Y169498D02*
D03*
X561575Y170483D02*
D03*
X486024Y208760D02*
D03*
X516142Y171555D02*
D03*
X487697Y168996D02*
D03*
X489217Y189665D02*
D03*
X499567Y173435D02*
D03*
X495630D02*
D03*
X498323Y168503D02*
D03*
X523355Y169024D02*
D03*
X524114Y211516D02*
D03*
X488681Y156890D02*
D03*
X505709Y156595D02*
D03*
X500292Y125489D02*
D03*
X591929Y243406D02*
D03*
X570669D02*
D03*
X577165Y201772D02*
D03*
X554626Y190453D02*
D03*
X557087Y151181D02*
D03*
X576772Y156102D02*
D03*
X567480Y115365D02*
D03*
X432199Y85671D02*
D03*
X432283Y83502D02*
D03*
Y81343D02*
D03*
X557199Y235278D02*
D03*
Y227404D02*
D03*
X433184Y234293D02*
D03*
X432199Y231341D02*
D03*
Y228388D02*
D03*
X434168Y232325D02*
D03*
Y80750D02*
D03*
X435152Y82719D02*
D03*
X513743Y71925D02*
D03*
X469601Y75829D02*
D03*
X515861Y123073D02*
D03*
X601491Y44333D02*
D03*
X586727Y39296D02*
D03*
X610349Y23663D02*
D03*
X619140Y21251D02*
D03*
X618150Y17342D02*
D03*
X613301Y23664D02*
D03*
X613981Y19385D02*
D03*
X518043Y45475D02*
D03*
X455821Y44333D02*
D03*
X442362Y110278D02*
D03*
X226491D02*
D03*
X228459Y57128D02*
D03*
X484365Y31538D02*
D03*
X517828Y36459D02*
D03*
X571260Y261499D02*
D03*
X30100Y318900D02*
D03*
X30600Y309300D02*
D03*
X323524Y275295D02*
D03*
Y186713D02*
D03*
Y98130D02*
D03*
D118*
X349387Y336891D02*
X352298Y333979D01*
X321949Y334179D02*
X331693D01*
X334405Y336891D01*
X349387D01*
X349950Y70579D02*
X352298Y68231D01*
X342834Y70579D02*
X349950D01*
X342149Y69894D02*
X342834Y70579D01*
X336296Y69894D02*
X342149D01*
X336103Y70087D02*
X336296Y69894D01*
X333976Y70087D02*
X336103D01*
X332320Y68431D02*
X333976Y70087D01*
X321949Y68431D02*
X332320D01*
X349663Y159449D02*
X352298Y156813D01*
X333465Y159449D02*
X349663D01*
X331029Y157013D02*
X333465Y159449D01*
X321949Y157013D02*
X331029D01*
X321949Y245596D02*
X324097Y247744D01*
X349950D01*
X352298Y245396D01*
D121*
X352362Y65945D02*
D03*
Y154527D02*
D03*
Y331693D02*
D03*
Y243110D02*
D03*
D122*
X321944Y67233D02*
D03*
Y155815D02*
D03*
Y332981D02*
D03*
Y244398D02*
D03*
M02*
