G04 Layer_Physical_Order=5*
G04 Layer_Color=128*
%FSLAX25Y25*%
%MOIN*%
G70*
G01*
G75*
%ADD106C,0.02362*%
%ADD107C,0.04000*%
%ADD108C,0.07480*%
%ADD109C,0.08268*%
%ADD110C,0.12575*%
%ADD111C,0.14173*%
G04:AMPARAMS|DCode=112|XSize=95.433mil|YSize=95.433mil|CornerRadius=0mil|HoleSize=0mil|Usage=FLASHONLY|Rotation=0.000|XOffset=0mil|YOffset=0mil|HoleType=Round|Shape=Relief|Width=10mil|Gap=10mil|Entries=4|*
%AMTHD112*
7,0,0,0.09543,0.07543,0.01000,45*
%
%ADD112THD112*%
%ADD113C,0.05118*%
%ADD114C,0.05512*%
G04:AMPARAMS|DCode=115|XSize=99.37mil|YSize=99.37mil|CornerRadius=0mil|HoleSize=0mil|Usage=FLASHONLY|Rotation=0.000|XOffset=0mil|YOffset=0mil|HoleType=Round|Shape=Relief|Width=10mil|Gap=10mil|Entries=4|*
%AMTHD115*
7,0,0,0.09937,0.07937,0.01000,45*
%
%ADD115THD115*%
G04:AMPARAMS|DCode=116|XSize=93.465mil|YSize=93.465mil|CornerRadius=0mil|HoleSize=0mil|Usage=FLASHONLY|Rotation=0.000|XOffset=0mil|YOffset=0mil|HoleType=Round|Shape=Relief|Width=10mil|Gap=10mil|Entries=4|*
%AMTHD116*
7,0,0,0.09347,0.07347,0.01000,45*
%
%ADD116THD116*%
%ADD117C,0.04921*%
D106*
X393498Y239896D02*
D03*
X483819Y107741D02*
D03*
X289752Y38455D02*
D03*
X483819Y105272D02*
D03*
X287152Y38455D02*
D03*
X515315Y290561D02*
D03*
X496364Y98632D02*
D03*
X289670Y304494D02*
D03*
X515315Y287260D02*
D03*
X499567Y98633D02*
D03*
X287052Y304655D02*
D03*
X498833Y89774D02*
D03*
X496364D02*
D03*
X589215Y209172D02*
D03*
X490744Y109051D02*
D03*
X587165Y211221D02*
D03*
X489250Y111435D02*
D03*
X576339Y106991D02*
D03*
Y109459D02*
D03*
X460184Y198264D02*
D03*
X474648Y99304D02*
D03*
X287152Y216355D02*
D03*
X462153Y200232D02*
D03*
X476929Y101585D02*
D03*
X289752Y216355D02*
D03*
X478897Y115365D02*
D03*
X476929Y113396D02*
D03*
X281299Y313976D02*
D03*
Y312008D02*
D03*
Y44291D02*
D03*
Y47244D02*
D03*
X280512Y137795D02*
D03*
X281299Y132206D02*
D03*
X393701Y364173D02*
D03*
X392717Y275590D02*
D03*
X393701Y187008D02*
D03*
X371062Y21654D02*
D03*
X375000Y21654D02*
D03*
Y111221D02*
D03*
X371063D02*
D03*
X389064Y175197D02*
D03*
X352362Y94488D02*
D03*
Y64183D02*
D03*
X346457Y94488D02*
D03*
Y183071D02*
D03*
X352362D02*
D03*
X352722Y152766D02*
D03*
X352598Y355979D02*
D03*
X352362Y358268D02*
D03*
Y329931D02*
D03*
X346457Y302165D02*
D03*
X321949Y331693D02*
D03*
Y65945D02*
D03*
Y154528D02*
D03*
X278543Y172244D02*
D03*
X279528Y174213D02*
D03*
X345472Y125000D02*
D03*
X280512Y84646D02*
D03*
X277559Y83661D02*
D03*
X345472Y36417D02*
D03*
X350354Y47047D02*
D03*
X350394Y134843D02*
D03*
X350354Y312795D02*
D03*
X380034Y358309D02*
D03*
X343503Y302165D02*
D03*
X374016Y289370D02*
D03*
X371063D02*
D03*
X282480Y301181D02*
D03*
X280512Y349410D02*
D03*
X277559D02*
D03*
X346457Y360236D02*
D03*
X387533Y352362D02*
D03*
X387552Y350255D02*
D03*
X479479Y195480D02*
D03*
X275394Y54931D02*
D03*
X478398Y198031D02*
D03*
X275394Y57687D02*
D03*
X457874Y225596D02*
D03*
X275394Y146270D02*
D03*
X460630Y225596D02*
D03*
X275394Y143514D02*
D03*
Y323435D02*
D03*
X440098Y236096D02*
D03*
X275394Y320679D02*
D03*
X438150Y234147D02*
D03*
X351378Y223425D02*
D03*
X321850Y243110D02*
D03*
X347441Y213166D02*
D03*
X346457Y271654D02*
D03*
X412402Y274606D02*
D03*
X352362Y241349D02*
D03*
Y271654D02*
D03*
X389283Y263965D02*
D03*
X280512Y260827D02*
D03*
X277559D02*
D03*
X385925Y253180D02*
D03*
X384842Y207677D02*
D03*
X434598Y216296D02*
D03*
X275394Y232097D02*
D03*
X436698Y218096D02*
D03*
X275394Y234853D02*
D03*
X281299Y218110D02*
D03*
Y220789D02*
D03*
X375000Y200787D02*
D03*
X371063D02*
D03*
X456791Y157874D02*
D03*
X71300Y53300D02*
D03*
X456429Y160951D02*
D03*
X69500Y51300D02*
D03*
X451870Y161417D02*
D03*
X93996Y29917D02*
D03*
X451870Y164173D02*
D03*
X93996Y32485D02*
D03*
X569291Y167372D02*
D03*
X567952Y201555D02*
D03*
X582094Y189014D02*
D03*
X475715Y37743D02*
D03*
X473976Y39578D02*
D03*
X383169Y253248D02*
D03*
X448819Y183698D02*
D03*
X379788Y47004D02*
D03*
X448998Y186274D02*
D03*
X377220Y47004D02*
D03*
X383169Y76083D02*
D03*
X385855Y76015D02*
D03*
X423776Y195496D02*
D03*
X421021D02*
D03*
X377220Y135587D02*
D03*
X379788D02*
D03*
X385855Y164598D02*
D03*
X383169Y164665D02*
D03*
X385855Y341763D02*
D03*
X383169Y341831D02*
D03*
X420576Y213596D02*
D03*
X379788Y224169D02*
D03*
X417821Y213596D02*
D03*
X377220Y224169D02*
D03*
X387352Y364755D02*
D03*
X390452D02*
D03*
X390652Y187255D02*
D03*
X386952Y187355D02*
D03*
X414752Y95555D02*
D03*
X287152Y126455D02*
D03*
X289652Y126555D02*
D03*
X440098Y208896D02*
D03*
X432677Y212383D02*
D03*
X507552Y158755D02*
D03*
X389024Y84398D02*
D03*
X277559Y86024D02*
D03*
X389283Y172755D02*
D03*
X373698Y181213D02*
D03*
X277559Y174606D02*
D03*
X389024Y261563D02*
D03*
X373652Y270455D02*
D03*
X277559Y263189D02*
D03*
Y351772D02*
D03*
X392874Y328855D02*
D03*
Y63255D02*
D03*
X393498Y151313D02*
D03*
X380448Y93545D02*
D03*
X373698Y92631D02*
D03*
X380235Y183313D02*
D03*
X380033Y272679D02*
D03*
X281299Y310081D02*
D03*
Y50187D02*
D03*
Y134884D02*
D03*
X338474Y134065D02*
D03*
X281299Y223467D02*
D03*
X344576Y213166D02*
D03*
X363302Y214608D02*
D03*
X463695Y274648D02*
D03*
X430231Y275632D02*
D03*
X463695Y277328D02*
D03*
X433184Y276616D02*
D03*
X510939Y198861D02*
D03*
X514877Y212640D02*
D03*
X507002Y212640D02*
D03*
X497536Y211320D02*
D03*
X495472Y208422D02*
D03*
X491634Y213287D02*
D03*
X489370Y211713D02*
D03*
X509636Y216577D02*
D03*
X503859Y200780D02*
D03*
X497160Y236262D02*
D03*
X504050D02*
D03*
X506018Y239215D02*
D03*
X500113Y240199D02*
D03*
X502081Y242167D02*
D03*
X420388Y360278D02*
D03*
Y365199D02*
D03*
Y362246D02*
D03*
X418420Y361262D02*
D03*
Y364215D02*
D03*
X418452Y366455D02*
D03*
X492239Y79766D02*
D03*
X498144D02*
D03*
X495191D02*
D03*
X386924Y275632D02*
D03*
X251097Y107325D02*
D03*
X510940Y131931D02*
D03*
X461727Y210671D02*
D03*
X586727Y377010D02*
D03*
Y367167D02*
D03*
Y357325D02*
D03*
Y347482D02*
D03*
X154640Y358309D02*
D03*
X595585Y38700D02*
D03*
X609365Y64018D02*
D03*
X605428D02*
D03*
X600506D02*
D03*
X598538Y66971D02*
D03*
X602475D02*
D03*
X606412D02*
D03*
X610349D02*
D03*
X443814Y88624D02*
D03*
X514877Y85671D02*
D03*
X391845Y99060D02*
D03*
X386924Y99451D02*
D03*
X417436D02*
D03*
X414483Y98467D02*
D03*
X252081Y102404D02*
D03*
X228459Y104372D02*
D03*
X231412Y110278D02*
D03*
X416451Y97482D02*
D03*
X393498Y86231D02*
D03*
X392498Y78531D02*
D03*
X250745Y105005D02*
D03*
X321898Y47631D02*
D03*
X389283Y99060D02*
D03*
Y275632D02*
D03*
X249129Y348467D02*
D03*
X251097Y260868D02*
D03*
Y172286D02*
D03*
X250113Y82719D02*
D03*
X443025Y129963D02*
D03*
X445433Y127860D02*
D03*
X447362Y125978D02*
D03*
X237317Y122089D02*
D03*
X237317Y55160D02*
D03*
X235349Y52207D02*
D03*
X234365Y122089D02*
D03*
X431535Y123073D02*
D03*
X451884Y122089D02*
D03*
X446963D02*
D03*
X442042D02*
D03*
X456806Y89608D02*
D03*
X449916Y95950D02*
D03*
X439862Y96498D02*
D03*
X445979Y96614D02*
D03*
X432199Y101339D02*
D03*
X437121Y153585D02*
D03*
Y109293D02*
D03*
X138525Y75351D02*
D03*
X136143Y72876D02*
D03*
X135940Y75829D02*
D03*
X461727Y44333D02*
D03*
X402687Y47594D02*
D03*
X421373Y23663D02*
D03*
X171373Y30553D02*
D03*
X131018Y41380D02*
D03*
X128066D02*
D03*
X125113D02*
D03*
X130034Y39412D02*
D03*
X127081D02*
D03*
X418420Y22679D02*
D03*
X81806Y93545D02*
D03*
X84758Y95196D02*
D03*
X114286Y85671D02*
D03*
X117239D02*
D03*
X112318D02*
D03*
X115270Y87640D02*
D03*
X112318D02*
D03*
X104331Y66099D02*
D03*
X107283Y77797D02*
D03*
X128937Y76813D02*
D03*
X120192Y70908D02*
D03*
X241681Y336058D02*
D03*
X241680Y333116D02*
D03*
X241681Y269129D02*
D03*
X241680Y266187D02*
D03*
Y201723D02*
D03*
Y199154D02*
D03*
X242074Y135272D02*
D03*
X242074Y132329D02*
D03*
X338137Y78579D02*
D03*
X305066Y102988D02*
D03*
Y367949D02*
D03*
Y279760D02*
D03*
X305460Y190783D02*
D03*
X562546Y227004D02*
D03*
X511220Y138386D02*
D03*
X511220Y126575D02*
D03*
X483661Y134449D02*
D03*
X511220Y144291D02*
D03*
X546654Y277248D02*
D03*
X544685Y275197D02*
D03*
X551575Y278150D02*
D03*
Y289961D02*
D03*
X492812Y285039D02*
D03*
X462008Y75394D02*
D03*
X459055Y337205D02*
D03*
X441339Y331299D02*
D03*
X438386Y333268D02*
D03*
X434449Y338484D02*
D03*
X443307Y333268D02*
D03*
X445433Y257097D02*
D03*
X446850Y333268D02*
D03*
X534449Y303554D02*
D03*
X536417Y292913D02*
D03*
X570866Y307677D02*
D03*
X492126Y271260D02*
D03*
X496063Y344094D02*
D03*
X486221Y327362D02*
D03*
X487205Y291929D02*
D03*
X477112Y273963D02*
D03*
X476378Y286023D02*
D03*
X574803Y289961D02*
D03*
X565945Y225000D02*
D03*
X562992Y270276D02*
D03*
X563976Y265354D02*
D03*
X525591Y269291D02*
D03*
X435098Y202496D02*
D03*
X432953Y208110D02*
D03*
X393498Y351979D02*
D03*
X377698Y342096D02*
D03*
X375898Y340096D02*
D03*
X406791Y351979D02*
D03*
X375492Y251476D02*
D03*
X377559Y253346D02*
D03*
X363898Y251996D02*
D03*
X311067Y302165D02*
D03*
X318996Y303248D02*
D03*
X402687Y224734D02*
D03*
X367646Y252590D02*
D03*
X359449Y237402D02*
D03*
X304946Y260563D02*
D03*
X316929Y263878D02*
D03*
X319094Y262303D02*
D03*
X355413Y256102D02*
D03*
X359803Y258799D02*
D03*
X361811Y261319D02*
D03*
X357803Y235365D02*
D03*
X307185Y262106D02*
D03*
X320990Y264205D02*
D03*
X301181Y214862D02*
D03*
X297244Y214862D02*
D03*
X279528Y212992D02*
D03*
X271381Y275819D02*
D03*
X272562Y273260D02*
D03*
X291339Y260433D02*
D03*
X285827Y274213D02*
D03*
X283858Y276181D02*
D03*
X337992Y252559D02*
D03*
X112992Y297933D02*
D03*
X112894Y240650D02*
D03*
Y173721D02*
D03*
Y106791D02*
D03*
X144882Y162598D02*
D03*
Y229528D02*
D03*
X453543Y212598D02*
D03*
X450551Y212992D02*
D03*
X457085Y212597D02*
D03*
X459842Y212598D02*
D03*
X468503Y188975D02*
D03*
X468504Y191831D02*
D03*
Y195768D02*
D03*
Y198425D02*
D03*
X433071Y180866D02*
D03*
X432557Y183465D02*
D03*
X432681Y192429D02*
D03*
X432677Y189862D02*
D03*
X148228Y175885D02*
D03*
X112992Y164075D02*
D03*
X148228Y108956D02*
D03*
X112992Y97146D02*
D03*
X148228Y242814D02*
D03*
X112992Y231004D02*
D03*
X148228Y309743D02*
D03*
X136417Y305709D02*
D03*
X112894Y307579D02*
D03*
X28456Y370706D02*
D03*
X28161Y373363D02*
D03*
X82579Y304429D02*
D03*
X82776Y237205D02*
D03*
X82579Y170079D02*
D03*
X82776Y102953D02*
D03*
X70289Y317258D02*
D03*
X70404Y249746D02*
D03*
X61036Y16259D02*
D03*
X70404Y182817D02*
D03*
X59264Y18228D02*
D03*
X62795Y14272D02*
D03*
X70404Y115888D02*
D03*
X57776Y20374D02*
D03*
X624206Y13678D02*
D03*
X290476Y263023D02*
D03*
X286024Y263583D02*
D03*
X392598Y245955D02*
D03*
X358598Y230696D02*
D03*
X406791Y263396D02*
D03*
X386998Y232396D02*
D03*
X393498Y263396D02*
D03*
X383498Y223896D02*
D03*
X373583Y223680D02*
D03*
X399598Y225296D02*
D03*
X289498Y274796D02*
D03*
X314498Y276996D02*
D03*
X342698Y226696D02*
D03*
X346598Y269396D02*
D03*
X411998Y248796D02*
D03*
X413898Y263396D02*
D03*
X409898D02*
D03*
X411998Y272496D02*
D03*
X363779Y259154D02*
D03*
X321898Y224796D02*
D03*
X321949Y245596D02*
D03*
X352298Y245396D02*
D03*
X352598Y267396D02*
D03*
X392498Y255696D02*
D03*
X400798Y257716D02*
D03*
X337992Y341142D02*
D03*
X359449Y325984D02*
D03*
X357803Y323947D02*
D03*
X358598Y319279D02*
D03*
X386998Y320979D02*
D03*
X373583Y312263D02*
D03*
X383498Y312479D02*
D03*
X402687Y313317D02*
D03*
X392598Y334538D02*
D03*
X392498Y344279D02*
D03*
X413898Y351979D02*
D03*
X409898D02*
D03*
X307185Y350689D02*
D03*
X285827Y362795D02*
D03*
X363779Y347736D02*
D03*
X290476Y351606D02*
D03*
X361811Y349902D02*
D03*
X271381Y364402D02*
D03*
X291339Y349016D02*
D03*
X359803Y347382D02*
D03*
X286024Y352165D02*
D03*
X272562Y361843D02*
D03*
X355413Y344685D02*
D03*
X400798Y346299D02*
D03*
X279528Y301575D02*
D03*
X283858Y364764D02*
D03*
X321898Y313379D02*
D03*
X321949Y334179D02*
D03*
X352298Y333979D02*
D03*
X304946Y349145D02*
D03*
X316929Y352461D02*
D03*
X319094Y350886D02*
D03*
X320990Y352787D02*
D03*
X301181Y303445D02*
D03*
X297244Y303445D02*
D03*
X289498Y363379D02*
D03*
X314498Y365579D02*
D03*
X399598Y313879D02*
D03*
X342698Y315279D02*
D03*
X346598Y357979D02*
D03*
X373698Y358379D02*
D03*
X411998Y337379D02*
D03*
Y361079D02*
D03*
X323524Y363878D02*
D03*
X337992Y163976D02*
D03*
X359449Y148819D02*
D03*
X393498Y174813D02*
D03*
X406791D02*
D03*
X357803Y146782D02*
D03*
X358598Y142113D02*
D03*
X386998Y143813D02*
D03*
X373583Y135098D02*
D03*
X383498Y135313D02*
D03*
X402687Y136152D02*
D03*
X392598Y157372D02*
D03*
X392498Y167113D02*
D03*
X377559Y164764D02*
D03*
X413898Y174813D02*
D03*
X375492Y162894D02*
D03*
X409898Y174813D02*
D03*
X367646Y164007D02*
D03*
X307185Y173524D02*
D03*
X364862Y163386D02*
D03*
X285827Y185630D02*
D03*
X363779Y170571D02*
D03*
X290476Y174441D02*
D03*
X361811Y172736D02*
D03*
X271381Y187237D02*
D03*
X291339Y171850D02*
D03*
X359803Y170217D02*
D03*
X286024Y175000D02*
D03*
X272562Y184678D02*
D03*
X355413Y167520D02*
D03*
X400798Y169134D02*
D03*
X279528Y124409D02*
D03*
X283858Y187598D02*
D03*
X321949Y157013D02*
D03*
X352298Y156813D02*
D03*
X304946Y171980D02*
D03*
X316929Y175295D02*
D03*
X319094Y173721D02*
D03*
X320990Y175622D02*
D03*
X301181Y126279D02*
D03*
X297244Y126279D02*
D03*
X352598Y178813D02*
D03*
X289498Y186213D02*
D03*
X314498Y188413D02*
D03*
X399598Y136713D02*
D03*
X342798Y125113D02*
D03*
X342698Y138113D02*
D03*
X346598Y180813D02*
D03*
X411998Y160213D02*
D03*
Y183913D02*
D03*
X337992Y75394D02*
D03*
X359449Y60236D02*
D03*
X406791Y86231D02*
D03*
X357803Y58199D02*
D03*
X358598Y53531D02*
D03*
X386998Y55231D02*
D03*
X373583Y46515D02*
D03*
X383498Y46731D02*
D03*
X392598Y68790D02*
D03*
X377559Y76181D02*
D03*
X413898Y86231D02*
D03*
X375492Y74311D02*
D03*
X409898Y86231D02*
D03*
X367646Y75424D02*
D03*
X307185Y84941D02*
D03*
X364862Y74803D02*
D03*
X285827Y97047D02*
D03*
X363779Y81988D02*
D03*
X290476Y85858D02*
D03*
X361811Y84153D02*
D03*
X271381Y98654D02*
D03*
X291339Y83268D02*
D03*
X359803Y81634D02*
D03*
X286024Y86417D02*
D03*
X272562Y96095D02*
D03*
X355413Y78937D02*
D03*
X400798Y80551D02*
D03*
X279528Y35827D02*
D03*
X283858Y99016D02*
D03*
X318996Y37500D02*
D03*
X321949Y68431D02*
D03*
X352298Y68231D02*
D03*
X304946Y83397D02*
D03*
X316929Y86713D02*
D03*
X319094Y85138D02*
D03*
X320990Y87039D02*
D03*
X311122Y36417D02*
D03*
X301181Y37697D02*
D03*
X297244Y37697D02*
D03*
X352598Y90231D02*
D03*
X289498Y97631D02*
D03*
X314498Y99831D02*
D03*
X399598Y48131D02*
D03*
X342798Y36531D02*
D03*
X342698Y49531D02*
D03*
X346598Y92231D02*
D03*
X411998Y71631D02*
D03*
Y95331D02*
D03*
X318996Y214665D02*
D03*
X311067Y213583D02*
D03*
X316998Y374396D02*
D03*
X319298Y372896D02*
D03*
X321898Y372396D02*
D03*
X330098Y355096D02*
D03*
X367429Y340480D02*
D03*
X363198Y340796D02*
D03*
X622284Y15472D02*
D03*
X136298Y21196D02*
D03*
X136417Y104921D02*
D03*
X138198Y22996D02*
D03*
X138386Y106988D02*
D03*
Y173917D02*
D03*
Y240846D02*
D03*
Y307776D02*
D03*
X140354Y24540D02*
D03*
Y105020D02*
D03*
Y171949D02*
D03*
Y238878D02*
D03*
Y305807D02*
D03*
X142733Y25961D02*
D03*
Y107015D02*
D03*
Y173944D02*
D03*
Y240873D02*
D03*
Y307803D02*
D03*
X620906Y17834D02*
D03*
X311067Y125000D02*
D03*
X318996Y126083D02*
D03*
X321898Y136213D02*
D03*
X300998Y375396D02*
D03*
X82598Y295996D02*
D03*
X82298Y229396D02*
D03*
X82398Y162396D02*
D03*
X82698Y95496D02*
D03*
X448597Y228095D02*
D03*
X377220Y312752D02*
D03*
X379788D02*
D03*
X446648Y226146D02*
D03*
X468598Y203596D02*
D03*
X449798Y177096D02*
D03*
X453937Y182557D02*
D03*
X457198Y183896D02*
D03*
X458398Y151296D02*
D03*
X455798D02*
D03*
X468298Y184096D02*
D03*
X621598Y331296D02*
D03*
X621798Y328396D02*
D03*
X621498Y325696D02*
D03*
X620698Y322896D02*
D03*
X618198Y321696D02*
D03*
X615498Y320396D02*
D03*
X612698Y320096D02*
D03*
X608898Y319596D02*
D03*
X544498Y378396D02*
D03*
X542598Y376596D02*
D03*
X539798Y375896D02*
D03*
X526798Y376396D02*
D03*
X534498Y376596D02*
D03*
X529198Y374596D02*
D03*
X524698Y374396D02*
D03*
X521098Y373596D02*
D03*
X517998Y374196D02*
D03*
X517198Y371496D02*
D03*
X513898Y372696D02*
D03*
X512998Y369896D02*
D03*
X509398Y370596D02*
D03*
X367398Y368396D02*
D03*
X536998D02*
D03*
X472992Y170096D02*
D03*
X454291Y266939D02*
D03*
X452323Y263987D02*
D03*
X449370Y265955D02*
D03*
X448386Y263002D02*
D03*
X477913Y218711D02*
D03*
X475945Y220679D02*
D03*
X477913Y180325D02*
D03*
X421811Y95679D02*
D03*
Y281703D02*
D03*
X424764Y94696D02*
D03*
X423779Y279735D02*
D03*
X426732Y91743D02*
D03*
X419842Y89796D02*
D03*
Y283672D02*
D03*
X426732Y82885D02*
D03*
X447401Y254144D02*
D03*
X433622Y44498D02*
D03*
X434606Y258081D02*
D03*
X456260Y259896D02*
D03*
X440512Y43514D02*
D03*
X441496Y252176D02*
D03*
X484203Y187598D02*
D03*
X510394Y187215D02*
D03*
X483819Y146643D02*
D03*
Y139971D02*
D03*
X490709Y132097D02*
D03*
Y126191D02*
D03*
X495630Y125207D02*
D03*
X504488Y145283D02*
D03*
X510394Y101585D02*
D03*
X513346D02*
D03*
X483819Y181309D02*
D03*
X479666Y177758D02*
D03*
X474961Y173435D02*
D03*
X477913Y175404D02*
D03*
X432531Y202857D02*
D03*
X432638Y197057D02*
D03*
X527126Y297080D02*
D03*
Y294512D02*
D03*
X290998Y306796D02*
D03*
X519252Y111428D02*
D03*
X293698Y306796D02*
D03*
X516649Y111428D02*
D03*
X518268Y90758D02*
D03*
X582244Y231506D02*
D03*
X585197Y222648D02*
D03*
X553701Y196073D02*
D03*
X555669Y181309D02*
D03*
X567480D02*
D03*
X571417D02*
D03*
X563543Y201386D02*
D03*
X582142Y196073D02*
D03*
X590118Y192136D02*
D03*
X573386Y212806D02*
D03*
X596024Y211821D02*
D03*
X542874Y123239D02*
D03*
X544842Y127176D02*
D03*
X548779Y135050D02*
D03*
X550748Y140955D02*
D03*
X552716Y153750D02*
D03*
X588150Y151782D02*
D03*
X559606Y155719D02*
D03*
X595039Y153750D02*
D03*
X570433Y111428D02*
D03*
X591102D02*
D03*
X594055Y130128D02*
D03*
X587165Y116349D02*
D03*
X594055Y135050D02*
D03*
X571417Y153750D02*
D03*
X566496Y151782D02*
D03*
X535000Y115365D02*
D03*
X534016Y112412D02*
D03*
X450354Y327963D02*
D03*
X454291Y332884D02*
D03*
X453307Y329931D02*
D03*
X447402Y325010D02*
D03*
X476929Y301388D02*
D03*
Y305325D02*
D03*
X475945Y308278D02*
D03*
Y311231D02*
D03*
X471024Y317136D02*
D03*
X473976Y313199D02*
D03*
X470039Y314183D02*
D03*
X468071Y318121D02*
D03*
X466102Y320089D02*
D03*
X456260Y322058D02*
D03*
X470039Y335837D02*
D03*
X472008Y337806D02*
D03*
X538937Y343711D02*
D03*
X473976Y339774D02*
D03*
X546811Y342727D02*
D03*
X477913Y344695D02*
D03*
X465118Y284656D02*
D03*
X494646Y281703D02*
D03*
X481850Y250207D02*
D03*
X483819Y248239D02*
D03*
X505473Y255128D02*
D03*
X486036Y246520D02*
D03*
X488740Y278750D02*
D03*
X486771Y280719D02*
D03*
X491693Y244302D02*
D03*
X493661Y242333D02*
D03*
X495630Y240365D02*
D03*
X522205Y242333D02*
D03*
X510393Y251191D02*
D03*
X505473Y243317D02*
D03*
X508425Y242333D02*
D03*
X539921Y299420D02*
D03*
X592087Y300404D02*
D03*
X591102Y281703D02*
D03*
X592087Y286624D02*
D03*
Y292530D02*
D03*
X532047Y340758D02*
D03*
X546811Y252176D02*
D03*
X553701Y257097D02*
D03*
X561575Y261034D02*
D03*
X552716Y301388D02*
D03*
X554685Y297451D02*
D03*
X556653Y284656D02*
D03*
X558622Y282687D02*
D03*
X559606Y287609D02*
D03*
X566496Y259065D02*
D03*
X492677Y258081D02*
D03*
X497598Y255128D02*
D03*
X495630Y257097D02*
D03*
X486772Y260050D02*
D03*
X571417Y279735D02*
D03*
X573386Y286624D02*
D03*
X581928Y181307D02*
D03*
X593071Y180325D02*
D03*
X577323Y169498D02*
D03*
X561575Y170483D02*
D03*
Y187215D02*
D03*
X487594Y244294D02*
D03*
X486024Y208760D02*
D03*
X516142Y171555D02*
D03*
X487697Y168996D02*
D03*
X489217Y189665D02*
D03*
X499567Y173435D02*
D03*
X495630D02*
D03*
X498323Y168503D02*
D03*
X505807Y169390D02*
D03*
X523355Y169024D02*
D03*
X524114Y211516D02*
D03*
X510394Y193121D02*
D03*
X488681Y156890D02*
D03*
X505709Y156595D02*
D03*
X481201Y158169D02*
D03*
X484154Y114173D02*
D03*
X486614Y117323D02*
D03*
X500292Y125489D02*
D03*
X507874Y124774D02*
D03*
X504419Y105522D02*
D03*
X516732Y96457D02*
D03*
X506791Y84547D02*
D03*
X490650Y90453D02*
D03*
X575837Y218701D02*
D03*
X571850Y228248D02*
D03*
X590059Y203937D02*
D03*
X591929Y243406D02*
D03*
X570669D02*
D03*
X568110Y210335D02*
D03*
X558169Y212303D02*
D03*
X577165Y201772D02*
D03*
X583286Y198561D02*
D03*
X554626Y190453D02*
D03*
X557087Y151181D02*
D03*
X576772Y156102D02*
D03*
X562008Y131496D02*
D03*
X558071Y113779D02*
D03*
X567480Y115365D02*
D03*
X576771Y121654D02*
D03*
X567913Y155118D02*
D03*
Y122252D02*
D03*
X537402Y314567D02*
D03*
X561024Y293898D02*
D03*
X560039Y310630D02*
D03*
Y345079D02*
D03*
X522638Y344094D02*
D03*
X487205Y338189D02*
D03*
X441570Y168820D02*
D03*
X442928Y139982D02*
D03*
X432199Y160475D02*
D03*
Y156537D02*
D03*
Y85671D02*
D03*
X432283Y83502D02*
D03*
Y81343D02*
D03*
X557199Y235278D02*
D03*
Y227404D02*
D03*
X433184Y234293D02*
D03*
X432199Y231341D02*
D03*
Y228388D02*
D03*
X434168Y232325D02*
D03*
Y80750D02*
D03*
X435152Y82719D02*
D03*
X464680Y84687D02*
D03*
X469600Y62050D02*
D03*
X510940Y75829D02*
D03*
X513743Y71925D02*
D03*
X515861Y63034D02*
D03*
X469601Y75829D02*
D03*
X507987Y91577D02*
D03*
X508032Y95679D02*
D03*
X515861Y123073D02*
D03*
X601491Y44333D02*
D03*
Y33506D02*
D03*
X586727Y39296D02*
D03*
Y29569D02*
D03*
X600506Y38427D02*
D03*
X606411Y49255D02*
D03*
X605428Y24321D02*
D03*
X610349Y23663D02*
D03*
X619140Y21251D02*
D03*
X618150Y17342D02*
D03*
X613301Y23664D02*
D03*
X613981Y19385D02*
D03*
X518043Y45475D02*
D03*
X455821Y44333D02*
D03*
X442362Y110278D02*
D03*
X226491D02*
D03*
X228459Y57128D02*
D03*
X486024Y22679D02*
D03*
X484365Y28150D02*
D03*
Y31538D02*
D03*
X517828Y36459D02*
D03*
X496654Y34252D02*
D03*
X504837Y33858D02*
D03*
X598538Y265790D02*
D03*
X591102Y277766D02*
D03*
X571260Y261499D02*
D03*
X570979Y274648D02*
D03*
X573932Y295866D02*
D03*
X575900Y297835D02*
D03*
X572947Y309646D02*
D03*
X33700Y113800D02*
D03*
X33900Y110300D02*
D03*
X31000Y187900D02*
D03*
X30900Y178000D02*
D03*
X29100Y252900D02*
D03*
Y242000D02*
D03*
X30100Y318900D02*
D03*
X30600Y309300D02*
D03*
X323524Y275295D02*
D03*
Y186713D02*
D03*
Y98130D02*
D03*
D107*
X-3937Y36692D02*
X0Y32755D01*
Y0D02*
Y32755D01*
Y0D02*
X629900D01*
Y393700D01*
X0D02*
X629900D01*
X0Y362205D02*
Y393700D01*
X-3937Y358268D02*
X0Y362205D01*
X-3937Y36692D02*
Y358268D01*
D108*
X12795Y206693D02*
D03*
Y273622D02*
D03*
Y340551D02*
D03*
Y72835D02*
D03*
Y139764D02*
D03*
D109*
X2795Y216693D02*
D03*
X22795D02*
D03*
Y196693D02*
D03*
X2795D02*
D03*
Y283622D02*
D03*
X22795D02*
D03*
Y263622D02*
D03*
X2795D02*
D03*
Y350551D02*
D03*
X22795D02*
D03*
Y330551D02*
D03*
X2795D02*
D03*
Y82835D02*
D03*
X22795D02*
D03*
Y62835D02*
D03*
X2795D02*
D03*
Y129764D02*
D03*
X22795D02*
D03*
Y149764D02*
D03*
X2795D02*
D03*
D110*
X14000Y371700D02*
D03*
Y21700D02*
D03*
D111*
X229921Y29921D02*
D03*
Y364567D02*
D03*
X111811D02*
D03*
Y29921D02*
D03*
D112*
X17795Y237126D02*
D03*
X7795D02*
D03*
X17795Y304055D02*
D03*
X7795D02*
D03*
X17795Y103268D02*
D03*
X7795D02*
D03*
X17795Y36339D02*
D03*
Y170197D02*
D03*
X7795D02*
D03*
D113*
X17795Y247126D02*
D03*
X7795D02*
D03*
X17795Y314055D02*
D03*
X7795D02*
D03*
X17795Y113268D02*
D03*
X7795D02*
D03*
Y36339D02*
D03*
X17795Y46339D02*
D03*
X7795D02*
D03*
X17795Y180197D02*
D03*
X7795D02*
D03*
D114*
X529043Y179649D02*
D03*
X539043Y189649D02*
D03*
X529043Y199649D02*
D03*
X539043D02*
D03*
X529043Y209649D02*
D03*
X539043Y219649D02*
D03*
Y129649D02*
D03*
X529043Y139649D02*
D03*
X539043D02*
D03*
X529043Y149649D02*
D03*
X539043Y159649D02*
D03*
Y169649D02*
D03*
X529043D02*
D03*
Y79649D02*
D03*
X539043D02*
D03*
X529043Y89649D02*
D03*
X539043D02*
D03*
Y99649D02*
D03*
Y109649D02*
D03*
X529043D02*
D03*
Y119649D02*
D03*
X607677Y273228D02*
D03*
Y312598D02*
D03*
X602677Y119213D02*
D03*
Y109213D02*
D03*
X612677D02*
D03*
Y99213D02*
D03*
Y89213D02*
D03*
X602677D02*
D03*
X612677Y79213D02*
D03*
X602677D02*
D03*
Y169213D02*
D03*
X612677D02*
D03*
Y159213D02*
D03*
X602677Y149213D02*
D03*
X612677Y139213D02*
D03*
X602677D02*
D03*
X612677Y129213D02*
D03*
Y219213D02*
D03*
X602677Y209213D02*
D03*
X612677Y199213D02*
D03*
X602677D02*
D03*
X612677Y189213D02*
D03*
X602677Y179213D02*
D03*
D115*
X539043Y179649D02*
D03*
X529043Y189649D02*
D03*
X539043Y209649D02*
D03*
X529043Y219649D02*
D03*
Y129649D02*
D03*
X539043Y149649D02*
D03*
X529043Y159649D02*
D03*
Y99649D02*
D03*
X539043Y119649D02*
D03*
X612677Y119213D02*
D03*
X602677Y99213D02*
D03*
Y159213D02*
D03*
X612677Y149213D02*
D03*
X602677Y129213D02*
D03*
Y219213D02*
D03*
X612677Y209213D02*
D03*
X602677Y189213D02*
D03*
X612677Y179213D02*
D03*
D116*
X86000Y47700D02*
D03*
Y57700D02*
D03*
X76000D02*
D03*
Y47700D02*
D03*
D117*
X81000Y52700D02*
D03*
M02*
