G04 Layer_Color=8421504*
%FSLAX25Y25*%
%MOIN*%
G70*
G01*
G75*
%ADD10R,0.09252X0.08858*%
%ADD11R,0.03543X0.03937*%
%ADD12R,0.01181X0.05906*%
%ADD13O,0.01181X0.03347*%
%ADD14R,0.02441X0.02284*%
%ADD15R,0.02441X0.02441*%
%ADD16R,0.05906X0.01181*%
%ADD18R,0.19685X0.19685*%
%ADD19R,0.02284X0.02441*%
%ADD20R,0.03937X0.03543*%
%ADD21R,0.03937X0.03740*%
%ADD22R,0.03740X0.03937*%
%ADD23O,0.03347X0.01181*%
%ADD24R,0.21063X0.21063*%
%ADD25R,0.02441X0.02441*%
%ADD26R,0.03937X0.03740*%
%ADD27R,0.03740X0.03937*%
%ADD28O,0.02756X0.00787*%
%ADD29O,0.00787X0.02756*%
%ADD30R,0.11024X0.11024*%
%ADD32R,0.01378X0.02362*%
%ADD34R,0.09055X0.37008*%
%ADD35R,0.08858X0.09252*%
%ADD36R,0.08976X0.05000*%
%ADD37R,0.02677X0.02244*%
%ADD38R,0.10000X0.06496*%
%ADD39R,0.07874X0.13780*%
%ADD40R,0.13780X0.07874*%
%ADD41R,0.07284X0.13386*%
%ADD42R,0.02992X0.05000*%
%ADD43R,0.04016X0.07205*%
%ADD44R,0.07205X0.04016*%
%ADD45R,0.11614X0.11614*%
%ADD46O,0.01181X0.02756*%
%ADD47O,0.02756X0.01181*%
%ADD48R,0.02402X0.04902*%
%ADD49R,0.04095X0.07087*%
%ADD50R,0.10630X0.04528*%
%ADD51R,0.07087X0.08858*%
%ADD52R,0.04134X0.05512*%
%ADD53R,0.03937X0.03937*%
%ADD54R,0.04528X0.05709*%
%ADD57R,0.37008X0.09055*%
%ADD58R,0.06496X0.02992*%
%ADD59R,0.10827X0.03937*%
%ADD60R,0.05906X0.04331*%
%ADD61R,0.04528X0.10630*%
%ADD62R,0.05512X0.04134*%
%ADD63O,0.01378X0.04134*%
%ADD64O,0.04134X0.01378*%
%ADD65R,0.12795X0.12795*%
%ADD66R,0.02362X0.06102*%
%ADD67R,0.12795X0.12795*%
%ADD68R,0.02165X0.04331*%
%ADD69R,0.03701X0.09843*%
%ADD70R,0.02756X0.01181*%
%ADD71R,0.10039X0.10039*%
%ADD72O,0.01575X0.03543*%
%ADD73O,0.03543X0.01575*%
%ADD74R,0.03150X0.03150*%
%ADD75R,0.07087X0.04528*%
%ADD76O,0.00787X0.03150*%
%ADD77O,0.03150X0.00787*%
%ADD78R,0.08465X0.08465*%
%ADD79R,0.01181X0.05906*%
%ADD80R,0.05906X0.01181*%
%ADD81C,0.02598*%
%ADD82R,0.08858X0.07087*%
%ADD83R,0.01181X0.03347*%
%ADD132R,0.03543X0.09843*%
%ADD133P,0.01114X4X90.0*%
G36*
X297992Y142373D02*
X291772D01*
Y148593D01*
X297992D01*
Y142373D01*
D02*
G37*
G36*
X306653D02*
X300433D01*
Y148593D01*
X306653D01*
Y142373D01*
D02*
G37*
G36*
X371299Y141821D02*
X364606D01*
Y148514D01*
X371299D01*
Y141821D01*
D02*
G37*
G36*
X380591D02*
X373898D01*
Y148514D01*
X380591D01*
Y141821D01*
D02*
G37*
G36*
X371299Y151113D02*
X364606D01*
Y157806D01*
X371299D01*
Y151113D01*
D02*
G37*
G36*
X380591D02*
X373898D01*
Y157806D01*
X380591D01*
Y151113D01*
D02*
G37*
G36*
X297992Y151034D02*
X291772D01*
Y157254D01*
X297992D01*
Y151034D01*
D02*
G37*
G36*
X306653D02*
X300433D01*
Y157254D01*
X306653D01*
Y151034D01*
D02*
G37*
G36*
X297992Y53790D02*
X291772D01*
Y60010D01*
X297992D01*
Y53790D01*
D02*
G37*
G36*
X306653D02*
X300433D01*
Y60010D01*
X306653D01*
Y53790D01*
D02*
G37*
G36*
X371299Y53239D02*
X364606D01*
Y59931D01*
X371299D01*
Y53239D01*
D02*
G37*
G36*
X380591D02*
X373898D01*
Y59931D01*
X380591D01*
Y53239D01*
D02*
G37*
G36*
X371299Y62530D02*
X364606D01*
Y69223D01*
X371299D01*
Y62530D01*
D02*
G37*
G36*
X380591D02*
X373898D01*
Y69223D01*
X380591D01*
Y62530D01*
D02*
G37*
G36*
X297992Y62451D02*
X291772D01*
Y68672D01*
X297992D01*
Y62451D01*
D02*
G37*
G36*
X306653D02*
X300433D01*
Y68672D01*
X306653D01*
Y62451D01*
D02*
G37*
G36*
X297992Y319538D02*
X291772D01*
Y325758D01*
X297992D01*
Y319538D01*
D02*
G37*
G36*
X306653D02*
X300433D01*
Y325758D01*
X306653D01*
Y319538D01*
D02*
G37*
G36*
X371299Y318987D02*
X364606D01*
Y325679D01*
X371299D01*
Y318987D01*
D02*
G37*
G36*
X380591D02*
X373898D01*
Y325679D01*
X380591D01*
Y318987D01*
D02*
G37*
G36*
X371299Y328278D02*
X364606D01*
Y334971D01*
X371299D01*
Y328278D01*
D02*
G37*
G36*
X380591D02*
X373898D01*
Y334971D01*
X380591D01*
Y328278D01*
D02*
G37*
G36*
X297992Y328199D02*
X291772D01*
Y334420D01*
X297992D01*
Y328199D01*
D02*
G37*
G36*
X306653D02*
X300433D01*
Y334420D01*
X306653D01*
Y328199D01*
D02*
G37*
G36*
X297992Y230955D02*
X291772D01*
Y237176D01*
X297992D01*
Y230955D01*
D02*
G37*
G36*
X306653D02*
X300433D01*
Y237176D01*
X306653D01*
Y230955D01*
D02*
G37*
G36*
X371299Y230404D02*
X364606D01*
Y237097D01*
X371299D01*
Y230404D01*
D02*
G37*
G36*
X380591D02*
X373898D01*
Y237097D01*
X380591D01*
Y230404D01*
D02*
G37*
G36*
X371299Y239695D02*
X364606D01*
Y246388D01*
X371299D01*
Y239695D01*
D02*
G37*
G36*
X380591D02*
X373898D01*
Y246388D01*
X380591D01*
Y239695D01*
D02*
G37*
G36*
X297992Y239616D02*
X291772D01*
Y245837D01*
X297992D01*
Y239616D01*
D02*
G37*
G36*
X306653D02*
X300433D01*
Y245837D01*
X306653D01*
Y239616D01*
D02*
G37*
D10*
X358444Y30131D02*
D03*
X339153D02*
D03*
X358444Y118713D02*
D03*
X339153D02*
D03*
X358444Y295879D02*
D03*
X339153D02*
D03*
X339646Y358071D02*
D03*
X358937D02*
D03*
X339646Y269488D02*
D03*
X358937D02*
D03*
X339646Y180905D02*
D03*
X358937D02*
D03*
X339646Y92323D02*
D03*
X358937D02*
D03*
X358444Y295879D02*
D03*
X339153D02*
D03*
X358444Y207296D02*
D03*
X339153D02*
D03*
X358444Y118713D02*
D03*
X339153D02*
D03*
X358444Y30131D02*
D03*
X339153D02*
D03*
D11*
X105905Y133465D02*
D03*
X99606D02*
D03*
X105905Y200394D02*
D03*
X99606D02*
D03*
X105905Y267323D02*
D03*
X99606D02*
D03*
X105905Y334252D02*
D03*
X99606D02*
D03*
X255807Y204527D02*
D03*
X262106D02*
D03*
X255807Y27362D02*
D03*
X262106D02*
D03*
X255807Y115945D02*
D03*
X262106D02*
D03*
X255807Y293110D02*
D03*
X262106D02*
D03*
X602716Y19892D02*
D03*
X609016D02*
D03*
X607047Y53357D02*
D03*
X600748D02*
D03*
X167342Y30532D02*
D03*
X161043D02*
D03*
X450113Y92561D02*
D03*
X443814D02*
D03*
X432002D02*
D03*
X438302D02*
D03*
X448032Y369685D02*
D03*
X454331D02*
D03*
X448032Y362795D02*
D03*
X454331D02*
D03*
X136143Y68701D02*
D03*
X142442D02*
D03*
X147953D02*
D03*
X154253D02*
D03*
X167342Y36438D02*
D03*
X161043D02*
D03*
D12*
X287402Y30916D02*
D03*
X289370D02*
D03*
X287402Y208081D02*
D03*
X289370D02*
D03*
X287402Y119498D02*
D03*
X289370D02*
D03*
X291339Y296664D02*
D03*
X293307D02*
D03*
X287402D02*
D03*
X289370D02*
D03*
X275590Y357294D02*
D03*
X277559D02*
D03*
X279528D02*
D03*
X281496D02*
D03*
X283465D02*
D03*
X285433D02*
D03*
X287402D02*
D03*
X289370D02*
D03*
X291339D02*
D03*
X293307D02*
D03*
X295276D02*
D03*
X297244D02*
D03*
X299213D02*
D03*
X301181D02*
D03*
X303150D02*
D03*
X305118D02*
D03*
X307087D02*
D03*
X309055D02*
D03*
X311024D02*
D03*
X312992D02*
D03*
X314961D02*
D03*
X316929D02*
D03*
X318898D02*
D03*
X320866D02*
D03*
X322835D02*
D03*
Y296664D02*
D03*
X320866D02*
D03*
X318898D02*
D03*
X316929D02*
D03*
X314961D02*
D03*
X312992D02*
D03*
X311024D02*
D03*
X309055D02*
D03*
X307087D02*
D03*
X305118D02*
D03*
X303150D02*
D03*
X301181D02*
D03*
X299213D02*
D03*
X297244D02*
D03*
X295276D02*
D03*
X285433D02*
D03*
X283465D02*
D03*
X281496D02*
D03*
X279528D02*
D03*
X277559D02*
D03*
X275590D02*
D03*
Y91546D02*
D03*
X277559D02*
D03*
X279528D02*
D03*
X281496D02*
D03*
X283465D02*
D03*
X285433D02*
D03*
X287402D02*
D03*
X289370D02*
D03*
X291339D02*
D03*
X293307D02*
D03*
X295276D02*
D03*
X297244D02*
D03*
X299213D02*
D03*
X301181D02*
D03*
X303150D02*
D03*
X305118D02*
D03*
X307087D02*
D03*
X309055D02*
D03*
X311024D02*
D03*
X312992D02*
D03*
X314961D02*
D03*
X316929D02*
D03*
X318898D02*
D03*
X320866D02*
D03*
X322835D02*
D03*
Y30916D02*
D03*
X320866D02*
D03*
X318898D02*
D03*
X316929D02*
D03*
X314961D02*
D03*
X312992D02*
D03*
X311024D02*
D03*
X309055D02*
D03*
X307087D02*
D03*
X305118D02*
D03*
X303150D02*
D03*
X301181D02*
D03*
X299213D02*
D03*
X297244D02*
D03*
X295276D02*
D03*
X293307D02*
D03*
X291339D02*
D03*
X285433D02*
D03*
X283465D02*
D03*
X281496D02*
D03*
X279528D02*
D03*
X277559D02*
D03*
X275590D02*
D03*
Y180128D02*
D03*
X277559D02*
D03*
X279528D02*
D03*
X281496D02*
D03*
X283465D02*
D03*
X285433D02*
D03*
X287402D02*
D03*
X289370D02*
D03*
X291339D02*
D03*
X293307D02*
D03*
X295276D02*
D03*
X297244D02*
D03*
X299213D02*
D03*
X301181D02*
D03*
X303150D02*
D03*
X305118D02*
D03*
X307087D02*
D03*
X309055D02*
D03*
X311024D02*
D03*
X312992D02*
D03*
X314961D02*
D03*
X316929D02*
D03*
X318898D02*
D03*
X320866D02*
D03*
X322835D02*
D03*
Y119498D02*
D03*
X320866D02*
D03*
X318898D02*
D03*
X316929D02*
D03*
X314961D02*
D03*
X312992D02*
D03*
X311024D02*
D03*
X309055D02*
D03*
X307087D02*
D03*
X305118D02*
D03*
X303150D02*
D03*
X301181D02*
D03*
X299213D02*
D03*
X297244D02*
D03*
X295276D02*
D03*
X293307D02*
D03*
X291339D02*
D03*
X285433D02*
D03*
X283465D02*
D03*
X281496D02*
D03*
X279528D02*
D03*
X277559D02*
D03*
X275590D02*
D03*
Y268711D02*
D03*
X277559D02*
D03*
X279528D02*
D03*
X281496D02*
D03*
X283465D02*
D03*
X285433D02*
D03*
X287402D02*
D03*
X289370D02*
D03*
X291339D02*
D03*
X293307D02*
D03*
X295276D02*
D03*
X297244D02*
D03*
X299213D02*
D03*
X301181D02*
D03*
X303150D02*
D03*
X305118D02*
D03*
X307087D02*
D03*
X309055D02*
D03*
X311024D02*
D03*
X312992D02*
D03*
X314961D02*
D03*
X316929D02*
D03*
X318898D02*
D03*
X320866D02*
D03*
X322835D02*
D03*
Y208081D02*
D03*
X320866D02*
D03*
X318898D02*
D03*
X316929D02*
D03*
X314961D02*
D03*
X312992D02*
D03*
X311024D02*
D03*
X309055D02*
D03*
X307087D02*
D03*
X305118D02*
D03*
X303150D02*
D03*
X301181D02*
D03*
X299213D02*
D03*
X297244D02*
D03*
X295276D02*
D03*
X293307D02*
D03*
X291339D02*
D03*
X285433D02*
D03*
X283465D02*
D03*
X281496D02*
D03*
X279528D02*
D03*
X277559D02*
D03*
X275590D02*
D03*
D13*
X383425Y255916D02*
D03*
X385394D02*
D03*
X383425Y78750D02*
D03*
X385394D02*
D03*
X383425Y167333D02*
D03*
X385394D02*
D03*
X377520Y220876D02*
D03*
X379488D02*
D03*
X357835Y43711D02*
D03*
X359803D02*
D03*
X361772D02*
D03*
X363740D02*
D03*
X365709D02*
D03*
X367677D02*
D03*
X369646D02*
D03*
X371614D02*
D03*
X373583D02*
D03*
X375551D02*
D03*
X377520D02*
D03*
X379488D02*
D03*
X381457D02*
D03*
X383425D02*
D03*
X385394D02*
D03*
X387362D02*
D03*
Y78750D02*
D03*
X381457D02*
D03*
X379488D02*
D03*
X377520D02*
D03*
X375551D02*
D03*
X373583D02*
D03*
X371614D02*
D03*
X369646D02*
D03*
X367677D02*
D03*
X365709D02*
D03*
X363740D02*
D03*
X361772D02*
D03*
X359803D02*
D03*
X357835D02*
D03*
Y132294D02*
D03*
X359803D02*
D03*
X361772D02*
D03*
X363740D02*
D03*
X365709D02*
D03*
X367677D02*
D03*
X369646D02*
D03*
X371614D02*
D03*
X373583D02*
D03*
X375551D02*
D03*
X377520D02*
D03*
X379488D02*
D03*
X381457D02*
D03*
X383425D02*
D03*
X385394D02*
D03*
X387362D02*
D03*
Y167333D02*
D03*
X381457D02*
D03*
X379488D02*
D03*
X377520D02*
D03*
X375551D02*
D03*
X373583D02*
D03*
X371614D02*
D03*
X369646D02*
D03*
X367677D02*
D03*
X365709D02*
D03*
X363740D02*
D03*
X361772D02*
D03*
X359803D02*
D03*
X357835D02*
D03*
X379488Y309459D02*
D03*
X377520D02*
D03*
X357835D02*
D03*
X359803D02*
D03*
X361772D02*
D03*
X363740D02*
D03*
X365709D02*
D03*
X367677D02*
D03*
X369646D02*
D03*
X371614D02*
D03*
X373583D02*
D03*
X375551D02*
D03*
X381457D02*
D03*
X383425D02*
D03*
X385394D02*
D03*
X387362D02*
D03*
Y344498D02*
D03*
X385394D02*
D03*
X383425D02*
D03*
X381457D02*
D03*
X379488D02*
D03*
X377520D02*
D03*
X375551D02*
D03*
X373583D02*
D03*
X371614D02*
D03*
X369646D02*
D03*
X367677D02*
D03*
X365709D02*
D03*
X363740D02*
D03*
X361772D02*
D03*
X359803D02*
D03*
X357835D02*
D03*
X357835Y220876D02*
D03*
X359803D02*
D03*
X361772D02*
D03*
X363740D02*
D03*
X365709D02*
D03*
X367677D02*
D03*
X369646D02*
D03*
X371614D02*
D03*
X373583D02*
D03*
X375551D02*
D03*
X381457D02*
D03*
X383425D02*
D03*
X385394D02*
D03*
X387362D02*
D03*
Y255916D02*
D03*
X381457D02*
D03*
X379488D02*
D03*
X377520D02*
D03*
X375551D02*
D03*
X373583D02*
D03*
X371614D02*
D03*
X369646D02*
D03*
X367677D02*
D03*
X365709D02*
D03*
X363740D02*
D03*
X361772D02*
D03*
X359803D02*
D03*
X357835D02*
D03*
D14*
X237795Y332500D02*
D03*
Y336201D02*
D03*
Y265571D02*
D03*
Y269272D02*
D03*
X237952Y131704D02*
D03*
Y135405D02*
D03*
X254921Y58150D02*
D03*
Y54449D02*
D03*
Y146732D02*
D03*
Y143032D02*
D03*
Y323898D02*
D03*
Y320197D02*
D03*
Y235315D02*
D03*
Y231614D02*
D03*
X237795Y198642D02*
D03*
Y202343D02*
D03*
X461024Y151693D02*
D03*
Y155394D02*
D03*
X453543Y151693D02*
D03*
Y155394D02*
D03*
X234352Y127705D02*
D03*
Y131405D02*
D03*
X233858Y194705D02*
D03*
Y198406D02*
D03*
X234052Y261704D02*
D03*
Y265405D02*
D03*
X48000Y133050D02*
D03*
Y136750D02*
D03*
X47500Y200250D02*
D03*
Y203950D02*
D03*
X47600Y266850D02*
D03*
Y270550D02*
D03*
X234152Y328605D02*
D03*
Y332305D02*
D03*
X47500Y333850D02*
D03*
Y337550D02*
D03*
X64370Y329449D02*
D03*
Y333150D02*
D03*
Y262520D02*
D03*
Y266220D02*
D03*
Y195591D02*
D03*
Y199291D02*
D03*
Y128661D02*
D03*
Y132362D02*
D03*
X513346Y106624D02*
D03*
Y110325D02*
D03*
X74173Y30650D02*
D03*
Y34350D02*
D03*
X63180Y58091D02*
D03*
Y54390D02*
D03*
X47432Y50453D02*
D03*
Y54154D02*
D03*
X234152Y269504D02*
D03*
Y273205D02*
D03*
Y336404D02*
D03*
Y340105D02*
D03*
X233858Y202579D02*
D03*
Y206279D02*
D03*
X234352Y135605D02*
D03*
Y139305D02*
D03*
D15*
X437205Y330315D02*
D03*
X433661D02*
D03*
X258937Y247047D02*
D03*
X262480D02*
D03*
X255787Y94291D02*
D03*
X252244D02*
D03*
X255787Y97835D02*
D03*
X252244D02*
D03*
X258937Y69882D02*
D03*
X262480D02*
D03*
X398583Y76181D02*
D03*
X395039D02*
D03*
X381260Y87215D02*
D03*
X384803D02*
D03*
X390059Y38780D02*
D03*
X386516D02*
D03*
X381260Y83268D02*
D03*
X384803D02*
D03*
X398583Y72638D02*
D03*
X395039D02*
D03*
X354527Y39531D02*
D03*
X358070D02*
D03*
X346927Y52831D02*
D03*
X350470D02*
D03*
X346850Y79035D02*
D03*
X350394D02*
D03*
X347008Y56496D02*
D03*
X350551D02*
D03*
X398425Y54724D02*
D03*
X394882D02*
D03*
X346827Y49431D02*
D03*
X350370D02*
D03*
X398570Y65631D02*
D03*
X395027D02*
D03*
X398583Y69095D02*
D03*
X395039D02*
D03*
X398570Y58331D02*
D03*
X395027D02*
D03*
X398327Y50984D02*
D03*
X394783D02*
D03*
X398924Y61955D02*
D03*
X395380D02*
D03*
X346614Y67913D02*
D03*
X350157D02*
D03*
X346614Y71850D02*
D03*
X350157D02*
D03*
X346614Y63976D02*
D03*
X350157D02*
D03*
X255787Y182874D02*
D03*
X252244D02*
D03*
X255787Y186417D02*
D03*
X252244D02*
D03*
X258937Y158465D02*
D03*
X262480D02*
D03*
X398583Y164764D02*
D03*
X395039D02*
D03*
X381260Y175798D02*
D03*
X384803D02*
D03*
X390059Y127362D02*
D03*
X386516D02*
D03*
X381260Y171850D02*
D03*
X384803D02*
D03*
X398583Y161221D02*
D03*
X395039D02*
D03*
X354527Y128113D02*
D03*
X358070D02*
D03*
X346927Y141413D02*
D03*
X350470D02*
D03*
X346850Y167618D02*
D03*
X350394D02*
D03*
X347008Y145079D02*
D03*
X350551D02*
D03*
X398425Y143307D02*
D03*
X394882D02*
D03*
X346827Y138013D02*
D03*
X350370D02*
D03*
X398724Y154255D02*
D03*
X395181D02*
D03*
X398583Y157677D02*
D03*
X395039D02*
D03*
X398570Y146913D02*
D03*
X395027D02*
D03*
X398327Y139567D02*
D03*
X394783D02*
D03*
X399224Y150555D02*
D03*
X395680D02*
D03*
X346614Y156496D02*
D03*
X350157D02*
D03*
X346614Y160433D02*
D03*
X350157D02*
D03*
X346614Y152559D02*
D03*
X350157D02*
D03*
X255787Y360039D02*
D03*
X252244D02*
D03*
X255787Y363583D02*
D03*
X252244D02*
D03*
X258937Y335630D02*
D03*
X262480D02*
D03*
X398583Y341929D02*
D03*
X395039D02*
D03*
X381260Y352963D02*
D03*
X384803D02*
D03*
X390059Y304528D02*
D03*
X386516D02*
D03*
X381260Y349016D02*
D03*
X384803D02*
D03*
X398583Y338386D02*
D03*
X395039D02*
D03*
X354527Y305279D02*
D03*
X358070D02*
D03*
X346927Y318579D02*
D03*
X350470D02*
D03*
X346850Y344783D02*
D03*
X350394D02*
D03*
X347008Y322244D02*
D03*
X350551D02*
D03*
X398425Y320472D02*
D03*
X394882D02*
D03*
X346827Y315179D02*
D03*
X350370D02*
D03*
X398570Y331379D02*
D03*
X395027D02*
D03*
X398583Y334842D02*
D03*
X395039D02*
D03*
X398570Y324079D02*
D03*
X395027D02*
D03*
X398327Y316732D02*
D03*
X394783D02*
D03*
X399024Y327755D02*
D03*
X395480D02*
D03*
X346614Y333661D02*
D03*
X350157D02*
D03*
X346614Y337598D02*
D03*
X350157D02*
D03*
X346614Y329724D02*
D03*
X350157D02*
D03*
X255787Y275000D02*
D03*
X252244D02*
D03*
X255787Y271457D02*
D03*
X252244D02*
D03*
X346614Y245079D02*
D03*
X350157D02*
D03*
X346827Y226596D02*
D03*
X350370D02*
D03*
X354527Y216696D02*
D03*
X358070D02*
D03*
X381260Y260433D02*
D03*
X384803D02*
D03*
X390059Y215945D02*
D03*
X386516D02*
D03*
X398583Y253346D02*
D03*
X395039D02*
D03*
X398583Y246260D02*
D03*
X395039D02*
D03*
X398327Y228150D02*
D03*
X394783D02*
D03*
X398570Y235496D02*
D03*
X395027D02*
D03*
X398570Y242796D02*
D03*
X395027D02*
D03*
X346614Y249016D02*
D03*
X350157D02*
D03*
X346614Y241142D02*
D03*
X350157D02*
D03*
X347008Y233661D02*
D03*
X350551D02*
D03*
X346850Y256201D02*
D03*
X350394D02*
D03*
X346927Y229996D02*
D03*
X350470D02*
D03*
X381260Y264380D02*
D03*
X384803D02*
D03*
X398583Y249803D02*
D03*
X395039D02*
D03*
X399410Y239173D02*
D03*
X395866D02*
D03*
X398425Y231890D02*
D03*
X394882D02*
D03*
X112302Y48622D02*
D03*
X115846D02*
D03*
X141457Y45079D02*
D03*
X145001D02*
D03*
X67520Y40945D02*
D03*
X71063D02*
D03*
X471063Y198425D02*
D03*
X426575Y198425D02*
D03*
X430118D02*
D03*
Y189764D02*
D03*
Y183465D02*
D03*
X471063Y187795D02*
D03*
Y191339D02*
D03*
X471063Y194882D02*
D03*
X467520Y211417D02*
D03*
X463976D02*
D03*
X437598D02*
D03*
X441142D02*
D03*
X437992Y175984D02*
D03*
X441535D02*
D03*
X430118Y211653D02*
D03*
Y208110D02*
D03*
X426575Y201969D02*
D03*
X430118D02*
D03*
Y193307D02*
D03*
Y179921D02*
D03*
X121653Y133563D02*
D03*
X118110D02*
D03*
X121653Y200492D02*
D03*
X118110D02*
D03*
X121653Y267421D02*
D03*
X118110D02*
D03*
X121653Y334350D02*
D03*
X118110D02*
D03*
X31172Y50783D02*
D03*
X27629D02*
D03*
X33128Y83500D02*
D03*
X36672D02*
D03*
X279232Y97746D02*
D03*
X275689D02*
D03*
X279232Y186329D02*
D03*
X275689D02*
D03*
X279232Y363494D02*
D03*
X275689D02*
D03*
X279232Y274912D02*
D03*
X275689D02*
D03*
X259449Y87805D02*
D03*
X262992D02*
D03*
X259449Y176388D02*
D03*
X262992D02*
D03*
X259449Y353554D02*
D03*
X262992D02*
D03*
X259449Y264971D02*
D03*
X262992D02*
D03*
X259449Y84262D02*
D03*
X262992D02*
D03*
X259449Y172845D02*
D03*
X262992D02*
D03*
X259449Y350010D02*
D03*
X262992D02*
D03*
X259449Y261428D02*
D03*
X262992D02*
D03*
X458071Y71653D02*
D03*
X461614D02*
D03*
X40528Y140400D02*
D03*
X44072D02*
D03*
X40328Y207700D02*
D03*
X43872D02*
D03*
X40428Y274200D02*
D03*
X43972D02*
D03*
X33029Y130800D02*
D03*
X36572D02*
D03*
X67815Y104725D02*
D03*
X64272D02*
D03*
X67815Y171654D02*
D03*
X64272D02*
D03*
X67815Y238583D02*
D03*
X64272D02*
D03*
X75984Y110630D02*
D03*
X72441D02*
D03*
X75984Y177559D02*
D03*
X72441D02*
D03*
X75984Y244489D02*
D03*
X72441D02*
D03*
X125000Y118602D02*
D03*
X128543D02*
D03*
X125000Y185531D02*
D03*
X128543D02*
D03*
X125000Y252461D02*
D03*
X128543D02*
D03*
X36472Y150200D02*
D03*
X32928D02*
D03*
X32928Y216700D02*
D03*
X36472D02*
D03*
Y197500D02*
D03*
X32928D02*
D03*
X32985Y264872D02*
D03*
X36528D02*
D03*
X73032Y118603D02*
D03*
X76575D02*
D03*
X73032Y185532D02*
D03*
X76575D02*
D03*
X73032Y252461D02*
D03*
X76575D02*
D03*
X161497Y119130D02*
D03*
X165041D02*
D03*
X161497Y186059D02*
D03*
X165041D02*
D03*
X161497Y252988D02*
D03*
X165041D02*
D03*
X32862Y330200D02*
D03*
X36405D02*
D03*
X153740Y115453D02*
D03*
X157283D02*
D03*
X153740Y182382D02*
D03*
X157283D02*
D03*
X153740Y249311D02*
D03*
X157283D02*
D03*
X147441Y104429D02*
D03*
X150984D02*
D03*
X147441Y171358D02*
D03*
X150984D02*
D03*
X147441Y238287D02*
D03*
X150984D02*
D03*
X153740Y123327D02*
D03*
X157283D02*
D03*
X153740Y190256D02*
D03*
X157283D02*
D03*
X153740Y257185D02*
D03*
X157283D02*
D03*
X36572Y351000D02*
D03*
X33028D02*
D03*
X36472Y283800D02*
D03*
X32928D02*
D03*
X40028Y341200D02*
D03*
X43572D02*
D03*
X67815Y305512D02*
D03*
X64272D02*
D03*
X75984Y311418D02*
D03*
X72441D02*
D03*
X125000Y319390D02*
D03*
X128543D02*
D03*
X73032Y319390D02*
D03*
X76575D02*
D03*
X161497Y319917D02*
D03*
X165041D02*
D03*
X153740Y316240D02*
D03*
X157283D02*
D03*
X147441Y305217D02*
D03*
X150984D02*
D03*
X153740Y324114D02*
D03*
X157283D02*
D03*
X503248Y88878D02*
D03*
X506791D02*
D03*
X438027Y172396D02*
D03*
X441570D02*
D03*
X303248Y363386D02*
D03*
X299705D02*
D03*
X303248Y274803D02*
D03*
X299705D02*
D03*
X303248Y186221D02*
D03*
X299705D02*
D03*
X303248Y97638D02*
D03*
X299705D02*
D03*
X307382Y363386D02*
D03*
X310925D02*
D03*
X307382Y274803D02*
D03*
X310925D02*
D03*
X307382Y186221D02*
D03*
X310925D02*
D03*
X307382Y97638D02*
D03*
X310925D02*
D03*
X325197Y290758D02*
D03*
X321654D02*
D03*
X325197Y202176D02*
D03*
X321654D02*
D03*
X325197Y113593D02*
D03*
X321654D02*
D03*
X325197Y25010D02*
D03*
X321654D02*
D03*
X311024Y290758D02*
D03*
X307480D02*
D03*
X311024Y202176D02*
D03*
X307480D02*
D03*
X311024Y113593D02*
D03*
X307480D02*
D03*
X311024Y25010D02*
D03*
X307480D02*
D03*
X339870Y305579D02*
D03*
X336327D02*
D03*
X339870Y216996D02*
D03*
X336327D02*
D03*
X339870Y128413D02*
D03*
X336327D02*
D03*
X339870Y39831D02*
D03*
X336327D02*
D03*
X218504Y66535D02*
D03*
X214961D02*
D03*
X218504Y62598D02*
D03*
X214961D02*
D03*
X445079Y163386D02*
D03*
X441535D02*
D03*
X318110Y363386D02*
D03*
X314567D02*
D03*
X318110Y274803D02*
D03*
X314567D02*
D03*
X318110Y186221D02*
D03*
X314567D02*
D03*
X318110Y97638D02*
D03*
X314567D02*
D03*
X295965Y363386D02*
D03*
X292421D02*
D03*
X295965Y274803D02*
D03*
X292421D02*
D03*
X295965Y186221D02*
D03*
X292421D02*
D03*
X295965Y97638D02*
D03*
X292421D02*
D03*
X293307Y290660D02*
D03*
X296850D02*
D03*
X293307Y202077D02*
D03*
X296850D02*
D03*
X293307Y113495D02*
D03*
X296850D02*
D03*
X293307Y24912D02*
D03*
X296850D02*
D03*
X300394Y290660D02*
D03*
X303937D02*
D03*
X300394Y202077D02*
D03*
X303937D02*
D03*
X300394Y113495D02*
D03*
X303937D02*
D03*
X300394Y24912D02*
D03*
X303937D02*
D03*
X318110Y290758D02*
D03*
X314567D02*
D03*
X318110Y202176D02*
D03*
X314567D02*
D03*
X318110Y113593D02*
D03*
X314567D02*
D03*
X318110Y25010D02*
D03*
X314567D02*
D03*
X259331Y315551D02*
D03*
X262874D02*
D03*
X259331Y226969D02*
D03*
X262874D02*
D03*
X259331Y138386D02*
D03*
X262874D02*
D03*
X259331Y49803D02*
D03*
X262874D02*
D03*
X259449Y325492D02*
D03*
X262992D02*
D03*
X259449Y236910D02*
D03*
X262992D02*
D03*
X259449Y148327D02*
D03*
X262992D02*
D03*
X259449Y59744D02*
D03*
X262992D02*
D03*
X259331Y319094D02*
D03*
X262874D02*
D03*
X259331Y230512D02*
D03*
X262874D02*
D03*
X259331Y141929D02*
D03*
X262874D02*
D03*
X259331Y53347D02*
D03*
X262874D02*
D03*
X288681Y290846D02*
D03*
X285138D02*
D03*
X288681Y202264D02*
D03*
X285138D02*
D03*
X288681Y113681D02*
D03*
X285138D02*
D03*
X288681Y25098D02*
D03*
X285138D02*
D03*
X281398Y290846D02*
D03*
X277854D02*
D03*
X281398Y202264D02*
D03*
X277854D02*
D03*
X281398Y113681D02*
D03*
X277854D02*
D03*
X281398Y25098D02*
D03*
X277854D02*
D03*
X505669Y78947D02*
D03*
X509213D02*
D03*
X488105Y37443D02*
D03*
X484561D02*
D03*
X501294Y36459D02*
D03*
X504837D02*
D03*
X503150Y119685D02*
D03*
X499606D02*
D03*
X474606Y191339D02*
D03*
Y187795D02*
D03*
X474606Y198425D02*
D03*
Y194882D02*
D03*
X426575Y183465D02*
D03*
Y179921D02*
D03*
Y208110D02*
D03*
Y211653D02*
D03*
Y193307D02*
D03*
Y189764D02*
D03*
X462514Y41380D02*
D03*
X458971D02*
D03*
D16*
X268898Y321073D02*
D03*
Y323042D02*
D03*
Y303357D02*
D03*
Y305325D02*
D03*
Y307294D02*
D03*
Y309262D02*
D03*
Y311231D02*
D03*
Y313199D02*
D03*
Y315168D02*
D03*
Y317136D02*
D03*
Y319105D02*
D03*
Y325010D02*
D03*
Y326979D02*
D03*
Y328947D02*
D03*
Y330916D02*
D03*
Y332884D02*
D03*
Y334853D02*
D03*
Y336821D02*
D03*
Y338790D02*
D03*
Y340758D02*
D03*
Y342727D02*
D03*
Y344695D02*
D03*
Y346664D02*
D03*
Y348632D02*
D03*
Y350601D02*
D03*
X329528D02*
D03*
Y348632D02*
D03*
Y346664D02*
D03*
Y344695D02*
D03*
Y342727D02*
D03*
Y340758D02*
D03*
Y338790D02*
D03*
Y336821D02*
D03*
Y334853D02*
D03*
Y332884D02*
D03*
Y330916D02*
D03*
Y328947D02*
D03*
Y326979D02*
D03*
Y325010D02*
D03*
Y323042D02*
D03*
Y321073D02*
D03*
Y319105D02*
D03*
Y317136D02*
D03*
Y315168D02*
D03*
Y313199D02*
D03*
Y311231D02*
D03*
Y309262D02*
D03*
Y307294D02*
D03*
Y305325D02*
D03*
Y303357D02*
D03*
X268898Y37609D02*
D03*
Y39577D02*
D03*
Y41546D02*
D03*
Y43514D02*
D03*
Y45483D02*
D03*
Y47451D02*
D03*
Y49420D02*
D03*
Y51388D02*
D03*
Y53357D02*
D03*
Y55325D02*
D03*
Y57294D02*
D03*
Y59262D02*
D03*
Y61231D02*
D03*
Y63199D02*
D03*
Y65168D02*
D03*
Y67136D02*
D03*
Y69105D02*
D03*
Y71073D02*
D03*
Y73042D02*
D03*
Y75010D02*
D03*
Y76979D02*
D03*
Y78947D02*
D03*
Y80916D02*
D03*
Y82884D02*
D03*
Y84853D02*
D03*
X329528D02*
D03*
Y82884D02*
D03*
Y80916D02*
D03*
Y78947D02*
D03*
Y76979D02*
D03*
Y75010D02*
D03*
Y73042D02*
D03*
Y71073D02*
D03*
Y69105D02*
D03*
Y67136D02*
D03*
Y65168D02*
D03*
Y63199D02*
D03*
Y61231D02*
D03*
Y59262D02*
D03*
Y57294D02*
D03*
Y55325D02*
D03*
Y53357D02*
D03*
Y51388D02*
D03*
Y49420D02*
D03*
Y47451D02*
D03*
Y45483D02*
D03*
Y43514D02*
D03*
Y41546D02*
D03*
Y39577D02*
D03*
Y37609D02*
D03*
X268898Y126191D02*
D03*
Y128160D02*
D03*
Y130128D02*
D03*
Y132097D02*
D03*
Y134065D02*
D03*
Y136034D02*
D03*
Y138002D02*
D03*
Y139971D02*
D03*
Y141939D02*
D03*
Y143908D02*
D03*
Y145876D02*
D03*
Y147845D02*
D03*
Y149813D02*
D03*
Y151782D02*
D03*
Y153750D02*
D03*
Y155719D02*
D03*
Y157687D02*
D03*
Y159656D02*
D03*
Y161624D02*
D03*
Y163593D02*
D03*
Y165561D02*
D03*
Y167530D02*
D03*
Y169498D02*
D03*
Y171467D02*
D03*
Y173435D02*
D03*
X329528D02*
D03*
Y171467D02*
D03*
Y169498D02*
D03*
Y167530D02*
D03*
Y165561D02*
D03*
Y163593D02*
D03*
Y161624D02*
D03*
Y159656D02*
D03*
Y157687D02*
D03*
Y155719D02*
D03*
Y153750D02*
D03*
Y151782D02*
D03*
Y149813D02*
D03*
Y147845D02*
D03*
Y145876D02*
D03*
Y143908D02*
D03*
Y141939D02*
D03*
Y139971D02*
D03*
Y138002D02*
D03*
Y136034D02*
D03*
Y134065D02*
D03*
Y132097D02*
D03*
Y130128D02*
D03*
Y128160D02*
D03*
Y126191D02*
D03*
X268898Y214774D02*
D03*
Y216742D02*
D03*
Y218711D02*
D03*
Y220679D02*
D03*
Y222648D02*
D03*
Y224617D02*
D03*
Y226585D02*
D03*
Y228554D02*
D03*
Y230522D02*
D03*
Y232491D02*
D03*
Y234459D02*
D03*
Y236428D02*
D03*
Y238396D02*
D03*
Y240365D02*
D03*
Y242333D02*
D03*
Y244302D02*
D03*
Y246270D02*
D03*
Y248239D02*
D03*
Y250207D02*
D03*
Y252176D02*
D03*
Y254144D02*
D03*
Y256113D02*
D03*
Y258081D02*
D03*
Y260050D02*
D03*
Y262018D02*
D03*
X329528D02*
D03*
Y260050D02*
D03*
Y258081D02*
D03*
Y256113D02*
D03*
Y254144D02*
D03*
Y252176D02*
D03*
Y250207D02*
D03*
Y248239D02*
D03*
Y246270D02*
D03*
Y244302D02*
D03*
Y242333D02*
D03*
Y240365D02*
D03*
Y238396D02*
D03*
Y236428D02*
D03*
Y234459D02*
D03*
Y232491D02*
D03*
Y230522D02*
D03*
Y228554D02*
D03*
Y226585D02*
D03*
Y224617D02*
D03*
Y222648D02*
D03*
Y220679D02*
D03*
Y218711D02*
D03*
Y216742D02*
D03*
Y214774D02*
D03*
D18*
X299213Y326979D02*
D03*
Y61231D02*
D03*
Y149813D02*
D03*
Y238396D02*
D03*
D19*
X377382Y208760D02*
D03*
X381083D02*
D03*
X257106Y243406D02*
D03*
X260807D02*
D03*
X257106Y66240D02*
D03*
X260807D02*
D03*
X257106Y154823D02*
D03*
X260807D02*
D03*
X257106Y331988D02*
D03*
X260807D02*
D03*
X262953Y46260D02*
D03*
X259252D02*
D03*
X262953Y97835D02*
D03*
X259252D02*
D03*
X262953Y94291D02*
D03*
X259252D02*
D03*
X398504Y42520D02*
D03*
X394803D02*
D03*
Y38878D02*
D03*
X398504D02*
D03*
X329882Y98228D02*
D03*
X326181D02*
D03*
X262953Y134843D02*
D03*
X259252D02*
D03*
X262953Y186417D02*
D03*
X259252D02*
D03*
X262953Y182874D02*
D03*
X259252D02*
D03*
X398504Y131102D02*
D03*
X394803D02*
D03*
Y127461D02*
D03*
X398504D02*
D03*
X329882Y186811D02*
D03*
X326181D02*
D03*
X262953Y312008D02*
D03*
X259252D02*
D03*
X262953Y363583D02*
D03*
X259252D02*
D03*
X262953Y360039D02*
D03*
X259252D02*
D03*
X398504Y308268D02*
D03*
X394803D02*
D03*
Y304626D02*
D03*
X398504D02*
D03*
X329882Y363976D02*
D03*
X326181D02*
D03*
X394803Y216043D02*
D03*
X398504D02*
D03*
X329882Y275394D02*
D03*
X326181D02*
D03*
X262953Y271457D02*
D03*
X259252D02*
D03*
X262953Y275000D02*
D03*
X259252D02*
D03*
X262953Y223425D02*
D03*
X259252D02*
D03*
X398504Y219685D02*
D03*
X394803D02*
D03*
X381083Y297342D02*
D03*
X377382D02*
D03*
X48150Y105315D02*
D03*
X51850D02*
D03*
X48150Y172244D02*
D03*
X51850D02*
D03*
X48150Y239174D02*
D03*
X51850D02*
D03*
X48150Y306103D02*
D03*
X51850D02*
D03*
X46240Y105315D02*
D03*
X42539D02*
D03*
X46240Y172244D02*
D03*
X42539D02*
D03*
X46240Y239174D02*
D03*
X42539D02*
D03*
X46240Y306103D02*
D03*
X42539D02*
D03*
X377382Y31594D02*
D03*
X381083D02*
D03*
X31351Y54383D02*
D03*
X27650D02*
D03*
X36651Y126863D02*
D03*
X32950D02*
D03*
X36550Y193900D02*
D03*
X32850D02*
D03*
X36484Y326263D02*
D03*
X32783D02*
D03*
X196638Y121823D02*
D03*
X192937D02*
D03*
X196638Y188752D02*
D03*
X192937D02*
D03*
X196638Y255681D02*
D03*
X192937D02*
D03*
X161535Y115453D02*
D03*
X165236D02*
D03*
X161535Y182382D02*
D03*
X165236D02*
D03*
X161535Y249311D02*
D03*
X165236D02*
D03*
X196638Y117823D02*
D03*
X192937D02*
D03*
X196638Y184752D02*
D03*
X192937D02*
D03*
X196638Y251681D02*
D03*
X192937D02*
D03*
X171181Y104921D02*
D03*
X174882D02*
D03*
X171181Y171850D02*
D03*
X174882D02*
D03*
X171181Y238779D02*
D03*
X174882D02*
D03*
X186107Y105019D02*
D03*
X182406D02*
D03*
X186107Y171949D02*
D03*
X182406D02*
D03*
X186107Y238878D02*
D03*
X182406D02*
D03*
X198769Y105019D02*
D03*
X195068D02*
D03*
X198769Y171949D02*
D03*
X195068D02*
D03*
X198769Y238878D02*
D03*
X195068D02*
D03*
X210974Y105019D02*
D03*
X207273D02*
D03*
X210974Y171949D02*
D03*
X207273D02*
D03*
X210974Y238878D02*
D03*
X207273D02*
D03*
X76176Y114687D02*
D03*
X72475D02*
D03*
X76176Y181616D02*
D03*
X72475D02*
D03*
X76176Y248545D02*
D03*
X72475D02*
D03*
X51550Y140400D02*
D03*
X47850D02*
D03*
X51150Y207600D02*
D03*
X47450D02*
D03*
X51450Y274300D02*
D03*
X47750D02*
D03*
X51550Y129500D02*
D03*
X47850D02*
D03*
X51250Y196600D02*
D03*
X47550D02*
D03*
X51250Y263300D02*
D03*
X47550D02*
D03*
X36607Y261328D02*
D03*
X32906D02*
D03*
X196638Y322610D02*
D03*
X192937Y322610D02*
D03*
X161535Y316240D02*
D03*
X165236D02*
D03*
X196638Y318610D02*
D03*
X192937Y318610D02*
D03*
X171181Y305708D02*
D03*
X174882D02*
D03*
X186107Y305807D02*
D03*
X182406D02*
D03*
X198769D02*
D03*
X195068D02*
D03*
X210974D02*
D03*
X207273D02*
D03*
X76176Y315475D02*
D03*
X72475D02*
D03*
X51050Y341300D02*
D03*
X47350D02*
D03*
X51250Y330100D02*
D03*
X47550D02*
D03*
X27750Y110283D02*
D03*
X31451D02*
D03*
X27750Y113883D02*
D03*
X31451D02*
D03*
X27550Y316300D02*
D03*
X31250D02*
D03*
X27650Y312600D02*
D03*
X31350D02*
D03*
X27850Y249937D02*
D03*
X31551D02*
D03*
X27850Y246000D02*
D03*
X31551D02*
D03*
X27950Y184800D02*
D03*
X31650D02*
D03*
X27850Y181100D02*
D03*
X31550D02*
D03*
X87087Y40256D02*
D03*
X83386D02*
D03*
X445394Y170472D02*
D03*
X449094D02*
D03*
X456811D02*
D03*
X460512D02*
D03*
X455827Y85236D02*
D03*
X459527D02*
D03*
X253465Y343406D02*
D03*
X257165D02*
D03*
X253465Y254823D02*
D03*
X257165D02*
D03*
X253465Y166240D02*
D03*
X257165D02*
D03*
X253465Y77658D02*
D03*
X257165D02*
D03*
X253465Y339764D02*
D03*
X257165D02*
D03*
X253465Y251181D02*
D03*
X257165D02*
D03*
X253465Y162598D02*
D03*
X257165D02*
D03*
X253465Y74016D02*
D03*
X257165D02*
D03*
X377382Y120177D02*
D03*
X381083D02*
D03*
X456811Y166929D02*
D03*
X460512D02*
D03*
X449094D02*
D03*
X445394D02*
D03*
D20*
X391339Y211221D02*
D03*
Y204921D02*
D03*
X610787Y27569D02*
D03*
Y33869D02*
D03*
X461417Y147244D02*
D03*
Y140945D02*
D03*
X453937Y147244D02*
D03*
Y140945D02*
D03*
X435236Y57677D02*
D03*
Y63976D02*
D03*
X441142Y57677D02*
D03*
Y63976D02*
D03*
X486417Y68307D02*
D03*
Y74606D02*
D03*
X480512D02*
D03*
Y68307D02*
D03*
X428583Y107638D02*
D03*
Y101339D02*
D03*
Y114134D02*
D03*
Y120433D02*
D03*
X610787Y46664D02*
D03*
Y40365D02*
D03*
X391339Y299803D02*
D03*
Y293504D02*
D03*
Y122638D02*
D03*
Y116339D02*
D03*
Y34055D02*
D03*
Y27756D02*
D03*
D21*
X397342Y211024D02*
D03*
Y204724D02*
D03*
X262106Y210531D02*
D03*
Y216831D02*
D03*
X256102Y210531D02*
D03*
Y216831D02*
D03*
Y33366D02*
D03*
Y39665D02*
D03*
X262106Y33366D02*
D03*
Y39665D02*
D03*
X256102Y121949D02*
D03*
Y128248D02*
D03*
X262106Y121949D02*
D03*
Y128248D02*
D03*
X256102Y299114D02*
D03*
Y305413D02*
D03*
X262106Y299114D02*
D03*
Y305413D02*
D03*
X397342Y299606D02*
D03*
Y293307D02*
D03*
Y122441D02*
D03*
Y116142D02*
D03*
Y33858D02*
D03*
Y27559D02*
D03*
D22*
X385531Y203937D02*
D03*
X379232D02*
D03*
X385531Y292520D02*
D03*
X379232D02*
D03*
X385531Y115354D02*
D03*
X379232D02*
D03*
X385531Y26772D02*
D03*
X379232D02*
D03*
D23*
X355079Y75994D02*
D03*
Y74026D02*
D03*
Y72057D02*
D03*
Y70089D02*
D03*
Y68120D02*
D03*
Y66152D02*
D03*
Y64183D02*
D03*
Y62215D02*
D03*
Y60246D02*
D03*
Y58278D02*
D03*
Y56309D02*
D03*
Y54341D02*
D03*
Y52372D02*
D03*
Y50404D02*
D03*
Y48435D02*
D03*
Y46467D02*
D03*
X390118D02*
D03*
Y48435D02*
D03*
Y50404D02*
D03*
Y52372D02*
D03*
Y54341D02*
D03*
Y56309D02*
D03*
Y58278D02*
D03*
Y60246D02*
D03*
Y62215D02*
D03*
Y64183D02*
D03*
Y66152D02*
D03*
Y68120D02*
D03*
Y70089D02*
D03*
Y72057D02*
D03*
Y74026D02*
D03*
Y75994D02*
D03*
X355079Y164577D02*
D03*
Y162609D02*
D03*
Y160640D02*
D03*
Y158672D02*
D03*
Y156703D02*
D03*
Y154735D02*
D03*
Y152766D02*
D03*
Y150798D02*
D03*
Y148829D02*
D03*
Y146861D02*
D03*
Y144892D02*
D03*
Y142924D02*
D03*
Y140955D02*
D03*
Y138987D02*
D03*
Y137018D02*
D03*
Y135050D02*
D03*
X390118D02*
D03*
Y137018D02*
D03*
Y138987D02*
D03*
Y140955D02*
D03*
Y142924D02*
D03*
Y144892D02*
D03*
Y146861D02*
D03*
Y148829D02*
D03*
Y150798D02*
D03*
Y152766D02*
D03*
Y154735D02*
D03*
Y156703D02*
D03*
Y158672D02*
D03*
Y160640D02*
D03*
Y162609D02*
D03*
Y164577D02*
D03*
X355079Y341742D02*
D03*
Y339774D02*
D03*
Y337806D02*
D03*
Y335837D02*
D03*
Y333869D02*
D03*
Y331900D02*
D03*
Y329931D02*
D03*
Y327963D02*
D03*
Y325994D02*
D03*
Y324026D02*
D03*
Y322058D02*
D03*
Y320089D02*
D03*
Y318121D02*
D03*
Y316152D02*
D03*
Y314183D02*
D03*
Y312215D02*
D03*
X390118D02*
D03*
Y314183D02*
D03*
Y316152D02*
D03*
Y318121D02*
D03*
Y320089D02*
D03*
Y322058D02*
D03*
Y324026D02*
D03*
Y325994D02*
D03*
Y327963D02*
D03*
Y329931D02*
D03*
Y331900D02*
D03*
Y333869D02*
D03*
Y335837D02*
D03*
Y337806D02*
D03*
Y339774D02*
D03*
Y341742D02*
D03*
X355079Y253160D02*
D03*
Y251191D02*
D03*
Y249223D02*
D03*
Y247254D02*
D03*
Y245286D02*
D03*
Y243317D02*
D03*
Y241349D02*
D03*
Y239380D02*
D03*
Y237412D02*
D03*
Y235443D02*
D03*
Y233475D02*
D03*
Y231506D02*
D03*
Y229538D02*
D03*
Y227569D02*
D03*
Y225601D02*
D03*
Y223632D02*
D03*
X390118D02*
D03*
Y225601D02*
D03*
Y227569D02*
D03*
Y229538D02*
D03*
Y231506D02*
D03*
Y233475D02*
D03*
Y235443D02*
D03*
Y237412D02*
D03*
Y239380D02*
D03*
Y241349D02*
D03*
Y243317D02*
D03*
Y245286D02*
D03*
Y247254D02*
D03*
Y249223D02*
D03*
Y251191D02*
D03*
Y253160D02*
D03*
D24*
X372598Y61231D02*
D03*
Y149813D02*
D03*
Y326979D02*
D03*
X372598Y238396D02*
D03*
D25*
X375748Y35236D02*
D03*
Y38780D02*
D03*
X382874Y35531D02*
D03*
Y39075D02*
D03*
X372205Y35236D02*
D03*
Y38780D02*
D03*
X366732Y35433D02*
D03*
Y38976D02*
D03*
X373583Y87008D02*
D03*
Y83465D02*
D03*
X377128Y87135D02*
D03*
Y83591D02*
D03*
X375748Y123819D02*
D03*
Y127362D02*
D03*
X382874Y124114D02*
D03*
Y127657D02*
D03*
X372205Y123819D02*
D03*
Y127362D02*
D03*
X366732Y124016D02*
D03*
Y127559D02*
D03*
X373583Y175591D02*
D03*
Y172047D02*
D03*
X377128Y175717D02*
D03*
Y172174D02*
D03*
X375748Y300984D02*
D03*
Y304528D02*
D03*
X382874Y301279D02*
D03*
Y304823D02*
D03*
X372205Y300984D02*
D03*
Y304528D02*
D03*
X366732Y301181D02*
D03*
Y304724D02*
D03*
X373583Y352756D02*
D03*
Y349213D02*
D03*
X377128Y352883D02*
D03*
Y349339D02*
D03*
X373583Y264173D02*
D03*
Y260630D02*
D03*
X372205Y212402D02*
D03*
Y215945D02*
D03*
X382874Y212697D02*
D03*
Y216240D02*
D03*
X366732Y212598D02*
D03*
Y216142D02*
D03*
X377128Y264300D02*
D03*
Y260757D02*
D03*
X375748Y212402D02*
D03*
Y215945D02*
D03*
X154056Y59646D02*
D03*
Y56102D02*
D03*
X41500Y68228D02*
D03*
Y71772D02*
D03*
X91052Y33083D02*
D03*
Y36626D02*
D03*
Y29427D02*
D03*
Y25883D02*
D03*
X66724Y58110D02*
D03*
X66822Y47382D02*
D03*
X457480Y215551D02*
D03*
X461024D02*
D03*
X453543D02*
D03*
X450000D02*
D03*
X595039Y52569D02*
D03*
Y56113D02*
D03*
X597008Y20680D02*
D03*
Y17136D02*
D03*
X47800Y125772D02*
D03*
Y122228D02*
D03*
X47600Y192772D02*
D03*
Y189228D02*
D03*
X47800Y259572D02*
D03*
Y256028D02*
D03*
X47638Y108859D02*
D03*
Y112402D02*
D03*
Y175788D02*
D03*
Y179331D02*
D03*
Y242717D02*
D03*
Y246260D02*
D03*
X154331Y109350D02*
D03*
Y105807D02*
D03*
Y176279D02*
D03*
Y172736D02*
D03*
Y243209D02*
D03*
Y239665D02*
D03*
X132480Y130807D02*
D03*
Y134350D02*
D03*
Y197736D02*
D03*
Y201279D02*
D03*
X132002Y265002D02*
D03*
Y268545D02*
D03*
X135812Y130667D02*
D03*
Y134211D02*
D03*
Y197597D02*
D03*
Y201140D02*
D03*
Y264526D02*
D03*
Y268069D02*
D03*
X139553Y130667D02*
D03*
Y134211D02*
D03*
Y197597D02*
D03*
Y201140D02*
D03*
Y264526D02*
D03*
Y268069D02*
D03*
X143194Y130667D02*
D03*
Y134211D02*
D03*
Y197597D02*
D03*
Y201140D02*
D03*
Y264526D02*
D03*
Y268069D02*
D03*
X146738Y130667D02*
D03*
Y134211D02*
D03*
Y197597D02*
D03*
Y201140D02*
D03*
Y264526D02*
D03*
Y268069D02*
D03*
X150281Y130667D02*
D03*
Y134211D02*
D03*
Y197597D02*
D03*
Y201140D02*
D03*
Y264526D02*
D03*
Y268069D02*
D03*
X47800Y326272D02*
D03*
Y322728D02*
D03*
X47638Y309646D02*
D03*
X47638Y313189D02*
D03*
X154331Y310138D02*
D03*
Y306594D02*
D03*
X132480Y331594D02*
D03*
Y335138D02*
D03*
X135812Y331455D02*
D03*
Y334998D02*
D03*
X139553Y331455D02*
D03*
Y334998D02*
D03*
X143194Y331455D02*
D03*
Y334998D02*
D03*
X146738Y331455D02*
D03*
Y334998D02*
D03*
X150281Y331455D02*
D03*
Y334998D02*
D03*
X513346Y92924D02*
D03*
Y96467D02*
D03*
X452756Y172244D02*
D03*
Y175787D02*
D03*
X106693Y304528D02*
D03*
Y300984D02*
D03*
Y237598D02*
D03*
Y234055D02*
D03*
Y170669D02*
D03*
Y167126D02*
D03*
Y103740D02*
D03*
Y100197D02*
D03*
X335335Y347943D02*
D03*
Y344400D02*
D03*
Y259361D02*
D03*
Y255817D02*
D03*
Y170778D02*
D03*
Y167235D02*
D03*
Y82195D02*
D03*
Y78652D02*
D03*
X336221Y314183D02*
D03*
Y310640D02*
D03*
Y225601D02*
D03*
Y222058D02*
D03*
Y137018D02*
D03*
Y133475D02*
D03*
Y48435D02*
D03*
Y44892D02*
D03*
X335335Y337215D02*
D03*
Y340758D02*
D03*
Y248632D02*
D03*
Y252176D02*
D03*
Y160050D02*
D03*
Y163593D02*
D03*
Y71467D02*
D03*
Y75010D02*
D03*
X459055Y343898D02*
D03*
Y340354D02*
D03*
X135355Y60039D02*
D03*
Y63583D02*
D03*
X214567Y300689D02*
D03*
Y304232D02*
D03*
Y233760D02*
D03*
Y237303D02*
D03*
Y166831D02*
D03*
Y170374D02*
D03*
Y99902D02*
D03*
Y103445D02*
D03*
X203543Y310925D02*
D03*
Y307382D02*
D03*
Y243996D02*
D03*
Y240453D02*
D03*
Y177067D02*
D03*
Y173524D02*
D03*
Y110138D02*
D03*
Y106595D02*
D03*
X190748Y300492D02*
D03*
Y304035D02*
D03*
Y233563D02*
D03*
Y237106D02*
D03*
Y166634D02*
D03*
Y170177D02*
D03*
Y99704D02*
D03*
Y103248D02*
D03*
X178445Y311023D02*
D03*
Y307480D02*
D03*
Y244094D02*
D03*
Y240551D02*
D03*
Y177165D02*
D03*
Y173622D02*
D03*
Y110236D02*
D03*
Y106693D02*
D03*
X167323Y301083D02*
D03*
Y304626D02*
D03*
Y234154D02*
D03*
Y237697D02*
D03*
Y167224D02*
D03*
Y170768D02*
D03*
Y100295D02*
D03*
Y103839D02*
D03*
X214567Y307382D02*
D03*
Y310925D02*
D03*
Y240453D02*
D03*
Y243996D02*
D03*
Y173524D02*
D03*
Y177067D02*
D03*
Y106595D02*
D03*
Y110138D02*
D03*
X203543Y304232D02*
D03*
Y300689D02*
D03*
Y237303D02*
D03*
Y233760D02*
D03*
Y170374D02*
D03*
Y166831D02*
D03*
Y103445D02*
D03*
Y99902D02*
D03*
X190748Y307578D02*
D03*
Y311122D02*
D03*
Y240649D02*
D03*
Y244193D02*
D03*
Y173720D02*
D03*
Y177264D02*
D03*
Y106791D02*
D03*
Y110334D02*
D03*
X178445Y304035D02*
D03*
Y300492D02*
D03*
Y237106D02*
D03*
Y233563D02*
D03*
Y170177D02*
D03*
Y166634D02*
D03*
Y103248D02*
D03*
Y99704D02*
D03*
X167323Y307382D02*
D03*
Y310925D02*
D03*
Y240453D02*
D03*
Y243996D02*
D03*
Y173524D02*
D03*
Y177067D02*
D03*
Y106595D02*
D03*
Y110138D02*
D03*
X66724Y54567D02*
D03*
X66822Y50925D02*
D03*
X450000Y219094D02*
D03*
X453543D02*
D03*
X461024D02*
D03*
X457480D02*
D03*
X586181Y194302D02*
D03*
Y197845D02*
D03*
X578307Y222451D02*
D03*
Y218908D02*
D03*
D26*
X254331Y83071D02*
D03*
Y89370D02*
D03*
X340598Y52981D02*
D03*
Y59280D02*
D03*
X368465Y91142D02*
D03*
Y84842D02*
D03*
X254331Y171653D02*
D03*
Y177953D02*
D03*
X340598Y141564D02*
D03*
Y147863D02*
D03*
X368465Y179724D02*
D03*
Y173425D02*
D03*
X254331Y348819D02*
D03*
Y355118D02*
D03*
X340598Y318729D02*
D03*
Y325028D02*
D03*
X368465Y356890D02*
D03*
Y350590D02*
D03*
X340598Y230147D02*
D03*
Y236446D02*
D03*
X368465Y268307D02*
D03*
Y262008D02*
D03*
X254331Y260236D02*
D03*
Y266535D02*
D03*
X435798Y159947D02*
D03*
Y166246D02*
D03*
D27*
X366831Y26772D02*
D03*
X373130D02*
D03*
X390348Y94731D02*
D03*
X384049D02*
D03*
X366831Y115354D02*
D03*
X373130D02*
D03*
X390348Y183313D02*
D03*
X384049D02*
D03*
X366831Y292520D02*
D03*
X373130D02*
D03*
X390348Y360479D02*
D03*
X384049D02*
D03*
X366831Y203937D02*
D03*
X373130D02*
D03*
X390348Y271896D02*
D03*
X384049D02*
D03*
X222835Y56693D02*
D03*
X216535D02*
D03*
X134252Y99705D02*
D03*
X140551D02*
D03*
X134252Y166634D02*
D03*
X140551D02*
D03*
X134252Y233563D02*
D03*
X140551D02*
D03*
X72933Y103642D02*
D03*
X79232D02*
D03*
X72933Y170571D02*
D03*
X79232D02*
D03*
X72933Y237500D02*
D03*
X79232D02*
D03*
X72933Y304430D02*
D03*
X79232D02*
D03*
X374488Y363189D02*
D03*
X368189D02*
D03*
X374488Y274606D02*
D03*
X368189D02*
D03*
X374488Y186024D02*
D03*
X368189D02*
D03*
X374488Y97441D02*
D03*
X368189D02*
D03*
X503701Y83868D02*
D03*
X497402D02*
D03*
X134252Y300492D02*
D03*
X140551D02*
D03*
D28*
X438189Y203642D02*
D03*
Y201673D02*
D03*
Y199705D02*
D03*
Y197736D02*
D03*
Y195768D02*
D03*
Y193799D02*
D03*
Y191831D02*
D03*
Y189862D02*
D03*
Y187894D02*
D03*
Y185925D02*
D03*
Y183957D02*
D03*
X465748D02*
D03*
Y185925D02*
D03*
Y187894D02*
D03*
Y189862D02*
D03*
Y191831D02*
D03*
Y193799D02*
D03*
Y195768D02*
D03*
Y197736D02*
D03*
Y199705D02*
D03*
Y201673D02*
D03*
Y203642D02*
D03*
D29*
X442126Y180020D02*
D03*
X444095D02*
D03*
X446063D02*
D03*
X448032D02*
D03*
X450000D02*
D03*
X451968D02*
D03*
X453937D02*
D03*
X455905D02*
D03*
X457874D02*
D03*
X459842D02*
D03*
X461811D02*
D03*
Y207579D02*
D03*
X459842D02*
D03*
X457874D02*
D03*
X455905D02*
D03*
X453937D02*
D03*
X451968D02*
D03*
X450000D02*
D03*
X448032D02*
D03*
X446063D02*
D03*
X444095D02*
D03*
X442126D02*
D03*
D30*
X451968Y193799D02*
D03*
D32*
X121850Y124902D02*
D03*
Y130413D02*
D03*
Y191831D02*
D03*
Y197343D02*
D03*
Y258760D02*
D03*
Y264272D02*
D03*
Y325689D02*
D03*
Y331201D02*
D03*
D34*
X421654Y237795D02*
D03*
Y153150D02*
D03*
Y62599D02*
D03*
X244488Y176771D02*
D03*
Y109842D02*
D03*
Y243701D02*
D03*
Y310630D02*
D03*
Y62598D02*
D03*
X421654Y326378D02*
D03*
D35*
X408740Y59449D02*
D03*
Y78740D02*
D03*
Y148031D02*
D03*
Y167323D02*
D03*
Y325197D02*
D03*
Y344488D02*
D03*
Y236614D02*
D03*
Y255906D02*
D03*
Y313386D02*
D03*
Y294094D02*
D03*
Y224803D02*
D03*
Y205512D02*
D03*
Y136221D02*
D03*
Y116929D02*
D03*
X408740Y47638D02*
D03*
Y28346D02*
D03*
D36*
X206909Y56850D02*
D03*
Y36850D02*
D03*
X178917D02*
D03*
Y56850D02*
D03*
D37*
X87352Y25626D02*
D03*
Y29484D02*
D03*
X59243Y46437D02*
D03*
Y50295D02*
D03*
Y54311D02*
D03*
Y58169D02*
D03*
X87352Y32826D02*
D03*
Y36684D02*
D03*
D38*
X225787Y142823D02*
D03*
Y132823D02*
D03*
Y122823D02*
D03*
X205787D02*
D03*
Y132823D02*
D03*
Y142823D02*
D03*
X225787Y209752D02*
D03*
Y199752D02*
D03*
Y189752D02*
D03*
X205787D02*
D03*
Y199752D02*
D03*
Y209752D02*
D03*
X225787Y276681D02*
D03*
Y266681D02*
D03*
Y256681D02*
D03*
X205787D02*
D03*
Y266681D02*
D03*
Y276681D02*
D03*
X225787Y343610D02*
D03*
Y333610D02*
D03*
Y323610D02*
D03*
X205787D02*
D03*
Y333610D02*
D03*
Y343610D02*
D03*
D39*
X461417Y30118D02*
D03*
X448819D02*
D03*
D40*
X474803Y17913D02*
D03*
Y30512D02*
D03*
D41*
X560335Y72441D02*
D03*
X582185D02*
D03*
X540807Y28750D02*
D03*
X562657D02*
D03*
D42*
X92008Y112228D02*
D03*
Y123213D02*
D03*
X82008Y112221D02*
D03*
Y123205D02*
D03*
X92008Y179157D02*
D03*
Y190142D02*
D03*
X82008Y179150D02*
D03*
Y190134D02*
D03*
X92008Y246087D02*
D03*
Y257071D02*
D03*
X82008Y246079D02*
D03*
Y257063D02*
D03*
X92008Y313016D02*
D03*
Y324000D02*
D03*
X82008Y313008D02*
D03*
Y323992D02*
D03*
D43*
X102756Y125256D02*
D03*
Y141673D02*
D03*
Y192185D02*
D03*
Y208602D02*
D03*
Y259114D02*
D03*
Y275532D02*
D03*
Y342461D02*
D03*
Y326043D02*
D03*
D44*
X94547Y133465D02*
D03*
X110965D02*
D03*
X94547Y200394D02*
D03*
X110965D02*
D03*
X94547Y267323D02*
D03*
X110965D02*
D03*
Y334252D02*
D03*
X94547D02*
D03*
D45*
X141339Y117815D02*
D03*
Y184744D02*
D03*
Y251673D02*
D03*
Y318602D02*
D03*
D46*
X146260Y109744D02*
D03*
X144291D02*
D03*
X142323D02*
D03*
X140354D02*
D03*
X138386D02*
D03*
X136417D02*
D03*
Y125886D02*
D03*
X138386D02*
D03*
X140354D02*
D03*
X142323D02*
D03*
X144291D02*
D03*
X146260D02*
D03*
Y176673D02*
D03*
X144291D02*
D03*
X142323D02*
D03*
X140354D02*
D03*
X138386D02*
D03*
X136417D02*
D03*
Y192815D02*
D03*
X138386D02*
D03*
X140354D02*
D03*
X142323D02*
D03*
X144291D02*
D03*
X146260D02*
D03*
Y243602D02*
D03*
X144291D02*
D03*
X142323D02*
D03*
X140354D02*
D03*
X138386D02*
D03*
X136417D02*
D03*
Y259744D02*
D03*
X138386D02*
D03*
X140354D02*
D03*
X142323D02*
D03*
X144291D02*
D03*
X146260D02*
D03*
Y326673D02*
D03*
X144291D02*
D03*
X142323D02*
D03*
X140354D02*
D03*
X138386D02*
D03*
X136417D02*
D03*
Y310531D02*
D03*
X138386D02*
D03*
X140354D02*
D03*
X142323D02*
D03*
X144291D02*
D03*
X146260D02*
D03*
D47*
X133268Y112894D02*
D03*
Y114862D02*
D03*
Y116831D02*
D03*
Y118799D02*
D03*
Y120768D02*
D03*
Y122736D02*
D03*
X149409D02*
D03*
Y120768D02*
D03*
Y118799D02*
D03*
Y116831D02*
D03*
Y114862D02*
D03*
Y112894D02*
D03*
X133268Y179823D02*
D03*
Y181791D02*
D03*
Y183760D02*
D03*
Y185728D02*
D03*
Y187697D02*
D03*
Y189665D02*
D03*
X149409D02*
D03*
Y187697D02*
D03*
Y185728D02*
D03*
Y183760D02*
D03*
Y181791D02*
D03*
Y179823D02*
D03*
X133268Y246752D02*
D03*
Y248720D02*
D03*
Y250689D02*
D03*
Y252658D02*
D03*
Y254626D02*
D03*
Y256594D02*
D03*
X149409D02*
D03*
Y254626D02*
D03*
Y252658D02*
D03*
Y250689D02*
D03*
Y248720D02*
D03*
Y246752D02*
D03*
Y313681D02*
D03*
Y315650D02*
D03*
Y317618D02*
D03*
Y319587D02*
D03*
Y321555D02*
D03*
Y323524D02*
D03*
X133268D02*
D03*
Y321555D02*
D03*
Y319587D02*
D03*
Y317618D02*
D03*
Y315650D02*
D03*
Y313681D02*
D03*
D48*
X179429Y125896D02*
D03*
Y118593D02*
D03*
Y192825D02*
D03*
Y185522D02*
D03*
Y259754D02*
D03*
Y252451D02*
D03*
Y326683D02*
D03*
Y319380D02*
D03*
D49*
X173031Y122244D02*
D03*
X185827D02*
D03*
X173031Y189173D02*
D03*
X185827D02*
D03*
X173031Y256102D02*
D03*
X185827D02*
D03*
X173031Y323031D02*
D03*
X185827D02*
D03*
D50*
X438105Y38427D02*
D03*
Y50238D02*
D03*
X529921Y20276D02*
D03*
Y32087D02*
D03*
X574370Y28750D02*
D03*
Y16939D02*
D03*
Y35640D02*
D03*
Y47451D02*
D03*
X483661Y44882D02*
D03*
Y56693D02*
D03*
D51*
X557441Y51388D02*
D03*
X546024D02*
D03*
D52*
X591693Y18908D02*
D03*
X584606D02*
D03*
X582638Y54341D02*
D03*
X589724D02*
D03*
X492913Y41929D02*
D03*
X500000D02*
D03*
X454724Y17323D02*
D03*
X447638D02*
D03*
D53*
X60827Y99804D02*
D03*
X66732D02*
D03*
X60827Y166733D02*
D03*
X66732D02*
D03*
X60827Y233662D02*
D03*
X66732D02*
D03*
X152559Y99705D02*
D03*
X146653D02*
D03*
X152559Y166634D02*
D03*
X146653D02*
D03*
X152559Y233563D02*
D03*
X146653D02*
D03*
X66732Y300591D02*
D03*
X60827D02*
D03*
X146653Y300492D02*
D03*
X152559D02*
D03*
D54*
X120079Y101969D02*
D03*
X112992D02*
D03*
X120079Y168898D02*
D03*
X112992D02*
D03*
X120079Y235827D02*
D03*
X112992D02*
D03*
X120079Y302756D02*
D03*
X112992D02*
D03*
D57*
X177559Y220079D02*
D03*
X75197D02*
D03*
Y353937D02*
D03*
X177559Y287008D02*
D03*
X75197D02*
D03*
X277953Y17323D02*
D03*
X75197Y86221D02*
D03*
X177559Y153150D02*
D03*
X75197D02*
D03*
X279921Y283071D02*
D03*
X277953Y105905D02*
D03*
X396063Y194488D02*
D03*
Y283071D02*
D03*
X277953Y194488D02*
D03*
X396063Y17323D02*
D03*
X177559Y86221D02*
D03*
Y353937D02*
D03*
X394094Y371654D02*
D03*
X396063Y105905D02*
D03*
X279921Y371654D02*
D03*
D58*
X41172Y47303D02*
D03*
Y52303D02*
D03*
Y57303D02*
D03*
X53692D02*
D03*
Y52303D02*
D03*
Y47303D02*
D03*
X67913Y26516D02*
D03*
Y31516D02*
D03*
Y36516D02*
D03*
X80433D02*
D03*
Y31516D02*
D03*
Y26516D02*
D03*
D59*
X616043Y269291D02*
D03*
Y277165D02*
D03*
Y285039D02*
D03*
X599311Y269291D02*
D03*
Y277165D02*
D03*
Y285039D02*
D03*
X616043Y300787D02*
D03*
Y308661D02*
D03*
Y316535D02*
D03*
X599311Y300787D02*
D03*
Y308661D02*
D03*
Y316535D02*
D03*
X616043Y292913D02*
D03*
X599311D02*
D03*
D60*
X587126Y373248D02*
D03*
X622165Y373248D02*
D03*
X587126Y363248D02*
D03*
X622165Y363248D02*
D03*
Y343248D02*
D03*
Y353248D02*
D03*
X587126Y353248D02*
D03*
X587126Y343248D02*
D03*
D61*
X526142Y51388D02*
D03*
X537953D02*
D03*
X428543Y366732D02*
D03*
X440354D02*
D03*
D62*
X503346Y30709D02*
D03*
Y23622D02*
D03*
D63*
X451523Y48067D02*
D03*
X454082D02*
D03*
X456641D02*
D03*
X459200D02*
D03*
X461759D02*
D03*
Y66571D02*
D03*
X459200D02*
D03*
X456641D02*
D03*
X454082D02*
D03*
X451523D02*
D03*
X497783Y55283D02*
D03*
X500342D02*
D03*
X502901D02*
D03*
X505460D02*
D03*
X508019D02*
D03*
Y73787D02*
D03*
X505460D02*
D03*
X502901D02*
D03*
X500342D02*
D03*
X497783D02*
D03*
X439173Y337795D02*
D03*
X441732D02*
D03*
X444291D02*
D03*
X446850D02*
D03*
X449409D02*
D03*
Y356299D02*
D03*
X446850D02*
D03*
X444291D02*
D03*
X441732D02*
D03*
X439173D02*
D03*
D64*
X465893Y52201D02*
D03*
Y54760D02*
D03*
Y57319D02*
D03*
Y59878D02*
D03*
Y62437D02*
D03*
X447389D02*
D03*
Y59878D02*
D03*
Y57319D02*
D03*
Y54760D02*
D03*
Y52201D02*
D03*
X512153Y59417D02*
D03*
Y61976D02*
D03*
Y64535D02*
D03*
Y67094D02*
D03*
Y69653D02*
D03*
X493649D02*
D03*
Y67094D02*
D03*
Y64535D02*
D03*
Y61976D02*
D03*
Y59417D02*
D03*
X435039Y352165D02*
D03*
Y349606D02*
D03*
Y347047D02*
D03*
Y344488D02*
D03*
Y341929D02*
D03*
X453543D02*
D03*
Y344488D02*
D03*
Y347047D02*
D03*
Y349606D02*
D03*
Y352165D02*
D03*
D65*
X456641Y57319D02*
D03*
X502901Y64535D02*
D03*
D66*
X449862Y122008D02*
D03*
X444862D02*
D03*
X439862D02*
D03*
X434862D02*
D03*
X449862Y100748D02*
D03*
X444862D02*
D03*
X439862D02*
D03*
X434862D02*
D03*
X110610Y55850D02*
D03*
X115610D02*
D03*
X120610D02*
D03*
X125610D02*
D03*
X110610Y77110D02*
D03*
X115610D02*
D03*
X120610D02*
D03*
X125610D02*
D03*
D67*
X444291Y347047D02*
D03*
D68*
X140354Y62290D02*
D03*
X147835D02*
D03*
Y51660D02*
D03*
X144095D02*
D03*
X140354D02*
D03*
D69*
X492520Y28150D02*
D03*
D70*
X488386Y32087D02*
D03*
Y30118D02*
D03*
Y28150D02*
D03*
Y26181D02*
D03*
Y24213D02*
D03*
X496654Y32087D02*
D03*
Y30118D02*
D03*
Y28150D02*
D03*
Y26181D02*
D03*
Y24213D02*
D03*
D71*
X60152Y317955D02*
D03*
Y251026D02*
D03*
Y184097D02*
D03*
Y117167D02*
D03*
D72*
X63991Y310278D02*
D03*
X61432D02*
D03*
X58873D02*
D03*
X56314D02*
D03*
Y325632D02*
D03*
X58873D02*
D03*
X61432D02*
D03*
X63991D02*
D03*
Y243349D02*
D03*
X61432D02*
D03*
X58873D02*
D03*
X56314D02*
D03*
Y258703D02*
D03*
X58873D02*
D03*
X61432D02*
D03*
X63991D02*
D03*
Y176419D02*
D03*
X61432D02*
D03*
X58873D02*
D03*
X56314D02*
D03*
Y191774D02*
D03*
X58873D02*
D03*
X61432D02*
D03*
X63991D02*
D03*
Y109490D02*
D03*
X61432D02*
D03*
X58873D02*
D03*
X56314D02*
D03*
Y124845D02*
D03*
X58873D02*
D03*
X61432D02*
D03*
X63991D02*
D03*
D73*
X52475Y314116D02*
D03*
Y316675D02*
D03*
Y319234D02*
D03*
Y321793D02*
D03*
X67829D02*
D03*
Y319234D02*
D03*
Y316675D02*
D03*
Y314116D02*
D03*
X52475Y247187D02*
D03*
Y249746D02*
D03*
Y252305D02*
D03*
Y254864D02*
D03*
X67829D02*
D03*
Y252305D02*
D03*
Y249746D02*
D03*
Y247187D02*
D03*
X52475Y180258D02*
D03*
Y182817D02*
D03*
Y185376D02*
D03*
Y187935D02*
D03*
X67829D02*
D03*
Y185376D02*
D03*
Y182817D02*
D03*
Y180258D02*
D03*
X52475Y113329D02*
D03*
Y115888D02*
D03*
Y118447D02*
D03*
Y121006D02*
D03*
X67829D02*
D03*
Y118447D02*
D03*
Y115888D02*
D03*
Y113329D02*
D03*
D74*
X149232Y30532D02*
D03*
X155532D02*
D03*
X149232Y36438D02*
D03*
X155532D02*
D03*
D75*
X98819Y312402D02*
D03*
Y300984D02*
D03*
Y245472D02*
D03*
Y234055D02*
D03*
Y178543D02*
D03*
Y167126D02*
D03*
Y111614D02*
D03*
Y100197D02*
D03*
D76*
X490709Y94302D02*
D03*
X492677D02*
D03*
X494646D02*
D03*
X500551D02*
D03*
X502520D02*
D03*
X504488D02*
D03*
Y114774D02*
D03*
X502520D02*
D03*
X500551D02*
D03*
X498583D02*
D03*
X496614D02*
D03*
X494646D02*
D03*
X492677D02*
D03*
X490709D02*
D03*
X498583Y94302D02*
D03*
X496614D02*
D03*
D77*
X507835Y97648D02*
D03*
Y103553D02*
D03*
Y105522D02*
D03*
Y111428D02*
D03*
X487362Y103553D02*
D03*
Y101585D02*
D03*
X507835D02*
D03*
Y99616D02*
D03*
X487362Y107491D02*
D03*
Y105522D02*
D03*
Y99616D02*
D03*
Y97648D02*
D03*
X507835Y109459D02*
D03*
Y107491D02*
D03*
X487362Y111428D02*
D03*
Y109459D02*
D03*
D78*
X497598Y104538D02*
D03*
D79*
X489567Y348819D02*
D03*
X491535D02*
D03*
X493504D02*
D03*
X495472D02*
D03*
X497441D02*
D03*
X499409D02*
D03*
X501378D02*
D03*
X503346D02*
D03*
X505315D02*
D03*
X507283D02*
D03*
X509252D02*
D03*
X511221D02*
D03*
X513189D02*
D03*
X515158D02*
D03*
X517126D02*
D03*
X519095D02*
D03*
X521063D02*
D03*
X523032D02*
D03*
X525000D02*
D03*
X526968D02*
D03*
X528937D02*
D03*
X530905D02*
D03*
X532874D02*
D03*
X534842D02*
D03*
X536811D02*
D03*
X538779D02*
D03*
X540748D02*
D03*
X542717D02*
D03*
X544685D02*
D03*
X546654D02*
D03*
X548622D02*
D03*
X550591D02*
D03*
X552559D02*
D03*
X554528D02*
D03*
X556496D02*
D03*
X558465D02*
D03*
Y264567D02*
D03*
X556496D02*
D03*
X554528D02*
D03*
X552559D02*
D03*
X550591D02*
D03*
X548622D02*
D03*
X546654D02*
D03*
X544685D02*
D03*
X542717D02*
D03*
X540748D02*
D03*
X538779D02*
D03*
X536811D02*
D03*
X534842D02*
D03*
X532874D02*
D03*
X530905D02*
D03*
X528937D02*
D03*
X526968D02*
D03*
X525000D02*
D03*
X523032D02*
D03*
X521063D02*
D03*
X519095D02*
D03*
X517126D02*
D03*
X515158D02*
D03*
X513189D02*
D03*
X511221D02*
D03*
X509252D02*
D03*
X507283D02*
D03*
X505315D02*
D03*
X503346D02*
D03*
X501378D02*
D03*
X499409D02*
D03*
X497441D02*
D03*
X495472D02*
D03*
X493504D02*
D03*
X491535D02*
D03*
X489567D02*
D03*
D80*
X566142Y341142D02*
D03*
Y339173D02*
D03*
Y337205D02*
D03*
Y335236D02*
D03*
Y333268D02*
D03*
Y331299D02*
D03*
Y329331D02*
D03*
Y327362D02*
D03*
Y325394D02*
D03*
Y323425D02*
D03*
Y321457D02*
D03*
Y319488D02*
D03*
Y317520D02*
D03*
Y315551D02*
D03*
Y313583D02*
D03*
Y311614D02*
D03*
Y309646D02*
D03*
Y307677D02*
D03*
Y305709D02*
D03*
Y303740D02*
D03*
Y301772D02*
D03*
Y299803D02*
D03*
Y297835D02*
D03*
Y295866D02*
D03*
Y293898D02*
D03*
Y291929D02*
D03*
Y289961D02*
D03*
Y287992D02*
D03*
Y286024D02*
D03*
Y284055D02*
D03*
Y282087D02*
D03*
Y280118D02*
D03*
Y278150D02*
D03*
Y276181D02*
D03*
Y274213D02*
D03*
Y272244D02*
D03*
X481890D02*
D03*
Y274213D02*
D03*
Y276181D02*
D03*
Y278150D02*
D03*
Y280118D02*
D03*
Y282087D02*
D03*
Y284055D02*
D03*
Y286024D02*
D03*
Y287992D02*
D03*
Y289961D02*
D03*
Y291929D02*
D03*
Y293898D02*
D03*
Y295866D02*
D03*
Y297835D02*
D03*
Y299803D02*
D03*
Y301772D02*
D03*
Y303740D02*
D03*
Y305709D02*
D03*
Y307677D02*
D03*
Y309646D02*
D03*
Y311614D02*
D03*
Y313583D02*
D03*
Y315551D02*
D03*
Y317520D02*
D03*
Y319488D02*
D03*
Y321457D02*
D03*
Y323425D02*
D03*
Y325394D02*
D03*
Y327362D02*
D03*
Y329331D02*
D03*
Y331299D02*
D03*
Y333268D02*
D03*
Y335236D02*
D03*
Y337205D02*
D03*
Y339173D02*
D03*
Y341142D02*
D03*
D81*
X584055Y46624D02*
D03*
X589055D02*
D03*
X594055D02*
D03*
X599055D02*
D03*
X604055D02*
D03*
X584055Y41624D02*
D03*
X589055D02*
D03*
X594055D02*
D03*
X599055D02*
D03*
X604055D02*
D03*
X584055Y36624D02*
D03*
X589055D02*
D03*
X594055D02*
D03*
X599055D02*
D03*
X604055D02*
D03*
X584055Y31624D02*
D03*
X589055D02*
D03*
X594055D02*
D03*
X599055D02*
D03*
X604055D02*
D03*
X584055Y26624D02*
D03*
X589055D02*
D03*
X594055D02*
D03*
X599055D02*
D03*
X604055D02*
D03*
D82*
X517126Y19488D02*
D03*
Y30906D02*
D03*
X163898Y51181D02*
D03*
Y62598D02*
D03*
X98425Y47835D02*
D03*
Y59252D02*
D03*
X436417Y19488D02*
D03*
Y30906D02*
D03*
D83*
X585197Y202766D02*
D03*
X581260Y214971D02*
D03*
X583228D02*
D03*
X585197D02*
D03*
X583228Y202766D02*
D03*
X581260D02*
D03*
X587165Y214971D02*
D03*
Y202766D02*
D03*
D132*
X492520Y28150D02*
D03*
D133*
X564961Y369094D02*
D03*
M02*
