M48
;Layer_Color=9474304
;FILE_FORMAT=4:4
METRIC,LZ
;TYPE=PLATED
T1F00S00C0.2000
T2F00S00C0.3000
T3F00S00C0.8500
T4F00S00C0.9000
T5F00S00C1.0000
T6F00S00C1.5000
T7F00S00C1.7000
T8F00S00C2.7940
T9F00S00C3.2000
;TYPE=NON_PLATED
T10F00S00C1.0000
%
T01
X001595Y0003625
X00155032Y00041299
X00150532Y00046299
X0014675Y0005175
X00160914Y00066941
X00160406Y00079387
X00216486Y00079336
X0023875Y00082512
Y00075988
X00205364Y00102247
X0017653Y00130302
X00181102Y00135382
X00155178Y0013285
X00092264Y00133955
X00086106Y00137922
X00078994Y00121158
X00092264Y00118955
X00101854Y00211836
X00137786Y00217605
X00245286Y00220105
X00285286Y00217605
Y00222605
X00292786
X00290286Y00217605
X00292786Y00207605
X002725Y00197605
X00275Y00176
X00265Y00167892
X00295286Y00160105
X00307786Y0015336
X00335286Y00152605
X00345802Y00185105
X00345286Y00192605
X00351855Y00191392
X003275Y00195105
X00305286Y00180105
X00297786Y00217605
X00302786Y00122605
X00317786Y00105105
X00325286
X00332786
X00330286Y00100105
X00322786
X0037905Y00103752
X00397786Y00130105
X00392786Y00162605
X00397786Y00220105
X00502786Y00217605
X00562786Y00160105
X00580286Y00145105
X00602785Y00140107
X00597786Y00132605
X00602786Y00160105
X00640286
X00659Y0015825
X0067148Y0016542
X00662776Y00185526
X00659Y0020575
X0066875Y00205526
X00635286Y00210105
X00620286Y00225105
X0065225Y00127
X006585Y001105
X00642786Y00050105
X00470286Y00092605
X00435286Y00077605
X00362542Y00065942
X003565Y00062332
X00351024Y0005841
X00346198Y00053838
X0071Y00091
X0071907Y00090668
X00729365Y00097675
X0073597Y00097675
X00755Y0009575
X00765Y0009575
X00776062Y00091073
X00783563Y00091823
X0079025Y000925
X00805Y000905
X0081025Y0009525
X0081975Y0009
X00824362Y00098945
X00824Y001105
X00817622Y00120982
X0082625Y0012575
X0082375Y0014775
X0081775Y001675
Y00173814
X00826974Y00195526
X00826Y002065
X008105Y0021625
X00805Y0022025
X00815314Y0022108
X0078025Y0021575
X00774562Y00211829
X0075Y0022075
X0073781Y00218079
X0074Y002115
X007265Y002195
X007125Y00215
X00705Y002125
Y002185
X006995Y00146526
Y00139526
X007145Y00127476
Y0012
Y001125
X00695224Y00115526
X0075Y00135526
Y00145526
X0074
Y00155526
X0075
Y00165526
X0074
X0075Y00175526
X0076
Y00165526
Y00155526
Y00145526
Y00135526
X0077
Y00145526
X0078
Y00155526
X0077
Y00165526
Y00175526
X0078Y00165526
X00851Y001715
X008495Y00158
Y00138
X00860548Y0012276
X00870454Y00125808
X00874264Y0013292
X008815Y001495
X0087375Y0016275
X008735Y0017275
X00894838Y00173306
X00895Y00163026
X0090875Y00158
X00913Y00153
X00908819Y00147826
X0091084Y00135968
X009264Y00135526
Y00145526
Y00155526
Y00165526
Y00175526
X009364
Y00165526
Y00155526
Y00145526
Y00135526
X009464
X009564
X009664
Y00145526
X009564
X009464
Y00155526
X009564
Y00165526
X009464
Y00175526
X009564
X009664
Y00165526
Y00155526
X009835Y0014775
X00982976Y00140286
X00982822Y00120075
X00974086Y00118696
X00964662Y0011939
X00958138
X009489Y00118148
X00945Y00083
X00932
X00911094Y00090756
X00893568Y00100916
X008899Y001195
X00863478Y00107327
X00870708Y00092788
X008775Y000925
X00895346Y00076532
X00942498Y00055
X009525Y00055
X0097625Y0008475
X00995823Y00102573
X01017774Y0010879
X0102387Y0011133
X01022824Y0012089
X0101498Y00122252
X01018Y0013925
X010185Y001485
X01019Y001755
Y0018425
X0101308Y0019942
X01018028Y002046
X00996946Y00199468
X00999486Y00219026
X00988121Y00214371
X0097449Y00228646
X00960285Y00227607
X00959Y001935
X0095375Y0018875
X00944Y001915
X0093382Y00191578
X0092675Y0019
X009085Y00188
X0090875Y00178
X009095Y001675
X0090275Y002005
X009139Y0020735
X00924Y0020825
X00919Y0021375
X008956Y00229186
X0087515Y0020035
X00858869Y0019959
X008585Y001915
Y00209
X0097325Y0019325
X00980072Y00193078
X00984Y00168
X009972Y00174726
X009979Y00160667
X01038094Y00164924
X01046476Y00181942
X01052572Y00147144
X010382Y00136222
X01053588Y0012149
X01070286Y00105105
Y00060105
X01062786Y00057605
X01082786
X01087786
X010839Y00210527
X010664Y00228082
X01051302Y00219026
X01041142
X0103325
X00739Y00063276
X010935Y00057605
X01120286Y00060105
X01125284Y00060107
X01131885Y00100105
X011189Y00110526
X011014Y00113026
X010945Y00097605
X01105284Y00137607
X01147368Y0013309
X01153868Y0013859
X01159868Y0013309
Y0014559
X01153868Y0015159
X01165868
Y0013959
X01172368Y0014559
Y0015809
X01159868
X01147368
Y0014559
X01172368Y0013309
X01172786Y00112605
X01157786
Y00105105
X012039Y00100527
X01208317Y00095868
X01210284Y00112607
X01227786Y00102605
X01230286Y00080105
Y000715
X012345Y00057605
X012615Y00087
X01262786Y00097605
X01278Y00105105
X01288892Y00099
X01289392Y00086
X01282286
X01315284Y00092607
X01315829Y00115506
X01325286Y00130105
X013464Y00130526
X01402786
X01430286Y00130105
X01480286Y001495
Y00035105
X01485286
X01355286
X01347786Y00037605
X01332786
X01322786Y00035105
X01310286
X01299667Y00035667
X01289868Y0015142
Y0016392
X01283368Y0016992
Y0015792
X01277368Y0016392
X01271368Y0016992
X01277368Y0017642
X01289868
X01304906Y0018269
X01297786Y00192605
X0128725Y0021475
X01307786Y00217605
X01272241Y00223987
X01267035Y00228026
X01260765
X01257786Y00202605
X01250286
X01265286
X01264868Y0017642
Y0016392
Y0015142
X01271368Y0015692
X01277368Y0015142
X01310286Y00160105
X01211Y00174
X01192784Y00157607
X01192786Y00192605
X011735Y001915
X01155286Y00182605
X01160286Y00227605
X01180286Y00215105
X01127286Y00225105
X01097786Y00217605
X01098Y00212095
Y00206611
X01102786Y00205105
X01105286Y00210105
X01520286Y00170105
X01530286
X01540286
X01537786Y00162605
X01547786
X01550286Y00170105
X01525286Y00162605
X01510307Y00150085
X01512786Y00098298
X01525286Y00097605
X01535286Y00100105
X015439Y00102605
X0154265Y00085105
X01540286Y00075105
X01527786
Y00085105
Y00112605
X01540284Y00125107
X01560286Y00107605
X01557784Y00060107
X01550286Y00060105
X01537786Y00061776
X01559513Y00049239
X01570101Y00044049
X01577101Y00045299
X01580602Y00039299
X01585484Y00034742
X01572615Y00053979
X01520286Y00035105
X01514725
X01492786
X01490286Y00075105
X01491087Y00085906
X01490286Y00099812
X015014Y00283026
X014914Y00295526
X015089Y00330526
Y00343026
X015114Y00390526
X014939Y00385526
X015064Y00448026
Y00458026
X014989Y00488026
X0149875Y00518
X01496605Y00531297
X014914Y00536502
X015139Y00538026
X01488899Y00558026
X014864Y00565526
X015035Y0061825
X014495
X014525Y0057975
X014375Y00571499
X01428868Y0057659
X01415286Y00577605
Y00597605
X0141775Y0053925
X014405Y00541
X01443Y0053425
X014564Y00540526
X01462625Y005555
X01478Y00566
X014789Y00588026
X01481547Y00504345
X0147864Y00498026
X01480444Y00490613
X0147852Y00480097
X014685Y004865
Y005015
X01466Y005125
X01461Y00494
X014535Y005015
Y004865
Y004715
X014514Y00460526
X014414
X014385Y004715
X01446Y00479
X014385Y004865
X01446Y00494
X014385Y005015
X01442598Y00511949
X014314Y0051152
X014064Y00498026
X0140875Y0048375
X014114Y00460526
X014264Y00475526
X01461Y00479
X014685Y004715
X01478096Y0046052
X014664Y00430526
X014564Y00433026
X01446Y00425126
X01447286Y00410605
X01430286Y00410105
X014214Y00395526
X01415Y00384
X014039Y00390526
X013989Y00358026
X013939Y00343026
X013839Y00323026
X013789Y00313026
X013589Y00293026
X013564Y00285526
X01318899Y00283027
X01312289Y00283026
X01310286Y00312605
X012985Y003215
X0129Y00316926
X012875Y00329
X0128Y003365
X012875Y00344
X0128Y003515
X012875Y00359
X012725
X012575
X01265Y003515
X012575Y00344
X012725
Y00329
X01270741Y00318742
X012589Y00318026
X012575Y00329
X01265Y003365
X012464Y00335526
Y00320526
X01236Y00298
X0122975Y0029
X012164Y00293027
X012114Y00288026
X012114Y00258027
X01205606Y00252232
X012289Y00267391
Y00273661
X0124649Y0027699
X01242694Y00283046
X012584Y00271026
Y00260026
X012694
X01268899Y00250527
X01260765Y00250526
X01252Y00248
X0124625Y0022975
X01290286Y00232605
X012904Y00243026
X012964Y00258026
X013039
X013125Y00245
X013115Y0023625
X013164Y00230526
X01281224Y00268026
X012694Y00271026
X01263662Y002994
X01297786Y00335105
X012985Y00351501
X012985Y003665
X012814Y0036902
X012845Y0039775
X01289182Y00403237
X0126925Y0039675
X0125575Y0039575
X0124125Y003985
X0122225Y0040175
X012289Y00372474
Y00355526
X012285Y003415
X01180284Y00387606
X01164332Y00384292
X01157728
X0116025Y00401
X01159331Y00408817
X0114775Y0041
Y00417
X0114325Y00440934
X01142488Y00449824
X0114Y00466592
X01140456Y00473136
X01136868Y0048159
Y0049159
X011425Y0048675
X01147868Y0048159
Y0049225
Y0050259
X011425Y0049775
X01136868Y0050259
X011535Y0049775
X01158868Y0050259
X01168868Y0050359
X01173868Y0050859
X0119Y00504
Y0049725
Y0048725
X01189997Y00479997
X01189478Y00467604
X01195456Y00462927
X012139Y00458026
X01218353Y00451506
X012139Y00445526
X012064Y00440526
X012014Y00432044
X0123875Y0042925
X0125975Y0043125
X01265741Y00427997
X012689Y00440526
X012589
X0125625Y0041675
X0128475Y0043025
X01311Y0043575
X01329322Y00429322
X012964Y00475526
Y00490526
X01297784Y00505106
X01286Y00499
X01271
X01276741Y004915
X01271Y00484
X01276741Y00476499
X01271Y00469
X01286
Y00484
X012575
X012635Y004765
X01256Y00469
X0124261Y0048175
X01229876Y004765
X01227489Y004865
X01230489Y00501501
X01215132Y00503
X01217877Y00496519
X01214506Y00512203
X0119024Y00517134
X0119425Y00537
X01172786Y00535105
X01168Y0054
X01160997Y00539997
X01152Y0054
X011444Y00541
X01141409Y0053477
X0111785Y00530596
X01108334Y00530745
X010997Y005286
X01099Y00539452
X0109372Y00545328
X0110388Y00549392
X01109214Y00553964
X01097786Y00580105
Y00587605
X01102786Y00590105
X01100286Y00595105
X011129Y00594734
X0111785Y00599684
X01139436Y00579361
X01134487Y00574411
X01163Y00573014
X0117
X01156966Y00563616
X012089Y00560526
X012139Y00555526
X012345Y0053025
X01243Y0053775
X0124875Y0054175
X01263741Y00536752
X012585Y00529392
X01274741Y00543253
X01287784Y00540106
X01294477Y00550105
X01307786Y00540105
X0133125Y0053725
X01279801Y0050998
X01256Y00499
X012635Y004915
X012289Y00460526
X01176778Y0045719
X01161284Y00467096
X01153Y00463696
X011535Y0048675
X01158868Y0049159
Y0048159
X01099Y0048225
X01099009Y0048877
X01105Y00492
X010989Y00500526
X0109863Y00515256
X0110515Y0051434
X01098695Y00466
X011Y004594
X01114294Y00460492
X01121588Y00428804
X01097786Y00407605
Y00397605
X01110286Y00390105
X01142784Y00392606
X01125038Y00355555
X01125284Y00330106
X011314Y00324765
X011363Y00319985
X01135286Y00310105
X01147786
X01122786
X010961Y00312605
X01110286Y00277605
X011236Y00280105
X01130286
X01132786Y002454
X01142786Y00243714
X011511Y00255105
X0111725Y00245105
X01097786Y002574
X014175Y00289
X014414Y00293026
X014489Y00283026
X014639Y00278026
Y00271756
X01465Y00309
X014685Y003215
X01461Y00329
X014535Y003215
X01446Y00329
X014385Y003215
X014425Y0031052
X014385Y003365
X014275Y00334
X01446Y00344
X014385Y003515
X014535
X01461Y00344
X014685Y003515
Y003365
X014535
X014514Y00390526
X014425Y00394
X014389Y00385526
X01465Y003965
X014339Y00433026
X014264
X01442786Y0024325
X01482786Y0024425
X013264Y00615526
X012914
X012839Y00618026
X01275286Y00615105
X01270286Y00610105
X012589Y00610526
X012539Y00615526
X012489Y00620526
X0123849Y00620507
X01234531Y00626161
X01262786Y00600105
X01280286
X01285286Y00607605
X01052572Y00597144
X010382Y00586222
X01018Y0058925
X010185Y005985
X01019Y006255
X009972Y00624726
X00999486Y00609336
X00984Y00618
X009664Y00615526
X009564
Y00625526
X009464
X009364
Y00615526
X009464
Y00605526
X009564
Y00595526
X009464
X009364
Y00605526
X009264
Y00595526
Y00585526
X009364
X009464
X009564
X009664
Y00595526
Y00605526
Y00625526
X009264
Y00615526
X009095Y006175
X0090875Y00608
X00913Y00603
X00908819Y00597826
X0091084Y00585968
X008925Y005675
X00893568Y00550916
X008825Y00541442
X00875223
X00867786Y0055577
X00870454Y00575808
X00874264Y0058292
X008815Y005995
X0087375Y0061275
X008735Y0062275
X00894838Y00623306
X00895Y00613026
X008495Y00608
X00851Y006215
X008495Y00588
X00860548Y0057276
X0082625Y0057575
X00817622Y00570982
X00824Y005605
X00826Y00542605
X0081975Y0054
X0081025Y0054525
X00805Y005405
X0079011Y005425
X00783563Y00541823
X00776062Y00541073
X00765Y0054575
X00755Y0054575
X0073597Y00549541
X00729365Y00549541
X0071907Y00540756
X0071Y00541
X007145Y00554
Y00560803
Y00567605
X00695224Y00565526
X006995Y00589526
Y00596526
X0074Y00595526
X0075
Y00605526
X0076
Y00615526
X0075
X0074
Y00605526
Y00625526
X0075
X0076
X0077
Y00615526
Y00605526
Y00595526
X0076
Y00585526
X0077
X0078
Y00595526
Y00605526
Y00615526
Y00625526
X0081775Y00623814
X008175Y006175
X0082375Y0059775
X0075Y00585526
X0074
X00739Y00513276
X00760286Y00492605
X00775868Y0048459
X0078075Y0047875
X0077025
X00798826Y0047857
X0082175Y0047425
X008245Y0045825
X00815314Y0044608
X008105Y0044125
X00805Y0044525
X0078025Y0044075
X00774562Y00436829
X0075Y0044575
X0073781Y00443079
X0074Y004365
X007265Y004445
X0071Y004425
X00705Y004435
X007075Y004375
X00715059Y00472831
X00721Y004765
X00726Y004715
X00735326Y00472982
X00692308Y00469081
X006995Y00371526
Y00364526
X007125Y0035
X007145Y00342605
Y00335803
X00695224Y00340526
X0071Y00316
X0071907Y00315712
X00729366Y00321195
X00735716Y00321449
X00755Y0032075
X00765Y0032075
X00776062Y00316073
X00783563Y00316823
X0079011Y003175
X00805Y003155
X0081025Y0032025
X0081975Y00315
X0082487Y00322325
X00824Y003355
X00817622Y00345982
X0082625Y0035075
X0082375Y0037275
X0081775Y003925
Y00398814
X00826974Y00420526
X00826Y004315
X008585Y00434
Y004165
X0087515Y0042535
X0090275Y004255
X009139Y0043235
X00924Y0043325
X00919Y0043875
X0092675Y00415
X0093382Y00416578
X00944Y004165
X0095375Y0041375
X00959Y004185
X0097325Y0041825
X00980072Y00418078
X00996946Y00424468
X0101308Y0042442
X01018028Y004296
X01019Y0040925
Y004005
X009972Y00399726
X00999486Y00384336
X00984Y00393
X009664Y00390526
X009564
Y00380526
Y00370526
Y00360526
X009464
X009364
X009264
Y00370526
Y00380526
Y00390526
Y00400526
X009364
Y00390526
Y00380526
Y00370526
X009464
Y00380526
Y00390526
Y00400526
X009564
X009664
Y00380526
Y00370526
Y00360526
X00964662Y0034439
X00958138
X009489Y00343148
X00974086Y00343696
X00982822Y00345075
X00982976Y00365286
X009835Y0037275
X010185Y003735
X01018Y0036425
X0101498Y00347252
X01022824Y00345825
X0102387Y0033633
X0102387
X00995823Y00327573
X0097625Y0030975
X00945Y00308
X00932
X00911094Y00315756
X00893568Y00325916
X0089Y003425
X00870454Y00350808
X00874264Y0035792
X008815Y003745
X0087375Y0038775
X008735Y0039775
X00894838Y00398306
X00895913Y00388026
X0090875Y00383
X00913Y00378
X00908819Y00372826
X0091084Y00360968
X009095Y003925
X0090875Y00403
X009085Y00413
X008956Y00454186
X00895Y00465
X0088
X0088036Y00459266
X00862868Y0047459
X00846778Y004595
X00837868Y0046759
X00851Y003965
X008495Y00383
Y00363
X00860548Y0034776
X00859724Y00340526
X00866018Y00332371
X00870708Y00317788
X008775Y003175
X00895346Y00301532
X00895Y0024
X0088
X0088036Y00234266
X008482Y0023459
X00836868Y0024159
X008245Y0023325
X0082175Y0024925
X00798826Y0025357
X0078075Y0025375
X0077025
X00774868Y0026159
X00762786Y00277605
X00739Y00288276
X00735326Y00247982
X00726Y002465
X00721Y002515
X00715059Y00247831
X00692308Y00244081
X00695286Y00290105
X0075Y00360526
Y00370526
X0074
Y00380526
X0075
Y00390526
X0074
X0075Y00400526
X0076
Y00390526
Y00380526
Y00370526
Y00360526
X0077
Y00370526
X0078
Y00380526
X0077
Y00390526
Y00400526
X0078Y00390526
X00862868Y0024959
X00949194Y00235282
X00966337Y00237605
X00982786Y00252605
X0098878Y00251612
X00995286
X01013964Y00232908
X01046476Y0024214
X0105347Y00242709
X01052786Y00250105
X01057786Y00247605
X01060286Y00252605
X010714Y00243026
X010789Y00240527
X010839Y00233027
X01057786Y00272605
X01002786Y00285105
X009525Y002825
X009425
X010382Y00361222
X01052572Y00372144
X01056Y00382605
X01038094Y00389924
X01046476Y00406942
X01051302Y00444026
X01041142
X0103325
X01015968Y0046
X01010286Y00477605
X01Y00475
X00992256Y00475627
X00982858Y00475881
X00965797Y00465616
X0096875Y0045325
X00958868Y00453589
X00948868Y0045259
X00949194Y00460282
X00952786Y00492605
X009525Y0051
X009425
X00945Y00533
X00932
X00922786Y00545105
X00911094Y00540756
X00895346Y00526532
X009775Y005275
X0097625Y0053475
X00974086Y00568696
X00982822Y00570075
X00964662Y0056939
X00958138
X009489Y00568148
X00982976Y00590286
X009835Y0059775
X0101498Y00572252
X01022824Y00570825
X0102387Y0056133
X01017774Y0055879
X00995823Y00552573
X01067786Y00552605
X01068264Y00542534
X01061264
X01053588Y0057149
X01038094Y00614924
X01070606Y00503418
X01069392Y0049656
X01076392
X0108356Y004737
X01046476Y0046714
X00999486Y00444026
X00988223Y00445
X0098878Y00438797
X01053588Y0034649
X006585Y003355
X0065225Y00352
X00659Y0038325
X0067148Y0039042
X00662776Y00410526
X00659Y0043075
X0066875Y00430526
X00637785Y00437606
X00636805Y0045708
X00652786Y00492605
X006185Y00500105
X00613868Y00505852
Y00512376
X0058875Y005125
X0058825Y0050395
X0058425Y00495
Y0051925
X005595
X005395
X0053925Y0050775
Y00495
X0053875Y0048175
X00544749Y00455751
X00516749
X0048425Y0045625
X0048975Y0046375
X005065Y004815
X00507Y0049475
X0050625Y005075
X0050675Y0051925
X00502786Y00557605
X00517251Y00587749
X00545251
X00544749Y00625751
X00516749
X0048425Y0062625
X00453Y00626
X0042525Y0062575
X00425Y0058875
X004535Y00587
X00484751Y00587249
X003955Y005935
X0038875Y006015
X0039825Y0060875
X00384Y0062225
X00376498Y00616747
X00362542Y00611818
X003565Y0060675
X003515Y0061175
X00368Y00583
X003875Y00585
X00397786Y00557605
X00387786Y00520851
X00380286
X00372786
X00345286
X00337786
X00330286
X0034275Y004945
X00330041Y0047857
X00331541Y0046407
X003315Y0045675
X003515Y0044175
X003565Y0043675
X00362542Y00441818
X00376498Y00446747
X00384Y0045225
X004Y004565
X0039825Y0043875
X0038875Y004315
X003955Y004235
X003875Y00415
X00368Y00413
X00395286Y00387605
X00387786Y00350851
X00379608Y00351167
X00372786Y00350851
X00345286
X00337786
X00330286
X0034275Y003245
X00330041Y0030857
X00331541Y00294069
X003315Y0028675
X003515Y0027175
X003565Y0026675
X003465Y002665
X00362542Y00271818
X00376498Y00276747
X00384Y0028225
X004Y002865
X0039825Y0026875
X0038875Y002615
X003955Y002535
X003875Y00245
X00425Y0024875
X004535Y00247
X00484751Y00247249
X00517251Y0024775
X00545251
X00544749Y00285751
X00516749
X0048425Y0028625
X0048975Y0029375
X005065Y003115
X00506608Y00325005
X0050625Y003375
X00506354Y00349643
X00538866Y00349135
X0053925Y0033775
X0053912Y00325005
X0053875Y0031175
X00558932Y00325005
X0055817Y00349135
X00584586Y00349389
X00589158Y00345325
X00589412Y00334657
X00584332Y00325005
X00595286Y00310105
X00602786
X00620286Y00330105
X00614868Y00336115
X00614869Y0034359
X00621Y00397605
X00545251Y00417749
X00517251
X00484751Y00417249
X004535Y00417
X00425Y0041875
X0042525Y0045575
X00425Y0046325
X00453Y00456
X00405Y0048325
X00387044Y0047607
X00304875Y00439625
X003135Y00429
X0030475Y00418
X00304875Y00269625
X003135Y00259
X0030475Y00248
X00387044Y0030607
X00405Y0031325
X00425Y0029325
X0042525Y0028575
X00453Y00286
X00575286Y00280105
X00587786
X00580286Y00265105
X00636893Y00266712
X00637785Y00272606
X00640286Y00260105
X00636805Y0023208
X00689308Y00250581
Y00475581
X006585Y005605
X0065225Y00577
X00659Y0060825
X0067148Y0061542
X00616681Y00565105
X005595Y0049475
X00505286Y00390105
X0030475Y00588
X003135Y00599
X00304875Y00609625
X0028675Y0061125
X0027075Y00611
X00287Y0058675
X00244061Y005565
X00209038Y00582666
X0021025Y006025
X001995Y0062225
X00156748Y0060625
X00146Y00594
X0012975Y006135
X0010925Y0061375
X00073914Y0061468
X00139061Y00559
X00156Y005065
X00171
X00162786Y00477605
Y00467605
X00152786
X00142786
Y00477605
X00152786
Y00457605
X00142786
X00162786
X00178825Y00464355
X0019975Y0046075
X001995Y0045225
X0020975Y00432
X00209292Y00412486
X00244061Y003865
X00287Y0041675
X0028675Y0044125
X0027075Y00441
X00156748Y0043625
X00146Y00424
X0012975Y004435
X0010925Y0044375
X00078486Y0045212
X0007874Y00477266
X00099314Y00492506
X00099822Y00501396
X0009906Y00381254
X00139061Y00389
X00156Y003365
X00171
X00162786Y00307605
Y00297605
X00152786
X00142786
Y00307605
X00152786
Y00287605
X00142786
X00162786
X00178825Y00294355
X0019975Y0029075
X001995Y0028225
X0021025Y002615
X00210054Y0024256
X00215286Y00241798
X00207786Y00237605
X00146Y00254
X00156748Y0026625
X0012975Y002735
X0010925Y0027375
X00086106Y00280162
X00085598Y00289052
X00099822Y00321818
X00100076Y00331724
X0027075Y00271
X0028675Y0027125
X00287Y0024675
X0019975Y0063075
X00178825Y00634355
X00162786Y00637605
X00152786
X00142786
Y00647605
X00152786
X00162786
Y00627605
X00152786
X00142786
X00156Y006765
X00171
X00099314Y00672592
X00099568Y00663448
X00073914Y00642366
X00077724Y00785622
X00076454Y00810006
X00099568Y00828548
Y008382
X00099822Y0089154
X00137786Y009015
X00156Y008465
X00171
X00162786Y00817605
X00152786
X00142786
Y00807605
Y00797605
X00152786
X00162786
Y00807605
X00152786
X00178533Y00805836
X0019975Y0080075
X001995Y0079225
X0020975Y0077325
X002098Y0075183
X00242786Y00729
X00287Y0075675
X0028675Y0078125
X0027075Y00781
X00156748Y0077625
X00146Y00764
X0012975Y007835
X0010925Y0078375
X00137786Y007315
X00242786Y00899
X00072278Y00941593
X00071528Y00948343
X00329288Y00860359
X00336788
X00344288
X0034275Y008345
X00330041Y0081857
X00331541Y0080407
X003315Y0079675
X003515Y0078175
X003565Y0077675
X003465Y007765
X00362542Y00781818
X00376498Y00786747
X00384Y0079225
X004Y007965
X0039825Y0077875
X0038875Y007715
X003955Y007635
X003875Y00755
X00395286Y00727605
X00387786Y00690105
X00380286
X00372786
X00345286
X00337786
X00330286
X0034275Y006645
X00330041Y0064857
X00331541Y0063407
X003315Y0062675
X004Y006265
X00425Y0063325
X00405Y0065325
X00387044Y0064607
X0048975Y0063375
X005065Y006515
X00506608Y00664857
X0050625Y006775
X00506608Y00689241
X00539374
X0053925Y0067775
X00539374Y00665111
X0053875Y0065175
X00557154Y00665111
X00556392Y00689241
X00584332
X0058875Y006825
X005887Y00675525
X00584332Y00664857
X00619181Y00670105
X00613868Y00676115
X00613869Y00683589
X00636805Y0068208
X00637785Y00662606
X00659Y0065575
X0066875Y00655526
X00662776Y00635526
X00689308Y00700581
X00614181Y00735105
X00545251Y00757749
X00517251
X00484751Y00757249
X004535Y00757
X00425Y0075875
X0042525Y0079575
X00425Y0080325
X00453Y00796
X0048425Y0079625
X0048975Y0080375
X005065Y008215
X00506862Y00835037
X0050625Y008475
X00506354Y00859167
X00538866Y00859421
X0053925Y0084775
X0053912Y00835037
X0053875Y0082175
X00544749Y00795751
X00516749
X00505286Y00727605
X00558424Y00835037
Y00859167
X00584332Y00859421
X0058875Y008525
X005887Y00845705
X00584332Y00834783
X00616681Y00840105
X00613868Y00846115
X00613869Y00853588
X00632786Y00885105
X00636805Y0090708
X00659Y0088075
X0066875Y00880526
X00662776Y00860526
X0067148Y0084042
X00659Y0083325
X0065225Y00802
X006585Y007855
X00657786Y00942605
X00689308Y00925581
X00502786Y008965
X00397786Y00899
X00392786Y00910105
X00386788Y00860359
X00379288
X00371788
X00387044Y0081607
X00405Y0082325
X00304875Y00779625
X003135Y00769
X0030475Y00758
X0071Y00766
X007175Y00765
X00729112Y00773823
X00735762Y00773415
X00739136Y00779262
X00745994
X00755Y0077075
X00765Y0077075
X00776062Y00766073
X00783563Y00766823
X0079011Y007675
X00805Y007655
X0081025Y0077025
X0081975Y00765
X00825124Y00772299
X00824Y007855
X00817622Y00795982
X0082625Y0080075
X0082375Y0082275
X0081775Y008425
Y00848814
X00826974Y00870526
X00826Y008815
X008105Y0089125
X00805Y0089525
X00815314Y0089608
X008245Y0090825
X0082175Y0092425
X00837868Y0091759
X00847Y0091059
X0083845Y00901944
X008585Y00884
Y008665
X0087515Y0087535
X0090275Y008755
X009139Y0088235
X00924Y0088325
X00919Y0088875
X00922524Y00865622
X0093327Y00864819
X00945384Y00866384
X00954782Y00863844
X00959354Y00868924
X0097325Y0086825
X00980072Y00868078
X00996946Y00874468
X0101308Y0087442
X01018028Y008796
X01019Y0085925
Y008505
X009972Y00849726
X009979Y00835291
X00984Y00843
X009664Y00840526
X009564
Y00830526
Y00820526
Y00810526
X009464
X009364
X009264
Y00820526
Y00830526
Y00840526
Y00850526
X009364
Y00840526
Y00830526
Y00820526
X009464
Y00830526
Y00840526
Y00850526
X009564
X009664
Y00830526
Y00820526
Y00810526
X00964662Y0079439
X00958138
X009489Y00793148
X00974086Y00793696
X00982822Y00795075
X00982976Y00815286
X009835Y0082275
X010185Y008235
X01018Y0081425
X0101498Y00797252
X01022824Y00795825
X0102387Y0078633
X01017774Y0078379
X00995823Y00777573
X0097625Y0075975
X00945Y00758
X00932
X00911094Y00765756
X00893568Y00775916
X0088Y007675
X00872498Y00767498
X00863732Y00782459
X00860548Y0079776
X00870454Y00800808
X00874264Y0080792
X008815Y008245
X0087375Y0083775
X008735Y0084775
X00894838Y00848306
X00895Y00838026
X0090875Y00833
X00913Y00828
X00908819Y00822826
X0091084Y00810968
X009095Y008425
X0090875Y00853
X009085Y00863
X008956Y00904186
X00895Y0091
X0088036Y00909266
X0088Y00915
X00862868Y0092359
X00817622Y00945886
X00811018Y00947156
X00805176Y00950966
X00798826Y0092857
X0078075Y0092875
X0077025
X00774868Y0093459
X00762786Y00942605
X00764536Y00953506
X00735326Y00922982
X00726Y009215
X00721Y009265
X00715059Y00922831
X00692308Y00919081
X00705Y008935
Y008875
X007125
X007265Y008945
X0073781Y0089308
X0074Y008865
X0075Y0089575
X00774562Y00886829
X0078025Y0089075
X0077Y00850526
X0076
X0075
Y00840526
Y00830526
X0074
Y00820526
X0075
Y00810526
X0076
X0077
Y00820526
X0076
Y00830526
X0077
X0078
Y00820526
Y00840526
X0077
X0076
X0074
X006995Y00821526
Y00814526
X00695224Y00790526
X007145Y007925
Y00787605
Y007975
X00739Y00738276
X00735326Y00697982
X00726Y006965
X00721Y007015
X00715059Y00697831
X00692308Y00694081
X00705Y006685
Y006625
X007125
X007265Y006695
X0073781Y0066808
X0074Y006615
X0075Y0067075
X00774562Y00661829
X0078025Y0066575
X00805Y0067025
X008105Y0066625
X00815314Y0067108
X008245Y0068325
X0082175Y0069925
X00837868Y0069359
X008482Y0068359
X00861868Y0069859
X0088Y0069
X0088036Y00684266
X008956Y00679186
X00895Y0069
X0090275Y006505
X009139Y0065735
X00924Y0065825
X00919Y0066375
X00924302Y0064007
X0093382Y00641578
X00944Y006415
X0095375Y0063875
X00959Y006435
X0097325Y0064325
X0098025Y00643078
X00996946Y00649468
X01013202Y00649976
X01018028Y006546
X01019044Y0063499
X01046476Y00631942
X01051302Y00669026
X01041142
X0103325
X01015968Y00685
X00999486Y00669026
X0098878Y00670472
X00988121Y00664371
X0096875Y0067825
X00965285Y00692606
X00949076Y00686955
X00947785Y00677606
X00952786Y00717605
X0095Y00735
X009425
X00895346Y00751532
X008899Y007945
X008495Y00813
Y00833
X00851Y008465
X00949194Y00910282
X00965286Y00910105
X00967915Y00903585
X009585Y00902016
X00984333Y00895
X00984382Y00889647
X00999486Y00894026
X01Y00925
X00991748Y00926477
X00983874
X01015968Y0091
X0103325Y00894026
X01041142
X01051302
X01046476Y0091714
X01062786Y00917605
X01067786Y00920105
Y00915105
Y00927605
X01062786Y00925105
X01062868Y00930795
X01076Y009315
X01052786Y00942605
X01070286Y00880105
X01046476Y00856942
X01038094Y00839924
X010382Y00811222
X01052572Y00822144
X01053588Y0079649
X01070286Y00777605
X010664Y00720526
X010714Y00715526
X010764Y00710526
X01057786Y00717605
X010475Y006975
X01046476Y0069214
X009975Y007
X0098878Y00700105
X00982786
X01070286Y00657605
X009085Y00638
X0090875Y00628
X0087515Y0065035
X008585Y00659
Y006415
X00826974Y00645526
X00826Y006565
X00798826Y0070357
X0078075Y0070375
X0077025
X00774868Y0071059
X00765286Y00717605
X00933192Y00935726
X00947786Y00942605
X010985Y009315
X011185Y008915
X011285
X011335Y008865
Y008765
X011285Y008815
X011235Y008865
X011185Y008815
X01122868Y0087659
X011185Y008715
X011285
X011385
Y008815
Y008915
X01135Y008465
X01126Y008465
X01121Y008415
X011135Y008465
X01101
X01096Y00839
X01101Y008315
X011035Y0085975
X011539Y00845526
X011514Y00838026
X011439Y00833026
X011364Y00825526
X011589Y00818026
X011839Y00813026
X011889Y00808026
X011964Y00805526
X011939Y00798026
X012039Y00795526
X012089Y00790526
Y00783026
X012114Y00775526
Y00765526
X0121Y00726499
X012375Y007265
X01236399Y00713026
X01241399Y00708026
X012375Y006965
X0125Y00689
X012564Y00715526
X01251742Y00724
X012375Y00741499
X01211865Y00695865
X01177784Y00697606
X01177786Y00704412
X011814Y00723026
X011539Y00678026
X011489Y00670526
X011389Y00668026
X011414Y00675526
X011314Y00653026
X011364Y00645526
X011214Y00640526
X011039Y00655526
X01100286Y00702605
X01092786Y00700105
X011589Y00660136
X012364Y00660526
X012514Y00655526
X01258899Y00653026
X012639Y00648026
X012839
X01296399Y00638026
X012925Y006865
X013275Y006965
X01335Y00684
X013675Y006865
X013835Y00699
X013885Y00704209
X01400999Y007065
X014139Y00723026
X014189Y00718026
X014214Y00730526
X01425Y007465
X014025
X01400999Y007365
X014089Y00755526
X014039Y00765526
X01425Y007765
X014225Y00789
X0145Y007815
X01455286Y007865
X01462786Y007565
X01457786Y007515
X0146Y007365
X014564Y00728026
X014514Y00710526
X01450286Y00697605
X0143Y006865
X014325Y00674
X014264Y00663026
X014389Y00658026
X01451Y00664208
X014064Y00653026
X013889Y00640526
X014125Y00684
X013625Y00744
X013714Y00760526
X013575Y00771026
X013389Y00754584
Y0074806
X01308899Y00738026
X013089Y00729641
X01295Y007765
X012925Y0079575
X0133Y007815
X01365Y00799
X013689Y00873026
X013889Y00870526
X014225Y008765
X01425Y00864
X0145Y008215
X013514Y00865526
X01337Y00857
X013275Y00874
X0135Y00899
X01363976Y00935726
X01371088Y00954776
X013782Y00956554
X01383026Y00961126
X01357626Y00956554
X01344164Y00951474
X01338068Y00956046
X01332734Y00950966
X0132359Y00948934
X01315716Y00950458
X01313684Y009436
X01305302Y00946648
X01303016Y00939536
X01293872Y00941314
X0126Y00874
X012575Y008565
X012375Y00859
X01235Y008315
X0126
X01238Y008915
X012139Y00875526
X012039Y00863026
X011989Y00858026
X011939Y00853026
X01166Y008565
X011735Y00874
X011625Y009215
X012239Y00635526
X012289Y00630526
X01520286Y00675105
X01545286Y00682605
X01547786Y00705105
X01545286Y00725105
Y00742605
Y00762605
Y00782605
X01542786Y00805105
X01546602Y00811774
X01556254Y00813044
X01563366Y00813806
X01570224Y00817108
X01576574Y00820156
X01578606Y00827268
X01579368Y00834126
X0157886Y00841492
X01515286Y00862605
X01490286Y00882605
Y00907605
Y00932605
Y00957605
X015039Y00763026
Y00743026
Y00728026
X015014Y00715526
Y00705526
T02
X00349Y0028925
Y0029925
Y0030925
X00359998Y00308997
X00369Y0030925
Y0029925
X00359998Y00298997
Y00288997
X00369Y0028925
X003265Y0031675
X00329Y0032425
X003265Y0033175
X0045575Y0032155
Y0029945
Y0046945
Y0049155
X00369Y0047925
X00359998Y00478997
Y00468997
X00369Y0046925
Y0045925
X00359998Y00458997
X00349Y0045925
Y0046925
Y0047925
X003265Y0048675
X00329Y0049425
X003265Y0050175
X00271Y00494
Y004865
X00251
Y00494
Y005265
Y00534
X00271
Y00524
Y00364
Y00354
X00251Y003565
Y00364
Y00324
Y003165
X00271
Y00324
Y006565
Y00664
X00251
Y006565
Y006965
Y00704
X00271
Y00694
Y008265
Y00834
X00251
Y008265
Y008665
Y00874
X00271
Y00864
X003265Y0084175
X00329Y0083425
X003265Y0082675
X00349Y0081925
Y0080925
Y0079925
X00359Y0079925
Y0080925
Y0081925
X00369
Y0080925
Y0079925
X0045575Y0080945
Y0083155
Y0066155
Y0063945
X00369Y0063925
X00359998Y00638997
Y00628997
X00369Y0062925
Y0064925
X00359998Y00648997
X00349Y0064925
Y0063925
Y0062925
X003265Y0065675
X00329Y0066425
X003265Y0067175
T03
X0019304Y00121158
X0021844
Y00146558
X0019304
X0020574Y00133858
T04
X000198Y000923
X000452
Y001177
X000198
Y002623
X000452
Y002877
X000198
Y004323
X000452
Y004577
X000198
Y006023
X000452
Y006277
X000198
Y007723
X000452
Y007977
X000198
T05
X0134377Y00202308
X0136917
Y00227708
X0134377
X01530801Y002266
X01556201
Y002012
X01530801
Y00252
Y002774
Y003028
X01556201
Y002774
Y00252
Y003282
Y003536
Y00379
Y004044
Y004298
X01530801
Y004044
Y00379
Y003536
Y003282
Y004552
Y004806
Y00506
Y005314
Y005568
X01556201
Y005314
Y00506
Y004806
Y004552
X0136917Y00456308
X0134377
Y00481708
X0136917
Y00507108
X0134377
Y00532508
X0136917
Y00557908
X0134377
Y00430908
Y00405508
Y00380108
Y00354708
Y00329308
X0136917
Y00354708
Y00380108
Y00405508
Y00430908
Y00303908
Y00278508
Y00253108
X0134377
Y00278508
Y00303908
T06
X000325Y00185
Y00355
Y00525
Y00695
Y00865
T07
X000071Y001596
Y002104
X000579
Y001596
Y003296
X000071
Y003804
X000579
Y004996
Y005504
X000071
Y004996
Y006696
Y007204
X000579
Y006696
Y008396
Y008904
X000071
Y008396
T08
X0003556Y00055118
Y00944118
T09
X00284Y00076
X00584
X00284Y00926
X00584
T10
X015435Y00694
Y00794
M30
